<svg width="362" height="257" viewBox="0 0 362 257" fill="none" xmlns="http://www.w3.org/2000/svg">
<path d="M39.6088 74.528L-8.28467 74.4513C-8.28467 74.4513 -5.9012 71.3496 -3.27174 70.966C-3.27174 70.966 1.856 55.7371 10.3949 55.622C18.338 55.5343 21.5087 65.0092 21.5087 65.0092C21.5087 65.0092 25.1987 60.7677 28.7137 62.7186C32.2288 64.6695 34.2132 70.2317 34.2132 70.2317C34.2132 70.2317 38.1765 72.3689 39.6088 74.528Z" fill="#EBEBEB"/>
<path d="M99.0533 85.2524L159.619 85.3455C159.619 85.3455 159.619 81.4657 151.282 80.693C151.282 80.693 143.689 63.705 132.056 65.9902C124.812 67.3985 121.095 77.3612 121.095 77.3612C121.095 77.3612 115.628 69.5083 111.255 71.0153C106.882 72.5223 104.263 80.8793 104.263 80.8793C104.263 80.8793 99.764 83.0604 99.0533 85.2524Z" fill="#EBEBEB"/>
<path d="M67.0897 41.9275L108.27 41.9932C108.27 41.9932 104.389 38.36 102.661 38.36C100.934 38.36 95.91 26.1725 89.4703 26.6821C83.0305 27.1918 79.5975 36.2502 79.5975 36.2502C79.5975 36.2502 71.7692 33.7787 67.0897 41.9275Z" fill="#EBEBEB"/>
<path d="M161.986 54.6466L197.202 54.7014C197.202 54.7014 195.458 52.4162 193.528 52.1258C193.528 52.1258 189.789 40.9137 183.502 40.826C177.659 40.7438 175.302 47.7034 175.302 47.7034C175.302 47.7034 172.596 44.5743 170.011 45.9991C167.425 47.4239 165.954 51.512 165.954 51.512C165.954 51.512 163.046 53.0793 161.986 54.6466Z" fill="#EBEBEB"/>
<path d="M338.182 98.7606C338.207 114.435 333.256 129.71 324.045 142.376C316.599 152.643 306.65 160.824 295.149 166.136C283.648 171.447 270.98 173.712 258.357 172.713C245.733 171.715 233.576 167.486 223.049 160.432C212.521 153.378 203.975 143.735 198.228 132.424C192.481 121.113 189.724 108.513 190.223 95.8288C190.721 83.145 194.458 70.8014 201.075 59.9788C207.692 49.1561 216.969 40.2163 228.017 34.0144C239.066 27.8124 251.517 24.5558 264.179 24.5559C266.208 24.5559 268.219 24.6326 270.193 24.797C281.658 25.7165 292.747 29.3183 302.572 35.3131C310.154 39.9395 316.849 45.8897 322.339 52.882C332.621 65.9436 338.207 82.1002 338.193 98.7386L338.182 98.7606Z" fill="#EBEBEB"/>
<path d="M280.153 133.778C279.224 136.271 280.776 136.375 280.88 137.416C280.984 138.458 280.88 140.425 277.873 143.444C274.867 146.464 269.892 145.834 268.859 147.083C267.826 148.333 266.06 153.626 263.573 155.396C261.085 157.166 260.67 156.12 257.144 156.849C253.618 157.577 250.923 162.148 249.89 164.329C248.856 166.51 250.097 170.149 247.61 170.253C245.123 170.357 243.98 164.953 241.701 162.033C239.421 159.112 238.694 156.525 237.967 153.1C237.24 149.675 238.382 142.502 237.967 139.696C237.551 136.89 230.089 131.904 227.394 128.473C224.699 125.043 220.96 118.193 221.179 115.907C221.495 113.69 222.597 111.661 224.284 110.192C225.53 109.255 225.011 108.74 225.219 107.907C225.426 107.074 226.465 106.865 226.673 105.83C226.88 104.794 226.049 101.67 225.033 101.15C224.016 100.629 223.272 102.399 222.649 102.087C222.026 101.775 220.162 99.5935 219.435 99.3853C218.708 99.177 218.921 100.739 217.882 98.7606C216.844 96.7823 216.308 91.801 215.493 90.968C214.679 90.135 214.039 92.4257 212.071 90.968C210.103 89.5103 209.272 86.71 208.447 86.2936C207.621 85.8771 206.473 86.3977 205.621 84.7372C204.768 83.0768 206.369 80.0573 205.621 80.3532C204.872 80.6492 203.264 83.0549 202.849 80.7697C202.433 78.4846 204.921 70.7961 204.489 66.6423C204.057 62.4884 205.528 58.1209 208.43 54.5863C208.43 54.5863 208.84 52.3011 209.256 50.8489C209.671 49.3967 218.587 43.5715 219.643 41.911C220.074 41.2151 220.222 40.13 220.375 38.9573C233.068 29.5803 248.428 24.5343 264.196 24.5614C266.224 24.5614 268.236 24.6381 270.209 24.8025C270.275 24.8956 270.346 24.9888 270.417 25.0765C271.313 26.2218 272.281 26.9506 274.911 27.9206C277.54 28.8906 278.152 30.1126 277.606 31.1757C277.059 32.2388 276.151 32.4197 275.118 32.4909C274.085 32.5622 273.112 32.0032 272.008 32.6992C270.903 33.3951 269.821 37.1325 268.345 37.3407C266.869 37.549 264.338 34.0144 263.78 32.9567C263.223 31.8991 265.027 29.7016 264.179 28.6659C263.332 27.6302 261.851 27.8329 259.5 27.6247C257.149 27.4164 251.688 28.3206 251.896 29.2194C252.104 30.1181 259.91 29.0769 260.096 30.8634C260.282 32.6498 254.361 35.7132 253.328 35.4337C252.295 35.1542 250.923 33.428 249.387 33.1978C247.851 32.9677 246.653 34.239 245.669 34.376C244.685 34.513 243.587 33.3403 242.132 33.6143C240.678 33.8883 240.334 35.1378 239.574 35.6255C238.814 36.1132 237.021 36.1077 236.813 37.2147C236.606 38.3216 239.093 38.9518 239.716 39.6423C240.339 40.3328 238.951 42.6892 239.574 43.1714C240.197 43.6537 244.068 40.267 245.041 39.4341C246.014 38.6011 246.834 35.0008 248.911 35.0501C250.988 35.0994 251.672 38.6504 252.366 38.9957C253.06 39.3409 254.553 38.1627 256.86 38.6504C259.167 39.1382 260.725 44.1304 261.14 45.6484C261.555 47.1664 262.523 48.6953 261.687 49.32C260.85 49.9447 257.127 48.9035 256.646 47.9336C256.165 46.9636 259.134 45.5059 258.926 45.1607C258.718 44.8154 256.991 44.3277 256.089 44.8702C255.187 45.4128 254.777 46.5471 253.809 46.8266C252.842 47.1061 250.289 44.1907 249.594 45.0237C248.9 45.8566 250.289 48.487 250.977 49.1118C251.666 49.7365 254.225 50.0762 254.432 50.7558C254.64 51.4353 252.705 52.9478 250.354 52.8327C248.004 52.7176 246.074 50.8928 245.172 51.6545C244.27 52.4162 244.756 54.4274 244.133 55.1178C243.51 55.8083 240.126 55.3261 238.47 57.129C236.813 58.9319 236.053 61.6281 234.392 63.157C232.73 64.6859 231.975 62.746 229.761 64.8942C227.547 67.0423 227.208 71.8209 227.137 73.4813C227.066 75.1418 227.137 76.457 226.591 76.2213C226.044 75.9857 225.279 74.5773 225.071 73.6622C224.863 72.747 225.552 71.2345 225.552 70.681C225.552 70.1276 222.376 67.2889 220.506 67.0094C218.637 66.73 216.986 68.2589 215.586 69.3658C214.187 70.4728 211.716 70.27 210.819 71.1688C209.923 72.0675 209.229 80.0354 209.917 81.9041C210.606 83.7728 211.508 83.7728 213.744 82.8028C215.98 81.8328 214.712 79.9642 216.024 80.3806C216.613 80.6031 217.121 81.0012 217.479 81.5213C217.837 82.0414 218.027 82.6588 218.024 83.2905C218.024 84.3865 215.4 87.0279 215.745 87.7896C216.089 88.5513 218.374 87.6526 219.479 87.9978C220.583 88.3431 221.119 89.039 220.791 91.8777C220.463 94.7163 220.654 96.9357 222.31 97.8728C223.967 98.8099 224.901 96.5192 225.629 96.8316C226.356 97.144 227.389 98.8044 228.427 98.7003C229.466 98.5962 228.947 97.6646 230.915 97.0563C232.883 96.448 232.156 96.0151 232.555 94.7711C232.954 93.5272 234.195 92.486 235.561 93.1271C236.928 93.7683 235.977 94.6889 236.108 95.7246C236.239 96.7603 238.595 96.8699 240.481 97.4947C242.367 98.1194 243.384 97.4947 247.118 98.7386C250.852 99.9826 251.054 103.725 252.612 104.35C254.17 104.975 259.347 103.934 263.081 106.635C266.814 109.337 265.776 114.307 267.64 115.781C269.504 117.256 276.452 119.212 279.12 119.727C281.788 120.242 282.225 118.379 284.406 118.9C286.587 119.42 287.823 120.039 288.55 123.053C289.189 125.728 281.093 131.284 280.153 133.778Z" fill="#DBDBDB"/>
<path d="M224.459 80.6492C224.53 81.2355 226.257 81.4821 228.329 82.6548C230.401 83.8276 231.161 87.2964 232.265 87.2306C233.369 87.1649 233.025 85.5866 233.44 85.1482C233.856 84.7098 234.534 83.833 233.44 82.9562C232.347 82.0794 231.254 80.1176 229.242 79.8381C227.23 79.5586 226.875 78.7421 225.962 78.8024C225.736 78.8075 225.514 78.8616 225.311 78.961C225.108 79.0605 224.929 79.2029 224.786 79.3784C224.643 79.5539 224.54 79.7584 224.483 79.9778C224.427 80.1972 224.418 80.4262 224.459 80.6492Z" fill="#DBDBDB"/>
<path d="M235.862 86.4689C235.551 87.3183 235.862 87.9211 238.049 88.4746C240.235 89.0281 242.335 87.9266 241.646 87.4718C240.957 87.0169 239.918 87.2306 240.328 86.4689C240.738 85.7072 240.602 84.5948 238.809 84.8249C237.016 85.0551 236.135 85.7072 235.862 86.4689Z" fill="#DBDBDB"/>
<path d="M243.597 86.7046C242.849 86.8142 242.428 88.1294 243.187 88.9623C243.947 89.7953 243.947 89.6528 244.827 88.9623C245.708 88.2718 247.107 87.9211 246.763 87.2306C246.418 86.5402 244.363 86.584 243.597 86.7046Z" fill="#DBDBDB"/>
<path d="M249.611 89.5323C249.95 88.4965 251.683 89.5323 252.443 90.6283C253.202 91.7243 252.858 93.3299 252.443 94.5081C252.027 95.6863 251.754 97.0727 250.803 96.5193C249.851 95.9658 250.874 94.2998 250.731 93.3299C250.589 92.3599 249.337 90.3817 249.611 89.5323Z" fill="#DBDBDB"/>
<path d="M279.393 31.7456C279.032 32.617 280.705 32.9238 281.673 33.4773C282.64 34.0308 283.4 34.376 283.952 33.4773C284.505 32.5786 283.745 31.5374 282.985 31.3292C282.225 31.1209 279.738 30.9127 279.393 31.7456Z" fill="#DBDBDB"/>
<path d="M292.453 39.8506C293.093 40.5246 294.181 40.3986 294.94 41.374C295.7 42.3494 295.427 44.0044 296.395 44.4921C297.362 44.9798 298.035 44.4921 298.122 43.7962C298.209 43.1002 296.739 41.374 296.876 41.0562C297.012 40.7383 298.882 41.5384 299.297 42.5796C299.713 43.6208 298.882 45.073 299.844 45.3196C300.806 45.5662 300.604 44.3496 301.019 44.0756C301.435 43.8016 302.331 43.9332 302.26 43.1057C302.189 42.2782 301.085 40.4698 300.188 39.8506C299.292 39.2313 298.598 38.5354 297.078 38.2066C295.558 37.8778 294.109 38.1408 293.344 38.7546C292.579 39.3683 292.059 39.456 292.453 39.8506Z" fill="#DBDBDB"/>
<path d="M322.35 52.9039C322.309 53.1845 322.172 53.4421 321.962 53.6328C320.508 54.674 318.78 51.0681 316.78 50.3776C314.779 49.6872 313.893 47.128 313.461 47.676C313.03 48.224 313.183 48.9912 312.559 49.868C311.936 50.7448 311.04 50.564 310.63 52.2956C310.22 54.0273 312.559 57.2276 312.013 58.2524C311.466 59.2772 310.766 58.9429 309.657 58.8771C308.547 58.8114 308.76 59.7758 307.311 59.3594C305.863 58.9429 307.104 57.1674 304.824 54.9754C302.544 52.7834 301.779 52.4107 302.271 51.4408C302.763 50.4708 302.058 49.0898 303.097 48.9474C304.135 48.8049 304.961 50.3338 305.65 50.7503C306.338 51.1668 307.24 49.9173 307.29 48.8104C307.339 47.7034 304.868 46.18 303.971 45.3196C303.075 44.4592 303.004 41.3302 303.348 40.7054C303.692 40.0807 304.731 40.289 304.988 38.7655C305.147 37.8723 303.736 36.3762 302.539 35.2912C310.141 39.9264 316.851 45.8919 322.35 52.9039Z" fill="#DBDBDB"/>
<path d="M332.671 115.009C332.879 112.789 331.775 112.652 332.879 108.564C333.983 104.476 331.704 100.114 330.873 99.2154C330.042 98.3167 328.249 98.5907 326.795 99.4894C325.34 100.388 326.385 101.084 325.412 101.429C324.439 101.775 323.482 101.221 322.58 101.292C321.678 101.364 320.852 103.643 318.917 103.577C316.982 103.512 315.741 100.739 314.292 98.7606C312.844 96.7823 309.864 95.5438 308.902 93.1162C307.94 90.6885 309.799 86.9512 309.383 84.1125C308.968 81.2739 307.104 81.8931 306.759 80.2765C306.415 78.6599 307.033 79.4436 307.519 77.9201C308.006 76.3967 306.972 75.5637 307.935 72.9333C308.897 70.3029 310.63 68.9822 310.214 67.8095C309.799 66.6368 308.487 64.6914 308.416 63.3104C308.345 61.9295 309.728 61.9898 312.352 60.0224C314.976 58.0551 315.67 58.2195 317.676 58.9264C319.114 59.4622 320.593 59.88 322.099 60.1759C323.274 60.3841 324.865 63.431 325.346 63.294C325.827 63.157 325.893 62.2528 326.106 60.9376C326.238 60.3651 326.539 59.8457 326.97 59.447C334.769 71.9858 338.656 86.5728 338.135 101.34C337.614 116.107 332.708 130.382 324.045 142.338C331.097 131.591 332.48 117.223 332.671 115.009Z" fill="#DBDBDB"/>
<path d="M219.736 56.6468L219.615 56.2522L220.162 56.0988L220.277 56.4933L219.736 56.6468Z" fill="#C7C7C7"/>
<path d="M317.671 72.9991L316.878 72.2374L317.162 71.9414L317.955 72.7086L317.671 72.9991ZM316.08 71.4866L315.265 70.7523L315.539 70.4454C315.812 70.6865 316.085 70.9331 316.359 71.1852L316.08 71.4866ZM314.44 70.0289L313.604 69.3165L313.866 68.9987L314.708 69.7166L314.44 70.0289ZM312.751 68.6206C312.467 68.3904 312.204 68.1602 311.893 67.9356L312.144 67.6122L313.008 68.2972L312.751 68.6206ZM311.018 67.267L310.138 66.6149L310.378 66.2806L311.264 66.9382L311.018 67.267ZM309.247 65.9737L308.339 65.3435L308.574 65.0038L309.482 65.634L309.247 65.9737ZM307.432 64.7352C307.12 64.5325 306.814 64.3297 306.508 64.1379L306.727 63.7872L307.656 64.39L307.432 64.7352ZM305.573 63.5516L304.633 63.0036L304.846 62.6474L305.792 63.1954L305.573 63.5516ZM303.687 62.4556L302.73 61.9076L302.927 61.5459L303.889 62.0939L303.687 62.4556ZM301.757 61.376L300.784 60.8664L300.97 60.5047C301.298 60.6691 301.626 60.839 301.949 61.0143L301.757 61.376ZM299.8 60.3732C299.472 60.2088 299.144 60.0498 298.816 59.8964L298.991 59.5238L299.986 60.006L299.8 60.3732ZM297.821 59.4306L296.815 58.9758L296.985 58.6031L297.991 59.0525L297.821 59.4306ZM295.81 58.5428C295.471 58.3949 295.132 58.2579 294.793 58.1209L294.951 57.7373C295.29 57.8761 295.629 58.0186 295.968 58.1647L295.81 58.5428ZM293.776 57.7099L292.754 57.3208L292.901 56.9372L293.929 57.3318L293.776 57.7099ZM291.731 56.9427L290.693 56.5755L290.829 56.1864L291.868 56.5536L291.731 56.9427ZM289.66 56.2248L288.615 55.8905L288.741 55.496L289.785 55.8357L289.66 56.2248ZM221.326 56.2248L221.217 55.8302L222.283 55.5398L222.387 55.9398L221.326 56.2248ZM223.453 55.6768L223.354 55.2768L224.448 55.0137L224.546 55.4138L223.453 55.6768ZM287.588 55.6001L286.533 55.2877L286.647 54.8932L287.703 55.2055L287.588 55.6001ZM225.596 55.1617L225.503 54.7616L226.596 54.515L226.684 54.9151L225.596 55.1617ZM285.467 54.948C285.111 54.8548 284.761 54.7562 284.406 54.6685L284.51 54.2684L285.571 54.5534L285.467 54.948ZM227.722 54.6356L227.64 54.2356L228.734 54.0054L228.816 54.4109L227.722 54.6356ZM283.346 54.3945L282.252 54.1369L282.345 53.7369C282.701 53.8246 283.061 53.9068 283.439 53.9999L283.346 54.3945ZM229.882 54.1917L229.8 53.7862L230.893 53.578L230.969 53.9835L229.882 54.1917ZM281.214 53.8958L280.12 53.6602L280.208 53.2601L281.301 53.4958L281.214 53.8958ZM232.014 53.7807L231.943 53.3752L233.036 53.1834L233.101 53.5889L232.014 53.7807ZM279.027 53.441L277.934 53.2327L278.01 52.8272C278.371 52.8984 278.732 52.9642 279.103 53.0409L279.027 53.441ZM234.2 53.4026L234.129 52.9971L235.223 52.8162L235.283 53.2218L234.2 53.4026ZM236.387 53.0574L236.327 52.6464L237.42 52.4874L237.475 52.893L236.387 53.0574ZM276.906 53.0574L275.813 52.8765L275.878 52.471L276.971 52.6518L276.906 53.0574ZM238.568 52.7614L238.508 52.3559L239.601 52.208L239.651 52.619L238.568 52.7614ZM274.736 52.7012L273.642 52.5422L273.702 52.1367L274.796 52.2956L274.736 52.7012ZM240.749 52.482L240.695 52.06L241.788 51.934L241.837 52.3395L240.749 52.482ZM272.56 52.3943L271.467 52.2573L271.516 51.8518L272.609 51.9888L272.56 52.3943ZM242.936 52.2299L242.892 51.8244L243.986 51.7093L244.024 52.1203L242.936 52.2299ZM270.379 52.1312L269.285 52.0162L269.324 51.6052L270.417 51.7202L270.379 52.1312ZM245.123 52.0162L245.09 51.6052L246.183 51.512L246.216 51.9175L245.123 52.0162ZM268.187 51.912L267.093 51.8189L267.126 51.4079L268.219 51.501L268.187 51.912ZM247.315 51.8298L247.287 51.4243L248.381 51.3421L248.408 51.7531L247.315 51.8298ZM265.994 51.7367L264.901 51.6654V51.2544L265.994 51.3257V51.7367ZM249.512 51.6819L249.485 51.2709L250.578 51.2106V51.6216L249.512 51.6819ZM263.802 51.5997L262.709 51.5504V51.1394L263.802 51.1942V51.5997ZM251.71 51.5668V51.1558L252.803 51.112V51.523L251.71 51.5668ZM261.605 51.512C261.24 51.512 260.876 51.501 260.511 51.4791V51.0681C260.878 51.0681 261.249 51.0681 261.605 51.101V51.512ZM253.908 51.512V51.101H255.001V51.512H253.908ZM259.407 51.4791H258.314V51.0681H259.407V51.4791ZM256.127 51.4791V51.0188H257.22V51.4298L256.127 51.4791Z" fill="#C7C7C7"/>
<path d="M318.868 74.2102L318.491 73.8211L318.781 73.5306L319.163 73.9252L318.868 74.2102Z" fill="#C7C7C7"/>
<path d="M236.349 101.331C236.31 101.134 236.293 100.934 236.299 100.733H236.709C236.703 100.901 236.716 101.068 236.748 101.232L236.349 101.331Z" fill="#C7C7C7"/>
<path d="M236.748 99.6483H236.338C236.338 99.3524 236.376 99.0236 236.398 98.6619V98.5468L236.808 98.5742V98.6838C236.813 99.0236 236.764 99.3524 236.748 99.6483ZM236.884 97.4563L236.474 97.4289C236.474 97.0837 236.518 96.722 236.54 96.3329H236.945C236.928 96.7439 236.906 97.1111 236.884 97.4563ZM236.999 95.2643H236.589C236.589 94.9136 236.589 94.5464 236.622 94.1683H237.032C237.027 94.5355 237.01 94.9026 236.999 95.2588V95.2643ZM237.054 93.0723H236.644C236.644 92.7928 236.644 92.5243 236.644 92.2229V91.9763H237.054V92.2229C237.059 92.4859 237.059 92.7709 237.054 93.0504V93.0723ZM236.638 90.8803C236.638 90.5241 236.638 90.1569 236.606 89.7843H237.016C237.016 90.1624 237.016 90.5296 237.048 90.8803H236.638ZM236.556 88.6883C236.556 88.3321 236.513 87.9649 236.485 87.5923L236.895 87.5594C236.923 87.9321 236.945 88.2992 236.966 88.6554L236.556 88.6883ZM236.392 86.4963C236.36 86.1401 236.321 85.7784 236.283 85.4003L236.688 85.351C236.731 85.7236 236.77 86.0853 236.802 86.447L236.392 86.4963ZM236.146 84.3043C236.103 83.9481 236.048 83.5864 235.993 83.2083L236.398 83.148C236.453 83.5152 236.507 83.8769 236.556 84.244L236.146 84.3043ZM235.813 82.1123C235.747 81.7561 235.676 81.3999 235.605 81.0163L236.01 80.9341C236.081 81.2958 236.152 81.6575 236.212 82.0301L235.813 82.1123ZM235.376 79.9696C235.299 79.6134 235.212 79.2572 235.124 78.901L235.523 78.8024C235.611 79.1641 235.698 79.5203 235.78 79.8984L235.376 79.9696ZM234.829 77.8434C234.731 77.4982 234.627 77.1474 234.523 76.7967L234.911 76.6762C235.02 77.0269 235.124 77.3831 235.223 77.7338L234.829 77.8434ZM234.189 75.7555C234.073 75.4121 233.952 75.0669 233.829 74.7198L234.217 74.5773C234.342 74.928 234.463 75.2733 234.577 75.624L234.189 75.7555ZM233.44 73.7005C233.309 73.3608 233.173 73.021 233.025 72.6867L233.402 72.5278C233.55 72.8676 233.686 73.2073 233.823 73.5471L233.44 73.7005ZM232.582 71.6894C232.429 71.3606 232.276 71.0318 232.112 70.703L232.478 70.5166C232.642 70.8509 232.801 71.1852 232.954 71.514L232.582 71.6894ZM231.609 69.733C231.44 69.4152 231.265 69.0918 231.062 68.774L231.418 68.5712C231.604 68.8946 231.784 69.2124 231.964 69.5357L231.609 69.733ZM230.516 67.8369C230.324 67.53 230.133 67.2232 229.931 66.9163L230.275 66.6916C230.477 66.9985 230.674 67.3108 230.866 67.6232L230.516 67.8369ZM229.313 66.0121C229.105 65.7162 228.892 65.4257 228.673 65.1298L229.001 64.8832C229.226 65.1791 229.439 65.475 229.652 65.7764L229.313 66.0121ZM228.007 64.2694C227.777 63.9845 227.547 63.7214 227.312 63.4255L227.624 63.1625C227.864 63.442 228.094 63.7105 228.324 64.0119L228.007 64.2694ZM226.591 62.6254C226.345 62.3569 226.099 62.0774 225.842 61.8254L226.137 61.5404C226.396 61.8071 226.647 62.0756 226.891 62.346L226.591 62.6254ZM225.071 61.0527C224.814 60.8006 224.552 60.554 224.278 60.3074L224.557 60.0005L225.361 60.7568L225.071 61.0527ZM223.464 59.5786C223.19 59.3429 222.917 59.1128 222.627 58.8771L222.89 58.5593C223.174 58.7949 223.436 59.0306 223.732 59.2662L223.464 59.5786ZM221.775 58.2031C221.485 57.9839 221.195 57.7647 220.894 57.551L221.135 57.2167L222.021 57.8743L221.775 58.2031Z" fill="#C7C7C7"/>
<path d="M220.014 56.9262L219.561 56.6194L219.79 56.2796L220.244 56.5865L220.014 56.9262Z" fill="#C7C7C7"/>
<path d="M237.508 98.903L237.207 98.6236C237.207 98.6236 237.333 98.4811 237.584 98.2235L237.879 98.5085C237.633 98.7606 237.513 98.8976 237.508 98.903Z" fill="#C7C7C7"/>
<path d="M238.656 97.7303L238.366 97.4344L239.169 96.6672L239.454 96.9631L238.656 97.7303ZM240.263 96.2178L239.989 95.911C240.246 95.6753 240.536 95.4287 240.82 95.1712L241.088 95.4835C240.799 95.7411 240.52 95.9822 240.263 96.2178ZM241.903 94.7602L241.64 94.4478C241.914 94.2176 242.187 93.9765 242.493 93.7354L242.75 94.0532L241.903 94.7602ZM243.608 93.3573L243.352 93.034L244.226 92.3435L244.478 92.6723C244.199 92.9024 243.92 93.16 243.63 93.3573H243.608ZM245.352 91.9982L245.106 91.6694C245.391 91.4502 245.691 91.231 245.992 91.0064L246.238 91.3352C245.954 91.5598 245.658 91.779 245.374 91.9982H245.352ZM247.129 90.683L246.888 90.3487L247.796 89.7076L248.031 90.0474L247.129 90.683ZM248.938 89.4172L248.709 89.0774L249.627 88.4582L249.851 88.8034C249.562 89.0062 249.261 89.2144 248.96 89.4172H248.938ZM250.775 88.1951L250.557 87.8499L251.491 87.2526L251.71 87.6033L250.775 88.1951ZM252.645 87.0169L252.432 86.6717L253.383 86.1237L253.591 86.4744L252.645 87.0169ZM254.542 85.888L254.334 85.5318L255.302 84.9838L255.498 85.34L254.542 85.888ZM256.466 84.792L256.269 84.4304L257.242 83.8824L257.434 84.244L256.466 84.792ZM258.412 83.7508L258.221 83.3837L259.21 82.8795L259.396 83.2467C259.085 83.422 258.757 83.5919 258.434 83.7618L258.412 83.7508ZM260.38 82.7535L260.2 82.3863L261.2 81.9041L261.375 82.2767L260.38 82.7535ZM262.375 81.8054L262.206 81.4328L263.212 80.9725L263.381 81.3506L262.375 81.8054ZM264.393 80.9067L264.229 80.5286L265.245 80.0902L265.404 80.4738L264.393 80.9067ZM266.426 80.0518L266.273 79.6682L267.301 79.2572L267.449 79.6408L266.426 80.0518ZM268.482 79.2463L268.334 78.8572L269.373 78.4736L269.515 78.8572C269.187 78.9942 268.843 79.1257 268.52 79.2572L268.482 79.2463ZM270.554 78.4846L270.417 78.0955L271.467 77.7338L271.598 78.1229L270.554 78.4846ZM272.642 77.7776L272.516 77.3831L273.571 77.0488L273.692 77.4379L272.642 77.7776ZM274.747 77.1146L274.632 76.72L275.692 76.4076L275.807 76.8022L274.747 77.1146ZM276.868 76.5008L276.758 76.1062L277.852 75.8158L277.955 76.2158L276.868 76.5008ZM279 75.9528L278.901 75.5527L279.995 75.2897L280.087 75.6897C279.738 75.7719 279.377 75.8596 279.021 75.9528H279ZM281.148 75.4377L281.055 75.0376L282.148 74.7965L282.236 75.202L281.148 75.4377ZM283.335 74.9774L283.253 74.5718L284.346 74.3581L284.423 74.7636C284.047 74.8294 283.683 74.9006 283.329 74.9774H283.335ZM285.521 74.5609L285.45 74.1554L286.544 73.969L286.609 74.3746L285.521 74.5609ZM287.708 74.1992L287.648 73.7937L288.741 73.6293L288.801 74.0348L287.708 74.1992ZM317.387 74.0348L316.293 73.8923L316.348 73.4813L317.441 73.6293L317.387 74.0348ZM289.84 73.8868L289.785 73.4758L290.879 73.3388L290.928 73.7498L289.84 73.8868ZM315.145 73.7553L314.052 73.6347L314.096 73.2292L315.189 73.3498L315.145 73.7553ZM292.027 73.6238L291.983 73.2128L293.076 73.0977L293.115 73.5087L292.027 73.6238ZM312.948 73.5252L311.854 73.4265L311.893 73.0155L312.986 73.1142L312.948 73.5252ZM294.241 73.432L294.208 73.021L295.301 72.9333V73.3388L294.241 73.432ZM310.766 73.3607L309.673 73.284L309.7 72.873L310.794 72.9497L310.766 73.3607ZM296.438 73.2621V72.8566C296.805 72.8566 297.171 72.8073 297.532 72.7908V73.2018L296.438 73.2621ZM308.569 73.2183L307.475 73.1635V72.7525L308.569 72.8073V73.2183ZM298.641 73.147V72.736L299.735 72.6977V73.1087L298.641 73.147ZM306.366 73.1196L305.272 73.0867V72.6757L306.366 72.7086V73.1196ZM300.85 73.0813V72.6703C301.222 72.6703 301.588 72.6703 301.943 72.6703V73.0813C301.582 73.0429 301.216 73.0484 300.85 73.0594V73.0813ZM304.157 73.0813H303.064V72.6703H304.157V73.0813Z" fill="#C7C7C7"/>
<path d="M318.988 74.2704L318.447 74.1882L318.507 73.7827L319.048 73.8649L318.988 74.2704Z" fill="#C7C7C7"/>
<path d="M261.96 111.052L261.555 110.981C261.555 110.981 261.588 110.795 261.632 110.433L262.037 110.488C261.998 110.86 261.96 111.052 261.96 111.052Z" fill="#C7C7C7"/>
<path d="M262.162 109.392L261.752 109.353C261.752 109.03 261.807 108.663 261.829 108.257H262.239C262.217 108.69 262.19 109.052 262.162 109.392ZM262.283 107.161H261.873C261.873 106.811 261.873 106.444 261.873 106.065H262.283C262.299 106.433 262.293 106.805 262.283 107.161ZM261.883 104.937C261.883 104.575 261.883 104.208 261.845 103.841H262.255C262.255 104.224 262.288 104.597 262.293 104.937H261.883ZM261.785 102.745C261.785 102.383 261.736 102.016 261.703 101.649L262.108 101.61C262.14 101.994 262.173 102.361 262.195 102.706L261.785 102.745ZM261.588 100.553C261.55 100.191 261.506 99.8292 261.452 99.4565L261.862 99.3962C261.911 99.7744 261.955 100.142 261.998 100.492L261.588 100.553ZM261.293 98.3605C261.238 97.9988 261.173 97.6372 261.107 97.2645L261.512 97.1933C261.577 97.5659 261.643 97.9331 261.698 98.2893L261.293 98.3605ZM260.899 96.1685C260.828 95.8123 260.746 95.4506 260.664 95.0725L261.063 94.9794C261.151 95.3465 261.227 95.7082 261.299 96.0754L260.899 96.1685ZM260.407 94.0094C260.315 93.6587 260.222 93.3025 260.123 92.9408L260.517 92.8312C260.615 93.1929 260.714 93.5546 260.801 93.9272L260.407 94.0094ZM259.817 91.8777C259.708 91.527 259.598 91.1762 259.484 90.8255L259.872 90.694C259.987 91.0502 260.101 91.4064 260.205 91.7571L259.817 91.8777ZM259.123 89.7734C259.003 89.4336 258.877 89.0829 258.74 88.7376L259.123 88.5897C259.259 88.9404 259.385 89.2911 259.511 89.6364L259.123 89.7734ZM258.336 87.68C258.199 87.3457 258.051 87.006 257.904 86.6662L258.281 86.4963C258.429 86.8416 258.576 87.1868 258.713 87.5266L258.336 87.68ZM257.45 85.6579C257.297 85.3236 257.133 84.9948 256.969 84.6605L257.335 84.4742C257.505 84.814 257.663 85.1482 257.822 85.4825L257.45 85.6579ZM256.466 83.6741C256.295 83.3526 256.113 83.0293 255.919 82.7042L256.275 82.5014C256.461 82.8302 256.635 83.159 256.821 83.4823L256.466 83.6741ZM255.373 81.7452C255.187 81.4273 254.995 81.115 254.799 80.7971L255.149 80.5834C255.345 80.9012 255.537 81.2191 255.728 81.5369L255.373 81.7452ZM254.203 79.871C254.006 79.5641 253.798 79.2572 253.585 78.9504L253.924 78.7202C254.135 79.0271 254.343 79.334 254.547 79.6408L254.203 79.871ZM252.945 78.0516C252.732 77.7557 252.508 77.4598 252.284 77.1639L252.612 76.9173C252.836 77.2132 253.06 77.5091 253.279 77.8105L252.945 78.0516ZM251.601 76.298C251.377 76.0131 251.141 75.75 250.901 75.4432L251.213 75.1801C251.453 75.4651 251.694 75.7281 251.923 76.0405L251.601 76.298ZM250.179 74.6102C249.939 74.3362 249.687 74.0622 249.436 73.7882L249.737 73.5087C249.993 73.7827 250.239 74.0567 250.485 74.3362L250.179 74.6102ZM248.676 72.9662C248.425 72.7032 248.162 72.4182 247.9 72.1771L248.189 71.8866L248.971 72.6758L248.676 72.9662ZM247.107 71.4099C246.839 71.1633 246.56 70.9112 246.293 70.6646L246.566 70.3577L247.386 71.114L247.107 71.4099ZM245.467 69.9303L244.62 69.2179L244.882 68.9L245.735 69.6179L245.467 69.9303ZM243.761 68.5219C243.477 68.2972 243.215 68.0671 242.892 67.8424L243.138 67.5191C243.433 67.7438 243.729 67.9684 244.018 68.1986L243.761 68.5219ZM242.007 67.1848C241.711 66.9711 241.411 66.7519 241.105 66.5436L241.34 66.2039L242.28 66.856L242.007 67.1848ZM240.192 65.9189C239.889 65.7107 239.583 65.5079 239.273 65.3106L239.492 64.9654L240.421 65.5737L240.192 65.9189ZM238.339 64.7188L237.393 64.1708L237.601 63.8201L238.552 64.3681L238.339 64.7188ZM236.436 63.5899L235.474 63.0419L235.671 62.6857C235.999 62.8611 236.321 63.0437 236.638 63.2337L236.436 63.5899ZM234.501 62.5268C234.178 62.3569 233.85 62.187 233.517 62.0226L233.703 61.6555C234.036 61.8199 234.364 61.9898 234.692 62.1651L234.501 62.5268ZM232.527 61.5294L231.527 61.0527L231.702 60.68L232.708 61.1568L232.527 61.5294ZM230.521 60.5924L229.51 60.1485L229.674 59.7704C230.013 59.9183 230.357 60.0663 230.691 60.2197L230.521 60.5924ZM228.509 59.732L227.482 59.3155L227.635 58.9319L228.663 59.3539L228.509 59.732ZM226.454 58.9155L225.415 58.5264L225.557 58.1428L226.596 58.5319L226.454 58.9155ZM224.377 58.1538L223.333 57.7976L223.458 57.4085C223.814 57.5236 224.163 57.6441 224.513 57.7702L224.377 58.1538ZM222.277 57.4523C221.933 57.3372 221.578 57.2276 221.222 57.118L221.348 56.7235L222.403 57.0578L222.277 57.4523Z" fill="#C7C7C7"/>
<path d="M220.145 56.8002L219.621 56.6468L219.73 56.2522L220.26 56.4056L220.145 56.8002Z" fill="#C7C7C7"/>
<path d="M318.529 74.38L318.442 73.9745L318.988 73.8649L319.065 74.2704L318.529 74.38Z" fill="#C7C7C7"/>
<path d="M251.994 149.149L251.59 149.083C251.644 148.727 251.705 148.366 251.759 147.987L252.164 148.053C252.12 148.431 252.049 148.793 251.994 149.149ZM252.35 147.006L251.945 146.935C252.011 146.579 252.071 146.217 252.142 145.839L252.541 145.916C252.475 146.316 252.41 146.65 252.35 147.006ZM252.749 144.869L252.344 144.793L252.557 143.697L252.962 143.779L252.749 144.869ZM253.186 142.743L252.787 142.655C252.863 142.299 252.94 141.943 253.022 141.592L253.421 141.685C253.345 142.036 253.263 142.387 253.213 142.743H253.186ZM253.667 140.628L253.268 140.529L253.53 139.471L253.924 139.57C253.836 139.921 253.76 140.288 253.667 140.628ZM254.214 138.518L253.82 138.414L254.099 137.362L254.493 137.471L254.214 138.518ZM254.788 136.425L254.394 136.31C254.492 135.959 254.591 135.614 254.695 135.263L255.088 135.383C254.963 135.729 254.853 136.074 254.766 136.452L254.788 136.425ZM255.4 134.342L255.012 134.222C255.116 133.871 255.225 133.526 255.334 133.18L255.728 133.306C255.591 133.652 255.487 133.997 255.4 134.342ZM256.061 132.276L255.673 132.145C255.788 131.799 255.903 131.454 256.023 131.109L256.411 131.246C256.269 131.586 256.154 131.931 256.04 132.276H256.061ZM256.767 130.221L256.378 130.084L256.756 129.059L257.138 129.202C256.991 129.536 256.865 129.876 256.745 130.221H256.767ZM257.521 128.183L257.138 128.04L257.532 127.021L257.915 127.174L257.521 128.183ZM258.319 126.166L257.942 126.013C258.079 125.673 258.221 125.339 258.363 125.004L258.74 125.163L258.319 126.166ZM259.167 124.171L258.795 124.001C258.937 123.667 259.09 123.338 259.238 123.01L259.609 123.179L259.167 124.171ZM260.063 122.193L259.691 122.018C259.844 121.689 260.003 121.36 260.161 121.031L260.528 121.212C260.347 121.535 260.194 121.864 260.041 122.204L260.063 122.193ZM261.003 120.237L260.637 120.056L261.129 119.08L261.495 119.267L261.003 120.237ZM261.993 118.308L261.632 118.11L262.146 117.151L262.507 117.349C262.315 117.667 262.14 117.984 261.96 118.308H261.993ZM263.031 116.401L262.676 116.198C262.851 115.88 263.031 115.562 263.223 115.25L263.578 115.458L263.031 116.401ZM264.125 114.521L263.769 114.307C263.955 113.995 264.141 113.683 264.316 113.376L264.666 113.589C264.464 113.896 264.278 114.209 264.097 114.532L264.125 114.521ZM265.24 112.669L264.896 112.45C265.087 112.143 265.284 111.836 265.481 111.529L265.825 111.754C265.612 112.055 265.42 112.34 265.24 112.669ZM266.421 110.849L266.076 110.619C266.279 110.312 266.486 110.011 266.689 109.715L267.028 109.945L266.421 110.849ZM267.645 109.057L267.306 108.816L267.941 107.929L268.274 108.17C268.044 108.466 267.837 108.756 267.629 109.052L267.645 109.057ZM268.914 107.298L268.586 107.052C268.804 106.756 269.017 106.465 269.242 106.18L269.564 106.427C269.329 106.718 269.11 107.002 268.897 107.298H268.914ZM270.226 105.572L269.903 105.315L270.581 104.465L270.898 104.723L270.226 105.572ZM271.587 103.879L271.27 103.616C271.499 103.336 271.734 103.068 271.969 102.783L272.281 103.046C272.03 103.32 271.8 103.599 271.57 103.879H271.587ZM272.986 102.235L272.675 101.966C272.915 101.687 273.156 101.418 273.396 101.144L273.702 101.418C273.44 101.676 273.21 101.928 272.97 102.224L272.986 102.235ZM274.429 100.591L274.129 100.317C274.375 100.043 274.621 99.7689 274.867 99.5168L275.167 99.7963L274.429 100.591ZM275.911 99.0072L275.616 98.7222C275.867 98.4592 276.124 98.2016 276.376 97.944L276.671 98.2345L275.911 99.0072ZM277.436 97.4673L277.146 97.1714C277.409 96.9193 277.693 96.6617 277.928 96.4151L278.212 96.711C277.934 96.996 277.677 97.2207 277.42 97.4782L277.436 97.4673ZM278.994 95.9603L278.715 95.6589L279.513 94.9191L279.792 95.226L278.994 95.9603ZM280.596 94.4971L280.323 94.1902L281.137 93.4669L281.41 93.7792L280.596 94.4971ZM282.236 93.0723L281.973 92.76C282.252 92.5188 282.52 92.2887 282.804 92.0585L283.067 92.3764L282.236 93.0723ZM283.909 91.6859L283.652 91.368C283.931 91.1379 284.198 90.9132 284.499 90.6885L284.756 91.0118L283.909 91.6859ZM285.609 90.3433L285.363 90.02L286.227 89.3624L286.473 89.6912L285.609 90.3433ZM287.347 89.0445L287.107 88.7157L287.987 88.0746L288.227 88.4088L287.347 89.0445ZM289.113 87.7896L288.878 87.4498C289.179 87.2416 289.479 87.0334 289.78 86.8361L290.009 87.1758C289.687 87.3841 289.386 87.5923 289.091 87.8006L289.113 87.7896ZM290.911 86.573L290.682 86.2278L291.595 85.636L291.819 85.9812C291.48 86.184 291.19 86.3812 290.89 86.584L290.911 86.573ZM292.732 85.4003L292.519 85.0496L293.443 84.5016L293.656 84.8523L292.732 85.4003ZM294.585 84.2714L294.377 83.9152L295.318 83.3672L295.52 83.7234L294.585 84.2714ZM296.466 83.1754L296.263 82.8192L297.215 82.2712L297.411 82.6329L296.466 83.1754ZM298.368 82.1342L298.171 81.7726L299.139 81.2629L299.325 81.6301L298.368 82.1342ZM300.292 81.1369L300.106 80.7697L301.085 80.2875L301.265 80.6546L300.292 81.1369ZM302.238 80.1888L302.063 79.8162L303.053 79.3559L303.222 79.7285L302.238 80.1888ZM304.212 79.2792L304.042 78.9065L305.043 78.4681L305.207 78.8462C304.857 79.0052 304.523 79.1531 304.19 79.3011L304.212 79.2792ZM306.202 78.4188L306.043 78.0407L307.055 77.6242L307.208 78.0078L306.202 78.4188ZM308.213 77.6078L308.066 77.2242L309.083 76.8351L309.225 77.2187L308.213 77.6078ZM310.242 76.846L310.105 76.457L311.133 76.0898L311.269 76.4789C310.914 76.6159 310.57 76.72 310.22 76.868L310.242 76.846ZM312.253 76.172L312.128 75.7829L313.161 75.4486L313.287 75.8377L312.253 76.172ZM314.325 75.5144L314.205 75.1253C314.571 75.0102 314.921 74.9116 315.255 74.813L315.364 75.2075L314.325 75.5144ZM316.408 74.9171L316.304 74.5225L317.365 74.2485L317.463 74.6486L316.408 74.9171Z" fill="#C7C7C7"/>
<path d="M251.445 150.18L251.366 150.722L251.772 150.781L251.85 150.239L251.445 150.18Z" fill="#C7C7C7"/>
<path d="M251.825 150.497L251.431 150.393C251.524 150.037 251.617 149.686 251.705 149.335L252.098 149.434C252.016 149.785 251.923 150.152 251.825 150.497ZM252.344 148.36L251.945 148.272C252.022 147.916 252.093 147.56 252.164 147.204L252.563 147.28C252.497 147.642 252.426 147.998 252.344 148.36ZM252.76 146.168L252.35 146.102C252.41 145.746 252.464 145.384 252.514 145.006L252.918 145.061C252.869 145.472 252.814 145.834 252.76 146.195V146.168ZM253.055 143.976L252.645 143.932C252.689 143.571 252.721 143.209 252.749 142.836L253.159 142.869C253.131 143.286 253.093 143.653 253.055 144.014V143.976ZM253.235 141.784H252.831C252.831 141.417 252.863 141.055 252.874 140.688H253.284C253.273 141.075 253.25 141.453 253.213 141.822L253.235 141.784ZM253.306 139.592H252.896V139.318C252.896 139.044 252.896 138.77 252.896 138.502H253.306C253.306 138.776 253.306 139.05 253.306 139.324V139.592ZM252.858 137.4C252.858 137.038 252.82 136.671 252.798 136.304L253.202 136.277C253.228 136.642 253.25 137.007 253.268 137.373L252.858 137.4ZM252.705 135.208C252.672 134.843 252.634 134.477 252.59 134.112L253 134.063C253.044 134.43 253.082 134.792 253.115 135.159L252.705 135.208ZM252.453 133.016C252.399 132.654 252.344 132.293 252.284 131.92L252.689 131.854C252.749 132.21 252.803 132.578 252.858 132.95L252.453 133.016ZM252.12 130.972C252.049 130.616 251.978 130.26 251.901 129.903L252.3 129.816C252.377 130.172 252.453 130.534 252.519 130.912L252.12 130.972ZM251.661 128.84L251.398 127.783L251.792 127.679C251.885 128.029 251.972 128.385 252.06 128.742L251.661 128.84ZM251.114 126.73C251.016 126.374 250.912 126.029 250.803 125.678L251.196 125.558C251.305 125.908 251.404 126.259 251.508 126.615L251.114 126.73ZM250.469 124.643C250.36 124.292 250.239 123.947 250.119 123.607L250.507 123.47C250.628 123.815 250.748 124.16 250.863 124.511L250.469 124.643ZM249.747 122.582C249.616 122.237 249.485 121.903 249.348 121.563L249.731 121.409C249.868 121.749 249.999 122.094 250.13 122.44L249.747 122.582ZM248.938 120.555C248.796 120.215 248.649 119.88 248.507 119.552L248.878 119.382C249.026 119.716 249.173 120.05 249.316 120.396L248.938 120.555ZM248.053 118.554C247.9 118.226 247.741 117.897 247.583 117.568L247.954 117.387C248.113 117.716 248.271 118.045 248.425 118.384L248.053 118.554ZM247.096 116.592C246.932 116.264 246.763 115.94 246.593 115.623L246.954 115.431C247.123 115.749 247.293 116.077 247.462 116.406L247.096 116.592ZM246.074 114.664L245.527 113.71L245.877 113.507C246.063 113.818 246.245 114.136 246.424 114.461L246.074 114.664ZM244.981 112.767C244.795 112.45 244.603 112.137 244.434 111.836L244.784 111.617C244.975 111.924 245.166 112.236 245.33 112.559L244.981 112.767ZM243.833 110.91C243.63 110.597 243.433 110.296 243.231 109.995L243.576 109.77L244.177 110.685L243.833 110.91ZM242.586 109.052C242.378 108.745 242.165 108.449 241.963 108.159L242.291 107.918C242.504 108.208 242.712 108.509 242.925 108.816L242.586 109.052ZM241.318 107.271L240.662 106.4L240.99 106.148L241.646 107.03L241.318 107.271ZM239.989 105.534L239.306 104.684L239.623 104.421C239.847 104.69 240.077 104.969 240.312 105.282L239.989 105.534ZM238.606 103.841L237.907 103.024L238.213 102.755C238.437 103.002 238.677 103.303 238.934 103.588L238.606 103.841ZM237.158 102.197C236.682 101.681 236.403 101.413 236.403 101.407L236.688 101.117C236.688 101.117 236.972 101.391 237.458 101.917L237.158 102.197Z" fill="#C7C7C7"/>
<path d="M224.317 48.6898C224.087 46.3663 222.485 44.0482 219.675 44.0482C216.865 44.0482 215.269 46.3663 215.04 48.6898C214.684 52.2792 217.101 55.5343 219.675 58.499C222.256 55.5343 224.672 52.2792 224.317 48.6898ZM219.675 51.2709C219.172 51.2709 218.681 51.1213 218.262 50.841C217.844 50.5608 217.519 50.1625 217.326 49.6966C217.134 49.2306 217.084 48.718 217.183 48.2235C217.281 47.7291 217.524 47.275 217.88 46.9189C218.236 46.5627 218.689 46.3205 219.183 46.2228C219.676 46.1251 220.188 46.1763 220.652 46.37C221.116 46.5637 221.513 46.8912 221.792 47.311C222.07 47.7307 222.218 48.2239 222.217 48.7282C222.216 49.403 221.947 50.0498 221.471 50.5265C220.994 51.0032 220.349 51.2709 219.675 51.2709Z" fill="#A6A6A6"/>
<path d="M265.535 103.024C265.306 100.7 263.704 98.3824 260.894 98.3824C258.084 98.3824 256.488 100.7 256.258 103.024C255.903 106.613 258.319 109.869 260.894 112.833C263.474 109.847 265.891 106.591 265.535 103.024ZM260.894 105.605C260.393 105.605 259.903 105.456 259.485 105.178C259.068 104.899 258.742 104.503 258.549 104.039C258.355 103.576 258.303 103.065 258.399 102.572C258.494 102.078 258.733 101.624 259.085 101.267C259.437 100.909 259.887 100.664 260.378 100.562C260.869 100.46 261.379 100.506 261.844 100.693C262.309 100.881 262.709 101.203 262.992 101.617C263.275 102.032 263.43 102.521 263.436 103.024C263.437 103.36 263.373 103.692 263.246 104.003C263.119 104.313 262.932 104.595 262.695 104.833C262.459 105.071 262.178 105.259 261.869 105.388C261.56 105.517 261.229 105.583 260.894 105.583V105.605Z" fill="url(#paint0_linear_747_1600)"/>
<path d="M240.399 92.9079C240.17 90.5844 238.568 88.2664 235.758 88.2664C232.948 88.2664 231.352 90.5844 231.123 92.9079C230.767 96.4973 233.183 99.7524 235.758 102.717C238.339 99.736 240.755 96.4973 240.399 92.9079ZM235.758 95.489C235.256 95.489 234.764 95.3396 234.346 95.0596C233.928 94.7796 233.602 94.3816 233.41 93.916C233.217 93.4503 233.167 92.938 233.265 92.4437C233.363 91.9494 233.605 91.4953 233.961 91.139C234.316 90.7826 234.769 90.5399 235.262 90.4416C235.755 90.3432 236.267 90.3937 236.731 90.5866C237.196 90.7794 237.593 91.106 237.872 91.5251C238.151 91.9441 238.3 92.4368 238.3 92.9408C238.3 93.6166 238.032 94.2648 237.556 94.7427C237.079 95.2205 236.432 95.489 235.758 95.489Z" fill="#A6A6A6"/>
<path d="M323.657 67.0916C323.427 64.7626 321.825 62.4501 319.016 62.4501C316.206 62.4501 314.609 64.7626 314.38 67.0916C314.025 70.681 316.441 73.9362 319.016 76.9008C321.596 73.9362 324.012 70.692 323.657 67.0916ZM319.016 69.6727C318.513 69.6727 318.021 69.5233 317.603 69.2433C317.185 68.9633 316.859 68.5653 316.667 68.0997C316.475 67.634 316.424 67.1217 316.522 66.6274C316.62 66.1331 316.863 65.679 317.218 65.3227C317.574 64.9663 318.027 64.7236 318.52 64.6253C319.013 64.527 319.524 64.5774 319.988 64.7703C320.453 64.9632 320.85 65.2898 321.129 65.7088C321.408 66.1279 321.558 66.6205 321.558 67.1245C321.558 67.8003 321.29 68.4485 320.813 68.9264C320.336 69.4042 319.69 69.6727 319.016 69.6727Z" fill="#A6A6A6"/>
<path d="M256.187 144.699C255.958 142.37 254.356 140.058 251.546 140.058C248.736 140.058 247.14 142.37 246.91 144.699C246.555 148.289 248.971 151.538 251.546 154.509C254.126 151.538 256.543 148.289 256.187 144.699ZM251.573 147.28C251.071 147.279 250.58 147.129 250.163 146.848C249.745 146.568 249.42 146.169 249.229 145.704C249.037 145.238 248.988 144.726 249.086 144.232C249.185 143.738 249.428 143.284 249.783 142.928C250.139 142.573 250.592 142.331 251.085 142.233C251.578 142.135 252.089 142.186 252.553 142.379C253.017 142.572 253.414 142.898 253.693 143.317C253.972 143.736 254.121 144.229 254.121 144.732C254.121 145.067 254.055 145.399 253.927 145.709C253.799 146.018 253.611 146.299 253.374 146.536C253.138 146.773 252.857 146.96 252.548 147.088C252.239 147.216 251.908 147.281 251.573 147.28Z" fill="url(#paint1_linear_747_1600)"/>
<path d="M164.314 247.126C263.307 247.126 343.555 242.737 343.555 237.322C343.555 231.908 263.307 227.519 164.314 227.519C65.3223 227.519 -14.9267 231.908 -14.9267 237.322C-14.9267 242.737 65.3223 247.126 164.314 247.126Z" fill="#EBEBEB"/>
<path d="M-31.928 218.986L15.0088 218.855L61.9401 218.805L155.814 218.718L249.687 218.805L296.619 218.855L343.556 218.986L296.619 219.123L249.687 219.173L155.814 219.26L61.9401 219.167L15.0088 219.123L-31.928 218.986Z" fill="#263238"/>
<path d="M32.4584 218.981C32.4584 218.981 31.4526 214.268 29.4408 213.539C27.4291 212.81 26.2046 214.931 26.2046 214.931C26.2046 214.931 25.729 210.427 22.8754 209.078C20.0218 207.73 17.8843 210.492 17.8843 210.492C17.8843 210.492 15.6976 204.782 11.7835 204.782C7.86936 204.782 5.90136 213.139 5.90136 213.139C5.90136 213.139 3.59442 210.646 1.22736 212.043C-1.13971 213.441 -1.13971 218.97 -1.13971 218.97L32.4584 218.981Z" fill="#455A64"/>
<path d="M107.035 218.981H71.6708C71.6708 218.981 72.8352 213.983 75.1804 213.627C77.5256 213.271 78.6189 215.594 78.6189 215.594C78.6189 215.594 78.5096 208.624 82.8884 207.434C87.2672 206.245 90.9408 212.405 90.9408 212.405C90.9408 212.405 93.6741 208.892 97.4297 209.117C101.185 209.341 102.12 215.145 102.12 215.145C102.12 215.145 105.531 213.128 107.035 218.981Z" fill="#37474F"/>
<path d="M3.68735 218.981H-14.8993C-14.8993 218.981 -14.8556 216.202 -13.0297 215.463C-12.533 215.247 -11.9798 215.198 -11.4533 215.325C-10.9268 215.451 -10.4556 215.746 -10.1105 216.164C-10.1105 216.164 -9.36159 211.057 -5.95585 211.057C-2.55012 211.057 -0.910124 215.441 -0.910124 215.441C-0.623016 215.017 -0.218184 214.688 0.254125 214.493C0.726434 214.298 1.24542 214.247 1.74668 214.345C3.61081 214.63 3.68735 218.981 3.68735 218.981Z" fill="#37474F"/>
<path d="M153.884 104.46L158.46 206.278H241.733L233.112 164.948L205.364 156.18C204.644 155.926 203.989 155.516 203.445 154.98C202.901 154.444 202.481 153.795 202.215 153.078L185.623 110.367L153.884 104.46Z" fill="url(#paint2_linear_747_1600)"/>
<path d="M163.057 115.179L165.134 151.911L195.185 154.733L182.234 116.521L163.057 115.179Z" fill="#455A64"/>
<g opacity="0.3">
<path d="M164.194 135.301L164.67 143.68L173.679 152.711L182.376 153.533L164.194 135.301Z" fill="white"/>
<path d="M169.202 115.612L188.472 134.929L186.449 128.939L173.444 115.902L169.202 115.612Z" fill="white"/>
<path d="M163.303 119.497L163.358 120.511L193.998 151.226L193.501 149.768L163.303 119.497Z" fill="white"/>
<path d="M164.845 146.771L164.899 147.79L169.409 152.311L170.47 152.41L164.845 146.771Z" fill="white"/>
</g>
<path d="M163.057 115.179L182.234 116.521L195.185 154.733L193.173 154.541L180.933 118.417L163.15 116.79L163.057 115.179Z" fill="#263238"/>
<path d="M204.369 157.09H203.822V204.727H204.369V157.09Z" fill="#263238"/>
<path d="M236.775 165.058L230.002 163.962L233.949 177.941L237.437 177.574C237.809 177.535 238.152 177.352 238.392 177.063C238.632 176.774 238.75 176.403 238.721 176.029L237.983 166.351C237.952 166.032 237.816 165.733 237.598 165.499C237.379 165.265 237.09 165.11 236.775 165.058Z" fill="white"/>
<path d="M198.913 144.858C197.273 146.245 198.754 158.717 199.908 158.504C201.061 158.29 203.538 157.819 204.533 157.029C205.528 156.24 211.158 146.146 209.792 144.053C208.425 141.959 200.187 143.79 198.913 144.858Z" fill="url(#paint3_linear_747_1600)"/>
<path opacity="0.1" d="M198.913 144.858C197.273 146.245 198.754 158.717 199.908 158.504C201.061 158.29 203.538 157.819 204.533 157.029C205.528 156.24 211.158 146.146 209.792 144.053C208.425 141.959 200.187 143.79 198.913 144.858Z" fill="black"/>
<path opacity="0.1" d="M177.123 162.635H166.807V159.731L177.123 160.295V162.635Z" fill="black"/>
<path d="M156.158 206.278H-15.0196L-5.96133 83.9152L149.992 75.6185L156.158 206.278Z" fill="url(#paint4_linear_747_1600)"/>
<path d="M122.21 122.204L99.2501 102.734L14.6535 109.6L19.7867 158.487L101.317 147.752L122.21 122.204ZM112.458 122.533C112.624 123.269 112.57 124.038 112.303 124.743C112.035 125.449 111.566 126.059 110.954 126.499C110.342 126.939 109.614 127.187 108.862 127.214C108.11 127.241 107.366 127.045 106.724 126.65C106.083 126.256 105.571 125.68 105.254 124.995C104.938 124.311 104.829 123.548 104.943 122.802C105.056 122.055 105.387 121.36 105.893 120.801C106.4 120.242 107.059 119.846 107.789 119.661C108.787 119.422 109.839 119.59 110.714 120.127C111.59 120.664 112.216 121.527 112.458 122.527V122.533Z" fill="white"/>
<path d="M110.074 122.412C111.632 122.311 113.195 122.311 114.754 122.412C116.322 122.494 117.886 122.655 119.439 122.894C122.589 123.368 125.674 124.205 128.633 125.388C130.151 126.008 131.613 126.754 133.007 127.618C133.712 128.046 134.384 128.539 135.051 129.038L136.019 129.849C136.336 130.123 136.631 130.429 136.937 130.72C138.159 131.936 139.203 133.32 140.037 134.83L140.622 135.997C140.791 136.397 140.939 136.814 141.097 137.219C141.247 137.622 141.377 138.031 141.486 138.447L141.661 139.06L141.792 139.685C142.166 141.367 142.304 143.094 142.202 144.814C142.088 146.529 141.746 148.221 141.185 149.845C140.057 152.994 138.278 155.868 135.964 158.279C133.742 160.619 131.182 162.612 128.371 164.192C125.627 165.783 122.649 166.929 119.548 167.589L119.422 167.178C122.18 165.882 124.784 164.279 127.185 162.4C129.54 160.588 131.671 158.5 133.532 156.18C135.338 153.955 136.714 151.41 137.588 148.678C138.414 146.03 138.538 143.212 137.949 140.502L137.85 139.992L137.708 139.493C137.627 139.157 137.526 138.826 137.407 138.502C137.287 138.189 137.178 137.866 137.052 137.553L136.62 136.633C135.982 135.416 135.19 134.287 134.264 133.274C132.271 131.18 129.934 129.445 127.354 128.144C124.676 126.768 121.885 125.626 119.012 124.73C116.077 123.794 113.093 123.021 110.074 122.412Z" fill="#263238"/>
<path d="M123.506 160.339L119.985 167.239L127.108 170.253L116.497 168.51L123.506 160.339Z" fill="#263238"/>
<path opacity="0.1" d="M156.158 206.273H-15.0196L-14.5331 199.708L155.349 189.016L156.158 206.273Z" fill="black"/>
<path d="M-15.8833 211.78H245.549V203.982H-15.8833V211.78Z" fill="#EBEBEB"/>
<path d="M250.988 200.234L224.912 201.839V212.964H252.935L250.988 200.234Z" fill="#DBDBDB"/>
<path d="M15.4789 214.531L10.0669 213.736C11.1001 206.684 17.2665 193.34 33.2347 193.34C49.2028 193.34 55.2489 206.706 56.1947 213.769L50.7772 214.504L53.5105 214.136L50.7772 214.509C50.6897 213.868 48.3937 198.82 33.2292 198.82C17.9499 198.82 15.5719 213.89 15.4789 214.531Z" fill="#C7C7C7"/>
<path d="M33.1308 196.666C7.63976 196.666 7.60149 236.38 33.1308 236.38C58.6602 236.38 58.6656 196.666 33.1308 196.666Z" fill="#263238"/>
<path d="M33.1308 207.511C21.5633 207.511 21.5415 225.535 33.1308 225.535C44.7201 225.535 44.7201 207.511 33.1308 207.511Z" fill="#C7C7C7"/>
<path d="M168.174 214.542L162.767 213.72C163.795 206.667 169.961 193.323 185.935 193.323C201.909 193.323 207.944 206.689 208.895 213.753L203.467 214.504L206.2 214.136L203.467 214.509C203.374 213.868 201.078 198.82 185.919 198.82C170.76 198.82 168.272 213.901 168.174 214.542Z" fill="#C7C7C7"/>
<path d="M185.924 196.666C160.433 196.666 160.395 236.38 185.924 236.38C211.453 236.38 211.459 196.666 185.924 196.666Z" fill="#263238"/>
<path d="M185.924 207.511C174.357 207.511 174.335 225.535 185.924 225.535C197.513 225.535 197.513 207.511 185.924 207.511Z" fill="#C7C7C7"/>
<path d="M295.247 207.281H266.421V239.284H295.247V207.281Z" fill="url(#paint5_linear_747_1600)"/>
<path opacity="0.1" d="M295.247 207.281H266.421V239.284H295.247V207.281Z" fill="black"/>
<path d="M251.535 239.284H266.421V207.281H251.535V239.284Z" fill="url(#paint6_linear_747_1600)"/>
<path opacity="0.32" d="M251.535 239.284H266.421V207.281H251.535V239.284Z" fill="black"/>
<path d="M278.387 214.197H279H279.459L279.721 213.665L280.087 214.197L280.585 213.101L281.055 214.197H282.405H283.018L283.242 213.468L283.455 214.197H283.854V207.281H278.387V214.197Z" fill="white"/>
<path d="M252.563 237.081C253.656 234.802 254.749 232.518 255.843 230.231L259.074 223.348L262.255 216.46C263.316 214.155 264.362 211.839 265.393 209.511C264.3 211.791 263.206 214.074 262.113 216.361L258.882 223.244L255.701 230.16C254.647 232.451 253.601 234.758 252.563 237.081Z" fill="url(#paint7_linear_747_1600)"/>
<path d="M252.563 209.484C253.598 211.807 254.644 214.124 255.701 216.433L258.888 223.348L262.119 230.231C263.212 232.522 264.305 234.805 265.399 237.081C264.364 234.758 263.318 232.442 262.261 230.133L259.074 223.217L255.843 216.334C254.757 214.043 253.663 211.76 252.563 209.484Z" fill="url(#paint8_linear_747_1600)"/>
<path d="M308.591 175.278H279.765V207.281H308.591V175.278Z" fill="url(#paint9_linear_747_1600)"/>
<path opacity="0.1" d="M308.591 175.278H279.765V207.281H308.591V175.278Z" fill="black"/>
<path d="M264.885 207.286H279.77V175.283H264.885V207.286Z" fill="url(#paint10_linear_747_1600)"/>
<path opacity="0.32" d="M264.885 207.286H279.77V175.283H264.885V207.286Z" fill="black"/>
<path d="M291.737 182.194H292.344H292.803L293.065 181.662L293.432 182.194L293.929 181.098L294.399 182.194H295.749H296.367L296.591 181.465L296.799 182.194H297.198V175.278H291.737V182.194Z" fill="white"/>
<path d="M265.907 205.078C267 202.802 268.094 200.519 269.187 198.228L272.418 191.345L275.627 184.435C276.687 182.122 277.735 179.806 278.77 177.486C277.677 179.759 276.583 182.04 275.49 184.331L272.259 191.214L269.067 198.129C267.995 200.438 266.942 202.755 265.907 205.078Z" fill="url(#paint11_linear_747_1600)"/>
<path d="M265.907 177.486C266.946 179.81 267.992 182.126 269.045 184.435L272.232 191.345L275.463 198.228C276.556 200.519 277.649 202.802 278.743 205.078C277.704 202.755 276.656 200.438 275.599 198.129L272.412 191.214L269.181 184.331C268.106 182.04 267.015 179.759 265.907 177.486Z" fill="url(#paint12_linear_747_1600)"/>
<path d="M332.283 207.281H303.457V239.284H332.283V207.281Z" fill="url(#paint13_linear_747_1600)"/>
<path opacity="0.1" d="M332.283 207.281H303.457V239.284H332.283V207.281Z" fill="black"/>
<path d="M288.572 239.284H303.457V207.281H288.572V239.284Z" fill="url(#paint14_linear_747_1600)"/>
<path opacity="0.32" d="M288.572 239.284H303.457V207.281H288.572V239.284Z" fill="black"/>
<path d="M315.424 214.197H316.036H316.495L316.758 213.665L317.124 214.197L317.622 213.101L318.092 214.197H319.442H320.06L320.278 213.468L320.492 214.197H320.891V207.281H315.424V214.197Z" fill="white"/>
<path d="M289.599 237.081C290.693 234.802 291.786 232.518 292.879 230.231L296.11 223.348L299.292 216.46C300.352 214.155 301.398 211.839 302.43 209.511C301.336 211.791 300.243 214.074 299.15 216.361L295.919 223.244L292.737 230.16C291.684 232.451 290.638 234.758 289.599 237.081Z" fill="url(#paint15_linear_747_1600)"/>
<path d="M289.599 209.484C290.635 211.807 291.68 214.124 292.737 216.433L295.924 223.348L299.133 230.231C300.227 232.522 301.32 234.805 302.413 237.081C301.378 234.758 300.332 232.442 299.275 230.133L296.088 223.217L292.858 216.334C291.786 214.043 290.7 211.76 289.599 209.484Z" fill="url(#paint16_linear_747_1600)"/>
<path d="M219.725 239.662C220.774 239.997 250.617 239.613 251.743 238.873C252.175 238.599 252.371 234.237 252.459 228.96V228.795C252.459 227.699 252.492 226.603 252.497 225.453C252.497 225.294 252.497 225.14 252.497 224.981L251.049 209.462L231.084 209.665L233.052 225.009V225.617L233.173 228.801V229.13C233.173 229.13 221.813 234.396 220.659 235.344C219.506 236.292 218.68 239.328 219.725 239.662Z" fill="#AD6359"/>
<path d="M219.725 239.662C220.774 239.997 250.617 239.613 251.743 238.873C252.175 238.599 252.371 234.237 252.459 228.96V228.795C252.459 227.699 252.492 226.603 252.497 225.453C252.497 225.294 252.497 225.14 252.497 224.981L233.052 225.036V225.644L233.173 228.828V229.157C233.173 229.157 221.813 234.423 220.659 235.371C219.506 236.32 218.68 239.328 219.725 239.662Z" fill="#EBEBEB"/>
<path d="M219.725 239.657C220.271 239.832 228.367 239.816 236.294 239.657C237.885 239.629 239.47 239.591 240.984 239.547C246.631 239.394 251.305 239.158 251.737 238.879C252.169 238.599 252.361 234.363 252.448 229.185C252.448 229.113 252.448 229.037 252.448 228.965C252.448 228.894 252.448 228.85 252.448 228.795L233.216 228.834V229.163C233.216 229.163 221.862 234.429 220.709 235.371C219.555 236.314 218.675 239.323 219.725 239.657Z" fill="url(#paint17_linear_747_1600)"/>
<path d="M220.047 238.495C225.076 238.309 245.38 238.018 250.365 238.216C250.403 238.216 250.403 238.243 250.365 238.249C245.385 238.544 225.082 238.665 220.047 238.577C219.943 238.577 219.943 238.501 220.047 238.495Z" fill="#263238"/>
<path d="M231.062 228.911C233.036 228.516 235.436 228.79 236.994 230.182C237.048 230.237 236.994 230.319 236.906 230.302C235.008 229.715 233.053 229.333 231.073 229.163C231.057 229.163 231.04 229.161 231.025 229.155C231.009 229.149 230.995 229.141 230.983 229.13C230.971 229.118 230.961 229.105 230.954 229.09C230.947 229.075 230.943 229.059 230.942 229.042C230.941 229.026 230.944 229.009 230.95 228.993C230.955 228.978 230.964 228.964 230.975 228.951C230.986 228.939 231 228.929 231.015 228.922C231.03 228.915 231.046 228.911 231.062 228.911Z" fill="#263238"/>
<path d="M229.641 229.793C231.62 229.398 234.014 229.672 235.572 231.064C235.633 231.119 235.572 231.201 235.49 231.185C233.59 230.597 231.633 230.215 229.652 230.045C229.619 230.046 229.586 230.034 229.561 230.012C229.537 229.989 229.522 229.958 229.521 229.924C229.519 229.891 229.531 229.858 229.554 229.834C229.576 229.809 229.608 229.794 229.641 229.793Z" fill="#263238"/>
<path d="M228.225 230.675C230.199 230.281 232.626 230.555 234.157 231.946C234.217 232.001 234.157 232.083 234.075 232.062C232.174 231.478 230.217 231.098 228.236 230.927C228.203 230.929 228.17 230.917 228.146 230.894C228.121 230.872 228.106 230.84 228.105 230.807C228.103 230.773 228.115 230.741 228.138 230.716C228.16 230.691 228.192 230.677 228.225 230.675Z" fill="#263238"/>
<path d="M236.294 239.651C237.885 239.624 239.47 239.586 240.984 239.542C246.631 239.388 251.305 239.153 251.737 238.873C252.169 238.594 252.361 234.358 252.448 229.179C252.448 229.108 252.448 229.031 252.448 228.96C252.448 228.889 252.448 228.845 252.448 228.79C249.802 230.642 240.514 236.84 236.294 239.651Z" fill="#263238"/>
<path d="M231.811 228.894H253.306C253.306 228.894 248.977 178.577 249.146 177.694C249.359 176.571 250.633 171.48 252.317 164.822C252.863 162.74 253.41 160.509 254.011 158.191C255.613 151.933 257.384 145.094 258.931 139.137L263.053 123.3H244.817C244.817 123.3 242.695 130.046 240.022 138.825C235.649 153.073 229.838 172.719 229.264 177.492C228.329 185.186 231.811 228.894 231.811 228.894Z" fill="#263238"/>
<path d="M232.844 225.228C236.124 225.162 235.184 225.135 238.47 225.102C240.071 225.102 250.633 224.998 252.136 225.244C252.145 225.244 252.153 225.248 252.16 225.254C252.166 225.26 252.169 225.269 252.169 225.277C252.169 225.286 252.166 225.294 252.16 225.301C252.153 225.307 252.145 225.31 252.136 225.31C250.638 225.562 240.077 225.469 238.47 225.453C235.19 225.42 236.13 225.392 232.844 225.327C232.784 225.316 232.784 225.228 232.844 225.228Z" fill="#37474F"/>
<path d="M245.183 174.62C245.888 171.508 246.943 168.455 247.856 165.397C249.722 159.187 251.597 152.976 253.481 146.765C254.421 143.664 255.365 140.558 256.313 137.449C256.794 135.882 257.277 134.317 257.762 132.753C258.243 131.224 258.784 129.706 259.216 128.166C259.391 127.536 259.489 127.881 259.265 128.681C258.811 130.287 258.363 131.898 257.898 133.498C256.962 136.684 256.029 139.861 255.099 143.028C253.241 149.341 251.362 155.648 249.463 161.95C248.516 165.111 247.568 168.271 246.621 171.431C246.14 172.935 245.751 174.466 245.456 176.018C245.204 177.64 245.14 179.285 245.265 180.922C245.473 184.21 245.855 187.498 246.156 190.786C246.457 194.074 246.768 197.362 247.069 200.65C247.674 207.226 248.275 213.786 248.873 220.329C248.944 221.162 249.02 221.973 249.081 222.822C249.081 223.102 248.681 223.08 248.654 222.822C247.943 216.339 247.402 209.835 246.795 203.341C246.189 196.847 245.587 190.414 244.986 183.947C244.833 182.303 244.663 180.703 244.658 179.07C244.668 177.572 244.844 176.079 245.183 174.62Z" fill="#37474F"/>
<path d="M246.965 123.3C248.233 133.109 250.644 151.495 252.399 164.833C256.493 148.661 263.113 123.3 263.113 123.3H246.965Z" fill="#37474F"/>
<path d="M242.493 239.947C243.537 240.293 273.38 240.013 274.511 239.279C274.943 239.005 275.157 234.643 275.266 229.365V229.201C275.266 228.105 275.31 227.009 275.315 225.858C275.315 225.705 275.315 225.546 275.315 225.392C275.386 217.775 274.839 209.873 274.839 209.873L255.329 209.999L255.876 225.376V225.984L255.985 229.168V229.491C255.985 229.491 244.609 234.719 243.45 235.662C242.291 236.604 241.449 239.613 242.493 239.947Z" fill="#AD6359"/>
<path d="M242.493 239.947C243.537 240.293 273.38 240.013 274.511 239.279C274.943 239.005 275.157 234.643 275.266 229.365V229.201C275.266 228.105 275.31 227.009 275.315 225.858C275.315 225.705 275.315 225.546 275.315 225.392H255.876V226.001L255.985 229.185V229.508C255.985 229.508 244.609 234.736 243.45 235.678C242.291 236.621 241.449 239.613 242.493 239.947Z" fill="#EBEBEB"/>
<path d="M242.493 239.947C243.537 240.293 273.38 240.013 274.512 239.279C274.943 239.005 275.157 234.643 275.266 229.365V229.201L256.012 229.168V229.491C256.012 229.491 244.636 234.719 243.477 235.662C242.318 236.604 241.449 239.613 242.493 239.947Z" fill="url(#paint18_linear_747_1600)"/>
<path d="M242.827 238.786C247.856 238.616 268.159 238.402 273.139 238.616C273.183 238.616 273.183 238.643 273.139 238.649C268.159 238.928 247.856 238.972 242.827 238.868C242.717 238.868 242.712 238.791 242.827 238.786Z" fill="#263238"/>
<path d="M253.869 229.239C255.843 228.85 258.243 229.135 259.795 230.533C259.85 230.587 259.795 230.67 259.708 230.653C257.813 230.056 255.859 229.666 253.88 229.491C253.864 229.492 253.847 229.49 253.832 229.484C253.816 229.478 253.802 229.47 253.79 229.458C253.778 229.447 253.768 229.434 253.761 229.419C253.754 229.404 253.75 229.387 253.749 229.371C253.748 229.354 253.751 229.338 253.756 229.322C253.762 229.307 253.771 229.292 253.782 229.28C253.793 229.268 253.807 229.258 253.822 229.251C253.837 229.244 253.853 229.24 253.869 229.239Z" fill="#263238"/>
<path d="M252.448 230.116C254.421 229.727 256.821 230.012 258.374 231.409C258.434 231.464 258.374 231.546 258.292 231.53C256.395 230.933 254.439 230.544 252.459 230.368C252.426 230.37 252.393 230.358 252.368 230.335C252.344 230.313 252.329 230.281 252.328 230.248C252.326 230.214 252.338 230.182 252.361 230.157C252.383 230.132 252.415 230.118 252.448 230.116Z" fill="#263238"/>
<path d="M251.027 230.993C253 230.604 255.4 230.889 256.953 232.286C257.013 232.341 256.953 232.423 256.871 232.407C254.97 231.813 253.01 231.427 251.027 231.256C250.992 231.256 250.958 231.242 250.934 231.218C250.909 231.193 250.895 231.159 250.895 231.125C250.895 231.09 250.909 231.056 250.934 231.032C250.958 231.007 250.992 230.993 251.027 230.993Z" fill="#263238"/>
<path d="M245.259 123.3C245.259 123.3 245.675 132.035 247.67 138.956C247.834 139.504 248.004 140.091 248.217 140.633C250.045 141.371 251.801 142.276 253.465 143.335C253.465 143.335 253.673 150.366 253.886 158.202C254.115 166.97 254.361 176.741 254.307 178.812C254.126 186.572 255.274 229.228 255.274 229.228L276.764 229.316C276.764 229.316 272.877 181.684 272.904 178.845C272.948 174.275 271.866 154.092 271.029 139.389C270.521 130.32 270.1 123.327 270.1 123.327L245.259 123.3Z" fill="#263238"/>
<path d="M256.22 225.381C259.5 225.327 258.56 225.294 261.845 225.277C263.452 225.277 274.009 225.223 275.512 225.475C275.521 225.475 275.529 225.478 275.535 225.484C275.541 225.49 275.545 225.499 275.545 225.507C275.545 225.516 275.541 225.525 275.535 225.531C275.529 225.537 275.521 225.54 275.512 225.54C274.009 225.787 263.452 225.65 261.845 225.628C258.565 225.579 259.505 225.557 256.22 225.475C256.21 225.471 256.202 225.465 256.196 225.457C256.19 225.448 256.187 225.438 256.187 225.428C256.187 225.418 256.19 225.408 256.196 225.399C256.202 225.391 256.21 225.385 256.22 225.381Z" fill="#37474F"/>
<path d="M268.52 126.413C268.914 138.43 269.335 150.448 269.87 162.46C270.406 174.472 271.133 186.572 272.139 198.584C272.686 205.303 273.232 214.756 273.954 221.458C273.954 221.502 273.888 221.518 273.883 221.458C272.319 209.539 271.45 194.798 270.679 182.802C269.909 170.806 269.389 158.794 268.979 146.782C268.75 139.987 268.575 133.186 268.367 126.391C268.351 126.309 268.52 126.314 268.52 126.413Z" fill="#37474F"/>
<path d="M247.528 140.102C249.667 140.992 251.723 142.071 253.673 143.324C253.688 143.333 253.699 143.348 253.704 143.366C253.709 143.383 253.707 143.402 253.699 143.418C253.69 143.434 253.676 143.446 253.659 143.452C253.642 143.458 253.623 143.457 253.607 143.45C251.535 142.442 249.419 141.472 247.402 140.348C247.37 140.332 247.345 140.303 247.334 140.268C247.322 140.233 247.325 140.195 247.342 140.162C247.359 140.129 247.388 140.105 247.423 140.093C247.457 140.082 247.495 140.085 247.528 140.102Z" fill="#37474F"/>
<path d="M246.287 129.761C246.473 130.764 246.714 131.756 246.932 132.753C247.151 133.75 247.282 134.638 247.528 135.564C247.731 136.457 248.184 137.272 248.835 137.915C249.201 138.26 249.605 138.562 249.993 138.874L250.649 139.373C250.649 139.241 250.6 139.104 250.573 138.967C250.507 138.589 250.442 138.211 250.382 137.827C250.24 136.984 250.103 136.14 249.977 135.296C249.72 133.652 249.491 131.953 249.141 130.309C249.144 130.298 249.151 130.288 249.161 130.282C249.17 130.275 249.181 130.271 249.193 130.271C249.204 130.271 249.215 130.275 249.225 130.282C249.234 130.288 249.241 130.298 249.245 130.309C249.66 131.953 250.114 133.553 250.475 135.197C250.649 136.003 251.278 139.987 251.311 140.266C251.344 140.546 251.36 140.852 251.371 141.143C251.409 141.439 251.409 141.74 251.371 142.036C251.366 142.049 251.357 142.06 251.345 142.068C251.333 142.076 251.32 142.08 251.306 142.08C251.291 142.08 251.278 142.076 251.266 142.068C251.254 142.06 251.245 142.049 251.24 142.036C251.118 141.76 251.033 141.469 250.988 141.17C250.912 140.885 250.852 140.622 250.797 140.31C250.797 140.206 250.764 140.096 250.753 139.992C250.36 139.751 249.994 139.444 249.627 139.17C249.261 138.896 248.835 138.622 248.463 138.293C247.771 137.711 247.274 136.931 247.036 136.057C246.795 135.12 246.638 134.163 246.566 133.197C246.44 132.063 246.347 130.928 246.189 129.799C246.178 129.723 246.276 129.695 246.287 129.761Z" fill="#37474F"/>
<path d="M253.405 97.7139C252.437 101.49 248.589 110.11 242.122 117.223C239.623 119.963 219.845 122.873 217.757 122.275C216.291 121.853 212.006 109.173 213.383 108.109C216.002 106.109 234.556 108.433 235.288 107.951C236.414 107.211 243.756 101.221 248.332 95.7575C251.694 91.7736 255.012 91.4283 253.405 97.7139Z" fill="#AD6359"/>
<path d="M249.179 109.003L237.218 105.479C237.218 105.479 246.746 95.615 250.338 93.4778C254.41 91.0995 254.711 93.708 253.618 98.0646C252.524 102.421 249.179 109.003 249.179 109.003Z" fill="url(#paint19_linear_747_1600)"/>
<path d="M239.547 103.846C239.979 103.901 243.723 104.942 244.532 105.183C245.341 105.424 248.66 106.394 249.452 106.712C249.458 106.715 249.463 106.719 249.467 106.724C249.47 106.73 249.472 106.736 249.472 106.742C249.472 106.749 249.47 106.755 249.467 106.76C249.463 106.766 249.458 106.77 249.452 106.772C248.594 106.613 245.248 105.649 244.417 105.419C243.586 105.189 239.907 104.076 239.497 103.901C239.47 103.884 239.492 103.841 239.547 103.846Z" fill="#263238"/>
<path d="M244.565 107.638L249.179 108.997C249.179 108.997 252.546 102.421 253.656 98.0372C254.465 94.8533 254.509 92.601 252.885 92.5572L244.565 107.638Z" fill="#263238"/>
<path d="M272.073 131.975L241.055 131.827C241.055 132.441 247.785 97.0727 251.027 92.8367C251.721 91.927 256.461 90.7817 258.598 92.7819C267.973 101.528 272.073 132.369 272.073 131.975Z" fill="url(#paint20_linear_747_1600)"/>
<path opacity="0.1" d="M247.987 102.52L251.951 102.794L251.71 108.038L248.988 108.762L247.43 107.523L247.987 102.52Z" fill="black"/>
<path d="M253.104 97.0837C254.58 97.4399 256.761 94.6341 257.827 92.5188C257.898 92.3764 257.63 90.8748 257.39 89.0555C257.253 87.9595 257.122 86.71 257.084 85.5702C257.084 85.3346 250.015 87.543 250.015 87.543C250.47 88.9536 250.749 90.415 250.846 91.8941C250.852 92.0519 250.841 92.21 250.813 92.3654C250.813 92.3654 250.813 92.4092 250.813 92.4421C250.693 93.3354 251.524 96.7001 253.104 97.0837Z" fill="#AD6359"/>
<path d="M250.813 92.3654C250.813 92.3654 250.813 92.4147 250.813 92.4421C251.057 92.4617 251.302 92.4617 251.546 92.4421C255.733 92.212 256.668 86.9128 256.838 85.5702C255.575 85.7949 250.021 87.532 250.021 87.532C250.475 88.9428 250.756 90.404 250.857 91.8832C250.858 92.0449 250.843 92.2064 250.813 92.3654Z" fill="#263238"/>
<path d="M258.407 77.0269C259.008 79.608 257.188 86.8251 255.285 88.3321C252.552 90.5241 248.255 90.4584 246.462 87.1923C244.724 84.0248 247.26 74.665 249.365 73.3169C252.459 71.3332 257.516 73.2183 258.407 77.0269Z" fill="#AD6359"/>
<path d="M251.18 80.9232C251.18 80.9232 251.213 80.956 251.207 80.978C251.07 81.4602 250.999 82.0356 251.398 82.3041C251.398 82.3041 251.398 82.337 251.398 82.3315C250.868 82.1233 250.977 81.3616 251.18 80.9232Z" fill="#263238"/>
<path d="M251.743 80.5231C252.535 80.6601 252.207 82.2438 251.475 82.1178C250.742 81.9918 251.076 80.4135 251.743 80.5231Z" fill="#263238"/>
<path d="M248.545 80.419C248.545 80.419 248.501 80.419 248.496 80.4519C248.408 80.9506 248.228 81.4986 247.752 81.5479V81.5753C248.293 81.652 248.539 80.9012 248.545 80.419Z" fill="#263238"/>
<path d="M248.211 79.8162C247.435 79.5915 247.047 81.1643 247.768 81.367C248.49 81.5698 248.84 80.008 248.211 79.8162Z" fill="#263238"/>
<path d="M252.514 79.9313C252.325 79.826 252.143 79.7108 251.967 79.586C251.751 79.4921 251.57 79.3307 251.453 79.1257C251.431 79.054 251.432 78.9769 251.456 78.9058C251.481 78.8348 251.528 78.7735 251.59 78.7312C251.728 78.6696 251.88 78.6453 252.03 78.6607C252.181 78.6761 252.325 78.7306 252.448 78.8188C252.722 78.9612 252.933 79.2019 253.038 79.4929C253.062 79.5631 253.064 79.6388 253.044 79.7101C253.024 79.7814 252.983 79.8449 252.926 79.8923C252.869 79.9397 252.799 79.9688 252.726 79.9758C252.652 79.9828 252.578 79.9672 252.514 79.9313Z" fill="#263238"/>
<path d="M247.747 78.912C247.968 78.9149 248.189 78.9039 248.408 78.8791C248.644 78.8988 248.88 78.8411 249.081 78.7147C249.134 78.6625 249.17 78.5939 249.181 78.5195C249.191 78.4451 249.177 78.3692 249.141 78.3037C249.05 78.1832 248.928 78.0891 248.789 78.0313C248.65 77.9735 248.497 77.9541 248.348 77.9749C248.041 77.974 247.743 78.085 247.512 78.2873C247.462 78.3372 247.428 78.4004 247.414 78.4691C247.399 78.5379 247.404 78.6095 247.429 78.6753C247.454 78.7411 247.497 78.7984 247.553 78.8403C247.61 78.8823 247.677 78.9072 247.747 78.912Z" fill="#263238"/>
<path d="M250.841 85.5757C250.699 85.6634 250.551 85.8004 250.371 85.7784C250.188 85.7363 250.017 85.656 249.868 85.5428C249.835 85.5428 249.868 85.5428 249.868 85.5428C249.916 85.651 249.992 85.7444 250.088 85.8136C250.184 85.8829 250.297 85.9256 250.414 85.9374C250.519 85.9307 250.619 85.8941 250.703 85.8319C250.788 85.7697 250.853 85.6846 250.89 85.5866C250.889 85.5813 250.887 85.5764 250.883 85.5725C250.879 85.5686 250.874 85.5659 250.869 85.5648C250.864 85.5636 250.858 85.564 250.853 85.5659C250.848 85.5679 250.844 85.5713 250.841 85.5757Z" fill="#263238"/>
<path d="M250.628 83.9974C250.464 84.167 250.266 84.3003 250.048 84.389C249.829 84.4777 249.595 84.5198 249.359 84.5126C249.155 84.5096 248.952 84.4764 248.758 84.4139C248.719 84.4062 248.68 84.3952 248.643 84.381L248.539 84.3372C248.514 84.3276 248.493 84.3101 248.48 84.2873C248.466 84.2645 248.46 84.2377 248.463 84.2112C248.46 84.1948 248.46 84.1782 248.463 84.1618V84.1235C248.534 83.7399 248.687 83.1754 248.687 83.1754C248.534 83.2138 247.768 83.3837 247.818 83.1754C248.215 81.4789 248.781 79.8267 249.507 78.2434C249.513 78.2354 249.522 78.2295 249.532 78.2268C249.542 78.2241 249.553 78.2246 249.562 78.2282C249.572 78.2318 249.58 78.2385 249.586 78.2471C249.592 78.2557 249.595 78.266 249.594 78.2763C249.239 79.8436 248.61 81.3396 248.228 82.9069C248.502 82.8426 248.783 82.8168 249.064 82.8302C249.113 82.8576 248.747 83.9262 248.725 84.0961C249.028 84.192 249.346 84.2255 249.662 84.1944C249.978 84.1633 250.284 84.0683 250.562 83.9152C250.633 83.9262 250.666 83.9646 250.628 83.9974Z" fill="#263238"/>
<path d="M249.02 84.2714C249.171 84.5832 249.399 84.8511 249.682 85.0496C249.845 85.1541 250.035 85.2057 250.228 85.1976C250.638 85.1702 250.726 84.814 250.715 84.4906C250.709 84.3202 250.683 84.151 250.638 83.9865C250.143 84.2523 249.576 84.3521 249.02 84.2714Z" fill="#263238"/>
<path d="M249.682 85.0496C249.845 85.1541 250.035 85.2057 250.228 85.1976C250.638 85.1702 250.726 84.814 250.715 84.4906C250.505 84.4535 250.289 84.4885 250.101 84.5899C249.914 84.6914 249.766 84.8534 249.682 85.0496Z" fill="#FF98B9"/>
<path d="M247.823 75.5089C248.222 74.9609 248.66 74.3746 249.059 74.3307C249.458 74.2869 249.518 75.2459 250.354 75.4815C251.486 75.7939 252.262 74.8513 253.891 75.0705C256.231 75.3829 256.854 77.5256 256.236 80.819C255.69 83.7618 257.401 84.3975 257.401 84.3975C257.401 84.3975 259.79 78.1558 258.412 75.6295C257.035 73.1032 253.055 71.3112 249.835 72.7799C248.66 73.3224 247.823 75.5089 247.823 75.5089Z" fill="#263238"/>
<path d="M256.16 82.9398C256.16 82.9398 258.008 80.7478 259.024 81.4054C260.041 82.063 258.511 85.4003 257.215 85.7565C257.053 85.8127 256.881 85.8356 256.71 85.8239C256.539 85.8122 256.372 85.7662 256.219 85.6884C256.066 85.6107 255.93 85.503 255.819 85.3716C255.709 85.2402 255.626 85.0878 255.575 84.9236L256.16 82.9398Z" fill="#AD6359"/>
<path d="M248.293 74.0896C249.004 74.0567 252.776 74.9061 254.339 75.9747C255.903 77.0433 258.45 80.0902 258.582 80.2491C258.713 80.408 260.708 74.2924 255.848 72.1606C250.589 69.8371 248.293 74.0896 248.293 74.0896Z" fill="url(#paint21_linear_747_1600)"/>
<path d="M258.357 79.9368C258.357 79.9368 255.865 74.8513 254.197 73.4758C252.53 72.1004 248.468 70.7358 245.669 71.3496C243.483 71.8483 247.894 75.3993 247.894 75.3993C247.981 75.1966 248.114 75.0168 248.281 74.8741C248.449 74.7315 248.648 74.6299 248.862 74.5773C250.218 74.3198 252.53 75.1692 253.782 75.8925C255.4 76.8022 258.357 79.9368 258.357 79.9368Z" fill="url(#paint22_linear_747_1600)"/>
<path opacity="0.2" d="M258.357 79.9368C258.357 79.9368 255.865 74.8513 254.197 73.4758C252.53 72.1004 248.468 70.7358 245.669 71.3496C243.483 71.8483 247.894 75.3993 247.894 75.3993C247.981 75.1966 248.114 75.0168 248.281 74.8741C248.449 74.7315 248.648 74.6299 248.862 74.5773C250.218 74.3198 252.53 75.1692 253.782 75.8925C255.4 76.8022 258.357 79.9368 258.357 79.9368Z" fill="black"/>
<path d="M273.26 112.976H248.796V140.135H273.26V112.976Z" fill="url(#paint23_linear_747_1600)"/>
<path opacity="0.1" d="M273.26 112.976H248.796V140.135H273.26V112.976Z" fill="black"/>
<path d="M236.157 140.135H248.791V112.976H236.157V140.135Z" fill="url(#paint24_linear_747_1600)"/>
<path opacity="0.32" d="M236.157 140.135H248.791V112.976H236.157V140.135Z" fill="black"/>
<path d="M258.953 118.845H259.467H259.855L260.079 118.39L260.391 118.845L260.812 117.913L261.211 118.845H262.359H262.884L263.07 118.226L263.25 118.845H263.589V112.976H258.953V118.845Z" fill="white"/>
<path d="M237.032 138.26C237.969 136.331 238.896 134.395 239.814 132.452L242.548 126.61L245.281 120.741C246.178 118.783 247.065 116.817 247.943 114.844C247.007 116.781 246.081 118.719 245.166 120.659L242.433 126.5L239.7 132.369C238.8 134.328 237.91 136.291 237.032 138.26Z" fill="url(#paint25_linear_747_1600)"/>
<path d="M237.032 114.844C237.914 116.817 238.801 118.783 239.694 120.741L242.428 126.61L245.161 132.452C246.079 134.399 247.005 136.335 247.938 138.26C247.063 136.295 246.176 134.329 245.276 132.364L242.542 126.5L239.809 120.659C238.905 118.715 237.98 116.777 237.032 114.844Z" fill="url(#paint26_linear_747_1600)"/>
<path d="M264.24 95.1054C270.209 99.6045 281.788 109.688 282.826 115.14C284.155 122.297 278.076 136.375 275.479 139.093C273.73 140.929 266.022 134.161 265.557 132.517C265.092 130.873 271.357 119.437 271.406 118.127C271.456 116.817 263.447 104.832 259.97 99.4949C255.564 92.7819 259.188 91.2913 264.24 95.1054Z" fill="#AD6359"/>
<path d="M262.463 133.46C263.01 132.824 262.682 132.534 261.222 132.819C259.762 133.104 254.247 135.466 253.569 133.465C252.891 131.465 260.741 128.243 263.201 127.958C265.387 127.814 267.581 127.85 269.761 128.068C268.367 129.005 265.185 131.591 262.463 133.46Z" fill="#AD6359"/>
<path d="M276.173 138.184C273.702 142.316 266.536 144.919 261.189 145.017C260.603 145.04 260.026 144.866 259.549 144.524C257.155 144.612 256.395 143.505 256.395 143.505C254.137 142.896 253.519 141.658 253.519 141.658C253.519 141.658 250.704 141.729 250.376 140.014C250.01 138.107 254.033 138.37 256.335 137.175C261.616 134.408 268.361 128.999 269.788 128.046L276.173 138.184Z" fill="#AD6359"/>
<path d="M263.879 138.195C260.701 140.03 257.18 141.19 253.536 141.603C253.526 141.607 253.518 141.613 253.512 141.621C253.506 141.63 253.503 141.64 253.503 141.65C253.503 141.66 253.506 141.67 253.512 141.678C253.518 141.687 253.526 141.693 253.536 141.696C257.247 141.531 260.84 140.344 263.923 138.266C263.983 138.217 263.955 138.156 263.879 138.195Z" fill="#263238"/>
<path d="M266.005 141.143C264.436 141.822 261.67 142.995 256.368 143.444V143.477C259.738 143.64 263.086 142.858 266.038 141.22C266.131 141.17 266.109 141.099 266.005 141.143Z" fill="#263238"/>
<path d="M267.121 142.754C264.684 143.682 262.134 144.272 259.538 144.508V144.54C263.026 144.458 264.278 144.036 267.192 142.842C267.268 142.798 267.224 142.71 267.121 142.754Z" fill="#263238"/>
<path d="M264.579 108.411L275.905 103.188C275.905 103.188 265.049 94.793 261.145 93.2258C256.772 91.4612 256.827 94.0916 258.549 98.24C260.271 102.388 264.579 108.411 264.579 108.411Z" fill="url(#paint27_linear_747_1600)"/>
<path d="M273.385 101.928C272.964 102.049 269.411 103.621 268.646 103.978C267.88 104.334 264.737 105.769 263.977 106.208C263.944 106.208 263.977 106.279 263.977 106.263C264.803 105.983 267.979 104.542 268.766 104.191C269.553 103.841 273.035 102.213 273.391 101.999C273.44 101.928 273.44 101.895 273.385 101.928Z" fill="#263238"/>
<path d="M265.47 107.989C265.12 108.12 264.578 108.351 264.578 108.351C263.742 106.816 262.742 105.358 261.845 103.868C260.949 102.377 259.965 100.854 259.03 99.3469H258.992C259.473 100.235 259.948 101.117 260.435 101.999L260.194 101.703C259.91 101.347 259.615 101.002 259.347 100.64C259.347 100.613 259.276 100.64 259.298 100.673C259.534 101.063 259.793 101.438 260.074 101.796C260.282 102.043 260.5 102.279 260.725 102.509C261.003 103.008 261.271 103.512 261.577 104.01C262.479 105.534 263.37 107.298 264.387 108.74C264.387 108.74 265.158 108.301 265.524 108.038C265.563 108.033 265.524 107.956 265.47 107.989Z" fill="#263238"/>
<path d="M233.9 124.977L215.269 126.517L209.015 100.974L227.646 99.4346L233.9 124.977Z" fill="#37474F"/>
<path d="M223.19 101.342L214.362 102.065L213.673 99.2428L222.507 98.5249L223.19 101.342Z" fill="#A6A6A6"/>
<path d="M220.501 98.6893L219.413 98.777L219.096 97.4782L216.45 97.692L216.767 98.9962L215.685 99.0839L215.105 96.7165L219.938 96.322L220.501 98.6893Z" fill="#A6A6A6"/>
<path d="M206.287 112.587C206.315 113.024 206.484 113.441 206.768 113.775C207.051 114.109 207.435 114.342 207.862 114.439C207.862 114.439 206.342 115.683 206.769 117.261C206.987 118.072 208.474 118.434 208.474 118.434C208.145 118.734 207.905 119.12 207.78 119.548C207.656 119.976 207.652 120.431 207.769 120.861C208.141 121.957 209.578 122.155 209.578 122.155C209.578 122.155 208.917 123.689 209.655 124.686C211.153 126.709 220.845 124.511 221.534 120.593C221.857 118.763 219.517 119.431 219.517 119.431C219.517 119.431 222.649 117.661 222.25 115.644C221.851 113.628 218.861 114.68 218.861 114.68C218.861 114.68 221.884 112.937 221.255 110.888C220.627 108.838 217.795 110.34 217.795 110.34C217.795 110.34 219.621 108.389 218.784 106.931C217.401 104.526 213.241 108.877 211 108.855L210.12 105.523C210.12 105.523 206.102 110.822 206.287 112.587Z" fill="#AD6359"/>
<path d="M208.436 118.461C208.398 118.461 208.436 118.532 208.436 118.532C212.293 118.573 216.038 117.228 218.992 114.74C219.09 114.653 219.09 114.466 218.992 114.565C216.898 116.176 211.623 118.023 208.436 118.461Z" fill="#263238"/>
<path d="M217.959 110.06C215.045 112.466 211.661 113.688 208.004 114.444C207.955 114.444 207.977 114.516 208.004 114.521C209.895 114.636 212.175 113.913 213.903 113.195C215.519 112.561 216.942 111.514 218.03 110.159C218.085 110.11 218.019 110.011 217.959 110.06Z" fill="#263238"/>
<path d="M250.239 93.6532C250.343 94.2026 250.495 94.7417 250.693 95.2643C250.883 95.7841 251.117 96.2865 251.393 96.7658C251.651 97.2362 251.99 97.6573 252.393 98.0098C252.582 98.1646 252.805 98.2717 253.044 98.3222C253.284 98.3276 253.522 98.275 253.738 98.1687C254.717 97.6924 255.575 96.9991 256.247 96.1411C256.428 95.9329 256.597 95.7137 256.794 95.5C256.991 95.2862 257.122 95.0451 257.281 94.815C257.439 94.5848 257.592 94.3546 257.745 94.119C257.898 93.8834 258.035 93.6422 258.188 93.4066C257.771 94.4597 257.22 95.4543 256.548 96.3658C255.885 97.3217 254.984 98.0869 253.935 98.5852C253.642 98.7185 253.321 98.7751 253 98.7496C252.687 98.6903 252.396 98.5463 252.158 98.3331C251.72 97.941 251.368 97.4613 251.125 96.9248C250.601 95.9099 250.299 94.7945 250.239 93.6532Z" fill="#263238"/>
<path d="M39.4743 167.064C39.094 167.085 38.7624 166.977 38.4796 166.74C38.2023 166.496 38.0537 166.191 38.0336 165.822C38.0133 165.448 38.1307 165.124 38.3858 164.852C38.6406 164.574 38.9553 164.425 39.3297 164.405C39.7041 164.385 40.0331 164.499 40.3165 164.747C40.5997 164.99 40.7514 165.299 40.7718 165.673C40.7918 166.042 40.6743 166.362 40.4191 166.634C40.1695 166.9 39.8546 167.043 39.4743 167.064ZM37.7656 176.918C38.3098 176.889 38.6464 176.821 38.7756 176.714C38.9103 176.601 38.989 176.485 39.0119 176.367C39.0348 176.248 39.0415 176.101 39.032 175.925L38.769 171.09C38.7461 170.668 38.6931 170.396 38.61 170.271C38.5328 170.146 38.3333 170.092 38.0115 170.11L37.3797 170.144L37.3272 169.179C37.9005 169.148 38.3488 169.082 38.672 168.982C38.9949 168.877 39.2226 168.803 39.3553 168.76C39.4876 168.712 39.6328 168.684 39.7908 168.675C40.095 168.659 40.2989 168.739 40.4023 168.915C40.5113 169.085 40.5765 169.366 40.5978 169.758L40.9276 175.822C40.9476 176.191 41.0187 176.419 41.1408 176.506C41.348 176.647 41.7295 176.703 42.2853 176.673L42.3378 177.638L37.8181 177.884L37.7656 176.918ZM43.6456 176.599C44.1956 176.569 44.5526 176.497 44.7165 176.382C44.8801 176.262 44.982 176.139 45.0221 176.013C45.0623 175.888 45.0775 175.737 45.068 175.562L44.5612 166.242C44.5405 165.861 44.4633 165.628 44.3294 165.541C44.0865 165.39 43.655 165.332 43.0348 165.365L42.9823 164.4L47.1246 164.175L51.5646 174.117L54.7423 163.761L58.8407 163.538L58.8932 164.503C58.3374 164.533 57.9776 164.609 57.814 164.729C57.6501 164.844 57.548 164.964 57.5079 165.089C57.4678 165.214 57.4525 165.365 57.462 165.54L57.9689 174.861C57.9892 175.235 58.0694 175.468 58.2094 175.56C58.4523 175.712 58.8839 175.77 59.5041 175.737L59.5566 176.702L54.6858 176.967L54.6333 176.001C55.1833 175.971 55.5344 175.9 55.6866 175.786C55.8444 175.666 55.9404 175.543 55.9747 175.418C56.009 175.293 56.0213 175.142 56.0118 174.967L55.5026 165.603L52.0442 177.11L51.0701 177.163L45.9625 166.113L46.4722 175.486C46.4929 175.866 46.5701 176.099 46.7039 176.186C46.9468 176.337 47.3784 176.396 47.9986 176.362L48.0511 177.327L43.6981 177.564L43.6456 176.599ZM60.8129 172.127C60.7747 171.425 60.8478 170.772 61.0322 170.17C61.222 169.561 61.5023 169.05 61.873 168.637C62.6033 167.822 63.6091 167.38 64.8904 167.311C66.1834 167.24 67.246 167.573 68.0782 168.308C68.9159 169.037 69.3735 170.115 69.4512 171.543C69.5285 172.965 69.2255 174.137 68.5422 175.06C67.8589 175.984 66.8093 176.484 65.3934 176.561C63.9775 176.638 62.8778 176.269 62.0941 175.455C61.316 174.635 60.889 173.525 60.8129 172.127ZM65.3362 175.507C66.0148 175.471 66.548 175.131 66.9355 174.488C67.3289 173.844 67.495 172.961 67.4339 171.837C67.3356 170.03 66.8178 168.925 65.8806 168.524C65.5922 168.399 65.2812 168.346 64.9477 168.364C63.8653 168.423 63.1959 169.116 62.9395 170.445C62.847 170.901 62.8172 171.431 62.8499 172.034C62.9129 173.192 63.1719 174.07 63.6269 174.667C64.0877 175.264 64.6575 175.544 65.3362 175.507ZM70.9362 169.068C70.74 168.697 70.5683 168.454 70.4212 168.339C70.28 168.223 69.987 168.178 69.5424 168.202L69.4899 167.237L74.1851 166.981L74.2376 167.947C73.5881 167.982 73.194 168.071 73.055 168.213C72.9157 168.35 72.9291 168.596 73.0951 168.951L75.34 173.652L77.1935 168.728C77.3217 168.386 77.2794 168.148 77.0666 168.013C76.8598 167.877 76.4141 167.828 75.7295 167.866L75.677 166.9L79.6789 166.683L79.7314 167.648C79.3628 167.668 79.0861 167.759 78.9013 167.922C78.7162 168.079 78.5594 168.325 78.431 168.661L75.5905 175.83L74.6339 175.882L70.9362 169.068ZM88.5785 171.066L82.4879 171.397C82.5426 172.404 82.8219 173.169 83.3257 173.693C83.8354 174.217 84.4413 174.46 85.1433 174.422C86.0853 174.371 86.7399 173.945 87.1072 173.144L88.4143 173.065C88.3138 173.698 87.9564 174.248 87.3422 174.716C86.7339 175.183 85.8915 175.446 84.8149 175.505C83.7384 175.563 82.79 175.28 81.9697 174.656C80.99 173.905 80.4606 172.802 80.3813 171.345C80.3021 169.888 80.6099 168.695 81.3045 167.765C82.0048 166.829 83.0511 166.323 84.4436 166.248C86.2749 166.148 87.4997 166.821 88.1182 168.266C88.3668 168.845 88.5054 169.398 88.534 169.924C88.5627 170.451 88.5775 170.832 88.5785 171.066ZM86.4797 169.86C86.3823 168.07 85.7251 167.208 84.5082 167.274C83.8237 167.311 83.3028 167.606 82.9456 168.16C82.5942 168.713 82.4266 169.461 82.4428 170.405L86.4885 170.185C86.4883 170.074 86.4854 169.965 86.4797 169.86ZM98.3726 170.534L92.282 170.865C92.3368 171.871 92.616 172.637 93.1198 173.161C93.6295 173.685 94.2354 173.928 94.9375 173.889C95.8794 173.838 96.534 173.412 96.9013 172.612L98.2084 172.532C98.1079 173.165 97.7506 173.716 97.1364 174.183C96.528 174.651 95.6856 174.914 94.6091 174.972C93.5325 175.031 92.5841 174.748 91.7639 174.123C90.7842 173.373 90.2547 172.269 90.1755 170.812C90.0963 169.355 90.404 168.162 91.0987 167.232C91.7989 166.297 92.8452 165.791 94.2377 165.715C96.069 165.616 97.2938 166.288 97.9123 167.733C98.1609 168.313 98.2995 168.865 98.3282 169.392C98.3568 169.919 98.3716 170.299 98.3726 170.534ZM96.2738 169.328C96.1764 167.537 95.5193 166.675 94.3023 166.741C93.6178 166.779 93.0969 167.074 92.7397 167.627C92.3884 168.18 92.2208 168.929 92.2369 169.873L96.2827 169.653C96.2825 169.541 96.2795 169.433 96.2738 169.328ZM100.076 173.531C100.579 173.503 100.892 173.436 101.016 173.33C101.139 173.218 101.209 173.102 101.226 172.984C101.249 172.866 101.255 172.718 101.246 172.543L100.983 167.707C100.96 167.286 100.907 167.013 100.824 166.889C100.747 166.764 100.547 166.71 100.225 166.727L99.69 166.757L99.6375 165.791C100.193 165.761 100.621 165.697 100.921 165.598C101.226 165.494 101.442 165.42 101.569 165.378C101.701 165.33 101.844 165.302 101.996 165.293C102.294 165.277 102.498 165.354 102.607 165.524C102.722 165.694 102.79 165.978 102.812 166.376L102.821 166.551C103.292 165.933 103.841 165.504 104.468 165.265C104.692 165.182 104.918 165.134 105.146 165.122C105.585 165.098 105.931 165.205 106.185 165.444C106.444 165.682 106.584 165.986 106.604 166.354C106.624 166.723 106.524 167.031 106.302 167.277C106.081 167.524 105.804 167.656 105.47 167.675C105.142 167.692 104.864 167.59 104.635 167.368C104.411 167.145 104.302 166.858 104.306 166.506C104.068 166.554 103.817 166.679 103.552 166.881C103.293 167.077 103.069 167.339 102.882 167.666L103.137 172.361C103.149 172.583 103.176 172.761 103.219 172.893C103.267 173.02 103.375 173.125 103.544 173.21C103.719 173.289 104.224 173.305 105.061 173.26L105.113 174.225L100.128 174.496L100.076 173.531Z" fill="white"/>
<defs>
<linearGradient id="paint0_linear_747_1600" x1="265.57" y1="105.447" x2="256.922" y2="105.447" gradientUnits="userSpaceOnUse">
<stop stop-color="#4E5FFF"/>
<stop offset="0.439659" stop-color="#006DD1"/>
<stop offset="0.947917" stop-color="#0086D1"/>
</linearGradient>
<linearGradient id="paint1_linear_747_1600" x1="256.222" y1="147.123" x2="247.574" y2="147.123" gradientUnits="userSpaceOnUse">
<stop stop-color="#4E5FFF"/>
<stop offset="0.439659" stop-color="#006DD1"/>
<stop offset="0.947917" stop-color="#0086D1"/>
</linearGradient>
<linearGradient id="paint2_linear_747_1600" x1="241.733" y1="154.238" x2="160.454" y2="154.238" gradientUnits="userSpaceOnUse">
<stop stop-color="#4E5FFF"/>
<stop offset="0.439659" stop-color="#006DD1"/>
<stop offset="0.947917" stop-color="#0086D1"/>
</linearGradient>
<linearGradient id="paint3_linear_747_1600" x1="210.004" y1="150.629" x2="199.068" y2="150.629" gradientUnits="userSpaceOnUse">
<stop stop-color="#4E5FFF"/>
<stop offset="0.439659" stop-color="#006DD1"/>
<stop offset="0.947917" stop-color="#0086D1"/>
</linearGradient>
<linearGradient id="paint4_linear_747_1600" x1="156.158" y1="139.497" x2="-2.21784" y2="139.497" gradientUnits="userSpaceOnUse">
<stop stop-color="#4E5FFF"/>
<stop offset="0.439659" stop-color="#006DD1"/>
<stop offset="0.947917" stop-color="#0086D1"/>
</linearGradient>
<linearGradient id="paint5_linear_747_1600" x1="295.247" y1="222.927" x2="268.577" y2="222.927" gradientUnits="userSpaceOnUse">
<stop stop-color="#4E5FFF"/>
<stop offset="0.439659" stop-color="#006DD1"/>
<stop offset="0.947917" stop-color="#0086D1"/>
</linearGradient>
<linearGradient id="paint6_linear_747_1600" x1="251.535" y1="223.638" x2="265.308" y2="223.638" gradientUnits="userSpaceOnUse">
<stop stop-color="#4E5FFF"/>
<stop offset="0.439659" stop-color="#006DD1"/>
<stop offset="0.947917" stop-color="#0086D1"/>
</linearGradient>
<linearGradient id="paint7_linear_747_1600" x1="265.393" y1="222.99" x2="253.522" y2="222.99" gradientUnits="userSpaceOnUse">
<stop stop-color="#4E5FFF"/>
<stop offset="0.439659" stop-color="#006DD1"/>
<stop offset="0.947917" stop-color="#0086D1"/>
</linearGradient>
<linearGradient id="paint8_linear_747_1600" x1="265.399" y1="222.976" x2="253.523" y2="222.976" gradientUnits="userSpaceOnUse">
<stop stop-color="#4E5FFF"/>
<stop offset="0.439659" stop-color="#006DD1"/>
<stop offset="0.947917" stop-color="#0086D1"/>
</linearGradient>
<linearGradient id="paint9_linear_747_1600" x1="308.591" y1="190.924" x2="281.921" y2="190.924" gradientUnits="userSpaceOnUse">
<stop stop-color="#4E5FFF"/>
<stop offset="0.439659" stop-color="#006DD1"/>
<stop offset="0.947917" stop-color="#0086D1"/>
</linearGradient>
<linearGradient id="paint10_linear_747_1600" x1="264.885" y1="191.64" x2="278.657" y2="191.64" gradientUnits="userSpaceOnUse">
<stop stop-color="#4E5FFF"/>
<stop offset="0.439659" stop-color="#006DD1"/>
<stop offset="0.947917" stop-color="#0086D1"/>
</linearGradient>
<linearGradient id="paint11_linear_747_1600" x1="278.77" y1="190.976" x2="266.869" y2="190.976" gradientUnits="userSpaceOnUse">
<stop stop-color="#4E5FFF"/>
<stop offset="0.439659" stop-color="#006DD1"/>
<stop offset="0.947917" stop-color="#0086D1"/>
</linearGradient>
<linearGradient id="paint12_linear_747_1600" x1="278.743" y1="190.976" x2="266.867" y2="190.976" gradientUnits="userSpaceOnUse">
<stop stop-color="#4E5FFF"/>
<stop offset="0.439659" stop-color="#006DD1"/>
<stop offset="0.947917" stop-color="#0086D1"/>
</linearGradient>
<linearGradient id="paint13_linear_747_1600" x1="332.283" y1="222.927" x2="305.613" y2="222.927" gradientUnits="userSpaceOnUse">
<stop stop-color="#4E5FFF"/>
<stop offset="0.439659" stop-color="#006DD1"/>
<stop offset="0.947917" stop-color="#0086D1"/>
</linearGradient>
<linearGradient id="paint14_linear_747_1600" x1="288.572" y1="223.638" x2="302.344" y2="223.638" gradientUnits="userSpaceOnUse">
<stop stop-color="#4E5FFF"/>
<stop offset="0.439659" stop-color="#006DD1"/>
<stop offset="0.947917" stop-color="#0086D1"/>
</linearGradient>
<linearGradient id="paint15_linear_747_1600" x1="302.43" y1="222.99" x2="290.559" y2="222.99" gradientUnits="userSpaceOnUse">
<stop stop-color="#4E5FFF"/>
<stop offset="0.439659" stop-color="#006DD1"/>
<stop offset="0.947917" stop-color="#0086D1"/>
</linearGradient>
<linearGradient id="paint16_linear_747_1600" x1="302.413" y1="222.976" x2="290.558" y2="222.976" gradientUnits="userSpaceOnUse">
<stop stop-color="#4E5FFF"/>
<stop offset="0.439659" stop-color="#006DD1"/>
<stop offset="0.947917" stop-color="#0086D1"/>
</linearGradient>
<linearGradient id="paint17_linear_747_1600" x1="252.448" y1="234.167" x2="221.738" y2="234.167" gradientUnits="userSpaceOnUse">
<stop stop-color="#4E5FFF"/>
<stop offset="0.439659" stop-color="#006DD1"/>
<stop offset="0.947917" stop-color="#0086D1"/>
</linearGradient>
<linearGradient id="paint18_linear_747_1600" x1="275.266" y1="234.51" x2="244.511" y2="234.51" gradientUnits="userSpaceOnUse">
<stop stop-color="#4E5FFF"/>
<stop offset="0.439659" stop-color="#006DD1"/>
<stop offset="0.947917" stop-color="#0086D1"/>
</linearGradient>
<linearGradient id="paint19_linear_747_1600" x1="254.162" y1="100.607" x2="238.485" y2="100.607" gradientUnits="userSpaceOnUse">
<stop stop-color="#4E5FFF"/>
<stop offset="0.439659" stop-color="#006DD1"/>
<stop offset="0.947917" stop-color="#0086D1"/>
</linearGradient>
<linearGradient id="paint20_linear_747_1600" x1="272.073" y1="111.379" x2="243.375" y2="111.379" gradientUnits="userSpaceOnUse">
<stop stop-color="#4E5FFF"/>
<stop offset="0.439659" stop-color="#006DD1"/>
<stop offset="0.947917" stop-color="#0086D1"/>
</linearGradient>
<linearGradient id="paint21_linear_747_1600" x1="259.097" y1="75.7616" x2="249.101" y2="75.7616" gradientUnits="userSpaceOnUse">
<stop stop-color="#4E5FFF"/>
<stop offset="0.439659" stop-color="#006DD1"/>
<stop offset="0.947917" stop-color="#0086D1"/>
</linearGradient>
<linearGradient id="paint22_linear_747_1600" x1="258.357" y1="75.4705" x2="246.055" y2="75.4705" gradientUnits="userSpaceOnUse">
<stop stop-color="#4E5FFF"/>
<stop offset="0.439659" stop-color="#006DD1"/>
<stop offset="0.947917" stop-color="#0086D1"/>
</linearGradient>
<linearGradient id="paint23_linear_747_1600" x1="273.26" y1="126.253" x2="250.626" y2="126.253" gradientUnits="userSpaceOnUse">
<stop stop-color="#4E5FFF"/>
<stop offset="0.439659" stop-color="#006DD1"/>
<stop offset="0.947917" stop-color="#0086D1"/>
</linearGradient>
<linearGradient id="paint24_linear_747_1600" x1="236.157" y1="126.857" x2="247.846" y2="126.857" gradientUnits="userSpaceOnUse">
<stop stop-color="#4E5FFF"/>
<stop offset="0.439659" stop-color="#006DD1"/>
<stop offset="0.947917" stop-color="#0086D1"/>
</linearGradient>
<linearGradient id="paint25_linear_747_1600" x1="247.943" y1="126.292" x2="237.848" y2="126.292" gradientUnits="userSpaceOnUse">
<stop stop-color="#4E5FFF"/>
<stop offset="0.439659" stop-color="#006DD1"/>
<stop offset="0.947917" stop-color="#0086D1"/>
</linearGradient>
<linearGradient id="paint26_linear_747_1600" x1="247.938" y1="126.292" x2="237.848" y2="126.292" gradientUnits="userSpaceOnUse">
<stop stop-color="#4E5FFF"/>
<stop offset="0.439659" stop-color="#006DD1"/>
<stop offset="0.947917" stop-color="#0086D1"/>
</linearGradient>
<linearGradient id="paint27_linear_747_1600" x1="275.905" y1="100.365" x2="258.838" y2="100.365" gradientUnits="userSpaceOnUse">
<stop stop-color="#4E5FFF"/>
<stop offset="0.439659" stop-color="#006DD1"/>
<stop offset="0.947917" stop-color="#0086D1"/>
</linearGradient>
</defs>
</svg>
