<svg width="333" height="333" viewBox="0 0 333 333" fill="none" xmlns="http://www.w3.org/2000/svg">
<path opacity="0.7" d="M45.2414 111.282C45.2414 111.282 26.6733 159.234 52.7672 207.519C78.8611 255.804 132.607 281.312 175.624 303.123C218.641 324.935 263.31 314.312 284.535 278.588C305.761 242.864 276.65 217.362 276.61 166.42C276.57 115.478 284.235 101.991 256.63 58.9544C229.024 15.9175 161.352 6.38702 110.176 38.3084C59.0009 70.2297 45.2414 111.282 45.2414 111.282Z" fill="white"/>
<path d="M87.912 284.762C103.63 301.358 142.218 295.278 158.934 284.762C213.213 250.629 308.305 193.806 312.614 111.488C314.445 76.5034 283.589 58.1283 270.702 52.7404C239.76 39.7934 205.794 35.9106 172.261 34.4121C137.249 32.847 99.6669 34.0658 68.1584 51.1487C56.2104 57.6155 44.9417 65.9339 37.2294 77.256C29.3972 88.7645 24.8884 102.471 23.6896 116.304C21.7649 138.615 27.7655 160.986 36.8431 181.458C45.9207 201.931 58.0219 220.886 69.1308 240.333C76.3835 253.007 74.6986 270.782 87.912 284.762Z" fill="#315B99"/>
<path opacity="0.7" d="M87.912 284.762C103.63 301.358 142.218 295.278 158.934 284.762C213.213 250.629 308.305 193.806 312.614 111.488C314.445 76.5034 283.589 58.1283 270.702 52.7404C239.76 39.7934 205.794 35.9106 172.261 34.4121C137.249 32.847 99.6669 34.0658 68.1584 51.1487C56.2104 57.6155 44.9417 65.9339 37.2294 77.256C29.3972 88.7645 24.8884 102.471 23.6896 116.304C21.7649 138.615 27.7655 160.986 36.8431 181.458C45.9207 201.931 58.0219 220.886 69.1308 240.333C76.3835 253.007 74.6986 270.782 87.912 284.762Z" fill="white"/>
<path d="M94.0465 93.6483L62.1107 84.0013C60.8713 83.627 59.563 84.3276 59.1885 85.5671L53.5083 104.371C53.1339 105.61 53.8352 106.918 55.0746 107.293L87.0109 116.94C88.2503 117.315 89.5583 116.613 89.9326 115.374L95.6129 96.5707C95.9872 95.3313 95.2859 94.0226 94.0465 93.6483Z" stroke="#263238" stroke-width="1.00285" stroke-miterlimit="10"/>
<path d="M58.0617 88.4714L94.3655 99.4738" stroke="#263238" stroke-miterlimit="10"/>
<path d="M56.9563 92.1145L93.2666 103.117" stroke="#263238" stroke-miterlimit="10"/>
<path d="M82.2177 109.93C82.1251 110.236 82.0958 110.559 82.1311 110.876C82.1671 111.195 82.2663 111.502 82.4242 111.781C81.8801 112.05 81.254 112.102 80.6726 111.928C80.3023 111.816 79.9653 111.615 79.6909 111.343C79.4159 111.07 79.2127 110.735 79.0982 110.365C78.9836 109.996 78.961 109.604 79.0336 109.224C79.1055 108.844 79.2693 108.487 79.5111 108.186C79.7535 107.884 80.0652 107.646 80.4208 107.493C80.7758 107.34 81.1634 107.277 81.5484 107.308C81.934 107.339 82.3056 107.465 82.6313 107.674C82.957 107.882 83.2267 108.168 83.4165 108.505C83.1315 108.65 82.8791 108.851 82.6733 109.096C82.4668 109.341 82.3123 109.624 82.2177 109.93Z" stroke="#263238" stroke-miterlimit="10"/>
<path d="M86.7398 111.302C86.6033 111.749 86.3376 112.146 85.9759 112.442C85.6136 112.738 85.1721 112.921 84.7065 112.966C84.241 113.011 83.7728 112.918 83.3605 112.697C82.9483 112.475 82.6113 112.137 82.3915 111.724C82.1717 111.312 82.0792 110.843 82.1258 110.377C82.1717 109.912 82.3556 109.471 82.6526 109.11C82.9496 108.749 83.3472 108.484 83.7954 108.349C84.243 108.214 84.7205 108.215 85.1681 108.352C85.7675 108.534 86.2703 108.948 86.5647 109.501C86.8597 110.054 86.9223 110.702 86.7398 111.302Z" stroke="#263238" stroke-miterlimit="10"/>
<path d="M311.112 139.038L284.706 131.035C283.47 130.661 282.165 131.359 281.791 132.595L277.163 147.866C276.788 149.101 277.486 150.407 278.722 150.781L305.128 158.784C306.363 159.159 307.669 158.461 308.043 157.225L312.671 141.953C313.046 140.718 312.347 139.412 311.112 139.038Z" stroke="#263238" stroke-miterlimit="10"/>
<path d="M281.079 134.945L311.961 144.302" stroke="#263238" stroke-miterlimit="10"/>
<path d="M280.14 138.048L311.015 147.406" stroke="#263238" stroke-miterlimit="10"/>
<path d="M301.625 153.18C301.545 153.44 301.52 153.713 301.549 153.984C301.579 154.254 301.663 154.515 301.798 154.752C301.506 154.894 301.185 154.962 300.86 154.952C300.537 154.942 300.22 154.853 299.938 154.693C299.655 154.533 299.417 154.306 299.242 154.034C299.067 153.761 298.961 153.449 298.933 153.126C298.905 152.803 298.957 152.478 299.083 152.18C299.209 151.881 299.405 151.617 299.655 151.411C299.906 151.205 300.203 151.063 300.521 150.998C300.838 150.933 301.167 150.946 301.478 151.035C301.972 151.184 302.39 151.518 302.644 151.968C302.4 152.09 302.184 152.26 302.009 152.469C301.834 152.677 301.703 152.919 301.625 153.18Z" stroke="#263238" stroke-miterlimit="10"/>
<path d="M305.468 154.365C305.35 154.742 305.123 155.075 304.816 155.322C304.51 155.57 304.137 155.721 303.745 155.758C303.352 155.794 302.957 155.713 302.611 155.526C302.264 155.338 301.98 155.053 301.796 154.704C301.611 154.356 301.534 153.961 301.573 153.569C301.612 153.177 301.767 152.805 302.016 152.501C302.267 152.196 302.601 151.972 302.978 151.857C303.355 151.742 303.758 151.741 304.136 151.855C304.389 151.931 304.624 152.056 304.828 152.224C305.033 152.391 305.202 152.599 305.326 152.832C305.45 153.065 305.526 153.321 305.55 153.584C305.575 153.848 305.546 154.113 305.468 154.365Z" stroke="#263238" stroke-miterlimit="10"/>
<path d="M268.85 66.0768L230.301 83.7262L239.483 103.782L278.032 86.1324L268.85 66.0768Z" stroke="#263238" stroke-miterlimit="10"/>
<path d="M274.718 83.25L268.884 70.5094C268.339 70.7579 267.717 70.7805 267.156 70.572C266.594 70.3636 266.138 69.9413 265.887 69.3972L234.725 83.6629C234.974 84.2077 234.997 84.8291 234.788 85.3912C234.58 85.9526 234.157 86.4089 233.613 86.6599L239.447 99.4005C239.717 99.2766 240.009 99.2074 240.306 99.1961C240.603 99.1854 240.9 99.2334 241.178 99.3373C241.456 99.4411 241.711 99.599 241.928 99.8021C242.146 100.005 242.321 100.248 242.444 100.519L273.599 86.247C273.476 85.9766 273.406 85.6849 273.396 85.3879C273.384 85.0908 273.432 84.7945 273.537 84.5161C273.641 84.2377 273.799 83.9826 274.001 83.7648C274.204 83.5477 274.448 83.3726 274.718 83.25Z" stroke="#263238" stroke-miterlimit="10"/>
<path d="M257.697 89.5298C260.234 87.5804 260.711 83.9427 258.762 81.4052C256.812 78.8671 253.175 78.3902 250.637 80.3396C248.1 82.289 247.622 85.9267 249.571 88.4648C251.521 91.0023 255.159 91.4791 257.697 89.5298Z" stroke="#263238" stroke-miterlimit="10"/>
<path d="M255.744 87.7388L256.177 88.6845L255.764 88.871L255.338 87.9386C254.608 88.2556 253.791 88.3076 253.027 88.0851V87.5057C253.701 87.7095 254.426 87.6742 255.078 87.4058L254.099 85.248C253.087 85.4411 252.041 85.5876 251.542 84.4954C251.182 83.7095 251.435 82.7638 252.647 82.0911L252.214 81.1387L252.627 80.9523L253.08 81.918C253.679 81.6582 254.339 81.5703 254.985 81.6649V82.2443C254.416 82.1617 253.835 82.2283 253.3 82.4374L254.299 84.6219C255.331 84.4155 256.43 84.229 256.963 85.3346C257.296 86.1005 257.009 87.0662 255.744 87.7388ZM253.839 84.6685L252.894 82.584C252.074 83.0435 251.895 83.6562 252.134 84.1757C252.414 84.8284 253.08 84.8017 253.833 84.6685H253.839ZM256.35 85.6076C256.057 84.9416 255.351 85.0082 254.565 85.1614L255.504 87.2193C256.41 86.7398 256.583 86.1337 256.343 85.6076H256.35Z" fill="#263238"/>
<path d="M56.1064 157.437L26.4628 160.104L27.8504 175.522L57.494 172.855L56.1064 157.437Z" stroke="#263238" stroke-width="1.00404" stroke-miterlimit="10"/>
<path d="M55.1114 169.737L54.2723 159.98C53.8548 160.015 53.4404 159.883 53.1196 159.614C52.7989 159.344 52.5979 158.958 52.5607 158.541L28.6912 160.606C28.7246 161.023 28.5923 161.436 28.3231 161.757C28.0539 162.077 27.6693 162.278 27.2527 162.317L28.0918 172.074C28.2987 172.056 28.5072 172.079 28.7053 172.141C28.9034 172.204 29.0873 172.305 29.2463 172.438C29.4053 172.572 29.5364 172.736 29.6319 172.92C29.7276 173.105 29.7859 173.306 29.8034 173.513L53.6729 171.448C53.6396 171.031 53.7718 170.618 54.041 170.297C54.3103 169.977 54.6949 169.775 55.1114 169.737Z" stroke="#263238" stroke-miterlimit="10"/>
<path d="M45.2213 165.681C45.2907 166.48 45.1216 167.282 44.7353 167.985C44.3489 168.688 43.7627 169.261 43.0508 169.631C42.3388 170.001 41.5332 170.152 40.7357 170.064C39.9382 169.975 39.1847 169.653 38.5706 169.137C37.9565 168.62 37.5093 167.934 37.2855 167.163C37.0618 166.393 37.0716 165.573 37.3137 164.808C37.5558 164.043 38.0193 163.367 38.6456 162.866C39.272 162.364 40.033 162.06 40.8323 161.991C41.3629 161.944 41.8975 162.003 42.4053 162.163C42.9133 162.323 43.3846 162.583 43.7923 162.926C44.2 163.268 44.5361 163.688 44.7813 164.16C45.0265 164.633 45.176 165.15 45.2213 165.681Z" stroke="#263238" stroke-miterlimit="10"/>
<path d="M41.5583 168.252L41.6182 168.978H41.3052L41.2386 168.258C40.6851 168.295 40.1362 168.137 39.6868 167.812L39.8333 167.439C40.2307 167.728 40.7144 167.873 41.2053 167.852L41.0654 166.194C40.3528 166.087 39.6269 165.934 39.5603 165.101C39.507 164.495 39.8933 163.929 40.8523 163.769L40.7924 163.043H41.1054L41.1653 163.756C41.6273 163.727 42.0883 163.826 42.4973 164.042L42.3708 164.422C42.0154 164.238 41.619 164.146 41.2186 164.156L41.3585 165.827C42.0844 165.934 42.857 166.074 42.9302 166.92C42.9702 167.539 42.5506 168.105 41.5583 168.252ZM41.0255 165.781L40.8856 164.202C40.2196 164.316 39.9798 164.675 40.0131 165.075C40.0464 165.474 40.4927 165.694 41.0255 165.781ZM42.4574 166.993C42.4107 166.493 41.9379 166.327 41.3851 166.274L41.5183 167.852C42.2109 167.739 42.4907 167.392 42.4574 166.993Z" fill="#263238"/>
<path d="M295.924 75.0649C299.124 75.0649 301.718 72.4708 301.718 69.2707C301.718 66.0707 299.124 63.4766 295.924 63.4766C292.724 63.4766 290.13 66.0707 290.13 69.2707C290.13 72.4708 292.724 75.0649 295.924 75.0649Z" stroke="#263238" stroke-miterlimit="10"/>
<path d="M296.184 72.4874V73.5264H295.704V72.4941C294.91 72.4781 294.145 72.1891 293.54 71.6749L293.799 71.1554C294.329 71.6203 295 71.8927 295.704 71.928V69.5504C294.705 69.304 293.706 68.9976 293.706 67.7988C293.706 66.933 294.332 66.1802 295.704 66.0736V65.0146H296.157V66.047C296.81 66.0608 297.447 66.2569 297.995 66.6133L297.769 67.1461C297.286 66.8344 296.73 66.6533 296.157 66.62V69.0176C297.176 69.264 298.255 69.5504 298.255 70.7692C298.281 71.6416 297.622 72.4075 296.184 72.4874ZM295.731 68.8977V66.64C294.798 66.7199 294.399 67.1994 294.399 67.7722C294.372 68.4581 294.985 68.7112 295.704 68.8977H295.731ZM297.622 70.8025C297.622 70.0898 296.956 69.8434 296.184 69.6503V71.928C297.176 71.8414 297.622 71.3819 297.622 70.8025Z" fill="#263238"/>
<path d="M257.761 146.787C260.876 146.053 262.806 142.933 262.071 139.818C261.337 136.704 258.218 134.774 255.103 135.508C251.988 136.242 250.058 139.362 250.792 142.476C251.526 145.591 254.646 147.521 257.761 146.787Z" stroke="#263238" stroke-miterlimit="10"/>
<path d="M254.971 144.016L254.432 144.902L254.046 144.662L254.585 143.783C253.914 143.357 253.414 142.709 253.173 141.951L253.666 141.645C253.875 142.315 254.304 142.895 254.885 143.29L256.137 141.259C255.411 140.533 254.712 139.74 255.338 138.721C255.791 137.982 256.716 137.669 257.955 138.302L258.501 137.409L258.888 137.649L258.348 138.528C258.894 138.884 259.334 139.381 259.62 139.967L259.147 140.306C258.896 139.789 258.518 139.345 258.048 139.014L256.79 141.059C257.536 141.805 258.301 142.611 257.662 143.65C257.203 144.396 256.244 144.695 254.971 144.016ZM256.47 140.686L257.649 138.761C256.816 138.342 256.21 138.528 255.911 139.014C255.551 139.634 255.931 140.173 256.47 140.719V140.686ZM257.083 143.297C257.456 142.691 257.023 142.138 256.457 141.565L255.271 143.496C256.157 143.989 256.776 143.856 257.076 143.33L257.083 143.297Z" fill="#263238"/>
<path d="M173.28 29.3039C173.755 30.3463 173.912 31.5065 173.728 32.6376C173.545 33.7687 173.03 34.8201 172.25 35.6587C171.468 36.4973 170.457 37.0856 169.341 37.3491C168.226 37.6126 167.057 37.5396 165.984 37.1392C164.91 36.7388 163.98 36.0289 163.309 35.0995C162.639 34.1702 162.26 33.0629 162.218 31.9177C162.177 30.7725 162.477 29.6409 163.079 28.6659C163.681 27.6909 164.559 26.9163 165.601 26.4401C166.293 26.1229 167.041 25.9454 167.801 25.9177C168.563 25.8899 169.321 26.0126 170.034 26.2787C170.748 26.5447 171.402 26.9488 171.959 27.468C172.515 27.9871 172.964 28.611 173.28 29.3039Z" stroke="#263238" stroke-miterlimit="10"/>
<path d="M169.584 34.5187L170.016 35.4644L169.604 35.6575L169.164 34.7185C168.435 35.0359 167.617 35.0878 166.853 34.865V34.2856C167.525 34.4887 168.247 34.4558 168.898 34.1923L167.912 32.0212C166.9 32.2143 165.854 32.3542 165.354 31.2686C164.995 30.476 165.248 29.537 166.467 28.8643L166.034 27.9119L166.44 27.7255L166.873 28.6645C167.472 28.4046 168.132 28.3169 168.778 28.4114V28.9909C168.209 28.9102 167.629 28.9767 167.093 29.184L168.092 31.3685C169.124 31.162 170.223 30.9822 170.756 32.0811C171.162 32.8803 170.856 33.846 169.584 34.5187ZM167.679 31.4484L166.74 29.3905C165.921 29.85 165.741 30.4627 165.981 30.9755C166.267 31.6016 166.926 31.5816 167.679 31.4484ZM170.19 32.3875C169.89 31.7215 169.191 31.7947 168.405 31.9412L169.344 33.9992C170.216 33.5197 170.429 32.9203 170.19 32.3875Z" fill="#263238"/>
<path d="M153.766 263.956C154.481 265.522 154.716 267.265 154.44 268.964C154.164 270.664 153.391 272.243 152.218 273.503C151.045 274.763 149.524 275.647 147.849 276.042C146.174 276.439 144.419 276.329 142.806 275.727C141.193 275.125 139.794 274.059 138.787 272.662C137.78 271.267 137.21 269.603 137.149 267.883C137.087 266.162 137.537 264.462 138.441 262.997C139.346 261.532 140.665 260.369 142.231 259.653C143.271 259.179 144.394 258.913 145.536 258.872C146.679 258.831 147.819 259.016 148.89 259.416C149.961 259.815 150.943 260.421 151.779 261.201C152.616 261.98 153.291 262.916 153.766 263.956Z" stroke="#263238" stroke-miterlimit="10"/>
<path d="M148.205 271.801L148.871 273.226L148.252 273.506L147.586 272.094C146.491 272.574 145.263 272.654 144.116 272.321L144.156 271.455C145.166 271.756 146.25 271.702 147.226 271.302L145.741 268.052C144.229 268.338 142.651 268.551 141.905 266.919C141.359 265.734 141.745 264.315 143.57 263.303L142.904 261.885L143.516 261.598L144.182 263.01C145.083 262.622 146.074 262.491 147.046 262.63V263.496C146.193 263.376 145.324 263.477 144.522 263.789L146.014 267.066C147.566 266.76 149.217 266.487 149.977 268.138C150.549 269.344 150.123 270.796 148.205 271.801ZM145.355 267.186L143.936 264.096C142.717 264.762 142.444 265.701 142.804 266.487C143.23 267.426 144.216 267.392 145.355 267.186ZM149.124 268.604C148.678 267.625 147.619 267.705 146.46 267.938L147.872 271.029C149.184 270.303 149.484 269.397 149.124 268.604Z" fill="#263238"/>
<path d="M29.0774 128.691C27.7841 129.827 26.1829 130.554 24.4764 130.78C22.7699 131.007 21.0347 130.722 19.4901 129.962C17.9455 129.202 16.6609 128.001 15.7987 126.511C14.9366 125.021 14.5355 123.309 14.6463 121.591C14.7571 119.873 15.3747 118.227 16.4212 116.86C17.4676 115.493 18.8959 114.467 20.5252 113.912C22.1547 113.357 23.9122 113.297 25.5755 113.741C27.2388 114.184 28.7333 115.111 29.87 116.403C30.625 117.262 31.2035 118.262 31.5722 119.344C31.9411 120.426 32.0931 121.57 32.0195 122.712C31.9458 123.853 31.6481 124.968 31.1433 125.994C30.6385 127.02 29.9366 127.937 29.0774 128.691Z" stroke="#263238" stroke-miterlimit="10"/>
<path d="M19.98 125.628L18.8078 126.66L18.3549 126.147L19.5204 125.128C18.7483 124.214 18.3175 123.061 18.3017 121.865L19.1475 121.652C19.1479 122.7 19.5022 123.719 20.1531 124.542L22.8171 122.184C22.1045 120.819 21.4452 119.367 22.8171 118.188C23.8028 117.329 25.268 117.289 26.7599 118.741L27.972 117.715L28.4182 118.222L27.2527 119.247C27.8727 120.001 28.2736 120.912 28.4115 121.878L27.5857 122.151C27.453 121.299 27.1071 120.495 26.58 119.813L23.8694 122.191C24.6087 123.583 25.3479 125.088 23.9826 126.294C22.9903 127.159 21.4785 127.206 19.98 125.628ZM23.5764 121.565L26.1272 119.321C25.1148 118.348 24.1292 118.355 23.5164 118.921C22.7172 119.6 23.0369 120.546 23.5564 121.565H23.5764ZM23.3033 125.561C24.1158 124.855 23.7362 123.863 23.1768 122.797L20.626 125.041C21.6716 126.114 22.644 126.154 23.31 125.581L23.3033 125.561Z" fill="#263238"/>
<path d="M68.9257 202.936C69.0182 200.615 67.2121 198.659 64.8914 198.566C62.5704 198.473 60.6136 200.279 60.5208 202.6C60.4279 204.921 62.2342 206.878 64.5552 206.971C66.8764 207.063 68.8331 205.257 68.9257 202.936Z" stroke="#263238" stroke-width="1.0008" stroke-miterlimit="10"/>
<path d="M65.9339 203.583L66.4135 204.162L66.167 204.369L65.6875 203.796C65.2369 204.158 64.6738 204.351 64.0958 204.342L64.0025 203.929C64.5109 203.943 65.0087 203.783 65.4145 203.476L64.3089 202.144C63.6429 202.471 62.9369 202.77 62.3775 202.104C61.9779 201.625 61.9779 200.912 62.6972 200.206L62.211 199.627L62.4641 199.42L62.9436 199.993C63.3144 199.699 63.7591 199.512 64.229 199.454L64.3489 199.853C63.9372 199.91 63.546 200.068 63.21 200.313L64.3222 201.645C64.9882 201.305 65.7408 200.979 66.3202 201.645C66.7265 202.138 66.7132 202.87 65.9339 203.583ZM64.0292 201.798L62.9769 200.539C62.4974 201.019 62.4907 201.478 62.7505 201.798C63.0102 202.118 63.5297 202.031 64.0292 201.798ZM65.9672 201.978C65.6342 201.585 65.1547 201.751 64.6352 202.011L65.6875 203.27C66.2003 202.764 66.2336 202.298 65.9672 201.971V201.978Z" fill="#263238"/>
<path d="M198.195 285.827C198.726 286.466 199.057 287.248 199.144 288.074C199.231 288.901 199.072 289.735 198.685 290.471C198.299 291.206 197.703 291.811 196.973 292.207C196.243 292.604 195.411 292.776 194.584 292.701C193.756 292.626 192.969 292.306 192.323 291.784C191.677 291.262 191.2 290.559 190.953 289.766C190.706 288.972 190.699 288.124 190.934 287.326C191.169 286.529 191.636 285.82 192.274 285.288C193.131 284.575 194.236 284.232 195.346 284.333C196.456 284.435 197.48 284.971 198.195 285.827Z" stroke="#263238" stroke-miterlimit="10"/>
<path d="M196.597 290.189L197.083 290.769L196.83 290.975L196.35 290.403C195.902 290.765 195.341 290.958 194.765 290.949L194.672 290.536C195.181 290.552 195.68 290.392 196.084 290.083L194.978 288.751C194.312 289.077 193.6 289.377 193.047 288.711C192.641 288.231 192.641 287.519 193.36 286.813L192.88 286.233L193.133 286.027L193.613 286.6C193.982 286.303 194.427 286.116 194.898 286.06L195.018 286.46C194.605 286.516 194.211 286.674 193.873 286.919L194.992 288.251C195.658 287.912 196.41 287.585 196.99 288.251C197.376 288.744 197.362 289.477 196.597 290.189ZM194.685 288.378L193.633 287.119C193.147 287.599 193.14 288.058 193.406 288.378C193.673 288.698 194.179 288.638 194.685 288.378ZM196.617 288.564C196.284 288.165 195.804 288.331 195.285 288.564L196.337 289.823C196.856 289.37 196.89 288.904 196.617 288.584V288.564Z" fill="#263238"/>
<path d="M83.1747 46.4092C83.3865 44.0979 81.6849 42.0524 79.3739 41.8405C77.0622 41.6285 75.0169 43.3303 74.8051 45.6415C74.5933 47.9528 76.2949 49.9983 78.606 50.2102C80.9176 50.4222 82.9629 48.7204 83.1747 46.4092Z" stroke="#263238" stroke-miterlimit="10"/>
<path d="M80.6326 47.6986L81.1121 48.2781L80.8591 48.4845L80.3795 47.9118C79.932 48.275 79.3705 48.4684 78.7945 48.4579L78.7012 48.045C79.2094 48.0583 79.7075 47.8986 80.1131 47.5921L79.0076 46.2601C78.3416 46.5864 77.629 46.8861 77.0762 46.2201C76.6766 45.7406 76.6699 45.028 77.3959 44.322L76.9097 43.7426L77.1628 43.5361L77.6423 44.1089C78.0126 43.8133 78.4575 43.6264 78.9277 43.5694L79.0475 43.969C78.636 44.0261 78.2443 44.184 77.9087 44.4286L79.0209 45.7606C79.6869 45.4209 80.4395 45.0946 81.0189 45.7606C81.4118 46.2534 81.3919 46.986 80.6326 47.6986ZM78.7145 45.9071L77.6623 44.6217C77.1827 45.1012 77.1694 45.5608 77.4358 45.8805C77.7022 46.2001 78.2084 46.1469 78.7145 45.9071ZM80.6526 46.0869C80.3196 45.694 79.8334 45.8605 79.3206 46.0869L80.3729 47.3457C80.8857 46.8795 80.919 46.4133 80.6526 46.0869Z" fill="#263238"/>
<path opacity="0.2" d="M173.699 218.321C173.699 218.321 168.565 244.382 137.069 250.289C137.069 250.289 128.844 256.85 126.107 260.732C123.37 264.615 108.791 271.215 93.9393 291.808C79.0875 312.401 56.9762 247.006 56.9762 247.006L105.847 183.536L173.699 218.321Z" fill="black" fill-opacity="0.7"/>
<path d="M201.691 95.9573C201.691 95.9573 218.674 87.6523 222.411 89.0842C226.147 90.5161 229.737 99.1075 215.451 107.333C201.165 115.558 205.428 130.882 205.428 130.882H215.617C215.617 130.882 221.731 133.373 224.109 136.577C226.487 139.78 228.185 150.702 229.544 154.405C230.902 158.108 230.21 161.818 226.487 163.023C226.487 163.023 224.109 173.386 224.788 177.982C225.468 182.577 225.128 185.534 220.712 186.094C219.601 186.21 218.479 186.082 217.422 185.721C216.365 185.36 215.398 184.773 214.591 184.002C213.783 183.23 213.153 182.292 212.744 181.253C212.334 180.213 212.156 179.097 212.221 177.982L208.824 190.29L211.202 195.018C214.561 196.318 217.665 198.198 220.373 200.573C225.128 204.648 229.883 205.761 228.525 210.303C227.166 214.845 224.449 219.74 210.183 214.066C195.917 208.391 184.029 186.094 184.029 186.094L175.458 108.345L201.691 95.9573Z" fill="white"/>
<path opacity="0.4" d="M219.567 140.619C211.868 151.115 220.386 163.203 220.386 163.203C220.386 163.203 215.058 166.174 214.905 173.753C214.845 176.903 215.637 181.305 216.583 185.381C215.199 184.727 214.043 183.671 213.267 182.352C212.489 181.033 212.128 179.51 212.228 177.982L208.824 190.289L211.202 195.011C213.703 195.969 216.061 197.267 218.208 198.868C216.097 203.716 215.451 209.71 215.637 215.891C213.783 215.398 211.961 214.788 210.183 214.066C195.917 208.385 184.029 186.094 184.029 186.094L175.458 108.338L201.691 95.9572C201.691 95.9572 210.969 91.4218 217.322 89.6302C216.83 95.571 217.988 101.718 218.828 105.141C217.744 105.935 216.616 106.666 215.451 107.333C201.185 115.558 205.428 130.882 205.428 130.882H215.624C215.624 130.882 221.432 133.253 223.923 136.337C222.219 137.484 220.742 138.936 219.567 140.619Z" fill="#315B99"/>
<path d="M175.158 205.794C175.158 205.794 156.683 242.018 123.383 250.236C123.383 250.236 122.111 257.402 116.477 260.479C113.466 262.118 101.319 280.319 90.6559 296.936L31.595 260.706C35.2313 257.109 39.3739 252.967 43.583 248.644C55.904 236.084 69.0509 222.004 73.0735 215.038C76.6699 208.844 81.2187 198.095 85.1814 187.992C90.2563 175.071 94.3855 163.203 94.3855 163.203L114.072 141.319L145.021 106.906L146.354 111.309L175.158 205.794Z" fill="white"/>
<path opacity="0.4" d="M145.048 106.906L175.158 205.794C175.158 205.794 156.683 242.018 123.383 250.236C123.383 250.236 122.111 257.402 116.477 260.479C113.773 261.951 103.71 276.77 93.9726 291.781C97.5823 279.394 108.032 259.647 108.032 259.647C101.325 251.701 103.283 243.33 105.967 245.714C108.651 248.098 115.398 254.798 115.824 255.218C112.86 251.728 112.174 246.26 112.174 246.26C112.174 246.26 120.486 251.788 121.159 242.93C121.831 234.072 116.177 212.427 116.177 212.427L101.332 155.511L145.048 106.906Z" fill="#315B99"/>
<path d="M175.458 108.345L201.691 95.9573C201.691 95.9573 218.674 87.6523 222.411 89.0842C226.147 90.5161 229.737 99.1075 215.451 107.333C201.165 115.558 205.428 130.882 205.428 130.882H215.617C215.617 130.882 221.731 133.373 224.109 136.577C226.487 139.78 228.185 150.702 229.544 154.405C230.902 158.108 230.21 161.818 226.487 163.023C226.487 163.023 224.109 173.386 224.788 177.982C225.468 182.577 225.128 185.534 220.712 186.094C219.601 186.21 218.479 186.082 217.422 185.721C216.365 185.36 215.398 184.773 214.591 184.002C213.783 183.23 213.153 182.292 212.744 181.253C212.334 180.213 212.156 179.097 212.221 177.982L208.824 190.29L211.202 195.018C214.561 196.318 217.665 198.198 220.373 200.573C225.128 204.648 229.883 205.761 228.525 210.303C227.166 214.845 224.449 219.74 210.183 214.066C195.917 208.391 184.029 186.094 184.029 186.094" stroke="#263238" stroke-linecap="round" stroke-linejoin="round"/>
<path d="M226.487 163.023C221.392 164.402 215.451 163.383 213.24 154.365C211.029 145.348 215.451 135.717 218.335 134.832" stroke="#263238" stroke-linecap="round" stroke-linejoin="round"/>
<path d="M212.221 177.982C212.221 177.982 211.881 166.387 216.13 163.523" stroke="#263238" stroke-linecap="round" stroke-linejoin="round"/>
<path opacity="0.4" d="M88.3249 235.571C88.3249 235.571 75.8774 234.019 73.1002 228.451C70.8025 223.843 58.3483 241.105 43.6097 248.644C55.9307 236.084 69.0775 222.004 73.1002 215.038C76.6966 208.844 81.2453 198.095 85.208 187.992C85.0082 196.37 80.546 209.197 81.8181 215.877C80.4548 216.238 79.2886 217.121 78.572 218.335C77.8554 219.549 77.6456 220.997 77.9886 222.364C78.941 227.672 88.3249 235.571 88.3249 235.571Z" fill="#315B99"/>
<path d="M175.158 205.794C175.158 205.794 156.683 242.018 123.376 250.236C123.376 250.236 122.111 257.402 116.477 260.479C113.466 262.118 101.325 280.319 90.6493 296.936" stroke="#263238" stroke-linecap="round" stroke-linejoin="round"/>
<path d="M31.595 260.706C45.8207 246.646 67.6856 224.355 73.1002 215.038C81.292 200.939 94.4122 163.197 94.4122 163.197L145.028 106.906" stroke="#263238" stroke-linecap="round" stroke-linejoin="round"/>
<path d="M116.144 149.897C116.144 149.897 123.923 156.863 126.134 163.217" stroke="#263238" stroke-linecap="round" stroke-linejoin="round"/>
<path d="M207.965 48.4316H124.269C121.793 48.4316 119.787 50.4384 119.787 52.9138V231.089C119.787 233.564 121.793 235.571 124.269 235.571H207.965C210.441 235.571 212.447 233.564 212.447 231.089V52.9138C212.447 50.4384 210.441 48.4316 207.965 48.4316Z" fill="#263238"/>
<path d="M184.482 53.5266L182.71 56.77C182.523 57.122 182.244 57.4168 181.903 57.6231C181.562 57.8295 181.171 57.9397 180.772 57.9422H151.468C151.07 57.9401 150.681 57.8315 150.338 57.6277C149.997 57.424 149.715 57.1324 149.524 56.7834L147.759 53.5399C147.569 53.1894 147.289 52.8967 146.946 52.6928C146.604 52.4888 146.213 52.3811 145.814 52.3811H125.335C125.043 52.382 124.754 52.4404 124.485 52.5531C124.216 52.6658 123.971 52.8305 123.766 53.0377C123.56 53.245 123.399 53.4907 123.288 53.7609C123.177 54.0311 123.122 54.3204 123.123 54.6122V229.77C123.123 230.357 123.357 230.92 123.771 231.336C124.185 231.752 124.748 231.986 125.335 231.988H206.893C207.185 231.99 207.475 231.934 207.746 231.823C208.016 231.713 208.262 231.549 208.47 231.343C208.677 231.137 208.842 230.892 208.954 230.622C209.066 230.352 209.124 230.062 209.124 229.77V54.6122C209.124 54.024 208.89 53.4599 208.475 53.044C208.058 52.6281 207.494 52.3944 206.906 52.3944H186.433C186.036 52.3906 185.646 52.4937 185.303 52.6929C184.96 52.8921 184.676 53.1801 184.482 53.5266Z" fill="#315B99" stroke="#263238" stroke-linecap="round" stroke-linejoin="round"/>
<path d="M159.76 55.0984C160.418 55.0984 160.952 54.5647 160.952 53.9063C160.952 53.2478 160.418 52.7141 159.76 52.7141C159.101 52.7141 158.568 53.2478 158.568 53.9063C158.568 54.5647 159.101 55.0984 159.76 55.0984Z" stroke="white" stroke-miterlimit="10"/>
<path d="M173.66 53.9062C173.658 54.0521 173.614 54.1944 173.532 54.3151C173.45 54.4358 173.334 54.5295 173.199 54.5845C173.063 54.6393 172.915 54.6531 172.772 54.6238C172.629 54.5945 172.498 54.5236 172.395 54.42C172.292 54.3163 172.222 54.1846 172.194 54.0413C172.166 53.8981 172.182 53.7498 172.238 53.6152C172.294 53.4804 172.389 53.3653 172.51 53.2844C172.631 53.2035 172.774 53.1603 172.92 53.1603C173.018 53.1603 173.115 53.1796 173.205 53.2172C173.295 53.2548 173.376 53.3098 173.445 53.3791C173.514 53.4485 173.568 53.5308 173.605 53.6213C173.642 53.7117 173.66 53.8086 173.66 53.9062Z" stroke="white" stroke-miterlimit="10"/>
<path d="M170.343 53.4399H163.097C163.035 53.4399 162.976 53.4521 162.919 53.4756C162.863 53.4991 162.812 53.5335 162.769 53.5769C162.726 53.6203 162.692 53.6717 162.67 53.7283C162.647 53.7848 162.636 53.8453 162.637 53.9061C162.637 54.028 162.685 54.1449 162.772 54.2311C162.858 54.3173 162.975 54.3657 163.097 54.3657H170.343C170.465 54.3657 170.581 54.3173 170.668 54.2311C170.754 54.1449 170.802 54.028 170.802 53.9061C170.803 53.8453 170.792 53.7848 170.769 53.7283C170.746 53.6717 170.712 53.6203 170.67 53.5769C170.627 53.5335 170.577 53.4991 170.52 53.4756C170.464 53.4521 170.403 53.4399 170.343 53.4399Z" fill="white"/>
<path d="M138.288 56.8234H130.476V60.14H138.288V56.8234Z" stroke="#263238" stroke-linecap="round" stroke-linejoin="round"/>
<path d="M139.494 57.3827H138.282V59.5871H139.494V57.3827Z" stroke="#263238" stroke-linecap="round" stroke-linejoin="round"/>
<path d="M193.646 58.941H192.261V60.1465H193.646V58.941Z" stroke="#263238" stroke-linecap="round" stroke-linejoin="round"/>
<path d="M196.35 57.729H194.965V60.1466H196.35V57.729Z" stroke="#263238" stroke-linecap="round" stroke-linejoin="round"/>
<path d="M199.054 56.517H197.669V60.14H199.054V56.517Z" stroke="#263238" stroke-linecap="round" stroke-linejoin="round"/>
<path d="M201.751 55.3047H200.366V60.1398H201.751V55.3047Z" stroke="#263238" stroke-linecap="round" stroke-linejoin="round"/>
<path opacity="0.5" d="M208.751 89.91H123.876V170.862H208.751V89.91Z" fill="white"/>
<path d="M201.751 100.892H130.476V111.542H201.751V100.892Z" fill="white" stroke="#263238" stroke-linecap="round" stroke-linejoin="round"/>
<path d="M201.751 120.866H130.476V131.515H201.751V120.866Z" fill="white" stroke="#263238" stroke-linecap="round" stroke-linejoin="round"/>
<path d="M201.751 139.027H130.476V149.677H201.751V139.027Z" fill="white" stroke="#263238" stroke-linecap="round" stroke-linejoin="round"/>
<path d="M164.222 153.56H130.476V166.027H164.222V153.56Z" fill="white" stroke="#263238" stroke-linecap="round" stroke-linejoin="round"/>
<path d="M201.758 153.56H168.012V166.027H201.758V153.56Z" fill="white" stroke="#263238" stroke-linecap="round" stroke-linejoin="round"/>
<path d="M134.918 99.0342V99.3206H132.687V96.1704H134.852V96.4568H133.027V97.5823H134.652V97.8621H133.027V99.0342H134.918Z" fill="#263238"/>
<path d="M139.54 97.9486V99.3205H139.194V97.9885C139.194 97.489 138.941 97.2293 138.528 97.2293C138.417 97.2246 138.306 97.2446 138.203 97.2866C138.1 97.3292 138.008 97.3938 137.933 97.4757C137.857 97.557 137.801 97.6542 137.767 97.7601C137.733 97.866 137.722 97.9785 137.735 98.0884V99.3272H137.416V97.9952C137.416 97.4957 137.163 97.236 136.75 97.236C136.639 97.2313 136.528 97.2513 136.425 97.2932C136.322 97.3359 136.23 97.4005 136.154 97.4824C136.079 97.5636 136.023 97.6609 135.989 97.7668C135.955 97.8727 135.944 97.9852 135.957 98.0951V99.3339H135.638V96.9696H135.944V97.4025C136.035 97.2553 136.164 97.1354 136.318 97.0561C136.471 96.9762 136.644 96.9396 136.816 96.9496C136.991 96.9349 137.166 96.9756 137.316 97.0648C137.466 97.1547 137.586 97.2892 137.656 97.4491C137.753 97.2892 137.891 97.158 138.056 97.0701C138.222 96.9822 138.407 96.9409 138.595 96.9496C138.726 96.9409 138.857 96.9616 138.98 97.0089C139.102 97.0568 139.213 97.1314 139.303 97.2266C139.393 97.3219 139.461 97.4364 139.502 97.561C139.544 97.6862 139.556 97.8187 139.54 97.9486Z" fill="#263238"/>
<path d="M142.198 97.8553V99.3205H141.891V98.9542C141.801 99.0861 141.678 99.192 141.534 99.2613C141.391 99.3299 141.231 99.3598 141.072 99.3472C140.539 99.3472 140.213 99.0675 140.213 98.6812C140.213 98.2949 140.446 98.0152 141.125 98.0152H141.858V97.8687C141.858 97.4624 141.625 97.2426 141.192 97.2426C140.905 97.2386 140.626 97.3379 140.406 97.5223L140.26 97.2826C140.535 97.0695 140.876 96.9562 141.225 96.9629C141.351 96.9423 141.479 96.9509 141.601 96.9869C141.723 97.0235 141.835 97.0868 141.928 97.1727C142.022 97.2586 142.095 97.3652 142.142 97.4831C142.188 97.6016 142.207 97.7288 142.198 97.8553ZM141.878 98.6146V98.2216H141.132C140.673 98.2216 140.526 98.4015 140.526 98.6479C140.526 98.8943 140.746 99.0941 141.125 99.0941C141.282 99.0988 141.436 99.0555 141.567 98.9696C141.698 98.8836 141.799 98.7598 141.858 98.6146H141.878Z" fill="#263238"/>
<path d="M142.99 96.2103C142.992 96.1497 143.017 96.0924 143.061 96.0498C143.104 96.0079 143.163 95.9839 143.223 95.9839C143.283 95.9839 143.341 96.0079 143.383 96.0505C143.426 96.0924 143.45 96.1504 143.45 96.2103C143.45 96.2703 143.426 96.3282 143.383 96.3708C143.341 96.4128 143.283 96.4368 143.223 96.4368C143.163 96.4368 143.104 96.4135 143.061 96.3708C143.017 96.3289 142.992 96.2709 142.99 96.2103ZM143.063 96.9563H143.383V99.3206H143.063V96.9563Z" fill="#263238"/>
<path d="M144.276 95.9839H144.595V99.3139H144.276V95.9839Z" fill="#263238"/>
<path d="M137.123 107.226V107.512H134.892V104.362H137.056V104.649H135.198V105.767H136.83V106.054H135.198V107.226H137.123Z" fill="#263238"/>
<path d="M141.745 106.127V107.499H141.425V106.167C141.425 105.668 141.172 105.408 140.759 105.408C140.649 105.402 140.537 105.42 140.435 105.462C140.332 105.504 140.24 105.568 140.164 105.649C140.088 105.73 140.031 105.827 139.997 105.933C139.963 106.039 139.953 106.15 139.967 106.26V107.506H139.647V106.174C139.647 105.674 139.394 105.414 138.981 105.414C138.87 105.408 138.759 105.427 138.657 105.469C138.554 105.511 138.461 105.574 138.385 105.656C138.31 105.737 138.254 105.834 138.219 105.939C138.185 106.045 138.174 106.157 138.188 106.267V107.512H137.862V105.141H138.168V105.574C138.261 105.429 138.39 105.311 138.544 105.233C138.697 105.154 138.869 105.118 139.041 105.128C139.215 105.115 139.389 105.157 139.539 105.246C139.689 105.335 139.808 105.468 139.88 105.628C139.977 105.467 140.115 105.336 140.28 105.248C140.445 105.159 140.632 105.118 140.819 105.128C140.948 105.122 141.077 105.145 141.197 105.194C141.318 105.243 141.425 105.318 141.514 105.413C141.602 105.508 141.668 105.622 141.708 105.745C141.747 105.868 141.76 105.999 141.745 106.127Z" fill="#263238"/>
<path d="M144.395 106.034V107.499H144.089V107.133C144.001 107.264 143.879 107.369 143.735 107.436C143.593 107.504 143.434 107.533 143.277 107.519C142.744 107.519 142.411 107.239 142.411 106.853C142.411 106.467 142.651 106.187 143.33 106.187H144.082V106.047C144.082 105.641 143.849 105.421 143.416 105.421C143.127 105.417 142.846 105.516 142.624 105.701L142.484 105.461C142.758 105.244 143.1 105.13 143.45 105.141C143.573 105.125 143.699 105.137 143.817 105.175C143.935 105.213 144.044 105.278 144.134 105.363C144.225 105.448 144.296 105.553 144.341 105.669C144.385 105.785 144.405 105.91 144.395 106.034ZM144.082 106.786V106.4H143.337C142.877 106.4 142.73 106.58 142.73 106.826C142.73 107.073 142.95 107.273 143.33 107.273C143.491 107.282 143.65 107.24 143.785 107.152C143.921 107.065 144.024 106.937 144.082 106.786Z" fill="#263238"/>
<path d="M145.188 104.382C145.19 104.322 145.215 104.264 145.259 104.222C145.302 104.18 145.36 104.156 145.421 104.156C145.451 104.155 145.482 104.16 145.51 104.171C145.538 104.182 145.564 104.199 145.586 104.22C145.608 104.241 145.624 104.266 145.636 104.294C145.648 104.322 145.654 104.352 145.654 104.382C145.654 104.444 145.63 104.503 145.586 104.547C145.542 104.591 145.483 104.615 145.421 104.615C145.359 104.615 145.3 104.591 145.257 104.547C145.213 104.503 145.188 104.444 145.188 104.382ZM145.261 105.128H145.581V107.499H145.261V105.128Z" fill="#263238"/>
<path d="M146.48 104.156H146.793V107.486H146.48V104.156Z" fill="#263238"/>
<path d="M149.85 106.127V107.499H149.53V106.167C149.544 106.069 149.536 105.969 149.507 105.873C149.477 105.779 149.426 105.691 149.359 105.619C149.291 105.546 149.208 105.489 149.115 105.453C149.023 105.416 148.924 105.401 148.824 105.408C148.711 105.398 148.597 105.414 148.49 105.454C148.383 105.494 148.287 105.557 148.207 105.638C148.128 105.719 148.067 105.817 148.03 105.925C147.993 106.032 147.98 106.147 147.992 106.26V107.506H147.672V105.135H147.979V105.574C148.075 105.426 148.209 105.306 148.367 105.227C148.525 105.147 148.701 105.111 148.878 105.121C149.011 105.111 149.145 105.13 149.27 105.177C149.395 105.225 149.508 105.299 149.601 105.395C149.694 105.491 149.765 105.606 149.808 105.733C149.851 105.86 149.865 105.995 149.85 106.127Z" fill="#263238"/>
<path d="M152.514 106.034V107.499H152.208V107.133C152.119 107.264 151.997 107.369 151.854 107.437C151.711 107.505 151.553 107.533 151.395 107.519C150.856 107.519 150.529 107.239 150.529 106.853C150.529 106.467 150.762 106.187 151.442 106.187H152.194V106.047C152.194 105.641 151.968 105.421 151.528 105.421C151.241 105.417 150.962 105.516 150.742 105.701L150.596 105.461C150.87 105.245 151.212 105.132 151.562 105.141C151.685 105.125 151.812 105.135 151.931 105.173C152.05 105.211 152.16 105.275 152.251 105.361C152.342 105.446 152.413 105.551 152.459 105.668C152.504 105.784 152.523 105.909 152.514 106.034ZM152.194 106.786V106.4H151.455C150.995 106.4 150.842 106.58 150.842 106.826C150.842 107.073 151.062 107.273 151.442 107.273C151.604 107.283 151.765 107.242 151.901 107.155C152.038 107.067 152.143 106.938 152.201 106.786H152.194Z" fill="#263238"/>
<path d="M157.296 106.127V107.499H156.976V106.167C156.976 105.668 156.723 105.408 156.31 105.408C156.2 105.403 156.088 105.421 155.986 105.463C155.883 105.504 155.791 105.568 155.715 105.649C155.64 105.73 155.583 105.827 155.548 105.933C155.514 106.039 155.504 106.15 155.518 106.26V107.506H155.178V106.174C155.178 105.674 154.925 105.415 154.512 105.415C154.401 105.409 154.29 105.428 154.188 105.469C154.085 105.511 153.993 105.574 153.917 105.656C153.841 105.737 153.785 105.834 153.75 105.939C153.716 106.045 153.705 106.157 153.719 106.267V107.512H153.4V105.141H153.706V105.574C153.799 105.429 153.928 105.311 154.082 105.233C154.235 105.154 154.407 105.118 154.579 105.128C154.753 105.114 154.928 105.154 155.078 105.243C155.229 105.333 155.348 105.467 155.418 105.628C155.515 105.468 155.654 105.337 155.819 105.249C155.984 105.161 156.17 105.12 156.357 105.128C156.487 105.12 156.618 105.141 156.74 105.19C156.861 105.238 156.971 105.313 157.06 105.408C157.15 105.503 157.217 105.617 157.258 105.742C157.299 105.865 157.312 105.997 157.296 106.127Z" fill="#263238"/>
<path d="M160.233 106.414H158.235C158.252 106.646 158.36 106.862 158.537 107.014C158.712 107.167 158.942 107.243 159.174 107.226C159.311 107.23 159.446 107.204 159.572 107.15C159.697 107.096 159.809 107.015 159.9 106.913L160.08 107.119C159.91 107.298 159.691 107.422 159.45 107.477C159.211 107.532 158.96 107.514 158.729 107.426C158.499 107.339 158.299 107.185 158.156 106.986C158.012 106.785 157.931 106.547 157.922 106.3C157.914 106.144 157.938 105.988 157.993 105.841C158.047 105.695 158.132 105.561 158.24 105.449C158.349 105.337 158.48 105.247 158.625 105.188C158.769 105.128 158.924 105.099 159.081 105.101C159.237 105.099 159.392 105.128 159.536 105.188C159.679 105.247 159.809 105.337 159.917 105.45C160.024 105.562 160.108 105.696 160.161 105.843C160.214 105.989 160.236 106.145 160.226 106.3C160.226 106.3 160.233 106.38 160.233 106.414ZM158.235 106.174H159.913C159.913 105.951 159.825 105.738 159.667 105.58C159.51 105.423 159.297 105.335 159.074 105.335C158.852 105.335 158.638 105.423 158.481 105.58C158.324 105.738 158.235 105.951 158.235 106.174Z" fill="#263238"/>
<path d="M164.868 106.307C164.868 107.073 164.582 107.519 164.116 107.519C164.05 107.523 163.984 107.513 163.923 107.49C163.861 107.467 163.804 107.432 163.757 107.387C163.709 107.341 163.671 107.286 163.646 107.225C163.621 107.164 163.608 107.099 163.61 107.033C163.517 107.187 163.384 107.313 163.227 107.399C163.068 107.484 162.89 107.526 162.71 107.519C162.403 107.519 162.108 107.397 161.891 107.18C161.673 106.962 161.552 106.668 161.552 106.36C161.552 106.053 161.673 105.758 161.891 105.541C162.108 105.324 162.403 105.201 162.71 105.201C162.888 105.194 163.064 105.234 163.221 105.317C163.378 105.4 163.51 105.524 163.603 105.674V105.228H163.896V106.933C163.896 107.186 164.022 107.279 164.176 107.279C164.449 107.279 164.629 106.933 164.629 106.327C164.636 106.086 164.592 105.847 164.501 105.624C164.409 105.402 164.273 105.201 164.099 105.034C163.925 104.868 163.718 104.74 163.491 104.659C163.265 104.577 163.023 104.545 162.784 104.562C162.546 104.562 162.31 104.609 162.09 104.7C161.871 104.791 161.671 104.925 161.503 105.093C161.334 105.261 161.201 105.461 161.11 105.681C161.019 105.901 160.972 106.136 160.972 106.374C160.972 106.612 161.019 106.847 161.11 107.067C161.201 107.287 161.334 107.486 161.503 107.655C161.671 107.823 161.871 107.957 162.09 108.047C162.31 108.138 162.546 108.185 162.784 108.185C163.083 108.184 163.38 108.116 163.649 107.985L163.723 108.205C163.429 108.344 163.108 108.414 162.784 108.411C162.243 108.411 161.725 108.197 161.342 107.815C160.96 107.432 160.746 106.914 160.746 106.374C160.746 105.833 160.96 105.315 161.342 104.933C161.725 104.551 162.243 104.336 162.784 104.336C163.053 104.316 163.323 104.353 163.577 104.444C163.831 104.535 164.064 104.677 164.26 104.862C164.456 105.048 164.611 105.272 164.716 105.521C164.821 105.769 164.872 106.037 164.868 106.307ZM163.603 106.354C163.614 106.235 163.599 106.116 163.561 106.003C163.522 105.89 163.461 105.786 163.38 105.698C163.3 105.61 163.202 105.54 163.093 105.492C162.984 105.444 162.866 105.419 162.747 105.419C162.628 105.419 162.51 105.444 162.401 105.492C162.292 105.54 162.194 105.61 162.113 105.698C162.033 105.786 161.971 105.89 161.933 106.003C161.895 106.116 161.881 106.235 161.891 106.354C161.881 106.473 161.895 106.592 161.933 106.705C161.971 106.818 162.033 106.922 162.113 107.01C162.194 107.097 162.292 107.167 162.401 107.216C162.51 107.264 162.628 107.289 162.747 107.289C162.866 107.289 162.984 107.264 163.093 107.216C163.202 107.167 163.3 107.097 163.38 107.01C163.461 106.922 163.522 106.818 163.561 106.705C163.599 106.592 163.614 106.473 163.603 106.354Z" fill="#263238"/>
<path d="M167.599 106.413H165.601C165.608 106.529 165.637 106.643 165.687 106.746C165.738 106.85 165.809 106.944 165.895 107.02C165.982 107.097 166.083 107.156 166.192 107.193C166.302 107.231 166.417 107.247 166.533 107.239C166.67 107.243 166.805 107.217 166.931 107.163C167.056 107.109 167.168 107.028 167.259 106.926L167.439 107.133C167.269 107.311 167.05 107.436 166.81 107.49C166.569 107.545 166.318 107.528 166.088 107.44C165.858 107.353 165.658 107.199 165.514 106.999C165.371 106.798 165.29 106.56 165.281 106.314C165.273 106.158 165.297 106.001 165.352 105.855C165.406 105.708 165.491 105.575 165.6 105.462C165.708 105.35 165.839 105.261 165.984 105.201C166.128 105.141 166.284 105.112 166.44 105.115C166.596 105.112 166.75 105.141 166.894 105.201C167.039 105.261 167.169 105.35 167.276 105.463C167.384 105.576 167.467 105.71 167.52 105.856C167.574 106.003 167.596 106.158 167.586 106.314C167.586 106.314 167.599 106.38 167.599 106.413ZM165.601 106.174H167.279C167.279 105.951 167.191 105.738 167.033 105.58C166.876 105.423 166.663 105.335 166.44 105.335C166.218 105.335 166.004 105.423 165.847 105.58C165.689 105.738 165.601 105.951 165.601 106.174Z" fill="#263238"/>
<path d="M172.168 106.127V107.499H171.828V106.167C171.828 105.668 171.575 105.408 171.162 105.408C171.051 105.403 170.941 105.421 170.838 105.462C170.735 105.504 170.643 105.568 170.567 105.65C170.491 105.731 170.435 105.827 170.4 105.933C170.366 106.039 170.356 106.15 170.37 106.26V107.506H170.05V106.174C170.05 105.674 169.797 105.414 169.384 105.414C169.273 105.409 169.163 105.428 169.059 105.469C168.957 105.511 168.864 105.575 168.788 105.656C168.713 105.738 168.657 105.834 168.622 105.94C168.588 106.045 168.577 106.157 168.591 106.267V107.512H168.272V105.141H168.578V105.574C168.669 105.43 168.798 105.312 168.95 105.233C169.102 105.155 169.273 105.119 169.444 105.128C169.619 105.115 169.794 105.156 169.945 105.245C170.096 105.335 170.217 105.468 170.29 105.628C170.385 105.467 170.521 105.336 170.686 105.247C170.85 105.159 171.036 105.118 171.222 105.128C171.353 105.119 171.484 105.139 171.607 105.187C171.729 105.235 171.84 105.31 171.93 105.405C172.021 105.5 172.088 105.615 172.13 105.74C172.171 105.865 172.184 105.997 172.168 106.127Z" fill="#263238"/>
<path d="M174.818 106.034V107.499H174.492V107.133C174.403 107.263 174.281 107.368 174.138 107.436C173.995 107.504 173.837 107.532 173.68 107.519C173.14 107.519 172.814 107.239 172.814 106.853C172.814 106.467 173.047 106.187 173.726 106.187H174.492V106.047C174.492 105.641 174.266 105.421 173.826 105.421C173.539 105.417 173.26 105.516 173.04 105.701L172.894 105.461C173.168 105.245 173.51 105.132 173.859 105.141C173.984 105.123 174.11 105.133 174.231 105.171C174.351 105.208 174.461 105.272 174.553 105.358C174.645 105.443 174.717 105.548 174.763 105.666C174.808 105.783 174.828 105.909 174.818 106.034ZM174.499 106.786V106.4H173.759C173.3 106.4 173.147 106.58 173.147 106.826C173.147 107.073 173.366 107.273 173.746 107.273C173.906 107.281 174.064 107.238 174.198 107.151C174.332 107.063 174.435 106.936 174.492 106.786H174.499Z" fill="#263238"/>
<path d="M175.618 104.382C175.618 104.336 175.631 104.291 175.657 104.253C175.682 104.214 175.719 104.185 175.761 104.167C175.804 104.15 175.851 104.145 175.896 104.154C175.941 104.163 175.983 104.185 176.015 104.218C176.048 104.25 176.07 104.292 176.079 104.337C176.088 104.382 176.084 104.429 176.066 104.471C176.048 104.514 176.018 104.551 175.98 104.576C175.942 104.602 175.897 104.615 175.851 104.615C175.789 104.615 175.729 104.591 175.685 104.547C175.642 104.503 175.618 104.444 175.618 104.382ZM175.684 105.128H176.004V107.499H175.684V105.128Z" fill="#263238"/>
<path d="M176.896 104.156H177.216V107.486H176.896V104.156Z" fill="#263238"/>
<path d="M177.902 107.273C177.901 107.241 177.907 107.209 177.918 107.18C177.93 107.15 177.947 107.123 177.97 107.101C177.992 107.079 178.019 107.061 178.048 107.05C178.078 107.038 178.11 107.032 178.142 107.033C178.205 107.033 178.266 107.058 178.311 107.103C178.356 107.148 178.381 107.209 178.381 107.273C178.381 107.337 178.356 107.399 178.311 107.444C178.267 107.49 178.206 107.517 178.142 107.519C178.11 107.519 178.078 107.512 178.048 107.5C178.018 107.488 177.992 107.47 177.97 107.446C177.947 107.424 177.93 107.397 177.918 107.367C177.907 107.337 177.901 107.305 177.902 107.273Z" fill="#263238"/>
<path d="M178.754 106.314C178.75 106.153 178.778 105.993 178.838 105.845C178.898 105.696 178.987 105.561 179.102 105.448C179.217 105.336 179.353 105.248 179.503 105.191C179.653 105.133 179.813 105.107 179.973 105.115C180.156 105.103 180.339 105.139 180.503 105.221C180.666 105.303 180.806 105.428 180.906 105.581L180.666 105.741C180.591 105.634 180.491 105.546 180.375 105.486C180.26 105.426 180.13 105.394 180 105.394C179.769 105.414 179.554 105.52 179.396 105.691C179.24 105.861 179.153 106.085 179.153 106.317C179.153 106.549 179.24 106.772 179.396 106.943C179.554 107.114 179.769 107.219 180 107.239C180.131 107.241 180.26 107.209 180.376 107.149C180.492 107.089 180.592 107.001 180.666 106.893L180.906 107.053C180.804 107.205 180.665 107.329 180.501 107.41C180.338 107.492 180.156 107.53 179.973 107.519C179.812 107.526 179.651 107.5 179.501 107.442C179.351 107.385 179.214 107.297 179.099 107.183C178.985 107.07 178.896 106.934 178.836 106.784C178.776 106.635 178.748 106.475 178.754 106.314Z" fill="#263238"/>
<path d="M181.252 106.314C181.252 106.075 181.322 105.842 181.455 105.644C181.588 105.446 181.776 105.291 181.996 105.2C182.216 105.109 182.459 105.085 182.692 105.131C182.926 105.178 183.141 105.293 183.31 105.461C183.478 105.63 183.593 105.845 183.639 106.078C183.686 106.312 183.662 106.555 183.571 106.775C183.48 106.996 183.325 107.183 183.127 107.316C182.929 107.448 182.696 107.519 182.457 107.519C182.297 107.525 182.138 107.498 181.99 107.439C181.841 107.38 181.705 107.292 181.592 107.179C181.48 107.065 181.391 106.93 181.332 106.782C181.274 106.633 181.247 106.473 181.252 106.314ZM183.336 106.314C183.331 106.138 183.274 105.969 183.172 105.826C183.069 105.683 182.928 105.574 182.764 105.512C182.599 105.45 182.421 105.438 182.25 105.478C182.079 105.518 181.924 105.608 181.804 105.736C181.684 105.865 181.605 106.025 181.577 106.198C181.549 106.371 181.572 106.549 181.645 106.709C181.718 106.868 181.837 107.003 181.986 107.095C182.136 107.187 182.309 107.233 182.484 107.226C182.601 107.225 182.716 107.199 182.822 107.152C182.929 107.105 183.025 107.037 183.105 106.952C183.184 106.866 183.246 106.766 183.286 106.657C183.325 106.547 183.342 106.43 183.336 106.314Z" fill="#263238"/>
<path d="M188.218 106.127V107.499H187.899V106.167C187.899 105.668 187.646 105.408 187.233 105.408C187.122 105.403 187.011 105.421 186.908 105.462C186.806 105.504 186.713 105.568 186.637 105.65C186.562 105.731 186.505 105.827 186.471 105.933C186.437 106.039 186.426 106.15 186.44 106.26V107.506H186.12V106.174C186.12 105.674 185.867 105.414 185.454 105.414C185.344 105.409 185.233 105.428 185.13 105.469C185.027 105.511 184.935 105.575 184.859 105.656C184.784 105.738 184.727 105.834 184.692 105.94C184.659 106.045 184.648 106.157 184.662 106.267V107.512H184.342V105.141H184.649V105.574C184.74 105.43 184.868 105.312 185.021 105.233C185.173 105.155 185.343 105.119 185.514 105.128C185.689 105.115 185.865 105.156 186.016 105.245C186.167 105.335 186.287 105.468 186.36 105.628C186.455 105.468 186.593 105.337 186.757 105.249C186.922 105.161 187.107 105.119 187.293 105.128C187.422 105.123 187.551 105.145 187.671 105.194C187.791 105.243 187.899 105.318 187.987 105.413C188.075 105.508 188.142 105.622 188.182 105.745C188.222 105.868 188.234 105.999 188.218 106.127Z" fill="#263238"/>
<path d="M135.458 126.247L136.017 126.567L135.917 126.753L135.351 126.427V127.093H135.145V126.427L134.579 126.753L134.472 126.567L135.038 126.247L134.472 125.934L134.579 125.741L135.145 126.074V125.408H135.351V126.074L135.917 125.741L136.017 125.934L135.458 126.247Z" fill="#263238"/>
<path d="M137.289 126.247L137.849 126.567L137.742 126.753L137.183 126.427V127.093H136.97V126.427L136.41 126.753L136.297 126.567L136.863 126.247L136.297 125.934L136.41 125.741L136.97 126.074V125.408H137.196V126.074L137.755 125.741L137.862 125.934L137.289 126.247Z" fill="#263238"/>
<path d="M139.114 126.247L139.674 126.567L139.567 126.753L139.008 126.427V127.093H138.801V126.427L138.242 126.753L138.135 126.567L138.695 126.247L138.135 125.934L138.242 125.741L138.801 126.074V125.408H139.008V126.074L139.567 125.741L139.674 125.934L139.114 126.247Z" fill="#263238"/>
<path d="M140.939 126.247L141.498 126.567L141.398 126.753L140.832 126.427V127.093H140.626V126.427L140.06 126.753L139.953 126.567L140.519 126.247L139.953 125.934L140.06 125.741L140.626 126.074V125.408H140.832V126.074L141.398 125.741L141.498 125.934L140.939 126.247Z" fill="#263238"/>
<path d="M142.77 126.247L143.33 126.567L143.223 126.753L142.664 126.427V127.093H142.451V126.427L141.891 126.753L141.778 126.567L142.344 126.247L141.778 125.934L141.891 125.741L142.451 126.074V125.408H142.664V126.074L143.223 125.741L143.33 125.934L142.77 126.247Z" fill="#263238"/>
<path d="M144.595 126.247L145.155 126.567L145.048 126.753L144.489 126.427V127.093H144.282V126.427L143.723 126.753L143.616 126.567L144.176 126.247L143.616 125.934L143.723 125.741L144.282 126.074V125.408H144.522V126.074L145.081 125.741L145.188 125.934L144.595 126.247Z" fill="#263238"/>
<path d="M146.42 126.247L146.98 126.567L146.88 126.753L146.314 126.427V127.093H146.107V126.427L145.541 126.753L145.434 126.567L146.001 126.247L145.434 125.934L145.541 125.741L146.107 126.074V125.408H146.314V126.074L146.88 125.741L146.98 125.934L146.42 126.247Z" fill="#263238"/>
<path d="M148.252 126.247L148.811 126.567L148.704 126.753L148.138 126.427V127.093H147.932V126.427L147.372 126.753L147.259 126.567L147.825 126.247L147.259 125.934L147.372 125.741L147.932 126.074V125.408H148.138V126.074L148.704 125.741L148.811 125.934L148.252 126.247Z" fill="#263238"/>
<path d="M150.076 126.247L150.636 126.567L150.529 126.753L149.97 126.427V127.093H149.763V126.427L149.204 126.753L149.097 126.567L149.657 126.247L149.097 125.934L149.204 125.741L149.763 126.074V125.408H149.97V126.074L150.529 125.741L150.636 125.934L150.076 126.247Z" fill="#263238"/>
<path d="M151.901 126.247L152.461 126.567L152.361 126.753L151.795 126.427V127.093H151.588V126.427L151.022 126.753L150.916 126.567L151.475 126.247L150.916 125.934L151.022 125.741L151.588 126.074V125.408H151.795V126.074L152.361 125.741L152.461 125.934L151.901 126.247Z" fill="#263238"/>
<path d="M153.733 126.247L154.286 126.567L154.186 126.753L153.62 126.427V127.093H153.413V126.427L152.854 126.753L152.74 126.567L153.307 126.247L152.74 125.934L152.854 125.741L153.413 126.074V125.408H153.62V126.074L154.186 125.741L154.286 125.934L153.733 126.247Z" fill="#263238"/>
<path d="M135.158 117.216C135.158 117.882 134.672 118.295 133.873 118.295H133.027V119.287H132.687V116.15H133.866C134.672 116.15 135.158 116.55 135.158 117.216ZM134.825 117.216C134.825 116.71 134.492 116.423 133.859 116.423H133.027V118.002H133.866C134.492 118.015 134.825 117.729 134.825 117.216Z" fill="#263238"/>
<path d="M137.576 117.835V119.301H137.269V118.934C137.179 119.066 137.055 119.17 136.912 119.238C136.768 119.306 136.609 119.335 136.45 119.321C135.917 119.321 135.591 119.048 135.591 118.655C135.591 118.262 135.824 117.989 136.503 117.989H137.256V117.849C137.256 117.442 137.023 117.223 136.59 117.223C136.303 117.218 136.024 117.318 135.804 117.502L135.658 117.263C135.932 117.046 136.274 116.933 136.623 116.943C136.747 116.926 136.873 116.936 136.993 116.974C137.112 117.012 137.221 117.076 137.313 117.162C137.404 117.247 137.474 117.353 137.52 117.469C137.566 117.586 137.585 117.711 137.576 117.835ZM137.256 118.588V118.202H136.53C136.07 118.202 135.924 118.382 135.924 118.628C135.924 118.874 136.144 119.074 136.523 119.074C136.681 119.08 136.836 119.035 136.967 118.948C137.098 118.861 137.199 118.735 137.256 118.588Z" fill="#263238"/>
<path d="M138.115 119.034L138.255 118.781C138.503 118.956 138.798 119.048 139.101 119.047C139.547 119.047 139.733 118.894 139.733 118.655C139.733 118.042 138.202 118.528 138.202 117.589C138.202 117.203 138.535 116.923 139.134 116.923C139.428 116.92 139.718 116.996 139.973 117.143L139.833 117.396C139.626 117.261 139.382 117.191 139.134 117.196C138.708 117.196 138.521 117.363 138.521 117.589C138.521 118.255 140.053 117.749 140.053 118.655C140.053 119.067 139.694 119.321 139.074 119.321C138.732 119.332 138.395 119.231 138.115 119.034Z" fill="#263238"/>
<path d="M140.313 119.034L140.459 118.781C140.704 118.956 140.998 119.049 141.299 119.047C141.751 119.047 141.965 118.894 141.965 118.655C141.965 118.042 140.433 118.528 140.433 117.589C140.433 117.203 140.766 116.923 141.372 116.923C141.664 116.918 141.952 116.995 142.204 117.143L142.064 117.396C141.866 117.267 141.635 117.197 141.398 117.196C140.966 117.196 140.779 117.362 140.779 117.589C140.779 118.255 142.311 117.749 142.311 118.655C142.311 119.067 141.951 119.321 141.339 119.321C140.974 119.347 140.611 119.245 140.313 119.034Z" fill="#263238"/>
<path d="M146.274 116.936L145.374 119.301H145.075L144.329 117.363L143.583 119.301H143.277L142.391 116.936H142.697L143.436 118.934L144.196 116.936H144.475L145.228 118.934L145.981 116.936H146.274Z" fill="#263238"/>
<path d="M146.447 118.115C146.447 117.877 146.517 117.644 146.65 117.445C146.782 117.247 146.97 117.093 147.191 117.002C147.411 116.91 147.654 116.886 147.887 116.933C148.121 116.98 148.336 117.094 148.505 117.263C148.673 117.431 148.788 117.646 148.834 117.88C148.881 118.114 148.857 118.356 148.766 118.577C148.675 118.796 148.52 118.985 148.322 119.117C148.124 119.25 147.891 119.321 147.652 119.321C147.492 119.326 147.333 119.299 147.184 119.24C147.035 119.181 146.9 119.093 146.787 118.98C146.674 118.867 146.585 118.732 146.527 118.583C146.468 118.434 146.441 118.275 146.447 118.115ZM148.531 118.115C148.531 117.882 148.439 117.658 148.274 117.494C148.109 117.329 147.885 117.236 147.652 117.236C147.419 117.236 147.195 117.329 147.03 117.494C146.866 117.658 146.773 117.882 146.773 118.115C146.773 118.348 146.866 118.572 147.03 118.737C147.195 118.902 147.419 118.994 147.652 118.994C147.885 118.994 148.109 118.902 148.274 118.737C148.439 118.572 148.531 118.348 148.531 118.115Z" fill="#263238"/>
<path d="M150.703 116.916V117.216H150.623C150.51 117.211 150.398 117.231 150.294 117.274C150.19 117.317 150.097 117.383 150.021 117.466C149.946 117.55 149.889 117.648 149.856 117.756C149.823 117.863 149.814 117.977 149.83 118.088V119.294H149.51V116.93H149.85V117.389C149.93 117.236 150.054 117.109 150.205 117.025C150.357 116.941 150.529 116.903 150.703 116.916Z" fill="#263238"/>
<path d="M153.413 115.964V119.294H153.107V118.828C153.012 118.983 152.877 119.11 152.716 119.195C152.556 119.281 152.376 119.322 152.194 119.314C151.891 119.291 151.607 119.155 151.4 118.932C151.193 118.709 151.078 118.416 151.078 118.112C151.078 117.808 151.193 117.515 151.4 117.292C151.607 117.069 151.891 116.932 152.194 116.91C152.372 116.903 152.548 116.942 152.705 117.024C152.863 117.106 152.997 117.227 153.093 117.376V115.957L153.413 115.964ZM153.1 118.115C153.091 117.944 153.032 117.779 152.93 117.64C152.828 117.502 152.687 117.397 152.526 117.337C152.365 117.278 152.19 117.267 152.023 117.306C151.855 117.345 151.703 117.432 151.584 117.556C151.466 117.681 151.387 117.838 151.357 118.007C151.327 118.176 151.347 118.35 151.414 118.508C151.482 118.666 151.594 118.801 151.737 118.896C151.881 118.99 152.049 119.041 152.221 119.041C152.341 119.044 152.46 119.02 152.571 118.974C152.682 118.928 152.781 118.858 152.864 118.772C152.947 118.685 153.01 118.581 153.051 118.468C153.091 118.356 153.108 118.235 153.1 118.115Z" fill="#263238"/>
<path d="M158.148 143.19V146.347H157.842V143.483H157.096V143.19H158.148Z" fill="#263238"/>
<path d="M161.052 146.041V146.334H158.841V146.1L160.173 144.815C160.526 144.469 160.599 144.256 160.599 144.043C160.599 143.676 160.34 143.45 159.86 143.45C159.699 143.44 159.538 143.466 159.39 143.527C159.241 143.588 159.108 143.683 159.001 143.803L158.768 143.603C158.91 143.45 159.083 143.331 159.277 143.253C159.47 143.174 159.678 143.139 159.887 143.15C160.553 143.15 160.932 143.476 160.932 144.003C160.922 144.195 160.87 144.382 160.78 144.553C160.691 144.723 160.565 144.872 160.413 144.988L159.341 146.041H161.052Z" fill="#263238"/>
<path d="M163.543 145.428C163.543 145.954 163.157 146.36 162.397 146.36C161.983 146.373 161.578 146.228 161.265 145.954L161.418 145.694C161.685 145.939 162.036 146.07 162.397 146.06C162.924 146.06 163.21 145.821 163.21 145.428C163.21 145.035 162.944 144.802 162.357 144.802H162.131V144.562L163.004 143.47H161.392V143.19H163.39V143.423L162.504 144.522C163.203 144.569 163.543 144.922 163.543 145.428Z" fill="#263238"/>
<path d="M166.673 145.501H166.04V146.333H165.721V145.501H163.943V145.268L165.614 143.177H165.974L164.362 145.188H165.727V144.455H166.04V145.188H166.673V145.501Z" fill="#263238"/>
<path d="M170.29 145.401C170.29 145.941 169.917 146.36 169.144 146.36C168.729 146.373 168.324 146.228 168.012 145.954L168.172 145.694C168.3 145.817 168.452 145.912 168.618 145.974C168.784 146.038 168.96 146.067 169.137 146.06C169.677 146.06 169.957 145.801 169.957 145.394C169.957 144.988 169.703 144.728 168.904 144.728H168.238L168.405 143.143H170.13V143.436H168.684L168.578 144.435H168.984C169.93 144.469 170.29 144.848 170.29 145.401Z" fill="#263238"/>
<path d="M173.067 145.388C173.065 145.524 173.036 145.659 172.98 145.783C172.924 145.908 172.842 146.02 172.741 146.111C172.639 146.202 172.52 146.272 172.391 146.315C172.261 146.357 172.124 146.373 171.988 146.36C171.149 146.36 170.696 145.774 170.696 144.782C170.696 143.789 171.282 143.15 172.134 143.15C172.396 143.14 172.656 143.2 172.887 143.323L172.754 143.583C172.568 143.476 172.355 143.426 172.141 143.436C171.475 143.436 171.022 143.869 171.022 144.728C171.022 144.802 171.022 144.888 171.022 144.981C171.114 144.808 171.254 144.665 171.425 144.569C171.597 144.474 171.792 144.429 171.988 144.442C172.122 144.425 172.259 144.437 172.389 144.477C172.518 144.517 172.638 144.583 172.74 144.672C172.842 144.762 172.924 144.872 172.98 144.995C173.036 145.119 173.066 145.253 173.067 145.388ZM172.747 145.388C172.747 144.968 172.441 144.722 171.955 144.722C171.857 144.71 171.758 144.718 171.664 144.745C171.57 144.772 171.482 144.818 171.406 144.881C171.33 144.943 171.267 145.02 171.222 145.107C171.177 145.195 171.149 145.29 171.142 145.388C171.142 145.734 171.428 146.054 171.975 146.054C172.069 146.069 172.166 146.064 172.259 146.038C172.351 146.012 172.437 145.967 172.511 145.905C172.584 145.843 172.643 145.766 172.684 145.679C172.725 145.592 172.746 145.497 172.747 145.401V145.388Z" fill="#263238"/>
<path d="M175.624 143.19V143.423L174.292 146.347H173.939L175.238 143.483H173.62V144.069H173.3V143.19H175.624Z" fill="#263238"/>
<path d="M178.388 145.454C178.388 146.014 177.915 146.36 177.163 146.36C176.41 146.36 175.951 146.014 175.951 145.454C175.949 145.275 176.007 145.101 176.118 144.959C176.228 144.817 176.382 144.717 176.557 144.675C176.411 144.636 176.284 144.549 176.194 144.428C176.104 144.307 176.058 144.16 176.064 144.009C176.064 143.496 176.497 143.177 177.163 143.177C177.829 143.177 178.275 143.496 178.275 144.009C178.272 144.16 178.222 144.306 178.131 144.425C178.04 144.545 177.913 144.633 177.769 144.675C177.945 144.716 178.102 144.815 178.214 144.957C178.327 145.098 178.388 145.274 178.388 145.454ZM178.055 145.454C178.055 145.068 177.722 144.822 177.163 144.822C176.603 144.822 176.277 145.068 176.277 145.454C176.277 145.841 176.603 146.12 177.163 146.12C177.722 146.12 178.055 145.854 178.055 145.448V145.454ZM177.156 144.562C177.649 144.562 177.942 144.342 177.942 143.996C177.942 143.65 177.629 143.43 177.156 143.43C176.683 143.43 176.377 143.643 176.377 143.996C176.377 144.349 176.67 144.562 177.156 144.562Z" fill="#263238"/>
<path d="M182.291 144.728C182.291 145.801 181.705 146.36 180.846 146.36C180.586 146.369 180.329 146.31 180.1 146.187L180.233 145.927C180.419 146.034 180.632 146.085 180.846 146.074C181.512 146.074 181.958 145.634 181.958 144.782C181.964 144.698 181.964 144.613 181.958 144.529C181.869 144.702 181.729 144.846 181.559 144.942C181.388 145.038 181.194 145.082 180.999 145.068C180.865 145.083 180.73 145.07 180.602 145.029C180.474 144.989 180.356 144.922 180.256 144.832C180.155 144.743 180.074 144.634 180.019 144.512C179.963 144.389 179.934 144.257 179.933 144.122C179.935 143.986 179.964 143.851 180.02 143.727C180.076 143.602 180.158 143.49 180.259 143.399C180.36 143.308 180.48 143.239 180.609 143.195C180.739 143.153 180.876 143.137 181.012 143.15C181.818 143.15 182.291 143.736 182.291 144.728ZM181.845 144.102C181.845 143.756 181.558 143.436 181.012 143.436C180.916 143.421 180.818 143.426 180.724 143.453C180.631 143.48 180.544 143.526 180.471 143.59C180.397 143.653 180.338 143.732 180.298 143.821C180.258 143.909 180.238 144.005 180.24 144.102C180.24 144.522 180.546 144.768 181.032 144.768C181.225 144.783 181.414 144.722 181.562 144.597C181.709 144.472 181.801 144.295 181.818 144.102H181.845Z" fill="#263238"/>
<path d="M183.623 143.19V146.347H183.297V143.483H182.551V143.19H183.623Z" fill="#263238"/>
<path d="M184.369 144.755C184.369 143.749 184.902 143.15 185.628 143.15C186.353 143.15 186.886 143.749 186.886 144.755C186.886 145.761 186.36 146.36 185.628 146.36C184.895 146.36 184.369 145.761 184.369 144.755ZM186.553 144.755C186.553 143.916 186.18 143.423 185.628 143.423C185.075 143.423 184.702 143.889 184.702 144.755C184.702 145.621 185.081 146.087 185.628 146.087C186.174 146.087 186.553 145.594 186.553 144.755Z" fill="#263238"/>
<path d="M188.218 143.19V146.347H187.892V143.483H187.146V143.19H188.218Z" fill="#263238"/>
<path d="M191.022 143.19V146.347H190.696V143.483H189.95V143.19H191.022Z" fill="#263238"/>
<path d="M192.64 143.19V146.347H192.321V143.483H191.575V143.19H192.64Z" fill="#263238"/>
<path d="M195.544 146.041V146.334H193.333V146.1L194.665 144.815C195.018 144.469 195.091 144.256 195.091 144.043C195.091 143.676 194.832 143.45 194.352 143.45C194.192 143.44 194.03 143.466 193.881 143.527C193.733 143.588 193.6 143.682 193.493 143.803L193.26 143.603C193.402 143.451 193.576 143.332 193.769 143.253C193.963 143.175 194.17 143.14 194.379 143.15C195.045 143.15 195.424 143.476 195.424 144.003C195.414 144.194 195.362 144.382 195.273 144.552C195.183 144.723 195.057 144.871 194.905 144.988L193.806 146.041H195.544Z" fill="#263238"/>
<path d="M196.823 143.19V146.347H196.47V143.483H195.731V143.19H196.823Z" fill="#263238"/>
<path d="M133.66 161.705C133.66 160.699 134.186 160.106 134.918 160.106C135.651 160.106 136.177 160.699 136.177 161.705C136.177 162.711 135.644 163.31 134.918 163.31C134.192 163.31 133.66 162.711 133.66 161.705ZM135.844 161.705C135.844 160.866 135.464 160.373 134.918 160.373C134.372 160.373 133.993 160.839 133.993 161.705C133.993 162.571 134.366 163.037 134.918 163.037C135.471 163.037 135.864 162.551 135.864 161.705H135.844Z" fill="#263238"/>
<path d="M139.061 162.404C139.061 162.964 138.588 163.31 137.835 163.31C137.083 163.31 136.623 162.964 136.623 162.404C136.62 162.226 136.679 162.051 136.789 161.911C136.9 161.77 137.055 161.672 137.229 161.632C137.088 161.586 136.964 161.497 136.876 161.378C136.788 161.259 136.739 161.114 136.736 160.966C136.736 160.453 137.169 160.133 137.835 160.133C138.501 160.133 138.948 160.453 138.948 160.966C138.944 161.115 138.894 161.259 138.804 161.378C138.714 161.498 138.59 161.586 138.448 161.632C138.623 161.672 138.779 161.769 138.89 161.91C139.002 162.05 139.062 162.225 139.061 162.404ZM138.728 162.404C138.728 162.018 138.395 161.778 137.835 161.778C137.276 161.778 136.95 162.018 136.95 162.404C136.95 162.79 137.283 163.07 137.835 163.07C138.388 163.07 138.728 162.79 138.728 162.397V162.404ZM137.862 161.512C138.355 161.512 138.648 161.292 138.648 160.952C138.648 160.613 138.335 160.379 137.862 160.379C137.389 160.379 137.083 160.593 137.083 160.946C137.083 161.299 137.349 161.512 137.862 161.512Z" fill="#263238"/>
<path d="M140.653 159.494H140.946L139.454 163.729H139.194L140.653 159.494Z" fill="#263238"/>
<path d="M143.19 162.99V163.283H140.979V163.05L142.311 161.771C142.664 161.418 142.73 161.205 142.73 160.992C142.73 160.626 142.477 160.399 141.998 160.399C141.836 160.389 141.674 160.416 141.524 160.477C141.374 160.538 141.24 160.633 141.132 160.752L140.906 160.553C141.047 160.401 141.221 160.282 141.415 160.204C141.608 160.127 141.817 160.094 142.025 160.106C142.691 160.106 143.063 160.426 143.063 160.952C143.057 161.145 143.007 161.332 142.918 161.503C142.83 161.673 142.704 161.823 142.551 161.938L141.478 162.99H143.19Z" fill="#263238"/>
<path d="M145.714 162.351C145.714 162.89 145.341 163.31 144.569 163.31C144.154 163.323 143.749 163.177 143.436 162.904L143.596 162.644C143.725 162.766 143.877 162.862 144.042 162.924C144.208 162.988 144.385 163.017 144.562 163.01C145.101 163.01 145.381 162.75 145.381 162.344C145.381 161.938 145.135 161.678 144.329 161.678H143.663L143.823 160.1H145.548V160.386H144.102L143.996 161.392H144.402C145.354 161.425 145.714 161.798 145.714 162.351Z" fill="#263238"/>
<path d="M135.131 158.102V158.282H133.746V156.323H135.078V156.51H133.946V157.176H134.958V157.356H133.946V158.082L135.131 158.102Z" fill="#263238"/>
<path d="M136.816 158.282L136.19 157.416L135.524 158.282H135.285L136.031 157.276L135.365 156.323H135.598L136.19 157.123L136.776 156.323H136.996L136.33 157.269L137.076 158.282H136.816Z" fill="#263238"/>
<path d="M138.894 156.996C138.894 157.409 138.588 157.662 138.095 157.662H137.569V158.282H137.362V156.323H138.095C138.588 156.323 138.894 156.577 138.894 156.996ZM138.688 156.996C138.688 156.683 138.481 156.503 138.088 156.503H137.569V157.482H138.088C138.481 157.482 138.688 157.303 138.688 156.996Z" fill="#263238"/>
<path d="M140.106 156.323H140.899C141.159 156.323 141.408 156.427 141.592 156.611C141.775 156.794 141.878 157.043 141.878 157.303C141.878 157.562 141.775 157.811 141.592 157.995C141.408 158.178 141.159 158.282 140.899 158.282H140.106V156.323ZM140.886 158.102C141.097 158.102 141.301 158.018 141.451 157.868C141.601 157.718 141.685 157.514 141.685 157.303C141.685 157.091 141.601 156.888 141.451 156.738C141.301 156.588 141.097 156.503 140.886 156.503H140.313V158.102H140.886Z" fill="#263238"/>
<path d="M143.483 157.369V158.282H143.29V158.048C143.236 158.132 143.16 158.199 143.071 158.242C142.982 158.286 142.882 158.304 142.784 158.295C142.457 158.295 142.251 158.122 142.251 157.869C142.251 157.616 142.397 157.449 142.817 157.449H143.283V157.362C143.289 157.308 143.282 157.253 143.263 157.201C143.244 157.149 143.213 157.103 143.173 157.065C143.133 157.027 143.085 156.998 143.033 156.982C142.98 156.966 142.925 156.962 142.87 156.97C142.69 156.967 142.516 157.028 142.377 157.143L142.291 156.996C142.461 156.862 142.673 156.791 142.89 156.796C142.969 156.785 143.049 156.792 143.125 156.816C143.201 156.84 143.271 156.882 143.328 156.937C143.385 156.992 143.429 157.06 143.456 157.135C143.482 157.21 143.492 157.291 143.483 157.369ZM143.283 157.835V157.596H142.824C142.537 157.596 142.444 157.709 142.444 157.862C142.444 158.015 142.584 158.135 142.817 158.135C142.916 158.142 143.014 158.118 143.098 158.065C143.182 158.013 143.247 157.935 143.283 157.842V157.835Z" fill="#263238"/>
<path d="M144.795 158.188C144.71 158.262 144.601 158.3 144.489 158.295C144.431 158.301 144.373 158.294 144.317 158.275C144.263 158.256 144.213 158.225 144.172 158.184C144.13 158.144 144.098 158.094 144.078 158.039C144.058 157.985 144.05 157.927 144.056 157.869V156.976H143.796V156.81H144.056V156.51H144.256V156.83H144.702V156.996H144.256V157.842C144.25 157.877 144.254 157.913 144.264 157.947C144.275 157.981 144.293 158.011 144.317 158.037C144.341 158.062 144.371 158.082 144.405 158.095C144.438 158.107 144.473 158.112 144.509 158.108C144.589 158.11 144.666 158.084 144.728 158.035L144.795 158.188Z" fill="#263238"/>
<path d="M146.387 157.609H145.188C145.198 157.753 145.265 157.887 145.373 157.981C145.482 158.076 145.624 158.124 145.767 158.115C145.852 158.119 145.937 158.103 146.015 158.07C146.094 158.036 146.164 157.986 146.22 157.922L146.333 158.055C146.261 158.134 146.172 158.196 146.073 158.238C145.975 158.279 145.867 158.299 145.761 158.295C145.66 158.301 145.559 158.285 145.464 158.25C145.369 158.214 145.283 158.159 145.211 158.088C145.139 158.017 145.083 157.932 145.045 157.838C145.008 157.744 144.991 157.643 144.995 157.542C144.989 157.446 145.003 157.349 145.037 157.259C145.071 157.168 145.122 157.085 145.189 157.015C145.256 156.945 145.336 156.89 145.426 156.852C145.514 156.814 145.61 156.796 145.707 156.796C145.806 156.789 145.905 156.803 145.997 156.838C146.089 156.874 146.172 156.929 146.24 157C146.309 157.072 146.36 157.157 146.391 157.251C146.422 157.345 146.432 157.444 146.42 157.542L146.387 157.609ZM145.155 157.456H146.2C146.186 157.327 146.124 157.209 146.028 157.123C145.931 157.037 145.807 156.989 145.677 156.989C145.548 156.989 145.423 157.037 145.327 157.123C145.231 157.209 145.169 157.327 145.155 157.456Z" fill="#263238"/>
<path d="M170.856 160.133V163.283H170.536V160.419H169.79V160.133H170.856Z" fill="#263238"/>
<path d="M173.759 162.99V163.283H171.548V163.05L172.88 161.771C173.233 161.418 173.307 161.205 173.307 160.992C173.307 160.626 173.047 160.399 172.567 160.399C172.407 160.389 172.246 160.416 172.097 160.477C171.948 160.538 171.815 160.633 171.708 160.752L171.475 160.553C171.618 160.401 171.791 160.283 171.985 160.206C172.178 160.128 172.386 160.095 172.594 160.106C173.26 160.106 173.64 160.426 173.64 160.952C173.629 161.145 173.578 161.332 173.488 161.502C173.398 161.672 173.273 161.821 173.12 161.938L172.048 162.99H173.759Z" fill="#263238"/>
<path d="M176.25 162.377C176.25 162.904 175.864 163.31 175.105 163.31C174.689 163.323 174.285 163.178 173.973 162.904L174.132 162.644C174.262 162.767 174.414 162.863 174.581 162.926C174.748 162.989 174.926 163.017 175.105 163.01C175.631 163.01 175.917 162.77 175.917 162.377C175.917 161.985 175.651 161.751 175.065 161.751H174.838V161.512L175.711 160.419H174.099V160.133H176.097V160.359L175.205 161.478C175.911 161.518 176.25 161.871 176.25 162.377Z" fill="#263238"/>
<path d="M169.897 157.303C169.895 157.169 169.92 157.035 169.971 156.912C170.022 156.788 170.098 156.676 170.194 156.583C170.29 156.489 170.404 156.416 170.529 156.368C170.654 156.32 170.788 156.298 170.922 156.304C171.054 156.3 171.186 156.323 171.309 156.372C171.431 156.421 171.542 156.495 171.635 156.59L171.508 156.723C171.432 156.647 171.342 156.587 171.243 156.547C171.143 156.507 171.036 156.488 170.929 156.49C170.816 156.48 170.703 156.493 170.596 156.529C170.489 156.565 170.391 156.623 170.308 156.699C170.224 156.776 170.158 156.868 170.112 156.972C170.066 157.075 170.042 157.187 170.042 157.299C170.042 157.412 170.066 157.524 170.112 157.627C170.158 157.731 170.224 157.823 170.308 157.899C170.391 157.975 170.489 158.033 170.596 158.069C170.703 158.105 170.816 158.119 170.929 158.108C171.036 158.112 171.143 158.094 171.243 158.054C171.343 158.014 171.433 157.953 171.508 157.875L171.635 158.008C171.542 158.105 171.43 158.18 171.306 158.23C171.182 158.28 171.049 158.302 170.916 158.295C170.782 158.3 170.65 158.279 170.525 158.231C170.401 158.184 170.288 158.111 170.192 158.018C170.097 157.925 170.022 157.814 169.971 157.691C169.92 157.568 169.895 157.436 169.897 157.303Z" fill="#263238"/>
<path d="M174.745 156.323L174.079 158.282H173.859L173.287 156.61L172.714 158.282H172.494L171.828 156.323H172.041L172.607 158.008L173.193 156.323H173.386L173.959 158.015L174.532 156.323H174.745Z" fill="#263238"/>
<path d="M153.386 180.206H151.628L151.249 181.052H150.902L152.341 177.902H152.674L154.112 181.052H153.759L153.386 180.206ZM153.26 179.94L152.514 178.248L151.755 179.94H153.26Z" fill="#263238"/>
<path d="M154.306 179.867C154.3 179.705 154.328 179.545 154.387 179.396C154.447 179.246 154.536 179.11 154.651 178.997C154.765 178.884 154.902 178.795 155.052 178.738C155.203 178.68 155.363 178.654 155.524 178.661C155.707 178.651 155.889 178.688 156.052 178.772C156.214 178.855 156.352 178.98 156.45 179.134L156.217 179.294C156.142 179.186 156.043 179.097 155.927 179.036C155.811 178.975 155.682 178.942 155.551 178.941C155.305 178.941 155.07 179.038 154.896 179.212C154.722 179.386 154.625 179.621 154.625 179.867C154.625 180.112 154.722 180.347 154.896 180.521C155.07 180.695 155.305 180.792 155.551 180.792C155.682 180.791 155.81 180.76 155.926 180.699C156.041 180.639 156.141 180.553 156.217 180.446L156.45 180.606C156.35 180.758 156.212 180.881 156.05 180.963C155.887 181.045 155.706 181.082 155.524 181.072C155.363 181.079 155.203 181.053 155.052 180.996C154.902 180.938 154.765 180.85 154.651 180.736C154.536 180.623 154.447 180.487 154.387 180.338C154.328 180.188 154.3 180.028 154.306 179.867Z" fill="#263238"/>
<path d="M158.348 180.906C158.208 181.021 158.03 181.08 157.849 181.072C157.759 181.078 157.67 181.065 157.587 181.033C157.504 181.002 157.428 180.953 157.364 180.89C157.301 180.827 157.253 180.751 157.221 180.668C157.19 180.585 157.177 180.495 157.183 180.406V178.954H156.763V178.681H157.176V178.162H157.496V178.681H158.222V178.954H157.496V180.366C157.487 180.423 157.492 180.481 157.51 180.537C157.527 180.591 157.557 180.642 157.596 180.683C157.636 180.725 157.685 180.757 157.739 180.777C157.793 180.798 157.851 180.805 157.909 180.799C158.036 180.801 158.161 180.759 158.262 180.679L158.348 180.906Z" fill="#263238"/>
<path d="M158.861 177.935C158.861 177.873 158.886 177.814 158.929 177.771C158.973 177.727 159.032 177.702 159.094 177.702C159.156 177.702 159.215 177.727 159.259 177.771C159.303 177.814 159.327 177.873 159.327 177.935C159.327 177.997 159.303 178.056 159.259 178.1C159.215 178.144 159.156 178.168 159.094 178.168C159.032 178.168 158.973 178.144 158.929 178.1C158.886 178.056 158.861 177.997 158.861 177.935ZM158.934 178.681H159.254V181.052H158.934V178.681Z" fill="#263238"/>
<path d="M159.9 179.867C159.9 179.629 159.971 179.396 160.102 179.198C160.235 179 160.423 178.845 160.643 178.754C160.862 178.663 161.105 178.638 161.338 178.684C161.572 178.73 161.787 178.844 161.955 179.012C162.124 179.18 162.24 179.394 162.287 179.628C162.334 179.861 162.312 180.103 162.221 180.324C162.131 180.544 161.977 180.732 161.78 180.866C161.583 180.999 161.35 181.071 161.112 181.072C160.952 181.078 160.792 181.05 160.643 180.992C160.494 180.934 160.359 180.845 160.245 180.732C160.132 180.619 160.042 180.484 159.983 180.335C159.923 180.186 159.895 180.027 159.9 179.867ZM161.984 179.867C161.975 179.695 161.916 179.53 161.814 179.391C161.711 179.253 161.571 179.147 161.409 179.088C161.248 179.029 161.072 179.018 160.905 179.058C160.737 179.097 160.585 179.185 160.467 179.311C160.349 179.436 160.27 179.593 160.241 179.763C160.211 179.932 160.232 180.106 160.301 180.264C160.369 180.422 160.483 180.557 160.627 180.651C160.771 180.744 160.94 180.794 161.112 180.792C161.232 180.794 161.35 180.77 161.46 180.723C161.57 180.676 161.669 180.607 161.751 180.521C161.833 180.433 161.896 180.331 161.936 180.218C161.977 180.106 161.993 179.986 161.984 179.867Z" fill="#263238"/>
<path d="M165.168 179.68V181.052H164.848V179.72C164.862 179.622 164.852 179.522 164.822 179.427C164.792 179.332 164.74 179.246 164.672 179.174C164.603 179.101 164.52 179.045 164.427 179.01C164.334 178.974 164.235 178.96 164.136 178.967C164.022 178.959 163.909 178.975 163.803 179.016C163.697 179.056 163.602 179.119 163.523 179.201C163.444 179.282 163.384 179.38 163.348 179.487C163.311 179.593 163.298 179.707 163.31 179.82V181.065H162.99V178.694H163.297V179.154C163.392 179.005 163.526 178.884 163.684 178.804C163.842 178.723 164.018 178.685 164.196 178.694C164.327 178.686 164.459 178.705 164.581 178.752C164.704 178.798 164.816 178.87 164.908 178.964C165.001 179.058 165.071 179.17 165.117 179.294C165.161 179.418 165.179 179.55 165.168 179.68Z" fill="#263238"/>
<path d="M167.592 178.188V179.427H169.217V179.713H167.592V181.045H167.259V177.895H169.417V178.182L167.592 178.188Z" fill="#263238"/>
<path d="M169.923 177.935C169.923 177.873 169.948 177.814 169.992 177.771C170.035 177.727 170.094 177.702 170.156 177.702C170.218 177.702 170.278 177.727 170.321 177.771C170.365 177.814 170.389 177.873 170.389 177.935C170.389 177.997 170.365 178.056 170.321 178.1C170.278 178.144 170.218 178.168 170.156 178.168C170.094 178.168 170.035 178.144 169.992 178.1C169.948 178.056 169.923 177.997 169.923 177.935ZM169.99 178.681H170.309V181.052H169.99V178.681Z" fill="#263238"/>
<path d="M173.393 178.681V180.766C173.418 180.926 173.404 181.091 173.354 181.245C173.304 181.4 173.218 181.54 173.103 181.655C172.988 181.769 172.848 181.856 172.693 181.906C172.539 181.957 172.375 181.97 172.214 181.945C171.814 181.963 171.422 181.835 171.109 181.585L171.269 181.338C171.53 181.555 171.861 181.671 172.201 181.665C172.8 181.665 173.073 181.385 173.073 180.806V180.486C172.973 180.635 172.835 180.756 172.674 180.837C172.513 180.917 172.334 180.955 172.154 180.946C171.996 180.958 171.837 180.937 171.687 180.885C171.538 180.832 171.4 180.75 171.283 180.642C171.167 180.534 171.074 180.403 171.011 180.258C170.948 180.112 170.914 179.956 170.914 179.797C170.914 179.638 170.948 179.481 171.011 179.336C171.074 179.191 171.167 179.059 171.283 178.952C171.4 178.844 171.538 178.761 171.687 178.709C171.837 178.657 171.996 178.636 172.154 178.648C172.337 178.641 172.519 178.68 172.682 178.763C172.845 178.846 172.984 178.969 173.087 179.121V178.668L173.393 178.681ZM173.087 179.807C173.092 179.628 173.043 179.452 172.948 179.301C172.853 179.149 172.714 179.029 172.551 178.958C172.387 178.886 172.205 178.864 172.029 178.896C171.853 178.927 171.69 179.01 171.562 179.135C171.433 179.26 171.345 179.42 171.308 179.595C171.271 179.77 171.287 179.952 171.354 180.118C171.422 180.284 171.537 180.426 171.685 180.526C171.834 180.626 172.008 180.679 172.188 180.679C172.304 180.686 172.421 180.67 172.531 180.63C172.641 180.59 172.741 180.527 172.825 180.447C172.91 180.366 172.977 180.269 173.021 180.161C173.067 180.053 173.089 179.937 173.087 179.82V179.807Z" fill="#263238"/>
<path d="M176.423 178.681V181.052H176.117V180.619C176.028 180.764 175.903 180.883 175.753 180.963C175.603 181.042 175.434 181.08 175.265 181.072C175.128 181.085 174.991 181.067 174.863 181.02C174.734 180.973 174.618 180.898 174.522 180.8C174.427 180.703 174.354 180.585 174.31 180.456C174.265 180.327 174.25 180.189 174.266 180.053V178.681H174.585V180.013C174.571 180.112 174.579 180.213 174.609 180.309C174.639 180.404 174.69 180.491 174.758 180.565C174.827 180.637 174.911 180.694 175.004 180.73C175.097 180.766 175.198 180.78 175.298 180.772C175.41 180.778 175.522 180.759 175.626 180.717C175.729 180.675 175.823 180.611 175.899 180.529C175.976 180.447 176.034 180.35 176.069 180.244C176.104 180.138 176.116 180.025 176.104 179.913V178.668L176.423 178.681Z" fill="#263238"/>
<path d="M178.488 178.661V178.974H178.408C178.295 178.969 178.182 178.989 178.077 179.033C177.972 179.077 177.879 179.143 177.803 179.227C177.726 179.31 177.669 179.41 177.635 179.518C177.602 179.627 177.594 179.741 177.609 179.853V181.059H177.289V178.688H177.596V179.154C177.679 178.992 177.807 178.859 177.967 178.772C178.126 178.684 178.307 178.645 178.488 178.661Z" fill="#263238"/>
<path d="M181.152 179.966H179.154C179.161 180.082 179.19 180.195 179.241 180.299C179.291 180.403 179.362 180.497 179.448 180.573C179.536 180.65 179.636 180.708 179.745 180.746C179.855 180.784 179.971 180.8 180.086 180.792C180.223 180.796 180.359 180.77 180.484 180.716C180.609 180.662 180.721 180.581 180.812 180.479L180.992 180.686C180.822 180.864 180.603 180.989 180.363 181.043C180.122 181.098 179.871 181.08 179.642 180.993C179.411 180.906 179.211 180.752 179.068 180.551C178.924 180.351 178.843 180.113 178.834 179.867C178.826 179.71 178.85 179.554 178.905 179.406C178.96 179.26 179.044 179.126 179.153 179.013C179.261 178.9 179.392 178.81 179.536 178.75C179.681 178.689 179.837 178.659 179.993 178.661C180.15 178.658 180.305 178.688 180.449 178.748C180.594 178.808 180.724 178.898 180.832 179.011C180.94 179.125 181.023 179.259 181.075 179.406C181.128 179.554 181.15 179.711 181.139 179.867C181.139 179.867 181.152 179.927 181.152 179.966ZM179.154 179.727H180.832C180.832 179.504 180.744 179.29 180.587 179.133C180.429 178.976 180.216 178.888 179.993 178.888C179.771 178.888 179.557 178.976 179.4 179.133C179.243 179.29 179.154 179.504 179.154 179.727Z" fill="#263238"/>
<path d="M154.798 193.686V195.071H153.566V193.739C152.465 193.705 151.396 193.361 150.483 192.747L151.149 191.242C151.86 191.739 152.688 192.042 153.553 192.121V190.056C152.174 189.717 150.643 189.264 150.643 187.492C150.643 186.16 151.595 185.055 153.553 184.828V183.456H154.785V184.788C155.67 184.838 156.531 185.099 157.296 185.548L156.676 187.066C156.096 186.722 155.453 186.495 154.785 186.4V188.505C156.157 188.824 157.669 189.284 157.669 191.029C157.682 192.341 156.743 193.453 154.798 193.686ZM153.566 188.225V186.48C152.9 186.626 152.647 186.986 152.647 187.392C152.647 187.799 153.02 188.052 153.566 188.225ZM155.691 191.202C155.691 190.769 155.331 190.536 154.798 190.349V192.054C155.418 191.921 155.691 191.601 155.691 191.202Z" fill="#263238"/>
<path d="M164.975 191.955V193.593H158.435V192.294L161.765 189.137C162.537 188.405 162.671 187.965 162.671 187.539C162.671 186.873 162.198 186.467 161.285 186.467C160.938 186.453 160.594 186.525 160.282 186.676C159.969 186.828 159.699 187.053 159.494 187.332L158.035 186.393C158.429 185.861 158.95 185.435 159.55 185.154C160.15 184.872 160.81 184.744 161.472 184.782C163.403 184.782 164.688 185.774 164.688 187.346C164.688 188.185 164.449 188.951 163.237 190.076L161.239 191.955H164.975Z" fill="#263238"/>
<path d="M165.781 189.264C165.781 186.407 167.366 184.782 169.49 184.782C171.615 184.782 173.2 186.407 173.2 189.264C173.2 192.121 171.628 193.739 169.49 193.739C167.352 193.739 165.781 192.121 165.781 189.264ZM171.189 189.264C171.189 187.266 170.523 186.48 169.49 186.48C168.458 186.48 167.812 187.293 167.812 189.264C167.812 191.235 168.478 192.041 169.49 192.041C170.503 192.041 171.162 191.229 171.162 189.264H171.189Z" fill="#263238"/>
<path d="M174.179 189.264C174.179 186.407 175.764 184.782 177.889 184.782C180.013 184.782 181.598 186.407 181.598 189.264C181.598 192.121 180.026 193.739 177.889 193.739C175.751 193.739 174.179 192.121 174.179 189.264ZM179.58 189.264C179.58 187.266 178.914 186.48 177.889 186.48C176.863 186.48 176.204 187.293 176.204 189.264C176.204 191.235 176.87 192.041 177.889 192.041C178.908 192.041 179.58 191.229 179.58 189.264Z" fill="#263238"/>
<path d="M179.92 215.638H152.308C150.595 215.636 148.952 214.955 147.741 213.743C146.53 212.533 145.849 210.89 145.847 209.177C145.847 207.464 146.527 205.819 147.739 204.607C148.95 203.394 150.593 202.712 152.308 202.71H179.92C180.768 202.71 181.61 202.878 182.393 203.203C183.178 203.528 183.89 204.004 184.49 204.605C185.09 205.206 185.566 205.919 185.89 206.703C186.214 207.488 186.381 208.328 186.38 209.177C186.38 210.891 185.699 212.534 184.488 213.745C183.277 214.957 181.633 215.638 179.92 215.638Z" fill="#263238"/>
<path d="M157.256 208.458C157.256 209.271 156.67 209.757 155.704 209.757H154.678V210.956H154.279V207.159H155.704C156.67 207.186 157.256 207.672 157.256 208.458ZM156.85 208.458C156.85 207.852 156.45 207.506 155.691 207.506H154.678V209.404H155.691C156.45 209.43 156.85 209.084 156.85 208.458Z" fill="white"/>
<path d="M160.166 209.211V210.982H159.8V210.536C159.693 210.696 159.545 210.824 159.371 210.907C159.198 210.989 159.006 211.025 158.814 211.009C158.148 211.009 157.775 210.676 157.775 210.176C157.775 209.677 158.055 209.37 158.874 209.37H159.78V209.197C159.78 208.711 159.507 208.445 158.974 208.445C158.627 208.439 158.29 208.558 158.022 208.778L157.849 208.491C158.18 208.23 158.593 208.094 159.014 208.105C159.167 208.083 159.322 208.096 159.468 208.143C159.615 208.19 159.749 208.27 159.86 208.377C159.971 208.483 160.056 208.614 160.11 208.758C160.163 208.903 160.182 209.057 160.166 209.211ZM159.78 210.123V209.657H158.888C158.335 209.657 158.155 209.877 158.155 210.17C158.155 210.463 158.421 210.709 158.874 210.709C159.068 210.722 159.261 210.671 159.424 210.566C159.587 210.46 159.712 210.305 159.78 210.123Z" fill="white"/>
<path d="M163.556 208.125L162.131 211.322C161.891 211.881 161.592 212.061 161.185 212.061C160.932 212.061 160.689 211.963 160.506 211.788L160.686 211.502C160.753 211.572 160.834 211.628 160.923 211.665C161.012 211.703 161.108 211.722 161.205 211.721C161.465 211.721 161.638 211.602 161.798 211.242L161.925 210.962L160.646 208.112H161.052L162.124 210.543L163.17 208.125H163.556Z" fill="white"/>
<path d="M166.813 211.009V211.635H166.54V211.015C166.062 211.012 165.601 210.837 165.241 210.523L165.401 210.21C165.716 210.491 166.118 210.653 166.54 210.669V209.244C165.941 209.097 165.335 208.911 165.335 208.192C165.335 207.672 165.707 207.219 166.54 207.159V206.533H166.813V207.126C167.203 207.133 167.584 207.248 167.912 207.459L167.779 207.779C167.487 207.597 167.155 207.49 166.813 207.466V208.904C167.426 209.051 168.072 209.224 168.072 209.95C168.072 210.503 167.672 210.962 166.813 211.009ZM166.54 208.864V207.532C165.981 207.579 165.727 207.865 165.727 208.198C165.727 208.531 166.094 208.744 166.54 208.864ZM167.672 210.003C167.672 209.57 167.279 209.424 166.813 209.337V210.669C167.406 210.622 167.672 210.349 167.672 210.003Z" fill="white"/>
<path d="M171.202 210.636V210.982H168.538V210.709L170.116 209.157C170.543 208.738 170.623 208.491 170.623 208.218C170.623 207.779 170.316 207.512 169.737 207.512C169.544 207.503 169.35 207.535 169.171 207.607C168.992 207.68 168.83 207.791 168.698 207.932L168.418 207.692C168.588 207.512 168.795 207.37 169.025 207.277C169.255 207.184 169.502 207.142 169.75 207.153C170.516 207.153 171.009 207.546 171.009 208.178C170.999 208.41 170.938 208.636 170.83 208.842C170.721 209.047 170.569 209.225 170.383 209.364L169.091 210.636H171.202Z" fill="white"/>
<path d="M171.668 209.084C171.668 207.872 172.301 207.153 173.18 207.153C174.059 207.153 174.698 207.872 174.698 209.084C174.698 210.296 174.032 211.015 173.18 211.015C172.327 211.015 171.668 210.296 171.668 209.084ZM174.299 209.084C174.299 208.072 173.846 207.512 173.18 207.512C172.514 207.512 172.061 208.072 172.061 209.084C172.061 210.096 172.521 210.656 173.18 210.656C173.839 210.656 174.299 210.096 174.299 209.084Z" fill="white"/>
<path d="M175.258 209.084C175.258 207.872 175.924 207.153 176.776 207.153C177.629 207.153 178.295 207.872 178.295 209.084C178.295 210.296 177.629 211.015 176.776 211.015C175.924 211.015 175.258 210.296 175.258 209.084ZM177.922 209.084C177.922 208.072 177.469 207.512 176.81 207.512C176.15 207.512 175.691 208.072 175.691 209.084C175.691 210.096 176.144 210.656 176.81 210.656C177.476 210.656 177.889 210.096 177.889 209.084H177.922Z" fill="white"/>
<path d="M124.336 195.298C125.335 210.649 118.222 227.745 118.222 227.745L79.8001 216.93L73.1002 215.038C79.7602 205.787 82.9303 187.566 81.1921 172.82C81.0589 171.708 80.9789 170.662 80.919 169.663C80.253 157.502 85.3079 153.946 89.577 148.571C94.239 142.75 104.615 120.772 104.615 115.571C104.615 110.37 117.636 97.6356 114.738 83.1834C114.738 83.1834 118.675 80.7392 122.631 82.7438C124.429 83.6496 126.22 85.4678 127.666 88.8377C131.055 96.7565 126.294 119.141 122.244 124.629L114.445 156.916C114.445 156.916 117.076 161.452 119.66 169.683C122.229 178.006 123.798 186.605 124.336 195.298Z" fill="white"/>
<path opacity="0.4" d="M80.919 169.663C83.0968 175.624 85.4078 179.653 85.208 188.005C85.0082 196.357 80.546 209.211 81.8181 215.891C81.0915 216.105 80.4128 216.458 79.8201 216.929L73.1201 215.038C79.7801 205.787 82.9503 187.566 81.212 172.82C81.0589 171.708 80.9789 170.662 80.919 169.663Z" fill="#315B99"/>
<path opacity="0.4" d="M122.244 124.629L114.445 156.916C114.445 156.916 117.076 161.452 119.66 169.684C114.379 161.172 109.89 158.628 109.89 158.628C113.406 154.412 116.117 123.576 116.117 123.576C116.117 123.576 127.139 110.623 126.107 97.0696C125.776 92.1312 124.6 87.2854 122.631 82.7439C124.429 83.6497 126.22 85.4678 127.666 88.8378C131.055 96.7565 126.294 119.141 122.244 124.629Z" fill="#315B99"/>
<path d="M73.1002 215.038C79.7602 205.787 82.9303 187.566 81.1987 172.82C79.4671 158.075 84.955 154.385 89.5837 148.565C94.2124 142.744 104.615 120.772 104.615 115.564C104.615 110.356 117.629 97.6423 114.738 83.1834C114.738 83.1834 123.043 78.0353 127.666 88.8378C131.055 96.7632 126.294 119.141 122.244 124.635L114.452 156.916C114.452 156.916 122.77 171.269 124.336 195.298C125.335 210.649 118.222 227.752 118.222 227.752" stroke="#263238" stroke-linecap="round" stroke-linejoin="round"/>
<path d="M98.7811 240.033C98.7811 240.033 107.526 245.414 112.627 253.926" stroke="#263238" stroke-linecap="round" stroke-linejoin="round"/>
<path d="M123.343 250.216C123.343 250.216 115.811 251.288 109.004 243.143C104.642 237.928 91.3952 235.571 88.3582 221.931" stroke="#263238" stroke-linecap="round" stroke-linejoin="round"/>
<path opacity="0.2" d="M232.82 290.549C213.54 281.325 225.215 273.932 198.688 262.484C172.161 251.035 171.895 241.252 175.091 218.754C178.288 196.257 175.757 172.328 183.47 170.296C191.182 168.265 177.436 137.236 186.427 126.267L230.676 212.341L232.82 290.549Z" fill="black" fill-opacity="0.7"/>
<path d="M304.662 289.65C303.756 287.059 302.837 284.229 302.124 281.658C301.205 278.328 300.486 275.664 298.794 272.567C298.528 272.074 298.241 271.555 297.922 270.995C296.117 267.779 293.646 263.376 292.201 257.968C291.228 254.325 292.201 245.354 293.107 236.656C293.773 230.409 294.379 224.515 294.199 221.172L294.146 219.986C293.693 211.242 292.747 193.047 290.816 188.018C288.917 183.17 287.146 182.444 283.916 181.152C283.583 181.005 283.25 180.872 282.864 180.712C281.651 180.206 279.587 179.141 277.209 177.909C271.848 175.131 265.175 171.675 261.785 171.249C258.613 170.892 255.406 171.041 252.281 171.688C248.105 168.485 240.999 164.362 238.881 164.276C237.149 164.189 233.366 165.275 231.555 165.841L230.642 166.134C229.496 165.244 228.279 164.447 227.006 163.749C226.92 163.703 226.833 163.669 226.76 163.636C224.409 162.67 220.859 162.637 218.921 162.69C218.335 162.69 217.875 162.75 217.669 162.77C214.012 157.143 210.416 151.542 208.851 149.084C205.588 143.916 195.484 122.651 195.384 122.444C195.372 122.417 195.354 122.393 195.331 122.374C195.308 122.356 195.281 122.343 195.251 122.338C195.221 122.334 195.189 122.334 195.158 122.338C194.372 122.111 188.585 120.639 186.26 126.247C183.716 132.354 187.346 145.761 190.889 150.629C192.594 152.974 197.249 162.537 201.971 172.434C200.759 173.56 191.062 182.517 186.353 184.189C182.497 185.554 183.403 205.321 184.129 221.192C184.402 227.053 184.629 232.094 184.562 235.125C184.429 240.985 195.091 249.057 205.428 256.863C214.752 263.936 224.422 271.242 225.554 276.55C225.867 278.042 226.76 279.254 227.825 280.619C229.603 282.883 231.895 285.554 232.867 290.609C233.153 292.128 235.591 294.112 237.529 297.356H307.486C306.899 295.777 305.794 292.9 304.662 289.65ZM207.645 184.355C211.035 191.455 213.133 195.677 213.639 196.15C214.146 196.623 214.112 198.874 214.099 201.065C214.026 202.983 214.093 204.904 214.299 206.813C213.473 207.539 208.258 212.287 207.206 216.137L202.777 210.922L201.658 194.559C202.324 193.853 206.88 189.037 207.645 184.355Z" fill="white"/>
<path opacity="0.4" d="M284.588 229.976C286.233 245.328 286.253 253.653 288.098 258.095C291.215 265.594 295.804 267.113 295.804 267.113C294.277 264.206 293.065 261.145 292.188 257.982C291.222 254.339 292.188 245.368 293.093 236.67C293.759 230.423 294.372 224.522 294.199 221.179L294.139 219.993C293.686 211.255 292.74 193.06 290.809 188.025C288.917 183.177 287.139 182.451 283.909 181.152C283.576 181.012 283.243 180.879 282.857 180.719C281.645 180.213 279.587 179.147 277.203 177.915C271.841 175.138 265.168 171.682 261.778 171.255C258.606 170.895 255.398 171.043 252.274 171.695C248.098 168.491 240.992 164.369 238.874 164.282C237.143 164.196 232.447 165.561 230.622 166.14C238.614 172.661 250.123 180.792 250.123 180.792C259.227 182.604 258.062 186.553 261.745 188.784C265.075 190.782 268.258 184.935 271.069 184.422C274.745 183.756 278.921 187.632 278.734 192.334C278.162 205.288 283.177 216.796 284.588 229.976Z" fill="#315B99"/>
<path opacity="0.4" d="M238.568 182.404C238.568 182.404 231.355 176.41 227.912 174.412C224.469 172.414 223.916 165.528 226.633 163.856C226.736 163.794 226.853 163.757 226.973 163.749L226.726 163.636C224.375 162.67 220.826 162.631 218.888 162.69C222.884 170.13 226.074 175.837 226.933 177.089C229.83 181.272 238.568 182.404 238.568 182.404Z" fill="#315B99"/>
<path opacity="0.4" d="M227.626 275.617C227.932 274.026 225.308 269.364 224.156 267.472C221.538 263.157 191.149 236.303 195.551 229.137C199.953 221.971 203.976 227.273 206.76 227.739C208.758 228.072 214.246 224.802 214.219 224.529C213.593 219.007 218.688 215.418 218.688 215.418C218.688 215.418 218.222 193.44 217.049 193.813C215.877 194.186 201.851 160.812 201.851 160.812C201.851 160.812 187.026 141.099 187.865 131.901C188.704 122.704 195.138 122.544 195.138 122.544V122.298C194.352 122.071 188.565 120.599 186.24 126.207C183.696 132.314 187.326 145.721 190.869 150.589C192.574 152.934 197.229 162.497 201.951 172.394C200.739 173.52 191.042 182.477 186.334 184.149C182.477 185.514 183.383 205.281 184.109 221.152C184.382 227.013 184.609 232.054 184.542 235.085C184.409 240.946 195.071 249.017 205.408 256.823C214.732 263.896 224.402 271.202 225.534 276.51C225.847 278.002 226.74 279.214 227.805 280.579C227.593 278.934 227.533 277.273 227.626 275.617ZM207.646 184.375C211.035 191.475 213.133 195.697 213.64 196.17C214.146 196.643 214.112 198.894 214.099 201.085C214.026 203.003 214.092 204.924 214.299 206.833C213.473 207.559 208.258 212.307 207.206 216.157L202.777 210.942L201.658 194.579C202.324 193.853 206.88 189.037 207.646 184.355V184.375Z" fill="#315B99"/>
<path d="M234.432 182.318C231.456 181.381 228.841 179.548 226.946 177.069C223.903 172.994 211.948 154.425 208.638 149.191C205.328 143.956 195.138 122.544 195.138 122.544C195.138 122.544 188.878 120.446 186.44 126.294C184.002 132.141 187.339 145.355 191.049 150.443C194.758 155.531 212.387 194.712 213.786 195.977C215.185 197.243 213.087 207.699 215.891 210.23" stroke="#263238" stroke-linecap="round" stroke-linejoin="round"/>
<path d="M214.545 206.906C214.545 206.906 208.085 212.534 207.326 216.643L202.531 211.002L201.398 194.472C201.398 194.472 207.186 188.678 207.506 183.523" stroke="#263238" stroke-linecap="round" stroke-linejoin="round"/>
<path d="M202.218 172.414C202.218 172.414 191.488 182.537 186.387 184.342C181.285 186.147 185.008 224.076 184.755 235.058C184.502 246.04 223.35 265.175 225.734 276.417C226.68 280.892 230.596 281.805 232.987 290.403" stroke="#263238" stroke-linecap="round" stroke-linejoin="round"/>
<path d="M217.489 162.99C217.489 162.99 223.33 162.464 226.62 163.836C229.91 165.208 243.27 176.683 246.493 178.874C249.717 181.065 254.565 181.898 255.484 184.262" stroke="#263238" stroke-linecap="round" stroke-linejoin="round"/>
<path d="M230.549 166.373C230.549 166.373 236.543 164.375 238.834 164.489C241.125 164.602 249.743 169.683 253.606 173.08C256.566 175.706 259.975 177.777 263.669 179.194" stroke="#263238" stroke-linecap="round" stroke-linejoin="round"/>
<path d="M252.201 171.928C255.328 171.255 258.546 171.099 261.725 171.468C266.6 172.134 278.841 179.327 282.744 180.952C286.646 182.577 288.511 182.877 290.562 188.125C292.614 193.373 293.553 213.326 293.966 221.212C294.379 229.097 290.269 251.681 291.968 258.035C293.666 264.389 296.73 269.29 298.588 272.687" stroke="#263238" stroke-linecap="round" stroke-linejoin="round"/>
<path d="M201.398 194.472C201.398 194.472 200.466 190.576 199.134 190.076" stroke="#263238" stroke-linecap="round" stroke-linejoin="round"/>
<path d="M202.531 211.002C202.98 213.272 203.588 215.51 204.349 217.695C205.308 220.06 203.816 223.483 203.816 223.483" stroke="#263238" stroke-linecap="round" stroke-linejoin="round"/>
<path d="M207.326 216.643C207.173 220.426 210.935 224.848 211.848 224.222" stroke="#263238" stroke-linecap="round" stroke-linejoin="round"/>
<path d="M226.487 194.472C226.487 194.472 230.529 187.932 234.405 187.612C238.281 187.293 242.757 192.794 245.148 192.274C247.539 191.755 250.549 188.238 254.572 187.612C258.594 186.986 260.479 188.904 263.669 189.064C266.86 189.224 267.186 184.962 270.995 184.402C274.805 183.843 276.104 185.734 278.661 186.227C281.219 186.72 281.858 184.702 283.929 183.563" stroke="#263238" stroke-linecap="round" stroke-linejoin="round"/>
</svg>
