<svg width="245" height="220" viewBox="0 0 245 220" fill="none" xmlns="http://www.w3.org/2000/svg">
<g clip-path="url(#clip0_747_1058)">
<path d="M237.056 14.73H159.253V219.562H237.056V14.73Z" fill="url(#paint0_linear_747_1058)"/>
<path d="M237.056 14.73H159.253V219.562H237.056V14.73Z" fill="white"/>
<path d="M238.91 41.2904C236.067 41.5656 234.829 41.9849 233.67 40.3404C232.51 38.696 228.214 38.3421 226.779 40.1439C225.344 41.9456 224.813 43.1314 221.611 42.6597C218.407 42.188 217.327 43.0332 216.829 44.3632C216.331 45.6931 208.969 46.1714 211.078 47.639L238.405 43.6228C238.405 43.6228 241.753 41.0153 238.91 41.2904Z" fill="white"/>
<path d="M214.34 26.9948C213.462 26.071 210.875 26.1037 208.537 27.2634C206.198 28.423 207.882 23.0638 203.539 24.5641C197.309 26.7065 198.953 30.1199 196.373 30.1658C193.792 30.2117 186.213 32.2296 190.17 33.4416L213.096 30.0675C213.096 30.0675 215.224 27.912 214.34 26.9948Z" fill="white"/>
<path d="M184.275 62.9702C183.652 62.3151 181.819 62.3151 180.155 63.1664C178.491 64.0183 179.703 60.1856 176.611 61.2469C172.19 62.7667 173.336 65.1782 171.528 65.224C169.72 65.2698 164.323 66.6852 167.127 67.5694L183.384 65.1714C183.384 65.1714 184.904 63.6253 184.275 62.9702Z" fill="white"/>
<path d="M227.978 178.784V186.515C227.978 186.826 227.854 187.125 227.635 187.346C227.415 187.568 227.117 187.692 226.805 187.694H224.689C224.535 187.694 224.382 187.723 224.239 187.782C224.096 187.84 223.966 187.926 223.856 188.035C223.747 188.145 223.66 188.274 223.601 188.417C223.541 188.56 223.51 188.712 223.51 188.867V190.348C223.51 190.661 223.386 190.961 223.165 191.181C222.944 191.402 222.644 191.527 222.332 191.527H214.472C214.159 191.525 213.86 191.401 213.639 191.179C213.419 190.959 213.294 190.66 213.292 190.348V178.784C213.292 178.473 213.169 178.174 212.949 177.955C212.729 177.735 212.431 177.611 212.12 177.611H210.895C210.583 177.61 210.284 177.484 210.063 177.264C209.842 177.043 209.718 176.744 209.716 176.432V163.126C209.716 162.815 209.592 162.516 209.372 162.296C209.152 162.076 208.854 161.952 208.543 161.952H206.244C205.933 161.952 205.634 162.076 205.413 162.296C205.192 162.516 205.067 162.814 205.065 163.126V171.387C205.05 171.637 204.937 171.871 204.75 172.038C204.564 172.204 204.32 172.291 204.07 172.278C203.82 172.291 203.577 172.204 203.391 172.037C203.206 171.87 203.094 171.636 203.081 171.387V146.792C203.081 146.479 202.957 146.18 202.735 145.958C202.514 145.737 202.214 145.612 201.901 145.612H199.583C199.428 145.612 199.275 145.643 199.132 145.703C198.99 145.762 198.86 145.849 198.751 145.958C198.642 146.068 198.556 146.199 198.498 146.342C198.439 146.485 198.409 146.637 198.41 146.792V171.099C198.41 171.412 198.286 171.712 198.065 171.932C197.844 172.154 197.544 172.278 197.231 172.278H196.949C196.795 172.278 196.642 172.248 196.499 172.188C196.355 172.129 196.225 172.042 196.116 171.932C196.006 171.823 195.919 171.693 195.86 171.55C195.801 171.407 195.77 171.253 195.77 171.099V158.533C195.772 158.349 195.729 158.167 195.646 158.002L188.657 144.008C188.574 143.845 188.531 143.665 188.533 143.483V125.827C188.533 125.672 188.502 125.519 188.443 125.376C188.384 125.234 188.296 125.104 188.187 124.995C188.078 124.886 187.947 124.8 187.804 124.741C187.661 124.683 187.508 124.653 187.354 124.654H180.548C180.236 124.654 179.938 124.777 179.716 124.997C179.496 125.217 179.371 125.515 179.369 125.827V171.099C179.37 171.253 179.34 171.406 179.281 171.55C179.223 171.693 179.137 171.822 179.028 171.932C178.919 172.042 178.79 172.129 178.647 172.188C178.504 172.248 178.351 172.278 178.196 172.278H177.718C177.564 172.278 177.411 172.248 177.268 172.188C177.125 172.129 176.996 172.042 176.887 171.932C176.778 171.822 176.691 171.693 176.633 171.55C176.575 171.406 176.545 171.253 176.545 171.099V153.888C176.544 153.575 176.419 153.276 176.198 153.056C175.978 152.835 175.679 152.71 175.367 152.708H168.561C168.249 152.71 167.95 152.835 167.729 153.056C167.509 153.276 167.384 153.575 167.382 153.888V171.106C167.383 171.26 167.353 171.413 167.295 171.556C167.236 171.699 167.15 171.829 167.041 171.939C166.932 172.049 166.802 172.135 166.66 172.195C166.517 172.254 166.364 172.284 166.21 172.284H165.286C164.973 172.284 164.673 172.409 164.452 172.63C164.231 172.851 164.107 173.151 164.107 173.464V176.425C164.107 176.737 163.984 177.036 163.764 177.257C163.544 177.478 163.246 177.603 162.934 177.605H162.607C162.452 177.604 162.299 177.633 162.156 177.692C162.013 177.751 161.883 177.837 161.773 177.946C161.664 178.055 161.577 178.184 161.518 178.327C161.459 178.469 161.428 178.623 161.428 178.777V202.317C161.428 202.472 161.459 202.625 161.518 202.768C161.577 202.91 161.664 203.04 161.773 203.149C161.883 203.258 162.013 203.344 162.156 203.403C162.299 203.461 162.452 203.491 162.607 203.49H231.476C231.787 203.49 232.085 203.367 232.305 203.147C232.525 202.927 232.648 202.629 232.648 202.317V178.784C232.648 178.473 232.525 178.174 232.305 177.955C232.085 177.735 231.787 177.611 231.476 177.611H229.157C228.845 177.611 228.547 177.734 228.325 177.954C228.104 178.174 227.98 178.473 227.978 178.784Z" fill="url(#paint1_linear_747_1058)"/>
<path d="M236.833 205.652H159.253V212.519H236.833V205.652Z" fill="url(#paint2_linear_747_1058)"/>
<path d="M244.511 9.04321V219.562H235.982V18.4383H167.618V219.562H159.096V9.04321H244.511Z" fill="#263238"/>
<path d="M240.718 9.04321V219.562H232.196V18.4383H163.832V219.562H155.303V9.04321H240.718Z" fill="url(#paint3_linear_747_1058)"/>
<path d="M176.834 34.3455C173.906 34.5814 170.087 36.5928 178.628 38.9317C187.17 41.2706 188.323 38.7417 188.323 38.7417C188.323 38.7417 184.694 33.71 176.834 34.3455Z" fill="url(#paint4_linear_747_1058)"/>
<path d="M176.834 34.3455C173.906 34.5814 170.087 36.5928 178.628 38.9317C187.17 41.2706 188.323 38.7417 188.323 38.7417C188.323 38.7417 184.694 33.71 176.834 34.3455Z" fill="black"/>
<path d="M192.437 55.7982C194.364 55.5062 195.639 53.3703 195.284 51.0275C194.929 48.6847 193.08 47.0222 191.153 47.3143C189.226 47.6063 187.952 49.7422 188.307 52.0849C188.661 54.4277 190.511 56.0901 192.437 55.7982Z" fill="#263238"/>
<path d="M181.142 45.7464C183.069 45.4544 184.343 43.3185 183.989 40.9758C183.634 38.633 181.784 36.9705 179.857 37.2625C177.93 37.5545 176.656 39.6904 177.011 42.0332C177.366 44.376 179.216 46.0384 181.142 45.7464Z" fill="#263238"/>
<path d="M232.196 173.287V191.501C222.731 184.025 213.05 175.659 211.039 171.302C203.755 155.473 189.777 113.968 189.777 113.968L211.786 104.966L211.884 105.412C212.46 108.092 215.546 122.754 219.167 145.213C220.137 151.208 221.133 157.766 222.148 164.796C223.89 165.936 227.657 169.179 232.196 173.287Z" fill="#263238"/>
<path d="M220.104 151.136C218.958 143.778 217.851 137.141 216.829 131.337L211.799 127.471C213.551 135.68 216.342 143.632 220.104 151.136Z" fill="black"/>
<path d="M232.196 128.126V166.074C230.886 163.885 229.661 161.913 228.587 160.242C226.098 156.364 222.744 150.991 219.167 145.213C209.401 129.457 197.984 110.647 197.984 110.647L218.388 102.955C224.028 110.372 227.768 118.089 232.196 128.126Z" fill="#263238"/>
<path d="M182.997 76.6168C182.539 76.9511 182.192 77.1937 181.799 77.4559C181.406 77.7181 181.032 77.9539 180.652 78.1959C179.879 78.6744 179.107 79.1328 178.321 79.5783C176.752 80.4613 175.138 81.2619 173.487 81.9763C172.668 82.3497 171.823 82.6772 170.984 83.0182C170.146 83.3586 169.288 83.6733 168.417 83.9159C166.676 84.4843 164.905 84.9524 163.111 85.3178L162.855 85.3704C162.378 85.4755 161.883 85.4798 161.402 85.3838C160.922 85.2885 160.466 85.0942 160.065 84.8131C158.348 83.5829 156.762 82.1804 155.329 80.6269C153.979 79.1823 152.706 77.6667 151.518 76.0864C150.351 74.5268 149.259 72.9373 148.242 71.3167C147.214 69.6789 146.244 68.0411 145.347 66.2982C145.116 65.8344 145.06 65.3033 145.187 64.801C145.315 64.2993 145.619 63.8593 146.044 63.5629C146.468 63.2659 146.985 63.1314 147.5 63.184C148.015 63.2359 148.495 63.4718 148.851 63.8477L148.897 63.8935C150.115 65.2043 151.373 66.5928 152.631 67.9097C153.889 69.2267 155.153 70.5308 156.443 71.7952C157.734 73.0596 159.063 74.2653 160.373 75.3787C161.6 76.4427 162.915 77.4003 164.303 78.2418L161.251 77.7376C162.718 77.2591 164.172 76.7549 165.613 76.1518C167.055 75.5492 168.482 74.9137 169.891 74.1864C171.299 73.4592 172.688 72.7448 174.056 71.9589C174.711 71.5721 175.419 71.1724 176.08 70.7667L177.063 70.1439L177.967 69.5677L178.15 69.4497C179.097 68.8527 180.239 68.6461 181.335 68.8741C182.432 69.1026 183.397 69.7467 184.027 70.6726C184.658 71.5978 184.905 72.7314 184.717 73.8357C184.528 74.9393 183.919 75.9275 183.017 76.5912L182.997 76.6168Z" fill="#B55B52"/>
<path d="M184.596 65.9835C179.463 68.1487 174.481 70.653 169.681 73.4788C171.207 77.888 173.329 83.1362 176.755 86.2021C179.813 84.2521 182.711 82.0613 185.421 79.6504C191.401 74.5012 190.845 63.4743 184.596 65.9835Z" fill="url(#paint5_linear_747_1058)"/>
<path d="M188.801 113.863C189.941 117.794 190.766 122.308 192.548 123.18C194.33 124.051 198.391 118.083 199.93 115.835C204.116 116.15 216.351 114.492 220.098 112.081C223.844 109.67 222.666 106.715 219.665 102.568C211.451 101.743 193.655 110.863 188.801 113.863Z" fill="white"/>
<path d="M202.006 60.9323C196.067 61.958 190.248 63.5891 184.641 65.8001C178.596 68.2439 175.471 73.1646 176.559 79.5978C177.869 87.3289 183.764 105.333 189.312 117.598C190.275 119.707 219.292 106.525 220.694 103.623C218.408 95.5973 212.46 87.9517 210.154 68.7811C209.683 64.8303 205.877 60.264 202.006 60.9323Z" fill="url(#paint6_linear_747_1058)"/>
<path d="M196.222 76.1059C198.109 75.2228 200.071 74.5103 202.085 73.9768C202.235 73.9346 202.396 73.9511 202.534 74.0226C202.673 74.0947 202.779 74.2163 202.831 74.363C203.054 74.9661 203.447 75.9818 203.84 76.8789C203.877 76.9596 203.896 77.0464 203.895 77.1344C203.895 77.2224 203.876 77.3098 203.839 77.3898C203.803 77.4699 203.75 77.5414 203.683 77.5988C203.616 77.6569 203.538 77.6996 203.454 77.7241C201.921 78.1898 199.419 79.1064 197.821 79.8013C197.683 79.8526 197.531 79.8563 197.391 79.811C197.251 79.7658 197.13 79.6748 197.048 79.5519C196.517 78.7049 196.131 77.7748 195.908 76.8007C195.875 76.6663 195.888 76.5245 195.945 76.3986C196.002 76.2727 196.1 76.1694 196.222 76.1059Z" fill="white"/>
<path d="M188.382 73.7802C188.473 74.3241 188.323 74.8026 188.035 74.8545C187.746 74.9071 187.432 74.5074 187.333 73.9635C187.236 73.4202 187.393 72.9417 187.681 72.8892C187.969 72.8366 188.283 73.2363 188.382 73.7802Z" fill="white"/>
<path d="M210.679 66.1803C212.27 67.1105 213.731 68.0473 215.218 69.0367C216.705 70.0261 218.146 71.0026 219.574 72.0831C221.002 73.1641 222.423 74.1993 223.818 75.3134C225.214 76.4268 226.576 77.5672 227.932 78.7399L228.168 78.9428C228.532 79.2581 228.829 79.6443 229.04 80.0782C229.25 80.5115 229.37 80.9839 229.393 81.4655C229.459 83.4503 229.25 85.4346 228.77 87.3621C228.334 89.1422 227.742 90.8808 227.002 92.5571C226.292 94.1723 225.478 95.7392 224.565 97.2486C223.661 98.7562 222.651 100.199 221.545 101.566C221.218 101.96 220.762 102.226 220.257 102.314C219.752 102.403 219.232 102.31 218.79 102.051C218.348 101.792 218.012 101.384 217.843 100.901C217.673 100.417 217.681 99.8886 217.864 99.4101L217.917 99.2922C218.467 97.8903 219.05 96.3576 219.541 94.883C220.033 93.409 220.498 91.9087 220.851 90.428C221.214 88.9974 221.479 87.5442 221.644 86.0775C221.79 84.771 221.779 83.451 221.611 82.1468L223.072 84.8724C220.327 82.9065 217.517 81.0132 214.68 79.1396L206.165 73.584H206.12C205.144 72.9808 204.448 72.0146 204.185 70.8987C203.921 69.7822 204.112 68.6071 204.715 67.6317C205.317 66.6558 206.283 65.9597 207.399 65.6963C208.515 65.4323 209.69 65.623 210.666 66.2262L210.679 66.1803Z" fill="#B55B52"/>
<path d="M206.054 61.6268C210.898 64.3701 215.552 67.4342 219.987 70.799C217.95 74.883 214.89 78.3682 211.104 80.9147C211.104 80.9147 208.406 80.2596 203.63 75.0841C198.299 69.2859 200.139 58.4033 206.054 61.6268Z" fill="url(#paint7_linear_747_1058)"/>
<path d="M218.408 98.1133L214.629 102.438L220.805 105.53C220.805 105.53 223.76 101.179 221.741 99.1613L218.408 98.1133Z" fill="#B55B52"/>
<path d="M214.936 108.511L217.275 109.225C217.724 109.363 218.208 109.331 218.636 109.135C219.063 108.939 219.404 108.594 219.593 108.164L220.805 105.543L214.629 102.45L213.58 105.963C213.429 106.48 213.485 107.037 213.738 107.513C213.992 107.99 214.422 108.348 214.936 108.511Z" fill="#B55B52"/>
<path d="M187.969 70.3009C187.969 70.3009 191.12 72.3255 191.421 74.979C198.934 69.4429 200.133 64.0114 198.495 61.6201C197.759 61.3402 196.946 61.3402 196.21 61.6201C196.21 61.6201 193.904 66.3507 187.969 70.3009Z" fill="white"/>
<path d="M187.969 70.301C187.969 70.301 185.788 72.8432 185.552 75.4838C180.744 73.3217 182.486 67.6806 183.784 66.1803C184.608 65.5808 185.527 65.1224 186.502 64.8242C186.502 64.8242 184.766 66.9924 187.969 70.301Z" fill="white"/>
<path d="M191.834 48.7986C192.207 52.5003 193.347 58.7571 196.059 61.4826C196.386 61.8102 196.594 62.2386 196.648 62.6981C196.703 63.1583 196.601 63.6227 196.36 64.0181C194.724 66.8879 192.09 69.0549 188.958 70.1048C185.428 71.2842 184.458 69.6067 184.504 67.8113C184.521 67.356 184.641 66.9105 184.854 66.5078C185.067 66.1051 185.368 65.7555 185.736 65.486C188.801 63.173 187.701 60.1986 186.148 57.5516L191.834 48.7986Z" fill="#B55B52"/>
<path d="M189.522 52.3694L186.155 57.5779C186.565 58.2424 186.915 58.9418 187.203 59.6679C188.841 58.9145 190.622 56.3593 190.262 54.5249C190.149 53.7672 189.898 53.0367 189.522 52.3694Z" fill="black"/>
<path d="M192.758 42.6598C193.249 48.3336 193.825 51.629 191.448 54.9836C187.871 60.0349 180.646 58.6197 178.485 53.2342C176.52 48.386 176.068 39.9147 181.17 36.7633C182.278 36.0595 183.55 35.6564 184.86 35.5938C186.171 35.5312 187.475 35.8114 188.645 36.4065C189.815 37.0017 190.809 37.8913 191.53 38.9878C192.251 40.0844 192.674 41.35 192.758 42.6598Z" fill="#B55B52"/>
<path d="M182.925 34.9682C179.735 35.2828 178.216 37.1762 179.048 38.1196C176.237 38.6241 178.792 42.0506 181.825 40.642C182.087 41.7362 188.12 41.3693 188.179 39.7248C189.548 43.2823 191.264 43.0531 191.264 43.0531C191.264 43.0531 189.482 46.984 192.037 47.495C192.037 49.7161 193.642 51.662 195.312 51.3278C197.166 50.9478 196.576 47.8096 196.576 47.8096C199.956 46.3092 197.683 42.9089 197.683 42.9089C197.631 39.1351 189.783 30.8014 182.925 34.9682Z" fill="#263238"/>
<path d="M178.799 49.8208C178.414 49.7901 178.043 49.6645 177.718 49.4553C177.393 49.2461 177.126 48.9597 176.939 48.6217C176.373 47.7146 176.052 46.6762 176.008 45.608C175.915 44.5452 176.103 43.4767 176.552 42.5091C176.668 42.114 176.902 41.764 177.223 41.5066C177.544 41.2493 177.937 41.097 178.347 41.0706C178.758 41.0441 179.166 41.1447 179.518 41.3586C179.87 41.5726 180.147 41.8897 180.312 42.2666C180.878 43.1712 181.202 44.2073 181.249 45.2738C181.4 47.6849 180.351 49.7224 178.904 49.8141L178.799 49.8208ZM178.452 41.4215H178.373C178.036 41.4789 177.72 41.6234 177.456 41.8405C177.191 42.0577 176.988 42.3401 176.867 42.6598C176.471 43.5799 176.299 44.5803 176.362 45.5798C176.426 46.5793 176.724 47.5497 177.233 48.4121C177.394 48.7145 177.63 48.9697 177.92 49.1524C178.21 49.3352 178.542 49.4391 178.884 49.4538C180.135 49.3752 181.032 47.4883 180.895 45.2935C180.851 44.2881 180.549 43.311 180.017 42.4566C179.864 42.1672 179.639 41.9209 179.366 41.7401C179.093 41.5593 178.779 41.4498 178.452 41.4215Z" fill="white"/>
<path d="M185.054 49.4212C184.634 49.4023 184.224 49.2867 183.856 49.0832C183.488 48.8798 183.171 48.5941 182.932 48.2484C182.278 47.375 181.904 46.3245 181.858 45.2346C181.701 42.8301 182.951 40.7795 184.641 40.6485C186.331 40.5175 187.831 42.4174 187.982 44.8284C188.085 45.9124 187.856 47.002 187.327 47.9536C187.123 48.3492 186.824 48.6881 186.458 48.9397C186.091 49.1913 185.667 49.3477 185.224 49.3949L185.054 49.4212ZM184.786 41.0219H184.694C183.201 41.1202 182.074 42.9874 182.238 45.215C182.285 46.2316 182.631 47.2116 183.233 48.0322C183.436 48.3677 183.727 48.6412 184.074 48.8228C184.421 49.0044 184.812 49.0873 185.203 49.0623C185.595 49.0373 185.971 48.9054 186.292 48.681C186.614 48.4566 186.867 48.1484 187.026 47.7898C187.533 46.9038 187.761 45.8855 187.681 44.8677C187.491 42.7123 186.227 41.0219 184.786 41.0219Z" fill="white"/>
<path d="M181.072 45.4639C181.036 45.4637 181.001 45.4528 180.972 45.4325C180.943 45.4122 180.92 45.3836 180.908 45.3503C180.895 45.317 180.892 45.2806 180.9 45.246C180.909 45.2113 180.927 45.1799 180.954 45.156C181.118 45.031 181.315 44.9559 181.52 44.9396C181.726 44.9233 181.932 44.9666 182.113 45.0643C182.155 45.0866 182.187 45.1244 182.201 45.1696C182.216 45.2148 182.213 45.264 182.192 45.3067C182.171 45.3482 182.134 45.3797 182.09 45.3944C182.046 45.4092 181.998 45.4059 181.956 45.3853C181.836 45.3184 181.701 45.2866 181.564 45.2935C181.427 45.3005 181.295 45.3459 181.183 45.4246C181.152 45.4501 181.112 45.464 181.072 45.4639Z" fill="white"/>
<path d="M192.921 45.9486H192.882C189.07 45.0903 187.864 45.2934 187.858 45.2934C187.812 45.3039 187.763 45.2956 187.723 45.2704C187.683 45.2452 187.655 45.2052 187.645 45.1591C187.635 45.1131 187.642 45.0648 187.668 45.0248C187.693 44.9849 187.733 44.9566 187.779 44.9462C187.831 44.9462 189.043 44.6972 192.96 45.6014C192.983 45.606 193.004 45.6151 193.023 45.6283C193.042 45.6415 193.059 45.6584 193.071 45.678C193.083 45.6976 193.091 45.7196 193.095 45.7424C193.098 45.7653 193.097 45.7886 193.091 45.811C193.083 45.8497 193.061 45.8844 193.03 45.9093C192.999 45.9343 192.96 45.9481 192.921 45.9486Z" fill="white"/>
<path d="M195.574 47.8289C195.084 49.1036 194.138 50.1515 192.921 50.7707C191.376 51.4979 190.51 49.9975 190.864 48.2286C191.186 46.6431 192.371 44.35 193.962 44.3631C195.555 44.3762 196.222 46.1976 195.574 47.8289Z" fill="#B55B52"/>
<path d="M184.569 45.4639C184.602 45.9225 184.386 46.3222 184.085 46.3484C183.784 46.3745 183.521 46.0273 183.489 45.5622C183.456 45.097 183.666 44.7039 183.967 44.6777C184.268 44.6514 184.53 44.9987 184.569 45.4639Z" fill="#263238"/>
<path d="M179.225 45.8701C179.258 46.3287 179.041 46.7284 178.746 46.7546C178.452 46.7808 178.177 46.4336 178.144 45.9684C178.111 45.5032 178.321 45.1101 178.622 45.0839C178.923 45.0577 179.192 45.4049 179.225 45.8701Z" fill="#263238"/>
<path d="M181.478 45.6016C180.693 46.9049 179.985 48.2524 179.355 49.6374C180.174 50.3712 181.772 49.8339 181.772 49.8339L181.478 45.6016Z" fill="#A02724"/>
<path d="M182.31 52.2121C182.825 52.1642 183.325 52.013 183.781 51.7676C184.237 51.5223 184.639 51.1877 184.963 50.7838C184.982 50.7537 184.988 50.7176 184.982 50.6825C184.976 50.6475 184.958 50.6158 184.93 50.5938C184.918 50.5811 184.904 50.5709 184.888 50.564C184.872 50.5571 184.855 50.5535 184.838 50.5535C184.821 50.5535 184.804 50.5571 184.788 50.564C184.772 50.5709 184.758 50.5811 184.747 50.5938C184.379 51.0308 183.914 51.3766 183.391 51.6039C182.867 51.8313 182.297 51.934 181.726 51.9041C181.709 51.9032 181.69 51.9059 181.673 51.912C181.657 51.9181 181.641 51.9276 181.627 51.9398C181.614 51.9519 181.603 51.9666 181.596 51.983C181.588 51.9994 181.584 52.0171 181.583 52.0352C181.582 52.0529 181.585 52.0707 181.591 52.0873C181.597 52.104 181.606 52.1192 181.618 52.1321C181.631 52.145 181.646 52.1552 181.662 52.1622C181.678 52.1692 181.696 52.1728 181.714 52.1727C181.911 52.1992 182.11 52.2123 182.31 52.2121Z" fill="#263238"/>
<path d="M186.659 43.7407C186.703 43.728 186.743 43.7056 186.777 43.6752C186.827 43.6237 186.856 43.5542 186.856 43.4819C186.856 43.4095 186.827 43.3401 186.777 43.2886C186.504 42.9615 186.154 42.7071 185.758 42.5481C185.363 42.3892 184.934 42.3307 184.511 42.3779C184.439 42.3884 184.375 42.4267 184.332 42.4844C184.289 42.5421 184.271 42.6146 184.281 42.6859C184.292 42.7571 184.33 42.8213 184.388 42.8643C184.445 42.9073 184.518 42.9256 184.589 42.9151C184.924 42.8851 185.261 42.9368 185.571 43.0658C185.882 43.1947 186.156 43.3971 186.37 43.6555C186.405 43.6968 186.451 43.727 186.502 43.7422C186.553 43.7574 186.608 43.7568 186.659 43.7407Z" fill="#263238"/>
<path d="M177.017 44.0487C177.062 44.0521 177.106 44.0449 177.147 44.0279C177.188 44.0108 177.224 43.9842 177.253 43.9505C177.456 43.6776 177.722 43.4569 178.026 43.3065C178.332 43.1562 178.669 43.0805 179.008 43.0856C179.08 43.0913 179.151 43.0694 179.207 43.0243C179.263 42.9792 179.3 42.9144 179.31 42.8432C179.317 42.7722 179.297 42.701 179.253 42.6448C179.209 42.5886 179.144 42.5516 179.074 42.5418C178.643 42.5297 178.216 42.6203 177.828 42.806C177.44 42.9917 177.101 43.2672 176.841 43.6098C176.796 43.6651 176.774 43.7355 176.78 43.8064C176.786 43.8772 176.82 43.9429 176.873 43.9897C176.912 44.0267 176.963 44.0477 177.017 44.0487Z" fill="#263238"/>
<path d="M148.36 68.0082L142.714 69.0367L143.225 62.1513C143.225 62.1513 148.465 61.8433 149.172 64.6147L148.36 68.0082Z" fill="#B55B52"/>
<path d="M137.657 65.6559L138.24 63.2842C138.36 62.8308 138.637 62.4354 139.023 62.1683C139.408 61.9019 139.877 61.7815 140.343 61.8298L143.225 62.1512L142.714 69.0366L139.157 68.1328C138.632 67.9995 138.181 67.6647 137.9 67.2014C137.62 66.7382 137.532 66.1833 137.657 65.6559Z" fill="#B55B52"/>
<path d="M181.092 34.9486C182.224 31.7842 184.137 29.7466 185.886 29.4911C187.059 29.3273 191.939 30.1463 194.054 31.247C196.17 32.3476 199.236 36.331 199.393 37.7986C199.55 39.2662 197.657 42.9286 197.657 42.9286C197.657 42.9286 189.161 37.3924 181.092 34.9486Z" fill="url(#paint8_linear_747_1058)"/>
<path d="M183.849 30.7161C185.91 31.1784 187.94 31.7692 189.928 32.485C190.223 32.6029 190.321 32.8584 190.151 33.0746C189.816 33.5005 189.148 34.385 188.696 35.0402C188.579 35.174 188.422 35.2684 188.249 35.3106C188.075 35.3528 187.893 35.3407 187.727 35.276C186.24 34.7257 183.685 33.8936 181.976 33.4284C181.668 33.3432 181.524 33.1205 181.615 32.8977C181.964 32.1418 182.453 31.4592 183.057 30.8864C183.167 30.7995 183.296 30.7391 183.433 30.7096C183.57 30.6801 183.713 30.6823 183.849 30.7161Z" fill="white"/>
<path d="M176.558 34.372C182.86 34.372 185.159 38.5192 188.421 39.7312C191.683 40.9433 197.047 40.334 197.047 40.334C197.047 40.334 186.109 33.1927 176.558 34.372Z" fill="url(#paint9_linear_747_1058)"/>
<path d="M113.151 67.6365L161.991 61.5517L159.45 41.1438L110.61 47.2286L113.151 67.6365Z" fill="url(#paint10_linear_747_1058)"/>
<path d="M130.247 65.5051L161.987 61.5506L159.446 41.1428L127.706 45.0971L130.247 65.5051Z" fill="white"/>
<path d="M153.555 60.7555L152.834 54.9835L159.089 54.2039L159.804 59.9759L153.555 60.7555ZM153.555 55.5142L154.125 60.048L159.135 59.4256L158.572 54.8852L153.555 55.5142Z" fill="white"/>
<path d="M146.12 61.6862L145.399 55.9139L151.648 55.1343L152.369 60.9063L146.12 61.6862ZM146.12 56.4446L146.683 60.9783L151.701 60.3559L151.137 55.8222L146.12 56.4446Z" fill="white"/>
<path d="M140.964 49.3728L147.659 48.5387L146.932 42.7004L140.237 43.5345L140.964 49.3728Z" fill="white"/>
<path d="M117.975 52.2455L121.791 51.7701L121.064 45.9319L117.248 46.4072L117.975 52.2455Z" fill="white"/>
<path d="M213.515 54.5708C210.528 54.1842 205.799 52.2515 203.598 50.5153C203.58 50.5007 203.565 50.4827 203.554 50.4622C203.542 50.4418 203.536 50.4193 203.533 50.3962C203.531 50.3731 203.533 50.3497 203.539 50.3275C203.546 50.3052 203.557 50.2844 203.572 50.2663C203.586 50.2482 203.604 50.2333 203.625 50.2221C203.645 50.2111 203.668 50.2041 203.691 50.2017C203.714 50.1992 203.737 50.2014 203.759 50.208C203.782 50.2146 203.803 50.2255 203.82 50.2401C205.982 51.9436 210.62 53.8435 213.561 54.217C213.584 54.2202 213.606 54.228 213.627 54.24C213.647 54.252 213.665 54.2679 213.679 54.2868C213.693 54.3058 213.703 54.3273 213.708 54.3502C213.714 54.373 213.715 54.3968 213.711 54.4201C213.709 54.4431 213.702 54.4655 213.691 54.4857C213.679 54.506 213.664 54.5237 213.646 54.5378C213.627 54.5519 213.606 54.5621 213.584 54.5677C213.561 54.5734 213.538 54.5745 213.515 54.5708Z" fill="white"/>
<path d="M169.897 98.323C169.875 98.3285 169.853 98.3285 169.831 98.323C167.041 97.1894 162.967 94.11 161.284 91.8696C161.265 91.8311 161.26 91.7878 161.27 91.7462C161.28 91.7046 161.304 91.668 161.338 91.6423C161.373 91.6166 161.415 91.6038 161.457 91.6056C161.5 91.6075 161.541 91.6246 161.572 91.6533C163.223 93.8545 167.224 96.8948 169.969 97.9954C170.012 98.0156 170.045 98.051 170.062 98.095C170.079 98.139 170.079 98.1873 170.061 98.2313C170.045 98.26 170.021 98.2845 169.992 98.3004C169.963 98.3169 169.93 98.3242 169.897 98.323Z" fill="white"/>
<path d="M219.095 59.6613C216.28 59.5436 213.493 59.0478 210.809 58.1872C210.764 58.1733 210.727 58.142 210.704 58.1003C210.682 58.0585 210.678 58.0096 210.691 57.9645C210.706 57.9192 210.737 57.8815 210.779 57.8594C210.82 57.8372 210.869 57.8326 210.914 57.8465C212.604 58.3641 216.901 59.5434 220.137 59.2617C220.16 59.2589 220.184 59.2609 220.206 59.2673C220.229 59.2738 220.25 59.2846 220.268 59.2992C220.286 59.3139 220.301 59.3319 220.313 59.3525C220.324 59.3731 220.331 59.3956 220.334 59.4189C220.337 59.4666 220.322 59.5138 220.292 59.5504C220.261 59.5871 220.217 59.6105 220.17 59.6154C219.822 59.6417 219.463 59.6613 219.095 59.6613Z" fill="white"/>
<path d="M62.4872 31.4432C57.0312 37.759 64.7472 42.9152 66.2539 48.2352C67.7605 53.5551 66.8697 65.0142 73.6356 71.5659C84.1688 81.7861 96.3192 76.0276 98.3892 70.0522C100.459 64.0774 99.6991 54.6951 90.7447 48.2352C85.3932 44.3828 89.579 31.6398 84.6466 30.1132C85.6492 22.4281 61.4461 16.8526 62.4872 31.4432Z" fill="#263238"/>
<path d="M98.2316 69.5415C98.2028 69.5415 98.1747 69.5341 98.1497 69.5207C98.124 69.5066 98.1033 69.4871 98.0874 69.4626C98.0648 69.4241 98.0574 69.3783 98.0672 69.3343C98.077 69.2909 98.1026 69.2524 98.1399 69.2268C99.8885 68.0999 100.826 66.0954 100.76 63.5856C100.682 59.4845 97.7666 53.6666 91.4327 49.9059C88.5702 48.2091 88.2752 43.1446 88.0069 38.6764C87.8035 35.1581 87.6074 31.8299 86.2314 30.6899C86.017 30.5176 85.7683 30.3925 85.5019 30.3225C85.2356 30.2525 84.9576 30.2393 84.6857 30.2837C84.6631 30.2874 84.6393 30.2863 84.6173 30.2807C84.5947 30.275 84.5733 30.2648 84.5549 30.2507C84.5366 30.2366 84.5213 30.2189 84.5103 30.1986C84.4987 30.1784 84.4914 30.156 84.4896 30.133C84.4853 30.0881 84.4987 30.0434 84.5268 30.0081C84.5549 29.9728 84.5953 29.9495 84.6399 29.943C84.9588 29.8927 85.2851 29.9092 85.5973 29.9915C85.9095 30.0739 86.2015 30.2202 86.4545 30.4213C87.9348 31.6596 88.1377 35.0598 88.3472 38.6567C88.6093 43.0398 88.9038 48.006 91.6227 49.6111C97.2949 52.9787 101.022 58.4625 101.114 63.5795C101.166 66.1999 100.17 68.3229 98.3165 69.5152C98.2914 69.5323 98.2621 69.5415 98.2316 69.5415Z" fill="#263238"/>
<path d="M50.0746 75.7258L47.9917 76.7219L42.9676 75.6213C42.3907 75.4936 41.8723 75.1776 41.4938 74.7236L40.3934 73.4133C40.1488 73.12 40.0149 72.7503 40.0149 72.3683C40.0149 71.9864 40.1488 71.6167 40.3934 71.3233L41.5397 69.9734C41.8136 69.6495 42.2033 69.4454 42.6256 69.4051C43.0478 69.3647 43.4692 69.4912 43.7995 69.7577L46.5768 71.9852C46.5768 71.9852 49.9371 73.0467 50.0746 75.7258Z" fill="#FF8B7B"/>
<path d="M68.0092 215.912L64.0593 215.919L63.3915 201.053L70.0462 201.217L68.0092 215.912Z" fill="#FF8B7B"/>
<path d="M61.1315 87.637C61.1315 87.637 60.7841 128.913 59.9129 146.851C59.8801 147.385 59.8801 147.922 59.9129 148.456C61.2231 166.454 63.3713 201.053 63.3713 201.053L70.0724 201.224C70.0724 201.224 75.9152 173.595 72.2927 148.568C78.1031 120.264 81.2404 95.0076 75.9738 87.637H61.1315Z" fill="#263238"/>
<path d="M62.7298 198.97C62.7988 200.468 62.9497 201.962 63.1819 203.444C63.1966 203.498 63.2241 203.547 63.2613 203.588C63.2992 203.629 63.3456 203.661 63.3976 203.68C66.516 204.899 69.6338 204.709 69.8892 204.113C70.1445 203.517 70.6816 200.352 70.8979 199.153C70.9083 199.101 70.9058 199.047 70.8918 198.995C70.8777 198.944 70.852 198.896 70.8166 198.856C70.7812 198.816 70.7366 198.785 70.6871 198.765C70.6376 198.745 70.5844 198.736 70.5307 198.74C69.2208 198.812 65.291 198.983 63.1361 198.603C63.0835 198.593 63.0304 198.596 62.9797 198.611C62.929 198.626 62.8825 198.651 62.8434 198.687C62.8043 198.722 62.7738 198.766 62.7536 198.815C62.7341 198.864 62.7261 198.917 62.7298 198.97Z" fill="url(#paint11_linear_747_1058)"/>
<path d="M72.3581 104.023C70.3278 110.915 72.3062 133.053 73.3668 143.274C74.8148 135.89 76.0459 128.788 76.9569 122.243L72.3581 104.023Z" fill="black"/>
<path d="M63.6139 213.993H68.7558C68.8639 213.987 68.9696 214.024 69.0515 214.095C69.1334 214.165 69.1847 214.265 69.1945 214.373L69.712 218.585C69.7162 218.716 69.6943 218.846 69.6472 218.968C69.6002 219.09 69.5287 219.201 69.4376 219.295C69.3466 219.388 69.2372 219.463 69.1169 219.513C68.9959 219.564 68.867 219.589 68.7362 219.588C66.4763 219.548 65.3887 219.424 62.533 219.424C60.7775 219.424 59.7099 219.608 57.2929 219.608C54.8758 219.608 54.8628 217.282 55.8846 217.072C60.4697 216.116 61.0527 215.591 62.6442 214.347C62.9186 214.123 63.2601 213.999 63.6139 213.993Z" fill="#263238"/>
<path d="M63.0768 53.9679C62.3333 53.8124 61.5585 53.9573 60.9218 54.371C60.2849 54.7846 59.8375 55.4334 59.6771 56.1759C59.1269 58.7441 58.5308 61.3714 57.9151 63.9527C57.2994 66.534 56.6051 69.1025 55.8453 71.5787C55.4588 72.8107 55.0396 74.0226 54.5745 75.1495C54.3586 75.6738 54.1137 76.1853 53.8409 76.6827C53.8016 76.7414 53.7688 76.8068 53.7295 76.8728C53.2797 76.6815 52.8422 76.4627 52.4195 76.2177C51.4042 75.5626 50.3169 74.8024 49.2885 74.0489L49.2165 73.9963C48.95 73.8007 48.6243 73.7024 48.294 73.7176C47.9636 73.7335 47.6488 73.8625 47.4022 74.0831C47.1557 74.3037 46.9925 74.6019 46.9399 74.9289C46.8874 75.2552 46.9488 75.5901 47.1139 75.8767C47.8355 77.171 48.7156 78.3706 49.734 79.4474C50.2934 80.0487 50.9172 80.5871 51.5942 81.0528C52.0238 81.3376 52.4855 81.5704 52.9697 81.747C53.6932 82.0184 54.4775 82.0844 55.2361 81.9371C55.7385 81.8344 56.2152 81.6315 56.6378 81.3406C56.8359 81.1989 57.0221 81.0412 57.1946 80.8689C57.2506 80.8132 57.3031 80.7546 57.3518 80.6922L57.4763 80.548C57.7725 80.1985 58.0439 79.8281 58.2885 79.4407C58.7114 78.7752 59.092 78.084 59.4282 77.3702C60.0832 76.0209 60.5876 74.6911 61.0657 73.3607C62.0155 70.7012 62.7554 68.0343 63.4629 65.368C63.8234 64.0578 64.1179 62.695 64.4326 61.3518C64.7472 60.0086 65.0289 58.6786 65.2775 57.2896C65.4119 56.5587 65.258 55.804 64.8474 55.1844C64.4368 54.5648 63.802 54.1288 63.0768 53.9679Z" fill="#FF8B7B"/>
<path d="M59.0811 82.0355C59.0811 83.7259 85.3211 84.0534 85.3211 81.8253L71.9127 78.4055L59.0811 82.0355Z" fill="#263238"/>
<path d="M63.9022 52.8608C70.8215 51.705 77.8898 51.7759 84.7841 53.0704C85.1885 53.134 85.5753 53.2798 85.9211 53.4987C86.2663 53.7177 86.5632 54.0052 86.7935 54.3435C87.0239 54.6818 87.1821 55.0637 87.2591 55.4657C87.3361 55.8675 87.3294 56.281 87.2408 56.6804C83.5334 73.3022 83.743 78.8841 84.1028 87.6371H61.1382C59.9852 73.0401 59.3826 64.7063 59.2254 59.9759C59.1074 56.3724 60.3323 53.3914 63.9022 52.8608Z" fill="#FF8B7B"/>
<path d="M84.7187 57.6892C84.5714 60.0085 84.8788 62.3344 85.6223 64.5357C85.9107 62.9566 86.2773 61.2601 86.6445 59.4058L84.7187 57.6892Z" fill="black"/>
<path d="M77.2709 40.7271C76.616 44.0553 75.961 50.1484 78.2931 52.3694C78.2931 52.3694 77.3821 55.7435 71.2058 55.7435C64.413 55.7435 67.9304 52.3694 67.9304 52.3694C71.6378 51.4849 71.5461 48.7332 70.8979 46.1453L77.2709 40.7271Z" fill="#FF8B7B"/>
<path d="M74.6511 42.9414L70.8979 46.1451C71.0561 46.7462 71.1612 47.3602 71.2119 47.9797C72.6336 47.7766 74.579 46.2173 74.7293 44.7365C74.8099 44.1383 74.783 43.5304 74.6511 42.9414Z" fill="black"/>
<path d="M65.1792 36.4553C66.7909 41.7752 67.3603 44.0683 70.747 46.1911C75.8431 49.3883 82.0267 46.2369 82.0396 40.5435C82.0396 35.4136 79.4197 27.5647 73.6033 26.6736C72.3257 26.4703 71.0176 26.5971 69.803 27.0419C68.5884 27.4867 67.5082 28.2347 66.6638 29.2148C65.8201 30.195 65.2403 31.3747 64.9806 32.642C64.7209 33.9093 64.7894 35.2219 65.1792 36.4553Z" fill="#FF8B7B"/>
<path d="M65.7626 40.157C68.3501 40.347 69.4505 36.1867 68.1925 33.8936C66.9351 31.6005 62.3039 36.2391 65.7626 40.157Z" fill="#263238"/>
<path d="M64.3476 30.9061C72.5218 35.2958 77.4481 27.08 81.7316 31.4434C79.6293 25.37 68.0617 22.7755 64.3476 30.9061Z" fill="#263238"/>
<path d="M78.8234 39.8884C76.6117 39.4751 74.3712 39.2342 72.1229 39.1677C72.6532 40.406 73.6949 41.4608 76.2298 41.5853C78.7647 41.7098 78.8234 39.8884 78.8234 39.8884Z" fill="white"/>
<path d="M106.845 206.117L102.882 207.33L97.0982 195.209L103.197 193.538L106.845 206.117Z" fill="#FF8B7B"/>
<path d="M102.024 206.956L106.361 204.335C106.442 204.284 106.539 204.264 106.634 204.278C106.729 204.293 106.816 204.341 106.878 204.414L109.793 207.808C109.863 207.893 109.915 207.992 109.944 208.098C109.973 208.204 109.979 208.316 109.961 208.425C109.943 208.534 109.902 208.637 109.839 208.729C109.778 208.82 109.697 208.897 109.603 208.954C107.959 209.911 107.638 210.055 105.6 211.372C104.369 212.178 102.64 214.36 100.937 215.48C99.2342 216.6 98.0678 215.06 98.5725 214.34C100.044 212.365 101.052 210.082 101.52 207.664C101.551 207.518 101.611 207.379 101.698 207.257C101.785 207.136 101.896 207.033 102.024 206.956Z" fill="#263238"/>
<path d="M67.4459 87.6371C67.4459 87.6371 75.8889 130.819 79.0721 147.913C82.3799 165.694 97.1116 195.202 97.1116 195.202L103.223 193.526C103.223 193.526 94.8517 161.985 90.9475 146.353C90.1881 118.05 91.0917 94.9949 84.1156 87.6243L67.4459 87.6371Z" fill="#263238"/>
<path d="M94.9567 191.953C95.5909 193.3 96.2972 194.613 97.0719 195.884C97.1086 195.927 97.1532 195.961 97.2045 195.985C97.2552 196.009 97.3108 196.021 97.367 196.021C100.708 195.963 103.524 194.606 103.531 193.958C103.531 193.414 102.836 190.171 102.581 188.985C102.571 188.932 102.548 188.883 102.515 188.84C102.483 188.798 102.441 188.763 102.392 188.74C102.344 188.717 102.291 188.704 102.237 188.705C102.184 188.705 102.131 188.718 102.083 188.742C100.897 189.306 97.3536 190.95 95.192 191.422C95.1351 191.431 95.082 191.454 95.0362 191.49C94.9903 191.525 94.9543 191.571 94.9311 191.624C94.9079 191.676 94.8975 191.734 94.9024 191.792C94.9066 191.849 94.9256 191.904 94.9567 191.953Z" fill="url(#paint12_linear_747_1058)"/>
<path d="M74.1336 35.8396C74.2381 36.2851 74.5594 36.58 74.8472 36.4948C75.1356 36.4096 75.2798 36.0165 75.1753 35.5776C75.0702 35.1386 74.7556 34.8372 74.4678 34.9224C74.1794 35.0075 74.0285 35.4006 74.1336 35.8396Z" fill="#263238"/>
<path d="M79.1051 34.6472C79.2095 35.0861 79.5309 35.3875 79.8187 35.3023C80.1071 35.2171 80.2512 34.8241 80.1468 34.3786C80.0417 33.933 79.727 33.6382 79.4393 33.7234C79.1509 33.8085 79 34.2213 79.1051 34.6472Z" fill="#263238"/>
<path d="M79.3146 33.7954L80.2971 33.2385C80.2971 33.2385 79.9568 34.195 79.3146 33.7954Z" fill="#263238"/>
<path d="M77.7621 35.8198C78.3896 36.7303 79.1417 37.5484 79.9959 38.2505C79.8077 38.4612 79.5761 38.6287 79.3171 38.7417C79.0586 38.8548 78.7782 38.9108 78.4959 38.9057L77.7621 35.8198Z" fill="#FF5652"/>
<path d="M64.7014 41.1593C65.3032 42.052 66.2331 42.6712 67.2889 42.8823C68.6904 43.1444 69.2537 41.8669 68.7753 40.6023C68.3299 39.4755 67.0726 37.9817 65.7168 38.2765C65.4217 38.3477 65.1486 38.4916 64.9232 38.6952C64.6977 38.8988 64.5266 39.1555 64.4258 39.442C64.325 39.7285 64.2975 40.0357 64.3458 40.3356C64.3935 40.6355 64.5163 40.9187 64.7014 41.1593Z" fill="#FF8B7B"/>
<path d="M63.7648 30.906C66.3321 27.034 69.8696 29.5957 70.4983 30.4736C71.127 31.3516 64.1448 38.1587 67.1312 44.7431C63.5943 42.9415 60.7384 36.7239 63.7648 30.906Z" fill="#263238"/>
<path d="M72.0832 35.42C72.1388 35.4102 72.1889 35.3824 72.2267 35.3409C72.2646 35.2994 72.2878 35.2467 72.2927 35.1907C72.4039 33.9656 73.7731 33.1662 73.7865 33.1597C73.8464 33.1241 73.8898 33.0666 73.9081 32.9994C73.9265 32.9322 73.9179 32.8604 73.8843 32.7994C73.8678 32.769 73.8446 32.7424 73.8171 32.721C73.7896 32.6997 73.7584 32.6839 73.7248 32.6748C73.6912 32.6656 73.6564 32.6632 73.6222 32.6678C73.5874 32.6723 73.5544 32.6836 73.5244 32.7011C73.4523 32.7404 71.8999 33.6446 71.7624 35.1383C71.7587 35.1732 71.7624 35.2086 71.7722 35.2422C71.7826 35.2757 71.7997 35.307 71.8223 35.3338C71.8449 35.3607 71.873 35.3828 71.9041 35.3987C71.9353 35.4146 71.9695 35.4241 72.0043 35.4266C72.0312 35.4308 72.0581 35.4286 72.0832 35.42Z" fill="#263238"/>
<path d="M80.481 31.9739C80.539 31.984 80.5995 31.9739 80.6514 31.9453C80.7034 31.9167 80.7443 31.8713 80.7669 31.8165C80.7901 31.7616 80.7932 31.7007 80.7773 31.6436C80.7608 31.5865 80.7254 31.5367 80.6771 31.5022C80.3514 31.2344 79.9653 31.0493 79.5529 30.9627C79.1399 30.876 78.7122 30.8903 78.3059 31.0043C78.2717 31.0145 78.2405 31.0317 78.213 31.0548C78.1862 31.0779 78.1642 31.1063 78.1489 31.1384C78.1336 31.1705 78.1251 31.2054 78.1238 31.241C78.1226 31.2766 78.1287 31.312 78.1422 31.345C78.1532 31.3777 78.1709 31.408 78.1935 31.434C78.2167 31.46 78.2442 31.4813 78.2754 31.4965C78.3065 31.5117 78.3401 31.5206 78.3743 31.5228C78.4092 31.5248 78.444 31.5201 78.4764 31.5088C78.799 31.4234 79.1374 31.4164 79.4631 31.4882C79.7887 31.56 80.093 31.7085 80.3496 31.9215C80.3893 31.9483 80.4339 31.9662 80.481 31.9739Z" fill="#263238"/>
<path d="M96.8563 72.5488C96.8563 72.3783 96.8233 72.1949 96.7903 72.0049L96.7383 71.7164L96.6925 71.5203C96.6265 71.2844 96.5679 71.0289 96.4958 70.8126C95.971 69.1736 95.2928 67.5878 94.4716 66.0759C93.725 64.6214 92.9063 63.2385 92.0613 61.8824C90.3781 59.1571 88.6094 56.5757 86.664 54.0205C86.1868 53.485 85.5264 53.1476 84.8128 53.0748C84.0992 53.0021 83.3843 53.1994 82.8088 53.6277C82.2339 54.056 81.8398 54.6844 81.7048 55.3889C81.5691 56.0934 81.7029 56.823 82.0787 57.434V57.4667C83.8279 59.904 85.6095 62.4263 87.2799 64.9288C88.1047 66.1938 88.9038 67.4643 89.6572 68.7293C90.3751 69.9179 91.0013 71.1597 91.531 72.4436C91.5964 72.5879 91.6288 72.7193 91.6746 72.85L91.7076 72.935C91.7076 72.935 91.7076 72.935 91.7076 72.9747C91.7363 73.155 91.7363 73.3383 91.7076 73.5186C91.63 74.1248 91.4919 74.7219 91.2952 75.3006C90.8315 76.6664 90.2798 78.0017 89.6443 79.2966C88.9894 80.6466 88.3344 81.9959 87.5744 83.3263C86.8143 84.6561 86.0873 86.0121 85.3406 87.3291C85.1684 87.6353 85.114 87.9934 85.1891 88.3368C85.2637 88.6796 85.4622 88.9834 85.7469 89.1887C86.0311 89.3946 86.3817 89.4888 86.7306 89.4527C87.0801 89.4166 87.4039 89.2529 87.6397 88.9931C89.7763 86.6159 91.7235 84.0749 93.4629 81.3934C94.3745 79.9921 95.1718 78.5199 95.8475 76.9909C96.2288 76.1274 96.5208 75.2273 96.7188 74.3045C96.8343 73.727 96.8801 73.1373 96.8563 72.5488Z" fill="#FF8B7B"/>
<path d="M74.3431 34.9746L75.3323 34.4177C75.3323 34.4177 74.9853 35.3742 74.3431 34.9746Z" fill="#263238"/>
<path d="M59.8671 58.338C60.2946 56.6124 60.8395 54.9181 61.4981 53.267C62.5514 52.9659 63.6267 52.7469 64.7142 52.6118C66.9162 54.5669 68.7314 56.9182 70.0657 59.5434C73.0069 56.5756 78.6206 53.5749 82.0463 52.4742C83.2138 52.3967 84.3857 52.5435 85.4977 52.9066C83.1662 60.2707 80.7883 67.6873 85.0064 69.5872C84.9343 73.0858 85.1378 77.4492 85.3083 81.8125C81.3192 81.3805 65.4938 80.6202 59.068 82.0221C58.7404 77.5738 58.616 73.7868 58.6422 70.5571C55.6553 66.7505 58.6291 61.5548 59.8671 58.338Z" fill="url(#paint13_linear_747_1058)"/>
<path d="M78.3914 56.3461C77.6577 56.0186 76.872 55.6451 76.0728 55.2192L75.7191 55.4158C76.5964 55.8875 77.4548 56.3003 78.2473 56.6606C78.8234 56.9227 79.4069 57.1782 79.9959 57.4337C81.2209 57.9709 82.4526 58.5213 83.6574 59.1175C83.6904 59.0061 83.7167 58.8948 83.7497 58.7768C82.5571 58.1937 81.3388 57.6499 80.1339 57.1192L78.3914 56.3461Z" fill="white"/>
<path d="M73.1249 67.6872C71.1924 66.377 69.1945 64.9879 67.1838 63.7235C64.724 62.0772 62.0296 60.8115 59.1924 59.9692L59.0549 60.2903C61.8781 61.1202 64.5578 62.3773 67.0005 64.0181C69.0045 65.2764 71.0023 66.6385 72.9281 67.9494C76.7925 70.5698 80.7883 73.3345 85.0785 75.3591C85.0785 75.2283 85.0785 75.1037 85.0785 74.979C80.8476 72.9941 76.9306 70.3009 73.1249 67.6872Z" fill="white"/>
<path d="M85.0071 71.1663V70.7923L84.4107 70.5368C75.8956 66.8616 67.053 63.0617 60.3323 56.6541C60.293 56.7785 60.2603 56.903 60.221 57.0275C66.9742 63.4021 75.7649 67.1892 84.2733 70.8516L85.0071 71.1663Z" fill="white"/>
<path d="M75.1227 58.5476C77.618 60.1724 80.1724 61.8231 82.8057 63.3497C82.8057 63.2256 82.8387 63.1077 82.8516 62.983C80.2708 61.4827 77.7621 59.8579 75.3121 58.2593L73.2886 56.949L72.9874 57.1652L75.1227 58.5476Z" fill="white"/>
<path d="M64.7668 75.9227C62.53 74.8441 60.4674 73.4348 58.649 71.7427C58.649 71.8997 58.649 72.0635 58.649 72.2212C60.4372 73.8315 62.4438 75.1814 64.6097 76.2307C66.3651 77.1088 68.2059 77.8684 69.9875 78.6091C71.9524 79.4213 73.9894 80.2732 75.9152 81.2821H76.6881C74.56 80.1607 72.374 79.1548 70.1378 78.2681C68.3501 77.5739 66.5092 76.8137 64.7668 75.9227Z" fill="white"/>
<path d="M65.258 81.3541C62.8385 80.2535 60.6406 78.719 58.7734 76.8264C58.7734 77.0036 58.7734 77.1802 58.7734 77.3575C60.4686 79.0032 62.417 80.366 64.5444 81.3932L65.258 81.3541Z" fill="white"/>
<path d="M83.4149 76.0015C80.4871 74.4945 77.3693 73.243 74.356 72.0379C69.5091 70.0719 64.4979 68.1066 60.234 64.9747C59.4358 64.4051 58.6865 63.7695 57.9939 63.0747C57.9546 63.1994 57.9087 63.324 57.876 63.4481C58.545 64.1057 59.2656 64.7082 60.031 65.2503C64.3342 68.3883 69.3649 70.4062 74.2319 72.352C77.2385 73.5577 80.3496 74.8025 83.2578 76.2833C83.9104 76.6139 84.5427 76.9842 85.1512 77.3906V76.9708C84.5891 76.6182 84.01 76.2949 83.4149 76.0015Z" fill="white"/>
<path d="M68.1338 73.9573C65.101 71.8936 61.963 69.7577 58.7275 67.9097C58.2905 67.6622 57.8375 67.4429 57.3716 67.2546C57.3716 67.3793 57.3716 67.5101 57.4109 67.6348C57.8039 67.812 58.1904 68.0216 58.5572 68.2312C61.7797 70.0719 64.9109 72.2077 67.9371 74.2653C71.6475 76.8906 75.5077 79.2966 79.4979 81.4721L80.3166 81.5113C76.0966 79.2599 72.0269 76.7366 68.1338 73.9573Z" fill="white"/>
<path d="M89.1073 86.6672L86.9915 85.7505L82.0066 87.0607C81.4353 87.211 80.9294 87.5447 80.5659 88.0104L79.5175 89.3799C79.2829 89.6836 79.1631 90.06 79.1784 90.4438C79.1943 90.827 79.3446 91.193 79.603 91.4766L80.795 92.7868C81.0797 93.1003 81.4756 93.291 81.899 93.3179C82.3218 93.3448 82.7391 93.206 83.0611 92.931L85.7665 90.6052C85.7665 90.6052 89.0089 89.026 89.1073 86.6672Z" fill="#FF8B7B"/>
<path d="M85.786 85.8617C85.8716 87.0143 86.5656 88.9668 87.5939 89.7924C88.1707 89.609 88.6552 88.7046 88.6552 88.7046C87.5866 87.651 86.9096 86.2644 86.7361 84.7739C86.3225 85.0385 85.9932 85.4156 85.786 85.8617Z" fill="url(#paint14_linear_747_1058)"/>
<path d="M49.9306 74.9528C50.5136 72.6465 48.2406 71.5789 47.2319 68.7488C46.8585 67.7002 46.1446 68.2312 46.0987 69.3709C46.1518 70.7447 46.4489 72.0977 46.9765 73.3676L49.9306 74.9528Z" fill="#FF8B7B"/>
<path d="M48.3257 73.3022L44.5266 74.1016C44.3148 74.1339 44.0981 74.1003 43.9067 74.0038C43.7153 73.9072 43.5587 73.7538 43.4589 73.5644L38.9065 64.4967C38.8593 64.4191 38.8316 64.3311 38.8261 64.2407C38.8206 64.1502 38.8373 64.0592 38.8747 63.9767C38.9122 63.8942 38.9692 63.8221 39.041 63.7664C39.1128 63.7108 39.197 63.6736 39.2864 63.6577L43.0855 62.8651C43.2966 62.8308 43.5132 62.8632 43.7048 62.9586C43.8963 63.0539 44.0531 63.2067 44.1532 63.3961L48.7056 72.4632C48.7545 72.5408 48.7835 72.6288 48.7899 72.7198C48.7962 72.8109 48.7799 72.9019 48.7422 72.9857C48.7045 73.0688 48.6467 73.1409 48.574 73.1965C48.5013 73.2515 48.4159 73.2882 48.3257 73.3022Z" fill="url(#paint15_linear_747_1058)"/>
<path d="M43.6687 61.0634C43.646 61.0627 43.6237 61.0572 43.6032 61.0474C43.5827 61.0375 43.5645 61.0236 43.5498 61.0063C43.535 60.9891 43.5239 60.9689 43.5173 60.9472C43.5108 60.9254 43.5088 60.9025 43.5115 60.88L43.6098 59.5696C43.6114 59.5473 43.6175 59.5254 43.6276 59.5054C43.6377 59.4853 43.6517 59.4675 43.6688 59.4529C43.6858 59.4383 43.7056 59.4272 43.7269 59.4202C43.7483 59.4133 43.7708 59.4106 43.7932 59.4124C43.8378 59.4174 43.8788 59.439 43.908 59.4731C43.9372 59.5071 43.9523 59.5511 43.9504 59.5959L43.8521 60.9062C43.8505 60.9286 43.8444 60.9504 43.8343 60.9705C43.8241 60.9905 43.8102 61.0084 43.7931 61.023C43.7761 61.0376 43.7563 61.0487 43.7349 61.0556C43.7136 61.0626 43.6911 61.0652 43.6687 61.0634Z" fill="url(#paint16_linear_747_1058)"/>
<path d="M44.9917 61.5683C44.9472 61.5659 44.9051 61.5475 44.8739 61.5157C44.843 61.4827 44.8258 61.4394 44.8258 61.3941C44.8258 61.3495 44.843 61.3061 44.8739 61.2731L47.1795 58.967C47.2123 58.9361 47.2557 58.9189 47.3007 58.9189C47.3457 58.9189 47.389 58.9361 47.4219 58.967C47.4387 58.9824 47.4522 59.0011 47.4614 59.022C47.4707 59.0428 47.4755 59.0654 47.4755 59.0882C47.4755 59.111 47.4707 59.1336 47.4614 59.1545C47.4522 59.1754 47.4387 59.1941 47.4219 59.2094L45.1162 61.509C45.1005 61.5267 45.0813 61.5408 45.06 61.5512C45.0386 61.5616 45.0154 61.5671 44.9917 61.5683Z" fill="url(#paint17_linear_747_1058)"/>
<path d="M45.5093 62.8913C45.4696 62.8907 45.4312 62.8773 45.4003 62.8522C45.3695 62.8272 45.3479 62.7923 45.3391 62.7538C45.3314 62.7092 45.3416 62.664 45.3673 62.6273C45.3931 62.5907 45.4324 62.565 45.4766 62.5571L47.8543 62.059C47.8986 62.0498 47.9449 62.0584 47.983 62.0828C48.021 62.1073 48.0478 62.1458 48.0574 62.1904C48.0669 62.2344 48.0585 62.2808 48.0339 62.3193C48.0094 62.3572 47.9707 62.3841 47.9263 62.3933L45.5421 62.8913H45.5093Z" fill="url(#paint18_linear_747_1058)"/>
<path d="M47.9066 73.9114L44.114 74.7108C43.9021 74.7431 43.6852 74.7102 43.493 74.6148C43.3007 74.5201 43.1424 74.3679 43.0398 74.1797L38.494 65.112C38.445 65.035 38.4161 64.947 38.4097 64.856C38.4033 64.7649 38.4197 64.6733 38.4574 64.5902C38.4951 64.507 38.5529 64.4343 38.6256 64.3793C38.6983 64.3243 38.7836 64.2877 38.8739 64.2736L42.6664 63.4743C42.8783 63.4413 43.0952 63.4749 43.2875 63.5696C43.4797 63.6649 43.638 63.8165 43.7407 64.0053L48.293 73.0724C48.3403 73.1506 48.3678 73.2386 48.373 73.3297C48.3782 73.4207 48.3609 73.5118 48.3227 73.5949C48.2846 73.6774 48.2267 73.7495 48.1541 73.8051C48.0815 73.8601 47.9965 73.8968 47.9066 73.9114Z" fill="#263238"/>
<path d="M40.413 71.2971L41.1598 70.4061C41.2576 70.2869 41.3825 70.1934 41.5238 70.1323C41.6652 70.0712 41.8191 70.0449 41.9727 70.0547C42.1264 70.0651 42.2753 70.1116 42.4074 70.191C42.5394 70.2704 42.6506 70.3798 42.7318 70.5112L44.0418 72.5548C44.3083 72.9691 44.4528 73.4501 44.4586 73.9426C44.4644 74.4352 44.3313 74.9192 44.0746 75.3396L43.9633 75.5229L40.413 71.2971Z" fill="#FF8B7B"/>
<path d="M4.72099 11.238L4.15112 10.8711C6.50002 7.21961 9.66369 4.16287 13.3934 1.94116L13.7341 2.54391C10.1015 4.71045 7.01726 7.68552 4.72099 11.238Z" fill="url(#paint19_linear_747_1058)"/>
<path d="M0.823574 21.2884L0.168556 21.1704C0.508733 19.1612 1.0734 17.1964 1.85196 15.3132L2.50698 15.5687C1.73776 17.4078 1.17323 19.3258 0.823574 21.2884Z" fill="url(#paint20_linear_747_1058)"/>
<path d="M52.9369 25.8613C52.9447 20.687 51.3742 15.6335 48.435 11.3755C45.4958 7.1175 41.3278 3.85774 36.4876 2.03155C31.6474 0.205365 26.3654 -0.100346 21.3469 1.15524C16.3284 2.41082 11.8123 5.16794 8.40167 9.05839C4.99109 12.9489 2.84831 17.7875 2.2595 22.9282C1.67069 28.0688 2.66388 33.2668 5.10643 37.828C7.549 42.3892 11.3246 46.0965 15.9292 48.4548C20.5338 50.8131 25.7481 51.7102 30.8758 51.0263L39.843 57.7745L41.8081 46.8463C45.234 44.5221 48.0393 41.3947 49.9791 37.7368C51.919 34.0789 52.9344 30.0018 52.9369 25.8613Z" fill="url(#paint21_linear_747_1058)"/>
<path d="M20.3825 34.064C20.2904 34.0645 20.2007 34.0346 20.1273 33.9789C20.0539 33.9232 20.0009 33.845 19.9764 33.7561L15.4699 18.4318C15.4533 18.3709 15.45 18.3073 15.4601 18.2452C15.4703 18.183 15.4937 18.1237 15.5288 18.0714C15.5641 18.0191 15.6107 17.9756 15.6651 17.9438C15.7195 17.912 15.7804 17.8929 15.8433 17.888L38.6248 15.8111C38.6857 15.8047 38.7473 15.812 38.8051 15.8324C38.8629 15.8527 38.9154 15.8858 38.9588 15.929C39.0037 15.9718 39.0386 16.0239 39.0612 16.0816C39.0839 16.1393 39.0936 16.2013 39.0898 16.2632L38.0484 32.092C38.0412 32.1934 37.9986 32.2891 37.9279 32.3622C37.8572 32.4353 37.7631 32.4811 37.6619 32.4917L20.4218 34.0575L20.3825 34.064ZM16.4524 18.6873L20.71 33.1796L37.2493 31.6727L38.2318 16.7021L16.4524 18.6873Z" fill="white"/>
<path d="M15.8824 18.7332C15.8162 18.7337 15.7508 18.7185 15.6916 18.6889C15.6324 18.6593 15.581 18.6161 15.5417 18.5628L13.7339 16.1059L10.2099 16.427C10.0972 16.4361 9.98549 16.4008 9.89855 16.3286C9.81161 16.2563 9.75644 16.1529 9.74483 16.0404C9.73566 15.9277 9.77098 15.816 9.84326 15.729C9.91547 15.642 10.0188 15.5869 10.1313 15.5752L13.8977 15.2346C13.9701 15.2293 14.0428 15.2421 14.1091 15.2718C14.1754 15.3015 14.2333 15.3472 14.2776 15.4049L16.2426 18.0583C16.2756 18.1029 16.2995 18.1536 16.3128 18.2075C16.326 18.2614 16.3285 18.3175 16.3199 18.3723C16.3114 18.4272 16.2921 18.4798 16.2631 18.5271C16.234 18.5744 16.196 18.6155 16.1509 18.648C16.075 18.7086 15.9793 18.7389 15.8824 18.7332Z" fill="white"/>
<path d="M23.3038 40.3471C22.8886 40.3466 22.4826 40.2255 22.135 39.9984C21.7874 39.7713 21.5133 39.4481 21.346 39.0681C21.1787 38.688 21.1254 38.2676 21.1926 37.8578C21.2598 37.448 21.4446 37.0666 21.7246 36.76C22.0045 36.4534 22.3675 36.2347 22.7694 36.1306C23.1713 36.0266 23.5948 36.0415 23.9883 36.1738C24.3819 36.306 24.7285 36.5498 24.9861 36.8755C25.2437 37.2011 25.4011 37.5946 25.4391 38.0081C25.4652 38.2903 25.4347 38.5749 25.3497 38.8453C25.2646 39.1156 25.1267 39.3664 24.9437 39.5828C24.7609 39.7993 24.5367 39.9772 24.2844 40.1062C24.0321 40.2351 23.7566 40.3125 23.4741 40.3339L23.3038 40.3471ZM23.1859 36.9074C22.926 36.927 22.6779 37.0237 22.4732 37.1851C22.2686 37.3465 22.1168 37.5653 22.0371 37.8135C21.9574 38.0617 21.9536 38.328 22.026 38.5784C22.0985 38.8288 22.244 39.0519 22.4439 39.2191C22.6438 39.3864 22.889 39.4902 23.1482 39.5173C23.4075 39.5444 23.6688 39.4935 23.899 39.3712C24.1291 39.249 24.3176 39.0608 24.4402 38.8308C24.5629 38.6008 24.6143 38.3395 24.5876 38.0801C24.5541 37.7626 24.4059 37.4682 24.1707 37.2522C23.9355 37.0362 23.6295 36.9137 23.3103 36.9074H23.1859Z" fill="white"/>
<path d="M34.9567 39.2857C34.4561 39.2854 33.9716 39.1092 33.5877 38.7878C33.1533 38.4222 32.8808 37.8998 32.8293 37.3342C32.7778 36.7687 32.9515 36.2057 33.3126 35.7675C33.5838 35.4416 33.9456 35.2036 34.3522 35.0835C34.7588 34.9635 35.1919 34.9668 35.5966 35.093C36.0013 35.2193 36.3594 35.4629 36.6256 35.7929C36.8919 36.1229 37.0542 36.5245 37.0921 36.9468C37.1172 37.2289 37.0862 37.5131 37.0007 37.7831C36.9154 38.0531 36.7773 38.3034 36.5946 38.5197C36.4118 38.736 36.188 38.9139 35.9361 39.0431C35.6842 39.1724 35.4092 39.2504 35.127 39.2727L34.9567 39.2857ZM34.9567 35.8461H34.8388C34.5889 35.8774 34.3533 35.98 34.1602 36.1417C33.9671 36.3034 33.8247 36.5174 33.7501 36.7579C33.6755 36.9985 33.6717 37.2556 33.7393 37.4982C33.8069 37.7409 33.9431 37.9588 34.1314 38.1261C34.261 38.2357 34.4111 38.3184 34.5732 38.369C34.7351 38.4196 34.9057 38.4373 35.0746 38.421C35.4141 38.3861 35.7266 38.22 35.9456 37.9582C36.1646 37.6963 36.2728 37.3593 36.2471 37.0189C36.2133 36.6991 36.0632 36.4029 35.8253 36.1866C35.5873 35.9703 35.2782 35.8492 34.9567 35.8461Z" fill="white"/>
<path d="M26.7819 29.5107C26.5424 29.5067 26.3114 29.4212 26.1269 29.2683L22.413 26.176C22.2399 25.9909 22.1397 25.7494 22.1309 25.4962C22.1221 25.243 22.2052 24.9951 22.3651 24.7985C22.5249 24.6019 22.7505 24.4699 23.0001 24.4268C23.2498 24.3837 23.5066 24.4325 23.723 24.5642L26.6313 26.9818L32.6182 19.7749C32.8019 19.5955 33.0451 19.4899 33.3017 19.4779C33.5582 19.466 33.8102 19.5488 34.0097 19.7104C34.2093 19.872 34.3426 20.1013 34.3843 20.3548C34.426 20.6082 34.3733 20.8682 34.236 21.0853L27.5876 29.1373C27.4891 29.2551 27.3658 29.3496 27.2265 29.4142C27.0873 29.4788 26.9355 29.5117 26.7819 29.5107Z" fill="white"/>
</g>
<defs>
<linearGradient id="paint0_linear_747_1058" x1="237.056" y1="114.87" x2="165.072" y2="114.87" gradientUnits="userSpaceOnUse">
<stop stop-color="#4E5FFF"/>
<stop offset="0.439659" stop-color="#006DD1"/>
<stop offset="0.947917" stop-color="#0086D1"/>
</linearGradient>
<linearGradient id="paint1_linear_747_1058" x1="232.648" y1="163.196" x2="166.754" y2="163.196" gradientUnits="userSpaceOnUse">
<stop stop-color="#4E5FFF"/>
<stop offset="0.439659" stop-color="#006DD1"/>
<stop offset="0.947917" stop-color="#0086D1"/>
</linearGradient>
<linearGradient id="paint2_linear_747_1058" x1="236.833" y1="209.009" x2="165.055" y2="209.009" gradientUnits="userSpaceOnUse">
<stop stop-color="#4E5FFF"/>
<stop offset="0.439659" stop-color="#006DD1"/>
<stop offset="0.947917" stop-color="#0086D1"/>
</linearGradient>
<linearGradient id="paint3_linear_747_1058" x1="240.718" y1="111.964" x2="161.691" y2="111.964" gradientUnits="userSpaceOnUse">
<stop stop-color="#4E5FFF"/>
<stop offset="0.439659" stop-color="#006DD1"/>
<stop offset="0.947917" stop-color="#0086D1"/>
</linearGradient>
<linearGradient id="paint4_linear_747_1058" x1="188.323" y1="37.0445" x2="174.514" y2="37.0445" gradientUnits="userSpaceOnUse">
<stop stop-color="#4E5FFF"/>
<stop offset="0.439659" stop-color="#006DD1"/>
<stop offset="0.947917" stop-color="#0086D1"/>
</linearGradient>
<linearGradient id="paint5_linear_747_1058" x1="189.609" y1="75.6811" x2="171.171" y2="75.6811" gradientUnits="userSpaceOnUse">
<stop stop-color="#4E5FFF"/>
<stop offset="0.439659" stop-color="#006DD1"/>
<stop offset="0.947917" stop-color="#0086D1"/>
</linearGradient>
<linearGradient id="paint6_linear_747_1058" x1="220.694" y1="88.7132" x2="179.662" y2="88.7132" gradientUnits="userSpaceOnUse">
<stop stop-color="#4E5FFF"/>
<stop offset="0.439659" stop-color="#006DD1"/>
<stop offset="0.947917" stop-color="#0086D1"/>
</linearGradient>
<linearGradient id="paint7_linear_747_1058" x1="219.987" y1="70.7574" x2="201.935" y2="70.7574" gradientUnits="userSpaceOnUse">
<stop stop-color="#4E5FFF"/>
<stop offset="0.439659" stop-color="#006DD1"/>
<stop offset="0.947917" stop-color="#0086D1"/>
</linearGradient>
<linearGradient id="paint8_linear_747_1058" x1="199.402" y1="36.0499" x2="182.461" y2="36.0499" gradientUnits="userSpaceOnUse">
<stop stop-color="#4E5FFF"/>
<stop offset="0.439659" stop-color="#006DD1"/>
<stop offset="0.947917" stop-color="#0086D1"/>
</linearGradient>
<linearGradient id="paint9_linear_747_1058" x1="197.047" y1="37.2944" x2="178.091" y2="37.2944" gradientUnits="userSpaceOnUse">
<stop stop-color="#4E5FFF"/>
<stop offset="0.439659" stop-color="#006DD1"/>
<stop offset="0.947917" stop-color="#0086D1"/>
</linearGradient>
<linearGradient id="paint10_linear_747_1058" x1="161.991" y1="54.0958" x2="114.453" y2="54.0958" gradientUnits="userSpaceOnUse">
<stop stop-color="#4E5FFF"/>
<stop offset="0.439659" stop-color="#006DD1"/>
<stop offset="0.947917" stop-color="#0086D1"/>
</linearGradient>
<linearGradient id="paint11_linear_747_1058" x1="70.9043" y1="201.522" x2="63.3403" y2="201.522" gradientUnits="userSpaceOnUse">
<stop stop-color="#4E5FFF"/>
<stop offset="0.439659" stop-color="#006DD1"/>
<stop offset="0.947917" stop-color="#0086D1"/>
</linearGradient>
<linearGradient id="paint12_linear_747_1058" x1="103.531" y1="192.282" x2="95.5465" y2="192.282" gradientUnits="userSpaceOnUse">
<stop stop-color="#4E5FFF"/>
<stop offset="0.439659" stop-color="#006DD1"/>
<stop offset="0.947917" stop-color="#0086D1"/>
</linearGradient>
<linearGradient id="paint13_linear_747_1058" x1="85.4977" y1="66.9096" x2="59.4582" y2="66.9096" gradientUnits="userSpaceOnUse">
<stop stop-color="#4E5FFF"/>
<stop offset="0.439659" stop-color="#006DD1"/>
<stop offset="0.947917" stop-color="#0086D1"/>
</linearGradient>
<linearGradient id="paint14_linear_747_1058" x1="88.6552" y1="87.2274" x2="86.0006" y2="87.2274" gradientUnits="userSpaceOnUse">
<stop stop-color="#4E5FFF"/>
<stop offset="0.439659" stop-color="#006DD1"/>
<stop offset="0.947917" stop-color="#0086D1"/>
</linearGradient>
<linearGradient id="paint15_linear_747_1058" x1="48.7912" y1="68.3575" x2="39.5704" y2="68.3575" gradientUnits="userSpaceOnUse">
<stop stop-color="#4E5FFF"/>
<stop offset="0.439659" stop-color="#006DD1"/>
<stop offset="0.947917" stop-color="#0086D1"/>
</linearGradient>
<linearGradient id="paint16_linear_747_1058" x1="43.9505" y1="60.2196" x2="43.5432" y2="60.2196" gradientUnits="userSpaceOnUse">
<stop stop-color="#4E5FFF"/>
<stop offset="0.439659" stop-color="#006DD1"/>
<stop offset="0.947917" stop-color="#0086D1"/>
</linearGradient>
<linearGradient id="paint17_linear_747_1058" x1="47.4755" y1="60.2142" x2="45.0239" y2="60.2142" gradientUnits="userSpaceOnUse">
<stop stop-color="#4E5FFF"/>
<stop offset="0.439659" stop-color="#006DD1"/>
<stop offset="0.947917" stop-color="#0086D1"/>
</linearGradient>
<linearGradient id="paint18_linear_747_1058" x1="48.0612" y1="62.4641" x2="45.5403" y2="62.4641" gradientUnits="userSpaceOnUse">
<stop stop-color="#4E5FFF"/>
<stop offset="0.439659" stop-color="#006DD1"/>
<stop offset="0.947917" stop-color="#0086D1"/>
</linearGradient>
<linearGradient id="paint19_linear_747_1058" x1="13.7341" y1="6.48627" x2="4.86779" y2="6.48627" gradientUnits="userSpaceOnUse">
<stop stop-color="#4E5FFF"/>
<stop offset="0.439659" stop-color="#006DD1"/>
<stop offset="0.947917" stop-color="#0086D1"/>
</linearGradient>
<linearGradient id="paint20_linear_747_1058" x1="2.50697" y1="18.2344" x2="0.343438" y2="18.2344" gradientUnits="userSpaceOnUse">
<stop stop-color="#4E5FFF"/>
<stop offset="0.439659" stop-color="#006DD1"/>
<stop offset="0.947917" stop-color="#0086D1"/>
</linearGradient>
<linearGradient id="paint21_linear_747_1058" x1="52.9369" y1="28.4474" x2="5.89661" y2="28.4474" gradientUnits="userSpaceOnUse">
<stop stop-color="#4E5FFF"/>
<stop offset="0.439659" stop-color="#006DD1"/>
<stop offset="0.947917" stop-color="#0086D1"/>
</linearGradient>
<clipPath id="clip0_747_1058">
<rect width="245" height="220" fill="white"/>
</clipPath>
</defs>
</svg>
