<svg width="336" height="335" viewBox="0 0 336 335" fill="none" xmlns="http://www.w3.org/2000/svg">
<g clip-path="url(#clip0_742_436)">
<mask id="mask0_742_436" style="mask-type:luminance" maskUnits="userSpaceOnUse" x="0" y="0" width="336" height="335">
<path d="M336 0H0V335H336V0Z" fill="white"/>
</mask>
<g mask="url(#mask0_742_436)">
<path d="M122.717 48.4074C122.717 48.4074 71.7992 74.2695 46.4046 114.121C21.0097 153.973 23.019 205.241 53.8772 243.297C84.7352 281.353 143.717 276.355 193.102 300.461C242.487 324.568 296.973 319.603 320.325 268.529C343.677 217.455 308.464 198.367 302.416 139.259C296.368 80.1521 242.924 -6.39859 122.717 48.4074Z" fill="#4C3EF3"/>
<path opacity="0.7" d="M122.717 48.4074C122.717 48.4074 71.7992 74.2695 46.4046 114.121C21.0097 153.973 23.019 205.241 53.8772 243.297C84.7352 281.353 143.717 276.355 193.102 300.461C242.487 324.568 296.973 319.603 320.325 268.529C343.677 217.455 308.464 198.367 302.416 139.259C296.368 80.1521 242.924 -6.39859 122.717 48.4074Z" fill="white"/>
<path d="M65.2943 57.8745C65.2943 58.7014 65.0483 59.5097 64.5876 60.1973C64.1268 60.8848 63.4719 61.4206 62.7057 61.7371C61.9395 62.0535 61.0964 62.1363 60.2829 61.975C59.4695 61.8137 58.7223 61.4155 58.1359 60.8308C57.5495 60.2461 57.1501 59.5012 56.9883 58.6902C56.8265 57.8791 56.9095 57.0386 57.2269 56.2746C57.5443 55.5106 58.0818 54.8577 58.7713 54.3983C59.4609 53.9389 60.2716 53.6937 61.101 53.6937C62.2131 53.6937 63.2797 54.1342 64.0661 54.9182C64.8525 55.7023 65.2943 56.7657 65.2943 57.8745Z" stroke="#808080" stroke-miterlimit="10"/>
<path d="M83.6129 57.8412H38.5891L52.0291 48.4612H70.1729L83.6129 57.8412Z" fill="#263238" stroke="#263238" stroke-linecap="round" stroke-linejoin="round"/>
<path d="M64.6762 42.8867H57.5328V52.2667H64.6762V42.8867Z" fill="#263238" stroke="#263238" stroke-linecap="round" stroke-linejoin="round"/>
<path d="M60.9466 43.4696V22.11" stroke="#263238" stroke-linecap="round" stroke-linejoin="round"/>
<path d="M228.079 49.7476V39.2889H237.864V115.079" stroke="#808080" stroke-miterlimit="10"/>
<path d="M228.079 209.589V52.5884" stroke="#808080" stroke-miterlimit="10"/>
<path d="M237.864 117.92V292.227H228.079V213.462" stroke="#808080" stroke-miterlimit="10"/>
<path d="M177.021 43.8784V39.2889H186.805V43.0409" stroke="#808080" stroke-miterlimit="10"/>
<path d="M177.021 125.404V122.329" stroke="#808080" stroke-miterlimit="10"/>
<path d="M186.805 283.189V292.227H177.021V249.609" stroke="#808080" stroke-miterlimit="10"/>
<path d="M186.805 249.441V279.832" stroke="#808080" stroke-miterlimit="10"/>
<path d="M77.6456 274.405V249.609" stroke="#808080" stroke-miterlimit="10"/>
<path d="M87.4299 249.441V292.227H77.6456V278.539" stroke="#808080" stroke-miterlimit="10"/>
<path d="M186.805 121.491V125.236" stroke="#808080" stroke-miterlimit="10"/>
<path d="M148.367 121.94H228.113V111.22H46.6732" stroke="#808080" stroke-miterlimit="10"/>
<path d="M85.4273 121.94H145.773" stroke="#808080" stroke-miterlimit="10"/>
<path d="M77.1416 121.94H82.8401" stroke="#808080" stroke-miterlimit="10"/>
<path d="M46.6732 121.94H74.0302" stroke="#808080" stroke-miterlimit="10"/>
<path d="M222.267 223.405H202.046V239.009H222.267V223.405Z" stroke="#808080" stroke-miterlimit="10"/>
<path d="M173.016 223.405H152.795V239.009H173.016V223.405Z" stroke="#808080" stroke-miterlimit="10"/>
<path d="M123.758 223.405H65.2743V239.009H123.758V223.405Z" stroke="#808080" stroke-miterlimit="10"/>
<path d="M123.758 223.405H106.703V239.009H123.758V223.405Z" stroke="#808080" stroke-miterlimit="10"/>
<path d="M223.96 220.269H56.0746V223.391H223.96V220.269Z" stroke="#808080" stroke-miterlimit="10"/>
<path d="M223.953 220.269H99.5662V223.391H223.953V220.269Z" stroke="#808080" stroke-miterlimit="10"/>
<path d="M117.986 217.971H58.2986V220.356H117.986V217.971Z" stroke="#808080" stroke-miterlimit="10"/>
<path d="M143.246 217.971H131.009V220.209H143.246V217.971Z" stroke="#808080" stroke-miterlimit="10"/>
<path d="M168.507 217.971H156.27V220.209H168.507V217.971Z" stroke="#808080" stroke-miterlimit="10"/>
<path d="M193.767 217.971H181.53V220.209H193.767V217.971Z" stroke="#808080" stroke-miterlimit="10"/>
<path d="M219.028 217.971H206.791V220.209H219.028V217.971Z" stroke="#808080" stroke-miterlimit="10"/>
<path d="M123.758 239.009H152.795" stroke="#808080" stroke-miterlimit="10"/>
<path d="M173.009 239.009H202.046" stroke="#808080" stroke-miterlimit="10"/>
<path d="M106.495 220.289V218.052" stroke="#808080" stroke-miterlimit="10"/>
<path d="M117.986 217.971H131.009" stroke="#808080" stroke-miterlimit="10"/>
<path d="M143.246 217.971H156.27" stroke="#808080" stroke-miterlimit="10"/>
<path d="M168.507 217.971H181.53" stroke="#808080" stroke-miterlimit="10"/>
<path d="M193.767 217.971H206.791" stroke="#808080" stroke-miterlimit="10"/>
<path d="M59.5285 249.702H228.113V238.982H46.6732" stroke="#808080" stroke-miterlimit="10"/>
<path d="M46.6732 249.702H56.4239" stroke="#808080" stroke-miterlimit="10"/>
<path d="M219.505 125.317H163.702V171.54H219.505V125.317Z" stroke="#808080" stroke-miterlimit="10"/>
<path d="M219.505 125.317H174.635V171.54H219.505V125.317Z" stroke="#808080" stroke-miterlimit="10"/>
<path d="M202.328 128.995H192.92C192.486 128.995 192.068 128.823 191.761 128.516C191.453 128.21 191.281 127.794 191.281 127.36C191.281 126.927 191.453 126.511 191.761 126.205C192.068 125.898 192.486 125.725 192.92 125.725H202.328C202.763 125.725 203.181 125.898 203.488 126.205C203.795 126.511 203.968 126.927 203.968 127.36C203.968 127.794 203.795 128.21 203.488 128.516C203.181 128.823 202.763 128.995 202.328 128.995Z" stroke="#808080" stroke-miterlimit="10"/>
<path d="M219.505 171.527H163.702V217.75H219.505V171.527Z" stroke="#808080" stroke-miterlimit="10"/>
<path d="M219.505 171.527H174.635V217.75H219.505V171.527Z" stroke="#808080" stroke-miterlimit="10"/>
<path d="M202.328 171.935H192.92C192.015 171.935 191.281 172.666 191.281 173.567C191.281 174.468 192.015 175.198 192.92 175.198H202.328C203.234 175.198 203.968 174.468 203.968 173.567C203.968 172.666 203.234 171.935 202.328 171.935Z" stroke="#808080" stroke-miterlimit="10"/>
<path d="M154.899 171.527H99.0958V217.75H154.899V171.527Z" stroke="#808080" stroke-miterlimit="10"/>
<path d="M154.899 171.527H110.029V217.75H154.899V171.527Z" stroke="#808080" stroke-miterlimit="10"/>
<path d="M137.729 171.935H128.321C127.416 171.935 126.681 172.666 126.681 173.567C126.681 174.468 127.416 175.198 128.321 175.198H137.729C138.635 175.198 139.369 174.468 139.369 173.567C139.369 172.666 138.635 171.935 137.729 171.935Z" stroke="#808080" stroke-miterlimit="10"/>
<path d="M222.267 95.4951H202.046V111.099H222.267V95.4951Z" stroke="#808080" stroke-miterlimit="10"/>
<path d="M173.016 95.4951H152.795V111.099H173.016V95.4951Z" stroke="#808080" stroke-miterlimit="10"/>
<path d="M123.758 95.4951H65.2743V111.099H123.758V95.4951Z" stroke="#808080" stroke-miterlimit="10"/>
<path d="M123.758 95.4951H106.703V111.099H123.758V95.4951Z" stroke="#808080" stroke-miterlimit="10"/>
<path d="M223.96 92.3662H56.0746V95.4884H223.96V92.3662Z" stroke="#808080" stroke-miterlimit="10"/>
<path d="M223.953 92.3662H99.5662V95.4884H223.953V92.3662Z" stroke="#808080" stroke-miterlimit="10"/>
<path d="M74.5275 90.0614H58.2986V92.4466H117.986V90.0614H77.2491" stroke="#808080" stroke-miterlimit="10"/>
<path d="M143.246 90.0681H131.009V92.3059H143.246V90.0681Z" stroke="#808080" stroke-miterlimit="10"/>
<path d="M168.507 90.0681H156.27V92.3059H168.507V90.0681Z" stroke="#808080" stroke-miterlimit="10"/>
<path d="M193.767 90.0681H181.53V92.3059H193.767V90.0681Z" stroke="#808080" stroke-miterlimit="10"/>
<path d="M219.028 90.0681H206.791V92.3059H219.028V90.0681Z" stroke="#808080" stroke-miterlimit="10"/>
<path d="M123.758 111.106H152.795" stroke="#808080" stroke-miterlimit="10"/>
<path d="M173.009 111.106H202.046" stroke="#808080" stroke-miterlimit="10"/>
<path d="M106.495 92.3796V90.1485" stroke="#808080" stroke-miterlimit="10"/>
<path d="M117.986 90.0681H131.009" stroke="#808080" stroke-miterlimit="10"/>
<path d="M143.246 90.0681H156.27" stroke="#808080" stroke-miterlimit="10"/>
<path d="M168.507 90.0681H181.53" stroke="#808080" stroke-miterlimit="10"/>
<path d="M193.767 90.0681H206.791" stroke="#808080" stroke-miterlimit="10"/>
<path d="M219.505 43.6238H163.702V89.847H219.505V43.6238Z" stroke="#808080" stroke-miterlimit="10"/>
<path d="M174.635 74.3231V43.6238H219.498V89.847H174.635V78.189" stroke="#808080" stroke-miterlimit="10"/>
<path d="M202.328 47.2954H192.92C192.486 47.2954 192.068 47.1233 191.761 46.8167C191.453 46.5101 191.281 46.0943 191.281 45.6606C191.281 45.4463 191.323 45.2341 191.406 45.0361C191.488 44.8381 191.609 44.6583 191.761 44.507C191.914 44.3558 192.095 44.236 192.293 44.1546C192.492 44.0731 192.705 44.0317 192.92 44.0325H202.328C202.543 44.0317 202.757 44.0731 202.955 44.1546C203.154 44.236 203.335 44.3558 203.488 44.507C203.64 44.6583 203.76 44.8381 203.843 45.0361C203.926 45.2341 203.968 45.4463 203.968 45.6606C203.968 46.0943 203.795 46.5101 203.488 46.8167C203.181 47.1233 202.763 47.2954 202.328 47.2954Z" stroke="#808080" stroke-miterlimit="10"/>
<path d="M154.899 63.8645V89.847H99.0958V43.6238H154.899V60.9634" stroke="#808080" stroke-miterlimit="10"/>
<path d="M154.899 63.8645V89.847H110.029V43.6238H154.899V59.0271" stroke="#808080" stroke-miterlimit="10"/>
<path d="M137.729 47.2954H128.321C128.106 47.2954 127.893 47.2531 127.695 47.1708C127.496 47.0886 127.316 46.9681 127.164 46.8162C127.012 46.6643 126.892 46.484 126.81 46.2857C126.729 46.0874 126.687 45.875 126.688 45.6606C126.688 45.2288 126.86 44.8147 127.167 44.5094C127.472 44.2041 127.888 44.0325 128.321 44.0325H137.729C137.945 44.0299 138.161 44.0699 138.361 44.1505C138.562 44.2311 138.745 44.3505 138.899 44.5018C139.054 44.6532 139.176 44.8335 139.26 45.0324C139.345 45.2313 139.388 45.4448 139.389 45.6606C139.389 45.877 139.346 46.0912 139.262 46.2909C139.179 46.4906 139.056 46.6717 138.902 46.8238C138.747 46.9758 138.564 47.0958 138.363 47.1768C138.161 47.2577 137.946 47.2981 137.729 47.2954Z" stroke="#808080" stroke-miterlimit="10"/>
<path d="M209.962 249.756L228.227 262.198" stroke="#808080" stroke-miterlimit="10"/>
<path d="M228.2 271.584L196.267 249.816" stroke="#808080" stroke-miterlimit="10"/>
<path d="M158.669 249.756L176.927 262.198" stroke="#808080" stroke-miterlimit="10"/>
<path d="M176.9 271.584L144.967 249.816" stroke="#808080" stroke-miterlimit="10"/>
<path d="M334.941 292.22H40.6051" stroke="#263238" stroke-linecap="round" stroke-linejoin="round"/>
<path d="M277.069 247.605H210.91V302.518H277.069V247.605Z" fill="#263238" stroke="#808080" stroke-miterlimit="10"/>
<path d="M258.286 247.605H210.91V302.518H258.286V247.605Z" fill="#D1D1D1" stroke="#808080" stroke-miterlimit="10"/>
<path d="M252.729 259.31L248.717 250.466L244.692 259.29L246.775 259.297V268.335L250.639 268.342L250.645 259.303L252.729 259.31Z" fill="#263238"/>
<path d="M247.111 270.191V274.707C247.111 275.122 247.239 275.27 247.447 275.276C247.656 275.283 247.783 275.122 247.783 274.707V270.231H248.401V274.68C248.401 275.618 248.072 276.154 247.434 276.147C246.795 276.141 246.466 275.611 246.466 274.68V270.224L247.111 270.191Z" fill="#263238"/>
<path d="M250.767 271.651V272.409C250.767 273.347 250.451 273.856 249.799 273.856H249.49V276.053H248.818V270.231H249.772C250.451 270.231 250.767 270.713 250.767 271.651ZM249.49 271.035V273.045H249.799C250.008 273.045 250.115 272.911 250.115 272.496V271.571C250.115 271.156 250.001 271.015 249.792 271.015L249.49 271.035Z" fill="#263238"/>
<path d="M238.63 247.605H230.566V257.95H238.63V247.605Z" fill="#F5F5F5" stroke="#808080" stroke-miterlimit="10"/>
<path d="M331.501 247.605H265.342V302.518H331.501V247.605Z" fill="#263238" stroke="#808080" stroke-miterlimit="10"/>
<path d="M312.718 247.605H265.342V302.518H312.718V247.605Z" fill="#D1D1D1" stroke="#808080" stroke-miterlimit="10"/>
<path d="M293.062 247.605H284.998V257.95H293.062V247.605Z" fill="#F5F5F5" stroke="#808080" stroke-miterlimit="10"/>
<path d="M328.147 192.973H261.989V247.887H328.147V192.973Z" fill="#263238" stroke="#808080" stroke-miterlimit="10"/>
<path d="M309.365 192.973H261.989V247.887H309.365V192.973Z" fill="#D1D1D1" stroke="#808080" stroke-miterlimit="10"/>
<path d="M305.817 205.375L301.805 196.531L297.78 205.355L299.863 205.362V214.4L303.727 214.407L303.733 205.368L305.817 205.375Z" fill="#263238"/>
<path d="M300.199 216.256V220.772C300.199 221.187 300.327 221.334 300.535 221.341C300.744 221.348 300.871 221.187 300.871 220.772V216.263H301.489V220.711C301.489 221.649 301.16 222.185 300.522 222.179C299.883 222.172 299.554 221.643 299.554 220.711V216.256H300.199Z" fill="#263238"/>
<path d="M303.855 217.716V218.474C303.855 219.412 303.539 219.921 302.887 219.921H302.578V222.118H301.906V216.269H302.86C303.539 216.269 303.855 216.778 303.855 217.716ZM302.578 217.1V219.11H302.887C303.096 219.11 303.203 218.976 303.203 218.561V217.683C303.203 217.268 303.089 217.127 302.881 217.127L302.578 217.1Z" fill="#263238"/>
<path d="M289.709 192.973H281.638V203.318H289.709V192.973Z" fill="#F5F5F5" stroke="#808080" stroke-miterlimit="10"/>
<path d="M328.147 137.363H261.989V192.277H328.147V137.363Z" fill="#263238" stroke="#808080" stroke-miterlimit="10"/>
<path d="M309.365 137.363H261.989V192.277H309.365V137.363Z" fill="#D1D1D1" stroke="#808080" stroke-miterlimit="10"/>
<path d="M285.581 166.206L268.907 176.546L274.628 185.717L291.302 175.377L285.581 166.206Z" fill="#F5F5F5" stroke="#808080" stroke-miterlimit="10"/>
<path d="M232.771 273.215L216.097 283.555L221.818 292.726L238.492 282.386L232.771 273.215Z" fill="#F5F5F5" stroke="#808080" stroke-miterlimit="10"/>
<path d="M289.709 137.363H281.638V147.708H289.709V137.363Z" fill="#F5F5F5" stroke="#808080" stroke-miterlimit="10"/>
<path d="M252.957 90.6711H336.285V47.1212H252.957V90.6711Z" stroke="#808080" stroke-miterlimit="10"/>
<path d="M331.991 47.5031L335.821 55.1411H255.8L252.957 47.1212" stroke="#808080" stroke-miterlimit="10"/>
<path d="M331.991 55.3487L335.821 62.9935H255.8L252.957 54.9735" stroke="#808080" stroke-miterlimit="10"/>
<path d="M331.991 63.2011L335.821 70.8391H255.8L252.957 62.8259" stroke="#808080" stroke-miterlimit="10"/>
<path d="M331.991 71.0535L335.821 78.6915H255.8L252.957 70.6716" stroke="#808080" stroke-miterlimit="10"/>
<path d="M331.991 78.9059L335.821 86.5439H255.8L252.957 78.524" stroke="#808080" stroke-miterlimit="10"/>
<path d="M121.581 302.338C147.46 302.338 169.474 306.23 177.659 311.664L199.546 320.32L143.979 334.055L130.74 330.196C127.757 330.303 124.704 330.359 121.581 330.364C88.7201 330.364 62.0888 324.086 62.0888 316.347C62.0888 308.609 88.7201 302.338 121.581 302.338Z" fill="#263238"/>
<path d="M67.1423 209.516C67.1423 209.516 65.1263 214.279 63.5 219.043C61.8738 223.807 61.3295 227.391 62.0082 231.016C62.6869 234.641 66.0402 238.54 69.4001 239.223C72.7601 239.907 92.1473 233.555 97.147 229.696C102.147 225.837 98.7396 215.867 94.6472 213.616C90.5547 211.365 67.1423 209.516 67.1423 209.516Z" fill="white" stroke="#263238" stroke-linecap="round" stroke-linejoin="round"/>
<path d="M71.7992 213.67C71.7992 213.67 76.8929 216.892 79.628 217.757C82.363 218.621 87.3291 219.619 87.3291 219.619C87.3291 219.619 78.7544 218.996 77.0139 219.74C75.2734 220.484 73.7816 221.227 73.7816 221.227C73.7816 221.227 86.2136 220.859 88.9486 222.715C91.6836 224.571 95.0369 227.405 95.0369 227.405L91.1864 217.489L91.8046 216.376C91.8046 216.376 79.8766 216.517 71.7992 213.67Z" fill="#263238" stroke="#263238" stroke-linecap="round" stroke-linejoin="round"/>
<path d="M127.085 168.632C127.085 168.632 136.607 173.845 137.917 179.238C138.615 182.3 139.746 185.246 141.277 187.989L95.3393 216.289C95.3393 216.289 85.4475 218.52 77.7867 216.102C70.1259 213.683 66.2149 212.564 66.3628 209.402C66.5106 206.239 69.5413 204.002 70.4753 202.327C71.4094 200.652 79.2516 182.407 83.7339 175.332C88.2161 168.257 89.5198 162.488 98.6725 158.763C103.987 156.543 109.711 155.463 115.472 155.594L127.085 168.632Z" fill="#0686E3" stroke="#263238" stroke-linecap="round" stroke-linejoin="round"/>
<path d="M75.0315 210.494C73.916 210.494 72.8004 210.494 71.6715 210.393" stroke="#263238" stroke-linecap="round" stroke-linejoin="round"/>
<path d="M89.708 209.261C85.3453 209.955 80.9404 210.356 76.5233 210.46" stroke="#263238" stroke-linecap="round" stroke-linejoin="round"/>
<path d="M93.0948 208.692C93.0948 208.692 92.5237 208.812 91.5157 208.986" stroke="#263238" stroke-linecap="round" stroke-linejoin="round"/>
<path d="M89.2241 202.199C85.0443 204.296 77.8875 207.439 70.6097 208.537" stroke="#263238" stroke-linecap="round" stroke-linejoin="round"/>
<path d="M92.9403 200.189C92.9403 200.189 92.2683 200.591 91.099 201.221" stroke="#263238" stroke-linecap="round" stroke-linejoin="round"/>
<path d="M68.4392 207.144C70.2993 206.268 72.2272 205.543 74.2049 204.98" stroke="#263238" stroke-linecap="round" stroke-linejoin="round"/>
<path d="M125.028 174.776L119.988 189.107L117.751 189.483L120.365 182.407" stroke="#263238" stroke-linecap="round" stroke-linejoin="round"/>
<path d="M131.56 174.528L129.403 180.679L127.972 174.24L131.56 174.528Z" fill="#0686E3" stroke="#263238" stroke-linecap="round" stroke-linejoin="round"/>
<path d="M127.763 166.026L131.56 174.528L123.953 175.674L127.763 166.026Z" fill="#0686E3" stroke="#263238" stroke-linecap="round" stroke-linejoin="round"/>
<path d="M152.52 147.474C152.52 147.474 150.08 151.052 149.791 152.197C149.503 153.343 147.493 157.35 145.914 159.641C144.335 161.932 138.596 168.351 135.162 168.947C131.728 169.544 128.704 167.085 128.704 167.085L123.933 175.674L118.476 154.904L122.065 152.325C121.15 151.024 120.648 149.478 120.627 147.889C120.627 145.316 122.206 142.167 122.206 142.167C122.206 142.167 124.222 138.583 127.521 136.868C130.821 135.152 143.455 137.585 147.762 139.018C152.07 140.452 153.091 144.325 152.52 147.474Z" fill="white" stroke="#263238" stroke-linecap="round" stroke-linejoin="round"/>
<path d="M128.691 167.085L125.048 163.802L126.675 169.691L128.691 167.085Z" fill="#263238" stroke="#263238" stroke-linecap="round" stroke-linejoin="round"/>
<path d="M143.905 148.479L142.326 150.623C142.326 150.623 142.756 157.061 141.465 157.638C140.175 158.214 137.433 157.497 136.728 156.351" stroke="#263238" stroke-linecap="round" stroke-linejoin="round"/>
<path d="M136.298 158.495C135.196 157.133 134.188 155.698 133.28 154.2C132.131 152.19 130.411 152.914 129.403 154.2C128.395 155.487 129.262 157.349 130.7 158.22C132.138 159.091 135.579 160.21 136.298 158.495Z" stroke="#263238" stroke-linecap="round" stroke-linejoin="round"/>
<path d="M129.981 153.651C129.981 153.651 131.997 157.798 135.438 158.944" stroke="#263238" stroke-linecap="round" stroke-linejoin="round"/>
<path d="M137.958 148.552C137.55 147.881 136.978 147.322 136.298 146.928C135.617 146.533 134.848 146.315 134.06 146.294" stroke="#263238" stroke-width="2" stroke-linecap="round" stroke-linejoin="round"/>
<path d="M144.395 151.299C144.395 151.299 146.888 151.058 147.513 152.874" stroke="#263238" stroke-width="2" stroke-linecap="round" stroke-linejoin="round"/>
<path d="M149.2 151.085C149.2 151.085 149.328 149.075 145.168 148.948" stroke="#263238" stroke-linecap="round" stroke-linejoin="round"/>
<path d="M139.449 147.165C139.449 147.165 139.12 144.231 134.712 143.635" stroke="#263238" stroke-linecap="round" stroke-linejoin="round"/>
<path d="M122.3 142.053C123.189 140.605 124.3 139.306 125.593 138.201C127.886 138.389 130.166 138.713 132.42 139.172L133.139 140.318C133.139 140.318 128.832 146.187 127.253 146.187C125.673 146.187 126.103 142.891 124.665 142.033C124.3 141.844 123.893 141.746 123.48 141.749C123.068 141.753 122.663 141.857 122.3 142.053Z" fill="#263238" stroke="#263238" stroke-linecap="round" stroke-linejoin="round"/>
<path d="M120.647 147.902C120.661 147.205 120.751 146.511 120.916 145.832C120.654 148.398 121.917 150.395 122.374 150.623C122.812 150.889 123.201 151.23 123.523 151.628L122.045 152.298C121.154 151.003 120.668 149.473 120.647 147.902Z" fill="#263238" stroke="#263238" stroke-linecap="round" stroke-linejoin="round"/>
<path d="M122.139 141.477C122.139 141.477 129.175 139.903 139.765 142.65C150.356 145.397 152.641 148.124 152.641 148.124C152.641 148.124 154.119 142.281 154.771 138.616C155.423 134.951 148.568 129.236 144.617 127.662C140.666 126.087 132.42 127.394 129.652 128.211C126.883 129.029 124.759 132.727 124.276 133.806C123.792 134.884 122.139 141.477 122.139 141.477Z" fill="#0686E3" stroke="#263238" stroke-linecap="round" stroke-linejoin="round"/>
<path d="M152.641 148.124C152.641 148.124 158.628 155.433 157.231 155.916C155.833 156.398 150.443 150.643 144.53 149.45C138.616 148.258 133.072 145.825 131.09 143.876C130.076 142.955 129.174 141.917 128.402 140.787C128.402 140.787 142.386 140.204 152.641 148.124Z" fill="white" stroke="#263238" stroke-linecap="round" stroke-linejoin="round"/>
<path d="M120.217 152.485L125.384 175.386L118.785 177.965L114.619 154.629L120.217 152.485Z" fill="#0686E3" stroke="#263238" stroke-linecap="round" stroke-linejoin="round"/>
<path d="M140.377 276.864L133.099 289.105C133.099 289.105 134.692 290.445 134.692 291.149V293.413C134.692 293.413 143.784 296.589 145.833 297.5C147.883 298.411 148.333 301.125 148.105 301.808C147.876 302.492 143.334 303.396 139.013 303.396C134.692 303.396 126.5 301.353 126.5 301.353C126.5 301.353 121.043 301.353 119.222 300.22C117.401 299.088 118.087 296.361 118.55 294.324C119.014 292.288 119.686 290.244 119.686 290.244C119.686 290.244 119.457 286.84 119.914 285.936C120.371 285.031 121.05 284.12 121.05 283.209C121.05 282.298 124.235 269.139 124.235 269.139L140.377 276.864Z" fill="#263238" stroke="#263238" stroke-linecap="round" stroke-linejoin="round"/>
<path d="M133.549 236.731L152.197 287.524L111.024 263.947L92.0197 217.596L133.549 236.731Z" fill="#263238" stroke="#263238" stroke-linecap="round" stroke-linejoin="round"/>
<path d="M193.364 193.416L133.549 236.731L92.0197 217.596L143.784 180.042L193.364 193.416Z" fill="#DEDEDE" stroke="#263238" stroke-linecap="round" stroke-linejoin="round"/>
<path d="M193.364 193.416L210.648 244.208L152.197 287.524L133.549 236.731L193.364 193.416Z" fill="#D1D1D1" stroke="#263238" stroke-linecap="round" stroke-linejoin="round"/>
<path d="M169.911 187.298L113.92 227.619L118.113 241.113L110.5 236.557L105.628 223.88L159.831 184.344L169.911 187.298Z" fill="#F5F5F5" stroke="#263238" stroke-linecap="round" stroke-linejoin="round"/>
<path d="M108.067 224.892L106.878 224.336" stroke="#263238" stroke-linecap="round" stroke-linejoin="round"/>
<path d="M112.899 227.17L108.941 225.308" stroke="#263238" stroke-linecap="round" stroke-linejoin="round"/>
<path d="M153.151 238.955L146.405 234.205L145.054 243.766L147.157 242.513L149.919 249.836L153.823 247.525L151.055 240.202L153.151 238.955Z" fill="#263238"/>
<path d="M150.813 251.143L152.191 254.801C152.318 255.136 152.493 255.183 152.701 255.056C152.91 254.928 152.997 254.734 152.869 254.386L151.485 250.741L152.103 250.372L153.447 253.977C153.605 254.284 153.638 254.64 153.539 254.971C153.44 255.302 153.217 255.582 152.916 255.752C152.244 256.134 151.774 255.9 151.492 255.143L150.148 251.531L150.813 251.143Z" fill="#263238"/>
<path d="M154.959 250.131L155.194 250.747C155.274 250.898 155.324 251.062 155.34 251.231C155.356 251.4 155.339 251.57 155.289 251.733C155.239 251.895 155.158 252.046 155.049 252.177C154.941 252.308 154.807 252.416 154.657 252.496L154.348 252.684L155.02 254.459L154.348 254.848L152.574 250.131L153.541 249.562C154.173 249.146 154.677 249.367 154.959 250.131ZM153.487 250.399L154.092 252.007L154.401 251.819C154.61 251.699 154.684 251.518 154.556 251.183L154.287 250.473C154.159 250.131 154.005 250.091 153.797 250.218L153.487 250.399Z" fill="#263238"/>
<path d="M192.84 207.499L186.086 202.749L184.742 212.31L186.839 211.063L189.607 218.386L193.505 216.068L190.743 208.745L192.84 207.499Z" fill="#263238"/>
<path d="M190.515 219.693L191.899 223.344C192.027 223.686 192.201 223.726 192.41 223.606C192.618 223.485 192.705 223.277 192.578 222.936L191.193 219.311L191.812 218.943L193.156 222.547C193.312 222.853 193.345 223.206 193.248 223.535C193.15 223.864 192.93 224.144 192.631 224.316C191.959 224.698 191.489 224.463 191.2 223.706L189.856 220.102L190.515 219.693Z" fill="#263238"/>
<path d="M194.647 218.641L194.883 219.257C195.034 219.564 195.063 219.915 194.963 220.242C194.863 220.567 194.642 220.843 194.345 221.013L194.036 221.194L194.708 222.976L194.036 223.365L192.262 218.641L193.23 218.065C193.881 217.69 194.359 217.911 194.647 218.641ZM193.176 218.916L193.781 220.517L194.09 220.336C194.298 220.209 194.372 220.035 194.244 219.666L193.975 218.956C193.848 218.621 193.693 218.581 193.485 218.701L193.176 218.916Z" fill="#263238"/>
<path d="M210.009 220.718L210.802 222.989" stroke="#263238" stroke-linecap="round" stroke-linejoin="round"/>
<path d="M201.126 195.298L209.384 218.949" stroke="#263238" stroke-linecap="round" stroke-linejoin="round"/>
<path d="M212.476 218.078L215.17 225.79" stroke="#263238" stroke-linecap="round" stroke-linejoin="round"/>
<path d="M205.494 198.099L211.804 216.169" stroke="#263238" stroke-linecap="round" stroke-linejoin="round"/>
<path d="M169.81 181.925L150.255 176.632" stroke="#263238" stroke-linecap="round" stroke-linejoin="round"/>
<path d="M175.536 183.473L171.867 182.481" stroke="#263238" stroke-linecap="round" stroke-linejoin="round"/>
<path d="M163.05 178.186L148.696 174.455" stroke="#263238" stroke-linecap="round" stroke-linejoin="round"/>
<path d="M157.264 288.241L154.939 289.889" stroke="#263238" stroke-linecap="round" stroke-linejoin="round"/>
<path d="M166.8 281.487L158.608 287.289" stroke="#263238" stroke-linecap="round" stroke-linejoin="round"/>
<path d="M169.602 283.356L163.991 287.397" stroke="#263238" stroke-linecap="round" stroke-linejoin="round"/>
<path d="M156.572 214.969C157.307 214.815 158.05 214.699 158.796 214.621C159.949 214.807 161.126 214.785 162.271 214.554C163.796 214.139 164.495 214.554 164.071 215.526C163.805 216.031 163.43 216.472 162.976 216.819C162.521 217.166 161.996 217.41 161.437 217.536C160.604 217.603 158.749 217.603 158.749 217.603L156.249 215.385L156.572 214.969Z" fill="white" stroke="#263238" stroke-linecap="round" stroke-linejoin="round"/>
<path d="M110.278 165.095C110.278 165.095 114.391 169.001 114.76 173.094C115.13 177.188 112.509 200.652 112.509 200.652C112.509 200.652 120.909 204.745 127.259 208.47C133.61 212.196 144.254 216.665 144.254 216.665C144.254 216.665 156.572 214.427 157.506 214.802C158.44 215.177 163.487 220.571 163.668 221.314C163.85 222.058 162.734 226.339 162.734 227.09C162.734 227.84 161.767 227.854 161.767 227.854H161.054L160.543 228.872C160.415 229.128 160.225 229.348 159.99 229.512C159.756 229.677 159.484 229.782 159.199 229.817L158.454 229.897C158.454 229.897 157.15 231.391 156.028 230.46C154.905 229.529 152.479 225.428 152.479 225.428C152.479 225.428 146.694 224.872 145.195 224.316C143.965 223.791 142.778 223.168 141.647 222.453C141.647 222.453 107.133 213.683 103.773 212.752C100.413 211.82 99.1025 210.889 97.7988 208.283C96.4952 205.677 93.5249 179.808 93.5249 177.577" fill="white"/>
<path d="M110.278 165.095C110.278 165.095 114.391 169.001 114.76 173.094C115.13 177.188 112.509 200.652 112.509 200.652C112.509 200.652 120.909 204.745 127.259 208.47C133.61 212.196 144.254 216.665 144.254 216.665C144.254 216.665 156.572 214.427 157.506 214.802C158.44 215.177 163.487 220.571 163.668 221.314C163.85 222.058 162.734 226.339 162.734 227.09C162.734 227.84 161.767 227.854 161.767 227.854H161.054L160.543 228.872C160.415 229.128 160.225 229.348 159.99 229.512C159.756 229.677 159.484 229.782 159.199 229.817L158.454 229.897C158.454 229.897 157.15 231.391 156.028 230.46C154.905 229.529 152.479 225.428 152.479 225.428C152.479 225.428 146.694 224.872 145.195 224.316C143.965 223.791 142.778 223.168 141.647 222.453C141.647 222.453 107.133 213.683 103.773 212.752C100.413 211.82 99.1025 210.889 97.7988 208.283C96.4952 205.677 93.5249 179.808 93.5249 177.577" stroke="#263238" stroke-linecap="round" stroke-linejoin="round"/>
<path d="M152.291 221.321C152.291 221.321 156.216 224.671 156.216 225.978C156.216 227.284 158.03 230.145 158.03 230.145" stroke="#263238" stroke-linecap="round" stroke-linejoin="round"/>
<path d="M154.63 218.916C154.63 218.916 157.271 221.824 157.822 222.728C158.373 223.633 159.166 229.797 159.166 229.797" stroke="#263238" stroke-linecap="round" stroke-linejoin="round"/>
<path d="M156.78 217.187C156.78 217.187 160.14 220.303 160.187 221.482C160.234 222.661 161.068 227.833 161.068 227.833" stroke="#263238" stroke-linecap="round" stroke-linejoin="round"/>
<path d="M110.083 164.773C110.083 164.773 114.391 169.001 114.787 173.094C115.049 175.975 113.839 188.411 113.094 195.553C109.351 194.179 102.241 192.705 95.8702 197.864C94.7748 190.025 93.7064 180.27 93.5249 177.577" fill="#0686E3"/>
<path d="M110.083 164.773C110.083 164.773 114.391 169.001 114.787 173.094C115.049 175.975 113.839 188.411 113.094 195.553C109.351 194.179 102.241 192.705 95.8702 197.864C94.7748 190.025 93.7064 180.27 93.5249 177.577" stroke="#263238" stroke-linecap="round" stroke-linejoin="round"/>
<path d="M112.509 200.652C112.509 200.652 108.215 199.345 106.535 199.72" stroke="#263238" stroke-linecap="round" stroke-linejoin="round"/>
<path d="M99.6804 318.759C99.6804 318.759 104.915 324.655 108.779 327.831C112.643 331.007 111.051 333.955 108.322 334.632C105.594 335.308 100.137 334.183 95.131 332.622C90.1246 331.06 86.0388 325.821 86.0388 325.821C86.0388 325.821 80.347 322.19 79.8968 320.829C79.4465 319.469 84.668 313.111 84.668 313.111C84.668 313.111 98.3163 318.759 99.6804 318.759Z" fill="#0686E3" stroke="#263238" stroke-linecap="round" stroke-linejoin="round"/>
<path d="M79.8968 320.803C79.7355 320.334 80.2597 319.262 81.019 318.062C84.0363 320.655 89.4392 328.052 93.5384 330.122C97.0126 331.851 104.714 333.72 110.123 333.72C109.609 334.175 108.99 334.494 108.322 334.652C105.594 335.322 100.137 334.203 95.131 332.642C90.1246 331.08 86.0389 325.841 86.0389 325.841C86.0389 325.841 80.347 322.163 79.8968 320.803Z" fill="white" stroke="#263238" stroke-linecap="round" stroke-linejoin="round"/>
<path d="M71.4632 222.219C71.4632 222.219 80.1051 218.587 86.4757 221.08C92.8462 223.572 104.216 233.81 108.988 241.039C113.759 248.269 117.885 251.471 117.63 258.272C117.374 265.072 106.716 295.457 106.259 298.177C105.802 300.897 102.899 312.187 102.899 312.187C103.058 313.618 103.058 315.063 102.899 316.495C102.691 318.223 102.133 321.185 102.133 321.185C102.133 321.185 94.4859 320.783 90.1649 318.739C87.7948 317.675 85.5758 316.303 83.5659 314.659C83.8609 312.96 84.3105 311.291 84.9099 309.674C85.8238 307.403 88.7605 303.376 89.2174 302.009C89.6744 300.642 90.8101 286.82 90.8101 281.152C90.8101 275.484 93.3099 261.421 93.3099 260.516C93.5081 259.21 93.8112 257.921 94.2171 256.664C94.2171 256.664 74.8904 247.136 69.6555 242.594C64.4207 238.051 62.1964 233.803 61.679 229.743C61.3094 226.802 62.5324 222.594 62.5324 222.594" fill="white"/>
<path d="M71.4632 222.219C71.4632 222.219 80.1051 218.587 86.4757 221.08C92.8462 223.572 104.216 233.81 108.988 241.039C113.759 248.269 117.885 251.471 117.63 258.272C117.374 265.072 106.716 295.457 106.259 298.177C105.802 300.897 102.899 312.187 102.899 312.187C103.058 313.618 103.058 315.063 102.899 316.495C102.691 318.223 102.133 321.185 102.133 321.185C102.133 321.185 94.4859 320.783 90.1649 318.739C87.7948 317.675 85.5758 316.303 83.5659 314.659C83.8609 312.96 84.3105 311.291 84.9099 309.674C85.8238 307.403 88.7605 303.376 89.2174 302.009C89.6744 300.642 90.8101 286.82 90.8101 281.152C90.8101 275.484 93.3099 261.421 93.3099 260.516C93.5081 259.21 93.8112 257.921 94.2171 256.664C94.2171 256.664 74.8904 247.136 69.6555 242.594C64.4207 238.051 62.1964 233.803 61.679 229.743C61.3094 226.802 62.5324 222.594 62.5324 222.594" stroke="#263238" stroke-linecap="round" stroke-linejoin="round"/>
<path d="M69.4136 214.279C69.4136 214.279 66.4571 217.455 66.9141 218.815C67.3707 220.175 69.4136 222.661 68.5064 222.661C67.5992 222.661 66.2353 224.705 66.2353 224.705L68.251 225.154L67.3438 230.373L94.6606 252.141C95.9354 253.176 97.3056 254.086 98.7531 254.861L97.1604 257.582L100.117 258.037C100.117 258.037 95.7963 262.345 95.3461 265.97C94.8958 269.595 91.0385 307.644 90.5816 308.776C90.1246 309.908 89.4459 310.592 89.2376 311.724C89.1227 312.932 89.1227 314.148 89.2376 315.356C89.2376 316.026 89.0091 317.62 89.0091 317.62" stroke="#263238" stroke-linecap="round" stroke-linejoin="round"/>
</g>
</g>
<defs>
<clipPath id="clip0_742_436">
<rect width="336" height="335" fill="white"/>
</clipPath>
</defs>
</svg>
