<svg width="354" height="289" viewBox="0 0 354 289" fill="none" xmlns="http://www.w3.org/2000/svg">
<g clip-path="url(#clip0_742_229)">
<path d="M422 254.805H0V255.018H422V254.805Z" fill="#EBEBEB"/>
<path d="M146.198 260.241H126.634V260.454H146.198V260.241Z" fill="#EBEBEB"/>
<path d="M387.202 264.807H339.372V265.02H387.202V264.807Z" fill="#EBEBEB"/>
<path d="M83.8852 264.807H36.0557V265.02H83.8852V264.807Z" fill="#EBEBEB"/>
<path d="M200.028 216.806H37.06C35.7834 216.803 34.5597 216.29 33.6578 215.378C32.7558 214.466 32.2492 213.229 32.2492 211.941V-19.3177C32.2604 -20.5991 32.7718 -21.8243 33.6726 -22.7272C34.5734 -23.6301 35.7906 -24.1378 37.06 -24.14H200.028C201.306 -24.14 202.532 -23.6274 203.436 -22.7151C204.34 -21.8027 204.847 -20.5653 204.847 -19.2751V211.941C204.847 213.231 204.34 214.468 203.436 215.381C202.532 216.293 201.306 216.806 200.028 216.806ZM37.06 -23.9696C35.8393 -23.9673 34.6694 -23.4762 33.807 -22.6041C32.9446 -21.7319 32.4602 -20.55 32.4602 -19.3177V211.941C32.4602 213.173 32.9446 214.355 33.807 215.227C34.6694 216.099 35.8393 216.59 37.06 216.593H200.028C201.249 216.588 202.418 216.097 203.282 215.225C204.145 214.354 204.632 213.173 204.636 211.941V-19.3177C204.632 -20.5501 204.145 -21.7307 203.282 -22.6021C202.418 -23.4736 201.249 -23.9651 200.028 -23.9696H37.06Z" fill="#EBEBEB"/>
<path d="M382.594 216.806H219.617C218.34 216.801 217.117 216.287 216.214 215.376C215.312 214.464 214.802 213.23 214.798 211.941V-19.3177C214.811 -20.5998 215.325 -21.825 216.227 -22.7277C217.129 -23.6304 218.347 -24.1378 219.617 -24.14H382.594C383.862 -24.1356 385.077 -23.6269 385.976 -22.7242C386.875 -21.8215 387.385 -20.5976 387.396 -19.3177V211.941C387.397 212.578 387.274 213.21 387.033 213.8C386.792 214.389 386.439 214.925 385.993 215.377C385.547 215.829 385.017 216.188 384.434 216.433C383.851 216.678 383.225 216.804 382.594 216.806ZM219.617 -23.9696C218.396 -23.9651 217.227 -23.4736 216.364 -22.6021C215.5 -21.7307 215.013 -20.5501 215.009 -19.3177V211.941C215.013 213.173 215.5 214.354 216.364 215.225C217.227 216.097 218.396 216.588 219.617 216.593H382.594C383.814 216.588 384.984 216.097 385.847 215.225C386.71 214.354 387.197 213.173 387.202 211.941V-19.3177C387.197 -20.5501 386.71 -21.7307 385.847 -22.6021C384.984 -23.4736 383.814 -23.9651 382.594 -23.9696H219.617Z" fill="#EBEBEB"/>
<path d="M83.3028 40.1093H153.608C154.315 40.1082 155.016 40.248 155.67 40.5208C156.324 40.7936 156.918 41.1939 157.418 41.6989C157.918 42.2039 158.315 42.8036 158.585 43.4636C158.855 44.1236 158.994 44.8309 158.993 45.5451V254.609H77.9687V45.5365C77.9709 44.1052 78.5322 42.7325 79.5309 41.7163C80.5296 40.7002 81.8849 40.1228 83.3028 40.1093Z" fill="#F5F5F5"/>
<path d="M95.1019 52.7786H84.6532V76.2597H95.1019V52.7786Z" fill="#EBEBEB"/>
<path d="M152.241 52.7786H141.792V76.2597H152.241V52.7786Z" fill="#EBEBEB"/>
<path d="M114.143 52.7786H103.694V76.2597H114.143V52.7786Z" fill="#EBEBEB"/>
<path d="M133.192 52.7786H122.743V76.2597H133.192V52.7786Z" fill="#EBEBEB"/>
<path d="M95.1019 89.8491H84.6532V113.33H95.1019V89.8491Z" fill="#EBEBEB"/>
<path d="M152.241 89.8491H141.792V113.33H152.241V89.8491Z" fill="#EBEBEB"/>
<path d="M114.143 89.8491H103.694V113.33H114.143V89.8491Z" fill="#EBEBEB"/>
<path d="M133.192 89.8491H122.743V113.33H133.192V89.8491Z" fill="#EBEBEB"/>
<path d="M95.1019 126.911H84.6532V150.392H95.1019V126.911Z" fill="#EBEBEB"/>
<path d="M152.241 126.911H141.792V150.392H152.241V126.911Z" fill="#EBEBEB"/>
<path d="M114.143 126.911H103.694V150.392H114.143V126.911Z" fill="#EBEBEB"/>
<path d="M133.192 126.911H122.743V150.392H133.192V126.911Z" fill="#EBEBEB"/>
<path d="M95.1019 163.982H84.6532V187.463H95.1019V163.982Z" fill="#EBEBEB"/>
<path d="M152.241 163.982H141.792V187.463H152.241V163.982Z" fill="#EBEBEB"/>
<path d="M114.143 163.982H103.694V187.463H114.143V163.982Z" fill="#EBEBEB"/>
<path d="M133.192 163.982H122.743V187.463H133.192V163.982Z" fill="#EBEBEB"/>
<path d="M95.1019 201.044H84.6532V224.525H95.1019V201.044Z" fill="#EBEBEB"/>
<path d="M152.241 201.044H141.792V224.525H152.241V201.044Z" fill="#EBEBEB"/>
<path d="M114.143 201.044H103.694V224.525H114.143V201.044Z" fill="#EBEBEB"/>
<path d="M133.192 201.044H122.743V224.525H133.192V201.044Z" fill="#EBEBEB"/>
<path d="M332.485 59.5946H382.822C383.983 59.5968 385.095 60.0634 385.916 60.8922C386.737 61.721 387.2 62.8444 387.202 64.0164V254.609H328.122V64.025C328.122 62.8544 328.581 61.7313 329.398 60.9012C330.216 60.0711 331.326 59.6013 332.485 59.5946Z" fill="#F5F5F5"/>
<path d="M345.128 71.1221H335.633V92.4647H345.128V71.1221Z" fill="#EBEBEB"/>
<path d="M362.447 71.1221H352.952V92.4647H362.447V71.1221Z" fill="#EBEBEB"/>
<path d="M345.128 104.819H335.633V126.161H345.128V104.819Z" fill="#EBEBEB"/>
<path d="M362.447 104.819H352.952V126.161H362.447V104.819Z" fill="#EBEBEB"/>
<path d="M345.128 138.524H335.633V159.866H345.128V138.524Z" fill="#EBEBEB"/>
<path d="M362.447 138.524H352.952V159.866H362.447V138.524Z" fill="#EBEBEB"/>
<path d="M345.128 172.212H335.633V193.555H345.128V172.212Z" fill="#EBEBEB"/>
<path d="M362.447 172.212H352.952V193.555H362.447V172.212Z" fill="#EBEBEB"/>
<path d="M345.128 205.917H335.633V227.26H345.128V205.917Z" fill="#EBEBEB"/>
<path d="M362.447 205.917H352.952V227.26H362.447V205.917Z" fill="#EBEBEB"/>
<path d="M217.17 5.04953H298.936C300.597 5.04953 302.19 5.71558 303.365 6.90115C304.539 8.08673 305.199 9.69471 305.199 11.3714V254.609H210.916V11.3714C210.916 9.69619 211.574 8.08949 212.747 6.90416C213.919 5.71883 215.51 5.05179 217.17 5.04953Z" fill="#F5F5F5"/>
<path d="M230.893 19.7976H218.739V47.1128H230.893V19.7976Z" fill="#EBEBEB"/>
<path d="M297.367 19.7976H285.213V47.1128H297.367V19.7976Z" fill="#EBEBEB"/>
<path d="M253.048 19.7976H240.895V47.1128H253.048V19.7976Z" fill="#EBEBEB"/>
<path d="M275.212 19.7976H263.058V47.1128H275.212V19.7976Z" fill="#EBEBEB"/>
<path d="M230.893 62.9259H218.739V90.241H230.893V62.9259Z" fill="#EBEBEB"/>
<path d="M297.367 62.9259H285.213V90.241H297.367V62.9259Z" fill="#EBEBEB"/>
<path d="M253.048 62.9259H240.895V90.241H253.048V62.9259Z" fill="#EBEBEB"/>
<path d="M275.212 62.9259H263.058V90.241H275.212V62.9259Z" fill="#EBEBEB"/>
<path d="M230.893 106.054H218.739V133.369H230.893V106.054Z" fill="#EBEBEB"/>
<path d="M297.367 106.054H285.213V133.369H297.367V106.054Z" fill="#EBEBEB"/>
<path d="M253.048 106.054H240.895V133.369H253.048V106.054Z" fill="#EBEBEB"/>
<path d="M275.212 106.054H263.058V133.369H275.212V106.054Z" fill="#EBEBEB"/>
<path d="M230.893 149.174H218.739V176.489H230.893V149.174Z" fill="#EBEBEB"/>
<path d="M297.367 149.174H285.213V176.489H297.367V149.174Z" fill="#EBEBEB"/>
<path d="M253.048 149.174H240.895V176.489H253.048V149.174Z" fill="#EBEBEB"/>
<path d="M275.212 149.174H263.058V176.489H275.212V149.174Z" fill="#EBEBEB"/>
<path d="M230.893 192.294H218.739V219.609H230.893V192.294Z" fill="#EBEBEB"/>
<path d="M297.367 192.294H285.213V219.609H297.367V192.294Z" fill="#EBEBEB"/>
<path d="M253.048 192.294H240.895V219.609H253.048V192.294Z" fill="#EBEBEB"/>
<path d="M275.212 192.294H263.058V219.609H275.212V192.294Z" fill="#EBEBEB"/>
<path d="M210.907 94.4328H158.967V254.617H210.907V94.4328Z" fill="#E6E6E6"/>
<path d="M328.156 111.584H305.207V254.609H328.156V111.584Z" fill="#E6E6E6"/>
<path d="M77.9181 254.609H32.4602V187.735L77.9181 172.212V254.609Z" fill="#E6E6E6"/>
<path d="M211 293.281C301.378 293.281 374.643 287.22 374.643 279.743C374.643 272.266 301.378 266.205 211 266.205C120.622 266.205 47.3568 272.266 47.3568 279.743C47.3568 287.22 120.622 293.281 211 293.281Z" fill="#F5F5F5"/>
<path d="M251.242 226.28H236.894C229.425 226.28 223.39 237.211 223.39 250.698C223.39 264.185 229.441 275.108 236.894 275.108H251.242C258.711 275.108 264.746 264.177 264.746 250.698C264.746 237.22 258.711 226.28 251.242 226.28Z" fill="#263238"/>
<mask id="mask0_742_229" style="mask-type:luminance" maskUnits="userSpaceOnUse" x="223" y="226" width="42" height="50">
<path d="M251.242 226.28H236.894C229.425 226.28 223.39 237.211 223.39 250.698C223.39 264.185 229.441 275.108 236.894 275.108H251.242C258.711 275.108 264.746 264.177 264.746 250.698C264.746 237.22 258.711 226.28 251.242 226.28Z" fill="white"/>
</mask>
<g mask="url(#mask0_742_229)">
<path opacity="0.05" d="M268.122 226.28H253.774C246.305 226.28 240.27 237.211 240.27 250.698C240.27 264.185 246.321 275.108 253.774 275.108H268.122C275.591 275.108 281.626 264.177 281.626 250.698C281.626 237.22 275.591 226.28 268.122 226.28Z" fill="white"/>
</g>
<path d="M367.469 231.511L116.219 231.332V69.3244H367.469V231.511Z" fill="url(#paint0_linear_742_229)"/>
<path opacity="0.3" d="M367.469 69.3244H197.184V231.503H367.469V69.3244Z" fill="#263238"/>
<path opacity="0.2" d="M197.184 69.3244H116.219V234.706H197.184V69.3244Z" fill="white"/>
<path opacity="0.1" d="M116.826 76.8561H367.469" stroke="white" stroke-width="2" stroke-linecap="round" stroke-linejoin="round"/>
<path opacity="0.1" d="M116.826 83.868H367.469" stroke="white" stroke-width="2" stroke-linecap="round" stroke-linejoin="round"/>
<path opacity="0.1" d="M116.826 90.8715H367.469" stroke="white" stroke-width="2" stroke-linecap="round" stroke-linejoin="round"/>
<path opacity="0.1" d="M116.826 97.8749H367.469" stroke="white" stroke-width="2" stroke-linecap="round" stroke-linejoin="round"/>
<path opacity="0.1" d="M116.826 104.887H367.469" stroke="white" stroke-width="2" stroke-linecap="round" stroke-linejoin="round"/>
<path opacity="0.1" d="M116.826 111.89H367.469" stroke="white" stroke-width="2" stroke-linecap="round" stroke-linejoin="round"/>
<path opacity="0.1" d="M116.826 118.894H367.469" stroke="white" stroke-width="2" stroke-linecap="round" stroke-linejoin="round"/>
<path opacity="0.1" d="M116.826 125.897H367.469" stroke="white" stroke-width="2" stroke-linecap="round" stroke-linejoin="round"/>
<path opacity="0.1" d="M116.826 132.909H367.469" stroke="white" stroke-width="2" stroke-linecap="round" stroke-linejoin="round"/>
<path opacity="0.1" d="M116.826 139.913H367.469" stroke="white" stroke-width="2" stroke-linecap="round" stroke-linejoin="round"/>
<path opacity="0.1" d="M116.826 146.916H367.469" stroke="white" stroke-width="2" stroke-linecap="round" stroke-linejoin="round"/>
<path opacity="0.1" d="M116.826 153.928H367.469" stroke="white" stroke-width="2" stroke-linecap="round" stroke-linejoin="round"/>
<path opacity="0.1" d="M116.826 160.931H367.469" stroke="white" stroke-width="2" stroke-linecap="round" stroke-linejoin="round"/>
<path opacity="0.1" d="M116.826 167.935H367.469" stroke="white" stroke-width="2" stroke-linecap="round" stroke-linejoin="round"/>
<path opacity="0.1" d="M116.826 174.938H367.469" stroke="white" stroke-width="2" stroke-linecap="round" stroke-linejoin="round"/>
<path opacity="0.1" d="M116.826 181.95H367.469" stroke="white" stroke-width="2" stroke-linecap="round" stroke-linejoin="round"/>
<path opacity="0.1" d="M116.826 188.954H367.469" stroke="white" stroke-width="2" stroke-linecap="round" stroke-linejoin="round"/>
<path opacity="0.1" d="M116.826 195.957H367.469" stroke="white" stroke-width="2" stroke-linecap="round" stroke-linejoin="round"/>
<path opacity="0.1" d="M116.826 202.969H367.469" stroke="white" stroke-width="2" stroke-linecap="round" stroke-linejoin="round"/>
<path opacity="0.1" d="M116.826 209.973H367.469" stroke="white" stroke-width="2" stroke-linecap="round" stroke-linejoin="round"/>
<path opacity="0.1" d="M116.826 216.976H367.469" stroke="white" stroke-width="2" stroke-linecap="round" stroke-linejoin="round"/>
<path opacity="0.1" d="M116.826 223.988H367.469" stroke="white" stroke-width="2" stroke-linecap="round" stroke-linejoin="round"/>
<path d="M70.1111 229.466H56.835C49.9142 229.466 44.31 239.588 44.31 252.078C44.31 264.569 49.9142 274.682 56.835 274.682H70.1111C77.0319 274.682 82.636 264.56 82.636 252.078C82.636 239.597 77.0319 229.466 70.1111 229.466Z" fill="#263238"/>
<path opacity="0.05" d="M86.9995 229.466H73.715C66.7942 229.466 61.19 239.588 61.19 252.078C61.19 264.569 66.7942 274.682 73.715 274.682H86.9995C93.9119 274.682 99.5245 264.56 99.5245 252.078C99.5245 239.597 93.9119 229.466 86.9995 229.466Z" fill="white"/>
<path d="M62.7261 185.307H56.4467C55.2145 185.35 54.2017 184.021 54.1764 182.334C54.1595 182.158 54.1595 181.981 54.1764 181.805L55.8644 162.661C56.0754 160.693 57.2823 159.253 58.734 159.159H65.0724C66.2962 159.159 67.309 160.463 67.3343 162.15C67.3343 162.32 67.3343 162.491 67.3343 162.661L65.6463 181.805C65.3931 183.748 64.144 185.256 62.7261 185.307Z" fill="#263238"/>
<path d="M69.0054 122.072L56.894 188.008L188.752 240.15L187.832 110.203L158.832 109.351H79.3951C74.618 109.309 70.4065 114.489 69.0054 122.072Z" fill="url(#paint1_linear_742_229)"/>
<path d="M167.112 132.679C162.191 132.458 157.777 136.53 156.334 142.605L146.358 184.796H127.157L126.11 240.457H189.267" fill="url(#paint2_linear_742_229)"/>
<path d="M70.896 181.252C68.9632 181.252 67.4018 178.747 67.4018 175.663C67.401 175.125 67.4518 174.588 67.5538 174.061L74.8037 135.346C75.4114 132.134 77.2682 129.936 79.3698 129.944H148.73C149.481 129.944 150.097 130.915 150.097 132.125C150.099 132.34 150.079 132.554 150.038 132.764C148.519 140.739 143.581 167.16 141.691 177.264C141.252 179.633 139.885 181.252 138.315 181.252H70.896Z" fill="#263238"/>
<path d="M134.719 198.411C134.718 199.089 134.67 199.767 134.576 200.439L134.213 202.935L134.002 204.409L132.449 215.178L129.917 232.687L129.216 237.552H31.0676V232.687L31.1352 215.178L31.228 204.707V200.447C30.384 194.824 33.0764 189.371 37.1782 188.238C37.6595 188.105 38.1563 188.04 38.6552 188.042H127.157C131.335 188.008 134.719 192.677 134.719 198.411Z" fill="url(#paint3_linear_742_229)"/>
<path d="M184.608 135.184V176.685C184.608 179.198 183.334 181.243 181.755 181.252H157.769C156.191 181.252 154.916 179.207 154.916 176.685C154.916 176.274 154.95 175.863 155.017 175.458L162.411 133.028C162.765 130.992 163.947 129.62 165.264 129.697L181.857 130.617C183.393 130.711 184.608 132.73 184.608 135.184Z" fill="#263238"/>
<path opacity="0.1" d="M111.357 129.944H98.1066L82.8892 181.252H96.1485L111.357 129.944Z" fill="white"/>
<path opacity="0.1" d="M121.671 129.944H115.341L100.132 181.252H106.454L121.671 129.944Z" fill="white"/>
<path d="M160.149 215.178V232.687H31.0845L31.152 215.178H160.149Z" fill="black"/>
<path d="M142.172 215.178H130.238L108.775 227.907V232.687H160.149V215.178H142.172Z" fill="white"/>
<path d="M53.3324 227.907V232.687H31.0845L31.152 215.178H31.8779L53.3324 227.907Z" fill="white"/>
<path opacity="0.3" d="M188.811 240.457L187.832 110.203L170.108 109.351C165.686 109.13 160.579 114.319 159.288 120.334L146.442 188.008H141.438C135.816 188.008 131.968 192.14 131.976 196.528L132.052 240.474H188.811" fill="#263238"/>
<path d="M134.39 203.548C134.388 203.71 134.353 203.869 134.286 204.016C134.219 204.163 134.122 204.294 134.002 204.4C133.796 204.594 133.524 204.701 133.242 204.699H31.228V202.381H133.268C133.462 202.382 133.653 202.432 133.823 202.527C133.992 202.623 134.135 202.76 134.238 202.927C134.345 203.116 134.397 203.331 134.39 203.548Z" fill="white"/>
<path d="M49.2221 202.39V204.707H31.1942L31.2027 202.39H49.2221Z" fill="#263238"/>
<path d="M134.39 203.548C134.388 203.71 134.353 203.869 134.286 204.016C134.219 204.163 134.122 204.294 134.002 204.4C133.796 204.594 133.524 204.701 133.242 204.699H108.496V202.381H133.242C133.437 202.382 133.628 202.432 133.797 202.527C133.967 202.623 134.11 202.76 134.213 202.927C134.328 203.113 134.39 203.329 134.39 203.548Z" fill="#263238"/>
<path d="M371.976 235.72V236.18C371.976 237.31 371.532 238.393 370.74 239.192C369.949 239.991 368.875 240.44 367.756 240.44H32.5193C31.4001 240.44 30.3267 239.991 29.5353 239.192C28.7439 238.393 28.2993 237.31 28.2993 236.18V235.72C28.2993 234.59 28.7439 233.507 29.5353 232.708C30.3267 231.909 31.4001 231.46 32.5193 231.46H367.756C368.875 231.46 369.949 231.909 370.74 232.708C371.532 233.507 371.976 234.59 371.976 235.72Z" fill="#263238"/>
<path d="M106.859 234.962H56.894V237.424H106.859V234.962Z" fill="black"/>
<path d="M43.601 236.189C43.601 236.466 43.5196 236.738 43.3669 236.969C43.2143 237.2 42.9973 237.38 42.7433 237.487C42.4893 237.593 42.2098 237.622 41.9398 237.568C41.6699 237.514 41.4218 237.381 41.2267 237.186C41.0316 236.99 40.8983 236.74 40.8436 236.468C40.789 236.196 40.8153 235.914 40.9194 235.656C41.0235 235.399 41.2007 235.179 41.4286 235.024C41.6565 234.868 41.9249 234.784 42.2 234.783C42.3836 234.782 42.5656 234.817 42.7355 234.887C42.9055 234.957 43.06 235.061 43.1902 235.192C43.3204 235.322 43.4237 235.478 43.4942 235.649C43.5647 235.82 43.601 236.003 43.601 236.189Z" fill="white"/>
<path d="M118.793 236.189C118.793 236.467 118.711 236.738 118.558 236.97C118.405 237.201 118.188 237.381 117.933 237.487C117.679 237.594 117.399 237.622 117.129 237.567C116.859 237.513 116.61 237.379 116.416 237.183C116.221 236.986 116.088 236.736 116.035 236.463C115.981 236.19 116.008 235.908 116.114 235.651C116.219 235.394 116.398 235.174 116.627 235.02C116.856 234.865 117.125 234.783 117.4 234.783C117.583 234.783 117.764 234.819 117.933 234.89C118.102 234.96 118.256 235.064 118.385 235.195C118.514 235.325 118.617 235.48 118.687 235.651C118.757 235.821 118.793 236.004 118.793 236.189Z" fill="white"/>
<path d="M159.17 250.144C159.17 236.589 165.255 225.598 172.767 225.598H158.343C150.84 225.598 144.754 236.589 144.754 250.144C144.754 263.7 150.84 274.682 158.343 274.682H172.767C165.255 274.708 159.17 263.725 159.17 250.144Z" fill="black"/>
<path opacity="0.7" d="M159.17 250.144C159.17 236.589 165.255 225.598 172.767 225.598H158.343C150.84 225.598 144.754 236.589 144.754 250.144C144.754 263.7 150.84 274.682 158.343 274.682H172.767C165.255 274.708 159.17 263.725 159.17 250.144Z" fill="#263238"/>
<path d="M172.767 274.716C180.276 274.716 186.364 263.726 186.364 250.17C186.364 236.613 180.276 225.624 172.767 225.624C165.257 225.624 159.17 236.613 159.17 250.17C159.17 263.726 165.257 274.716 172.767 274.716Z" fill="#263238"/>
<path d="M173.856 269.306C179.179 269.306 183.494 260.738 183.494 250.17C183.494 239.601 179.179 231.034 173.856 231.034C168.532 231.034 164.217 239.601 164.217 250.17C164.217 260.738 168.532 269.306 173.856 269.306Z" fill="white"/>
<path d="M172.978 266.733C178.073 266.733 182.203 259.317 182.203 250.17C182.203 241.022 178.073 233.607 172.978 233.607C167.883 233.607 163.753 241.022 163.753 250.17C163.753 259.317 167.883 266.733 172.978 266.733Z" fill="#263238"/>
<path d="M170.952 262.26C174.672 262.26 177.687 256.847 177.687 250.17C177.687 243.493 174.672 238.08 170.952 238.08C167.232 238.08 164.217 243.493 164.217 250.17C164.217 256.847 167.232 262.26 170.952 262.26Z" fill="black"/>
<path opacity="0.5" d="M371.976 235.72V236.18C371.976 237.31 371.531 238.393 370.74 239.192C369.949 239.991 368.875 240.44 367.756 240.44H197.184V231.46H367.756C368.875 231.46 369.949 231.909 370.74 232.708C371.531 233.507 371.976 234.59 371.976 235.72Z" fill="black"/>
<path d="M318.964 250.144C318.964 236.589 325.05 225.598 332.553 225.598H318.137C310.626 225.598 304.54 236.589 304.54 250.144C304.54 263.7 310.626 274.682 318.137 274.682H332.536C325.05 274.708 318.964 263.725 318.964 250.144Z" fill="black"/>
<path opacity="0.7" d="M318.964 250.144C318.964 236.589 325.05 225.598 332.553 225.598H318.137C310.626 225.598 304.54 236.589 304.54 250.144C304.54 263.7 310.626 274.682 318.137 274.682H332.536C325.05 274.708 318.964 263.725 318.964 250.144Z" fill="#263238"/>
<path d="M332.553 274.716C340.062 274.716 346.15 263.726 346.15 250.17C346.15 236.613 340.062 225.624 332.553 225.624C325.044 225.624 318.956 236.613 318.956 250.17C318.956 263.726 325.044 274.716 332.553 274.716Z" fill="#263238"/>
<path d="M333.65 269.306C338.973 269.306 343.289 260.738 343.289 250.17C343.289 239.601 338.973 231.034 333.65 231.034C328.327 231.034 324.012 239.601 324.012 250.17C324.012 260.738 328.327 269.306 333.65 269.306Z" fill="white"/>
<path d="M332.764 266.733C337.859 266.733 341.989 259.317 341.989 250.17C341.989 241.022 337.859 233.607 332.764 233.607C327.669 233.607 323.539 241.022 323.539 250.17C323.539 259.317 327.669 266.733 332.764 266.733Z" fill="#263238"/>
<path d="M330.738 262.26C334.458 262.26 337.473 256.847 337.473 250.17C337.473 243.493 334.458 238.08 330.738 238.08C327.019 238.08 324.003 243.493 324.003 250.17C324.003 256.847 327.019 262.26 330.738 262.26Z" fill="black"/>
<path d="M277.558 130.072C277.389 133.352 277.094 136.522 276.613 139.751C276.197 143.086 275.473 146.375 274.452 149.574C274.13 150.506 273.726 151.407 273.245 152.267C272.91 152.846 272.502 153.379 272.03 153.851L271.793 154.073L271.658 154.175L271.591 154.235L271.304 154.431L270.738 154.831C269.305 155.76 267.797 156.566 266.231 157.242C263.259 158.561 260.171 159.594 257.006 160.327L255.909 157.293C258.593 155.794 261.345 154.26 263.851 152.667C265.077 151.908 266.255 151.075 267.379 150.171L267.751 149.855L267.936 149.694C267.936 149.694 268.012 149.566 268.105 149.361C268.352 148.81 268.555 148.241 268.713 147.657C269.094 146.256 269.396 144.834 269.616 143.397C269.877 141.915 270.088 140.407 270.266 138.873C270.612 135.832 270.907 132.713 271.11 129.68L277.558 130.072Z" fill="#CE7A63"/>
<path d="M257.91 157.336L252.727 155.717L253.698 162.048C253.698 162.048 257.074 161.622 258.762 159.713L257.91 157.336Z" fill="#CE7A63"/>
<path d="M246.448 159.79L246.735 160.642C246.897 161.112 247.206 161.517 247.615 161.795C248.025 162.073 248.513 162.21 249.005 162.184L251.647 162.065L250.668 155.717L247.765 156.867C247.214 157.089 246.769 157.516 246.524 158.061C246.278 158.606 246.251 159.225 246.448 159.79Z" fill="#CE7A63"/>
<path d="M283.685 123.929C283.685 125.906 282.74 129.808 281.93 132.739C281.331 134.843 280.833 136.445 280.833 136.445L279.643 136.147L269.835 133.642C269.683 128.53 269.877 122.966 274.899 119.626C278.039 117.531 283.66 120.41 283.685 123.929Z" fill="#263238"/>
<path opacity="0.3" d="M283.677 124.27C283.035 123.588 281.584 123.469 278.419 124.483C273.886 125.931 272.62 130.941 272.561 134.341L279.643 136.147L280.25 136.309L280.833 136.445C280.833 136.445 281.077 135.644 281.432 134.426C281.575 133.932 281.753 133.352 281.921 132.722C282.766 129.966 283.354 127.136 283.677 124.27Z" fill="black"/>
<path d="M263.556 282.98L257.572 280.867L261.336 267.781L267.312 269.902L263.556 282.98Z" fill="#CE7A63"/>
<path d="M343.508 267.474L338.638 271.138L328.671 260.939L333.54 257.276L343.508 267.474Z" fill="#CE7A63"/>
<path d="M336.646 269.647L341.904 265.259C341.993 265.181 342.107 265.138 342.225 265.138C342.343 265.138 342.457 265.181 342.546 265.259L346.58 268.957C346.671 269.048 346.743 269.156 346.792 269.275C346.841 269.394 346.866 269.522 346.866 269.651C346.866 269.78 346.841 269.908 346.792 270.027C346.743 270.146 346.671 270.254 346.58 270.345L346.496 270.422C344.639 271.921 343.66 272.552 341.347 274.477C339.929 275.662 336.95 278.499 334.984 280.135C333.017 281.771 331.312 279.905 331.987 279.044C335 275.193 335.701 272.654 336.055 270.575C336.141 270.206 336.349 269.878 336.646 269.647Z" fill="#263238"/>
<path d="M257.167 278.976L263.817 281.779C263.936 281.831 264.035 281.921 264.099 282.035C264.163 282.148 264.188 282.28 264.172 282.41L263.421 288.331C263.391 288.568 263.27 288.784 263.083 288.931C262.897 289.077 262.66 289.144 262.425 289.115C262.337 289.106 262.252 289.083 262.172 289.047C259.817 288.084 258.711 287.607 255.791 286.371L246.828 282.58C244.397 281.549 244.92 278.857 245.984 279.053C250.904 279.956 254.078 279.658 256.019 278.916C256.205 278.849 256.402 278.82 256.599 278.83C256.796 278.841 256.989 278.89 257.167 278.976Z" fill="#263238"/>
<path opacity="0.2" d="M261.336 267.789L259.403 274.529L265.227 277.187L267.32 269.902L261.336 267.789Z" fill="black"/>
<path opacity="0.2" d="M333.549 257.276L328.671 260.939L333.81 266.196L338.68 262.532L333.549 257.276Z" fill="black"/>
<path d="M302.084 155.913L277.44 156.271C274.064 137.007 273.22 127.814 273.22 123.392C273.215 122.289 273.592 121.22 274.286 120.367C274.979 119.515 275.945 118.934 277.018 118.723C278.52 118.425 280.394 118.084 282.276 117.82C282.917 117.735 283.567 117.65 284.209 117.582C287.93 117.259 291.67 117.205 295.4 117.42C295.957 117.42 296.506 117.471 297.088 117.505C299.62 117.667 301.933 117.991 303.578 118.246C304.17 118.343 304.7 118.672 305.052 119.163C305.403 119.653 305.547 120.264 305.452 120.862C305.456 120.904 305.456 120.947 305.452 120.99C304.726 124.398 304.135 127.422 303.663 130.115C302.912 134.375 302.439 137.851 302.16 140.884C301.738 145.884 301.713 150.909 302.084 155.913Z" fill="#263238"/>
<path opacity="0.1" d="M302.152 140.909C300.911 137.152 300.979 129.356 302.312 126.834L303.671 130.132C302.903 134.417 302.431 137.876 302.152 140.909Z" fill="black"/>
<path d="M277.44 156.271C277.44 156.271 273.22 192.49 269.413 215.059C266.4 232.729 258.787 269.51 258.787 269.51L268.671 273.046C268.671 273.046 279.989 234.706 281.972 218.331C289.948 194.722 295.687 156.092 295.687 156.092L277.44 156.271Z" fill="url(#paint4_linear_742_229)"/>
<path d="M257.184 271.981L268.62 276.045L270.148 272.339L257.741 267.551L257.184 271.981Z" fill="#263238"/>
<path opacity="0.1" d="M289.931 167.032L286.234 174.18C284.884 179.565 285.204 192.668 286.918 200.95C289.99 188.468 292.446 175.33 293.974 166.512L289.931 167.032Z" fill="black"/>
<path d="M282.791 156.271C282.791 156.271 287.205 196.809 295.451 219.319C299.586 230.608 330.266 264.075 330.266 264.075L337.186 258.485C337.186 258.485 317.732 224.721 309.225 215.885C305.756 196.289 310.119 166.912 302.059 155.922L282.791 156.271Z" fill="url(#paint5_linear_742_229)"/>
<path d="M330.848 266.469L338.967 259.755L336.773 256.117L327.886 263.93L330.848 266.469Z" fill="#263238"/>
<path d="M302.473 154.456L303.612 156.663C303.697 156.833 303.502 157.021 303.215 157.021L277.355 157.396C277.127 157.396 276.95 157.285 276.925 157.149L276.68 154.925C276.68 154.771 276.857 154.635 277.094 154.635L302.059 154.269C302.138 154.264 302.217 154.279 302.289 154.311C302.361 154.344 302.424 154.394 302.473 154.456Z" fill="#263238"/>
<path d="M299.122 157.336H299.806C299.932 157.336 300.034 157.259 300.025 157.183L299.662 154.286C299.662 154.201 299.544 154.141 299.409 154.141H298.776C298.641 154.141 298.54 154.218 298.557 154.294L298.911 157.183C298.869 157.251 298.995 157.336 299.122 157.336Z" fill="url(#paint6_linear_742_229)"/>
<path d="M279.212 157.609H279.887C280.022 157.609 280.115 157.532 280.107 157.447L279.761 154.558C279.761 154.473 279.626 154.405 279.491 154.405H278.815C278.68 154.405 278.579 154.482 278.588 154.567L278.942 157.455C278.959 157.54 279.077 157.609 279.212 157.609Z" fill="url(#paint7_linear_742_229)"/>
<path d="M289.171 157.447H289.846C289.982 157.447 290.083 157.37 290.074 157.285L289.72 154.397C289.72 154.303 289.593 154.235 289.458 154.243H288.783C288.648 154.243 288.555 154.32 288.555 154.405L288.91 157.293C288.901 157.396 289.036 157.447 289.171 157.447Z" fill="url(#paint8_linear_742_229)"/>
<path d="M244.456 130.771L281.035 125.701L286.099 161.954L250.178 166.93L244.456 130.771Z" fill="url(#paint9_linear_742_229)"/>
<path opacity="0.8" d="M244.456 130.771L281.035 125.701L286.099 161.954L250.178 166.93L244.456 130.771Z" fill="white"/>
<path opacity="0.2" d="M281.537 123.951L271.77 125.345L277.009 162.745L286.776 161.351L281.537 123.951Z" fill="url(#paint10_linear_742_229)"/>
<path d="M291.408 157.387L286.344 155.385L286.842 161.775C286.842 161.775 290.218 161.605 292.032 159.824L291.408 157.387Z" fill="#CE7A63"/>
<path d="M307.334 125.573C308.693 129.407 309.866 133.241 310.862 137.161C311.368 139.129 311.841 141.105 312.221 143.125C312.407 144.147 312.567 145.186 312.685 146.269C312.821 147.399 312.869 148.538 312.829 149.677C312.805 150.418 312.692 151.153 312.491 151.866C312.214 152.743 311.75 153.549 311.132 154.226C310.23 155.202 309.157 156.002 307.967 156.586C306.019 157.54 303.969 158.263 301.857 158.742C297.907 159.666 293.88 160.211 289.83 160.369L289.433 157.157C291.281 156.714 293.172 156.22 295.012 155.7C296.852 155.18 298.683 154.601 300.439 153.954C302.115 153.372 303.732 152.627 305.266 151.73C305.824 151.401 306.321 150.977 306.735 150.477C306.845 150.307 306.845 150.264 306.828 150.264C306.845 150.012 306.845 149.759 306.828 149.506C306.796 148.68 306.708 147.858 306.566 147.044C306.431 146.192 306.245 145.238 306.043 144.3C305.621 142.477 305.148 140.611 304.616 138.745C303.561 135.048 302.371 131.29 301.181 127.669L307.334 125.573Z" fill="#CE7A63"/>
<path d="M281.677 158.537L282.073 160.02C282.192 160.496 282.462 160.92 282.841 161.227C283.22 161.535 283.689 161.709 284.175 161.724L286.892 161.8L286.394 155.419L283.626 155.734C283.332 155.764 283.047 155.852 282.787 155.993C282.527 156.135 282.297 156.326 282.11 156.557C281.924 156.788 281.784 157.054 281.7 157.34C281.615 157.626 281.587 157.926 281.617 158.222C281.63 158.328 281.65 158.434 281.677 158.537Z" fill="#CE7A63"/>
<path d="M304.456 118.434C307.292 119.601 309.613 129.007 309.613 129.007L301.781 135.184C301.781 135.184 296.227 126.408 297.358 122.6C298.32 119.379 300.844 116.96 304.456 118.434Z" fill="#263238"/>
<path d="M334.73 272.305H334.629C334.487 272.295 334.351 272.249 334.231 272.172C334.112 272.094 334.013 271.988 333.945 271.862C333.895 271.789 333.865 271.705 333.857 271.616C333.85 271.528 333.866 271.439 333.903 271.359C334.249 270.678 336.435 270.405 336.672 270.379C336.7 270.374 336.729 270.378 336.754 270.39C336.78 270.402 336.801 270.422 336.815 270.448C336.831 270.471 336.84 270.5 336.84 270.528C336.84 270.557 336.831 270.586 336.815 270.609C336.359 271.231 335.473 272.254 334.73 272.305ZM336.376 270.712C335.532 270.839 334.342 271.121 334.173 271.495C334.153 271.527 334.142 271.564 334.142 271.602C334.142 271.64 334.153 271.677 334.173 271.708C334.213 271.796 334.276 271.871 334.355 271.925C334.434 271.979 334.526 272.01 334.621 272.015C335.043 272.015 335.718 271.555 336.393 270.712H336.376Z" fill="#263238"/>
<path d="M336.57 270.652C335.836 270.652 334.367 270.388 334.038 269.8C333.986 269.698 333.969 269.581 333.991 269.468C334.012 269.356 334.07 269.253 334.156 269.178C334.231 269.096 334.322 269.031 334.425 268.988C334.527 268.945 334.637 268.926 334.747 268.931C335.633 268.931 336.756 270.303 336.79 270.379C336.803 270.4 336.809 270.423 336.809 270.448C336.809 270.472 336.803 270.495 336.79 270.516C336.783 270.541 336.769 270.563 336.749 270.58C336.73 270.597 336.706 270.607 336.68 270.609L336.57 270.652ZM334.697 269.238C334.578 269.249 334.467 269.304 334.384 269.391C334.258 269.527 334.283 269.613 334.317 269.681C334.511 270.056 335.667 270.362 336.41 270.362C335.987 269.826 335.413 269.431 334.764 269.229L334.697 269.238Z" fill="#263238"/>
<path d="M253.765 278.84C253.296 278.685 252.886 278.388 252.592 277.988C252.525 277.87 252.485 277.739 252.473 277.603C252.461 277.468 252.479 277.332 252.525 277.204C252.548 277.13 252.59 277.064 252.646 277.012C252.702 276.959 252.771 276.923 252.845 276.906C253.622 276.761 255.453 278.746 255.808 279.146C255.825 279.172 255.834 279.201 255.834 279.232C255.834 279.262 255.825 279.292 255.808 279.317C255.794 279.344 255.771 279.365 255.744 279.377C255.716 279.39 255.685 279.392 255.656 279.385C255.009 279.268 254.376 279.086 253.765 278.84ZM253.183 277.238C253.097 277.196 253 277.178 252.905 277.187C252.905 277.187 252.829 277.187 252.795 277.289C252.761 277.378 252.748 277.473 252.757 277.568C252.765 277.662 252.796 277.754 252.845 277.834C253.107 278.294 254.01 278.729 255.293 279.01C254.691 278.313 253.985 277.715 253.2 277.238H253.183Z" fill="#263238"/>
<path d="M255.648 279.368H255.597C254.981 278.746 253.976 276.88 254.323 276.284C254.398 276.156 254.559 276.02 254.922 276.122C256.281 276.522 255.867 279.181 255.842 279.291C255.842 279.319 255.831 279.346 255.813 279.367C255.794 279.387 255.768 279.4 255.74 279.402C255.723 279.406 255.706 279.405 255.689 279.398C255.673 279.392 255.658 279.382 255.648 279.368ZM254.972 276.394H254.888C254.753 276.352 254.652 276.394 254.618 276.394C254.415 276.744 255.065 278.15 255.656 278.899C255.648 278.243 255.732 276.735 254.972 276.394Z" fill="#263238"/>
<path d="M281.12 91.928C281.12 91.928 277.744 97.6278 280.276 100.124C282.808 102.621 283.55 93.7683 283.55 93.7683L281.12 91.928Z" fill="#263238"/>
<path d="M296.801 105.304C296.801 105.304 301.021 98.6417 299.266 92.0217C297.51 85.4016 289.306 89.6787 285.846 87.8639C284.578 87.086 283.228 86.4544 281.82 85.981C281.594 85.9133 281.355 85.8989 281.123 85.9387C280.89 85.9786 280.67 86.0718 280.478 86.211C279.634 86.9608 281.103 88.3666 281.558 88.8948C281.278 88.5675 280.954 88.2808 280.596 88.0428C280.149 87.7446 279.55 87.7191 279.752 88.4773C280.099 89.2921 280.721 89.9563 281.508 90.3518C281.179 90.1643 279.229 89.1675 279.094 89.7894C279.077 89.9402 279.116 90.092 279.204 90.2154C280.47 92.601 283.019 95.6001 285.956 95.6597C289.492 95.7108 292.868 105.756 296.801 105.304Z" fill="#263238"/>
<path d="M298.295 105.603C298.075 107.852 294.767 107.877 294.767 107.877C294.225 109.165 293.325 110.266 292.176 111.047C292.074 112.405 292.119 113.771 292.311 115.119C292.868 117.241 293.577 117.974 294.463 118.451L293.754 119.158C292.397 119.948 290.864 120.379 289.298 120.41L288.369 119.865L287.154 120.061C283.778 118.945 284.622 116.653 284.622 116.653C285.238 115.097 285.271 113.367 284.715 111.788C281.474 110.766 280.149 107.92 279.693 103.132C279.237 98.3435 281.904 93.7598 281.904 93.7598C285.567 97.3296 292.826 95.0378 292.826 95.0378C292.514 101.752 295.619 104.231 295.619 104.231C296.641 103.311 298.506 103.362 298.295 105.603Z" fill="#CE7A63"/>
<path d="M286.513 106.216C287.384 105.97 288.137 105.413 288.631 104.648C288.671 104.588 288.686 104.514 288.674 104.443C288.661 104.371 288.622 104.308 288.564 104.265C288.535 104.243 288.502 104.228 288.467 104.219C288.433 104.211 288.397 104.209 288.361 104.215C288.326 104.22 288.292 104.233 288.262 104.252C288.231 104.27 288.205 104.295 288.184 104.325C287.899 104.841 287.458 105.253 286.925 105.498C286.391 105.743 285.795 105.81 285.221 105.688C285.153 105.666 285.079 105.673 285.016 105.707C284.953 105.74 284.905 105.798 284.884 105.867C284.862 105.937 284.869 106.012 284.902 106.078C284.935 106.143 284.992 106.193 285.061 106.216C285.537 106.342 286.037 106.342 286.513 106.216Z" fill="#263238"/>
<path d="M287.475 100.354C287.475 100.789 287.306 101.164 287.019 101.206C286.732 101.249 286.47 100.891 286.437 100.456C286.403 100.022 286.614 99.6045 286.901 99.6045C287.188 99.6045 287.441 99.9112 287.475 100.354Z" fill="#263238"/>
<path d="M282.31 100.133C282.31 100.567 282.141 100.942 281.854 100.985C281.567 101.027 281.314 100.669 281.28 100.235C281.246 99.8004 281.449 99.4256 281.736 99.383C282.023 99.3404 282.284 99.6897 282.31 100.133Z" fill="#263238"/>
<path d="M283.677 104.35L283.618 101.198L282.065 103.856C282.279 104.055 282.536 104.203 282.815 104.289C283.094 104.374 283.389 104.395 283.677 104.35Z" fill="#BA4D3C"/>
<path d="M289.83 97.696C289.866 97.6859 289.901 97.6685 289.931 97.6449C289.972 97.6204 290.008 97.5878 290.036 97.549C290.065 97.5102 290.085 97.4659 290.096 97.419C290.107 97.372 290.109 97.3233 290.101 97.2757C290.093 97.2282 290.075 97.1827 290.049 97.1422C289.768 96.6666 289.36 96.2803 288.872 96.0272C288.384 95.7742 287.836 95.6646 287.289 95.7108C287.242 95.716 287.196 95.7309 287.154 95.7545C287.112 95.7781 287.076 95.8099 287.047 95.8481C287.018 95.8863 286.996 95.9301 286.984 95.9768C286.972 96.0235 286.97 96.0721 286.977 96.1198C286.989 96.2157 287.039 96.3027 287.115 96.3617C287.191 96.4208 287.287 96.4471 287.382 96.435C287.79 96.4094 288.197 96.4975 288.559 96.6899C288.921 96.8822 289.223 97.1714 289.433 97.5256C289.472 97.5931 289.532 97.646 289.603 97.6767C289.675 97.7074 289.754 97.7141 289.83 97.696Z" fill="#263238"/>
<path d="M280.672 97.3467C280.767 97.3217 280.849 97.2607 280.9 97.1763C281.051 96.9452 281.266 96.7635 281.518 96.6531C281.769 96.5427 282.047 96.5084 282.318 96.5543C282.365 96.5642 282.413 96.5644 282.459 96.5551C282.506 96.5458 282.551 96.527 282.59 96.5C282.629 96.4729 282.663 96.4382 282.689 96.3977C282.714 96.3573 282.732 96.312 282.74 96.2647C282.757 96.1698 282.737 96.0719 282.683 95.9921C282.629 95.9124 282.547 95.8572 282.453 95.8387C282.035 95.7605 281.604 95.8114 281.216 95.9847C280.827 96.158 280.499 96.4456 280.275 96.8099C280.228 96.894 280.215 96.9933 280.239 97.0869C280.262 97.1806 280.321 97.2614 280.402 97.3126C280.485 97.3573 280.581 97.3694 280.672 97.3467Z" fill="#263238"/>
<path d="M295.839 118.749L294.024 120.538L290.792 123.742L289.576 121.791L288.369 119.865L292.589 114.787L295.662 118.536L295.839 118.749Z" fill="white"/>
<path d="M288.369 119.865L287.433 121.441L286.057 123.742L282.9 117.991L284.918 115.597L288.369 119.865Z" fill="white"/>
</g>
<defs>
<linearGradient id="paint0_linear_742_229" x1="367.469" y1="148.616" x2="135.009" y2="148.616" gradientUnits="userSpaceOnUse">
<stop stop-color="#4E5FFF"/>
<stop offset="0.494792" stop-color="#006DD1"/>
<stop offset="0.947917" stop-color="#0086D1"/>
</linearGradient>
<linearGradient id="paint1_linear_742_229" x1="188.752" y1="173.298" x2="66.7552" y2="173.298" gradientUnits="userSpaceOnUse">
<stop stop-color="#4E5FFF"/>
<stop offset="0.494792" stop-color="#006DD1"/>
<stop offset="0.947917" stop-color="#0086D1"/>
</linearGradient>
<linearGradient id="paint2_linear_742_229" x1="189.267" y1="185.366" x2="130.834" y2="185.366" gradientUnits="userSpaceOnUse">
<stop stop-color="#4E5FFF"/>
<stop offset="0.494792" stop-color="#006DD1"/>
<stop offset="0.947917" stop-color="#0086D1"/>
</linearGradient>
<linearGradient id="paint3_linear_742_229" x1="134.719" y1="212.247" x2="38.8194" y2="212.247" gradientUnits="userSpaceOnUse">
<stop stop-color="#4E5FFF"/>
<stop offset="0.494792" stop-color="#006DD1"/>
<stop offset="0.947917" stop-color="#0086D1"/>
</linearGradient>
<linearGradient id="paint4_linear_742_229" x1="295.687" y1="213.27" x2="261.547" y2="213.27" gradientUnits="userSpaceOnUse">
<stop stop-color="#4E5FFF"/>
<stop offset="0.494792" stop-color="#006DD1"/>
<stop offset="0.947917" stop-color="#0086D1"/>
</linearGradient>
<linearGradient id="paint5_linear_742_229" x1="337.186" y1="208.796" x2="286.859" y2="208.796" gradientUnits="userSpaceOnUse">
<stop stop-color="#4E5FFF"/>
<stop offset="0.494792" stop-color="#006DD1"/>
<stop offset="0.947917" stop-color="#0086D1"/>
</linearGradient>
<linearGradient id="paint6_linear_742_229" x1="300.026" y1="155.703" x2="298.665" y2="155.703" gradientUnits="userSpaceOnUse">
<stop stop-color="#4E5FFF"/>
<stop offset="0.494792" stop-color="#006DD1"/>
<stop offset="0.947917" stop-color="#0086D1"/>
</linearGradient>
<linearGradient id="paint7_linear_742_229" x1="280.107" y1="155.971" x2="278.701" y2="155.971" gradientUnits="userSpaceOnUse">
<stop stop-color="#4E5FFF"/>
<stop offset="0.494792" stop-color="#006DD1"/>
<stop offset="0.947917" stop-color="#0086D1"/>
</linearGradient>
<linearGradient id="paint8_linear_742_229" x1="290.075" y1="155.809" x2="288.669" y2="155.809" gradientUnits="userSpaceOnUse">
<stop stop-color="#4E5FFF"/>
<stop offset="0.494792" stop-color="#006DD1"/>
<stop offset="0.947917" stop-color="#0086D1"/>
</linearGradient>
<linearGradient id="paint9_linear_742_229" x1="286.099" y1="145.857" x2="247.57" y2="145.857" gradientUnits="userSpaceOnUse">
<stop stop-color="#4E5FFF"/>
<stop offset="0.494792" stop-color="#006DD1"/>
<stop offset="0.947917" stop-color="#0086D1"/>
</linearGradient>
<linearGradient id="paint10_linear_742_229" x1="284.099" y1="142.235" x2="275.058" y2="143.502" gradientUnits="userSpaceOnUse">
<stop stop-color="#4E5FFF"/>
<stop offset="0.494792" stop-color="#006DD1"/>
<stop offset="0.947917" stop-color="#0086D1"/>
</linearGradient>
<clipPath id="clip0_742_229">
<rect width="422" height="355" fill="white"/>
</clipPath>
</defs>
</svg>
